<svg width="25" height="25" viewBox="0 0 25 25" fill="none" xmlns="http://www.w3.org/2000/svg">
<path d="M12.5 2.5835C7 2.5835 2.5 7.0735 2.5 12.6035C2.5 17.6035 6.16 21.7535 10.94 22.5035V15.5035H8.4V12.6035H10.94V10.3935C10.94 7.8835 12.43 6.5035 14.72 6.5035C15.81 6.5035 16.95 6.6935 16.95 6.6935V9.1635H15.69C14.45 9.1635 14.06 9.9335 14.06 10.7235V12.6035H16.84L16.39 15.5035H14.06V22.5035C16.4164 22.1313 18.5622 20.929 20.1099 19.1136C21.6576 17.2981 22.5054 14.9891 22.5 12.6035C22.5 7.0735 18 2.5835 12.5 2.5835Z" fill="#413268"/>
</svg>
