<svg width="25" height="25" viewBox="0 0 25 25" fill="none" xmlns="http://www.w3.org/2000/svg">
<path d="M22.96 6.54346C22.19 6.89346 21.36 7.12346 20.5 7.23346C21.38 6.70346 22.06 5.86346 22.38 4.85346C21.55 5.35346 20.63 5.70346 19.66 5.90346C18.87 5.04346 17.76 4.54346 16.5 4.54346C14.15 4.54346 12.23 6.46346 12.23 8.83346C12.23 9.17346 12.27 9.50346 12.34 9.81346C8.77998 9.63346 5.60998 7.92346 3.49998 5.33346C3.12998 5.96346 2.91998 6.70346 2.91998 7.48346C2.91998 8.97346 3.66998 10.2935 4.82998 11.0435C4.11998 11.0435 3.45998 10.8435 2.87998 10.5435V10.5735C2.87998 12.6535 4.35998 14.3935 6.31998 14.7835C5.69071 14.9557 5.03007 14.9796 4.38998 14.8535C4.66158 15.7059 5.19351 16.4519 5.91099 16.9864C6.62847 17.5209 7.49543 17.8171 8.38998 17.8335C6.87361 19.0339 4.99397 19.6828 3.05998 19.6735C2.71998 19.6735 2.37998 19.6535 2.03998 19.6135C3.93998 20.8335 6.19998 21.5435 8.61998 21.5435C16.5 21.5435 20.83 15.0035 20.83 9.33346C20.83 9.14346 20.83 8.96346 20.82 8.77346C21.66 8.17346 22.38 7.41346 22.96 6.54346Z" fill="#413268"/>
</svg>
