<svg xmlns="http://www.w3.org/2000/svg" xmlns:xlink="http://www.w3.org/1999/xlink" viewBox="0 0 561.59 156.46"><defs><style>.cls-1{fill:none;}.cls-2{clip-path:url(#clip-path);}.cls-3{font-size:130.6px;}.cls-3,.cls-6,.cls-8{fill:#654ea3;}.cls-3,.cls-8{font-family:FiraSans-Heavy, Fira Sans;font-weight:800;}.cls-4{letter-spacing:-0.01em;}.cls-5{letter-spacing:0.05em;}.cls-7{fill:#fff;}.cls-8{font-size:22.1px;letter-spacing:0.05em;}.cls-9{letter-spacing:0em;}</style><clipPath id="clip-path" transform="translate(-47.53)"><rect class="cls-1" y="3.4" width="627" height="151.64"/></clipPath></defs><title>Asset 2</title><g id="Layer_2" data-name="Layer 2"><g id="Layer_1-2" data-name="Layer 1"><g class="cls-2"><text class="cls-3" transform="translate(0.65 110.75)">sou<tspan class="cls-4" x="214.58" y="0">rc</tspan><tspan x="328.33" y="0">e</tspan><tspan class="cls-5" x="401.08" y="0">r</tspan><tspan x="461.15" y="0">y</tspan></text></g><polygon class="cls-6" points="181.38 3.4 178.21 13.46 181.38 23.51 184.71 13.46 181.38 3.4"/><polygon class="cls-6" points="181.46 10.21 171.41 13.37 181.46 16.7 191.52 13.37 181.46 10.21"/><polygon class="cls-6" points="166.79 25.59 169.12 33.01 171.58 25.59 169.12 18.18 166.79 25.59"/><polygon class="cls-6" points="169.19 23.2 161.77 25.53 169.19 27.99 176.6 25.53 169.19 23.2"/><polygon class="cls-6" points="183.31 30.19 184.83 35.01 186.43 30.19 184.83 25.37 183.31 30.19"/><polygon class="cls-6" points="184.87 28.63 180.05 30.15 184.87 31.75 189.69 30.15 184.87 28.63"/><g class="cls-2"><path class="cls-7" d="M559.12,98.67s-6,0-6,6v13s0,6,6,6h44s6,0,6-6v-13s0-6-6-6Z" transform="translate(-47.53)"/></g><text class="cls-8" transform="translate(508.3 119.19)">bet<tspan class="cls-9" x="37.72" y="0">a</tspan></text></g></g></svg>