<svg xmlns="http://www.w3.org/2000/svg" xmlns:xlink="http://www.w3.org/1999/xlink" viewBox="0 0 624 96.45"><defs><clipPath id="a" transform="translate(0 -23.27)"><rect y="10.75" width="623.98" height="119.48" style="fill:none"/></clipPath></defs><title>beta-primary-brian</title><g style="clip-path:url(#a)"><path d="M13.57,27.85H106s16.5,27.5,13.75,56.4S62,111.09,62,111.09,1.47,113.14.09,84.25s13.48-56.4,13.48-56.4" transform="translate(0 -23.27)" style="fill:#654ea3"/><path d="M60.17,30.83c29.88,0,54.11-1.69,54.11-3.78s-24.23-3.78-54.11-3.78S6.05,25,6.05,27.05s24.23,3.78,54.12,3.78" transform="translate(0 -23.27)" style="fill:#654ea3"/><path d="M12.34,104.55c3.74-2.92,5.73-6.63,4.45-8.27s-5.37-.61-9.11,2.31S2,105.22,3.23,106.87s5.37.61,9.11-2.32" transform="translate(0 -23.27)" style="fill:#654ea3"/><path d="M112.08,98.59c3.74,2.92,5.74,6.63,4.45,8.27s-5.36.61-9.11-2.31-5.73-6.63-4.44-8.27,5.36-.62,9.1,2.31" transform="translate(0 -23.27)" style="fill:#654ea3"/><path d="M25.54,29.44H93.86S106.06,53.27,104,78.3s-42.69,23.24-42.69,23.24S16.6,103.32,15.58,78.3s10-48.86,10-48.86" transform="translate(0 -23.27)" style="fill:#fff"/><path d="M63.66,111.12c0,4.75-1.69,8.6-3.78,8.6s-3.78-3.85-3.78-8.6,1.69-8.6,3.78-8.6,3.78,3.85,3.78,8.6" transform="translate(0 -23.27)" style="fill:#654ea3"/></g><polygon points="66.55 31.65 72.38 50.17 78.52 31.65 72.38 13.14 66.55 31.65" style="fill:#654ea3"/><polygon points="72.54 25.67 54.02 31.5 72.54 37.64 91.05 31.5 72.54 25.67" style="fill:#654ea3"/><polygon points="45.52 54 49.82 67.65 54.34 54 49.82 40.35 45.52 54" style="fill:#654ea3"/><polygon points="49.93 49.59 36.28 53.89 49.93 58.41 63.59 53.89 49.93 49.59" style="fill:#654ea3"/><polygon points="75.93 62.46 78.73 71.34 81.67 62.46 78.73 53.59 75.93 62.46" style="fill:#654ea3"/><polygon points="78.8 59.59 69.93 62.39 78.8 65.33 87.68 62.39 78.8 59.59" style="fill:#654ea3"/><g style="clip-path:url(#a)"><g style="isolation:isolate"><g style="isolation:isolate"><path d="M190.43,40l-6.36,9.87a25.68,25.68,0,0,0-13.82-4.6c-5.27,0-7.58,1.75-7.58,4.38,0,3.08,1.54,4.39,12,7.47,11.52,3.29,18,8.11,18,18.54,0,12.06-11.41,19.2-25.9,19.2-10.09,0-18.65-3.52-24.35-8.67l8.56-9.55a24.36,24.36,0,0,0,15.25,5.82c5.37,0,8.55-2,8.55-5.38,0-4.06-1.75-5.26-12.28-8.23-11.52-3.29-17.23-9.21-17.23-18.21,0-10,9.11-17.77,23.81-17.77A33.86,33.86,0,0,1,190.43,40Z" transform="translate(0 -23.27)" style="fill:#654ea3"/><path d="M255.27,64c0,18.65-10.75,30.94-28.53,30.94s-28.52-11.41-28.52-31.05c0-18.65,10.75-30.94,28.52-30.94S255.27,44.32,255.27,64Zm-39.06-.11c0,12.94,3.51,18.32,10.53,18.32s10.54-5.6,10.54-18.21c0-13-3.51-18.32-10.54-18.32S216.21,51.23,216.21,63.85Z" transform="translate(0 -23.27)" style="fill:#654ea3"/><path d="M299.7,93l-.77-7.35a20.17,20.17,0,0,1-17.66,9.22c-10.86,0-16.24-7-16.24-18.33V34.77h17.34V74.38c0,5.92,2,7.68,5.59,7.68s6.91-2.41,9.44-6.8V34.77h17.33V93Z" transform="translate(0 -23.27)" style="fill:#654ea3"/></g><g style="isolation:isolate"><path d="M366.18,33.9l-2.74,16.78a21,21,0,0,0-5.27-.77c-7.24,0-10.2,5.38-12.06,14.27V93H328.77V34.77h15.14l1.43,11.3c2.63-8.11,8.34-12.94,15-12.94A19.54,19.54,0,0,1,366.18,33.9Z" transform="translate(0 -23.27)" style="fill:#654ea3"/><path d="M415.77,40,408.2,50.46c-3.62-3-7-4.28-11-4.28-7.46,0-11.74,5-11.74,18.11S390.1,81.18,397,81.18c4.17,0,7-1.31,10.86-4.28L415.77,88a30.29,30.29,0,0,1-19.64,6.92c-17.88,0-28.85-12.07-28.85-30.5s11.08-31.49,28.52-31.49A29.27,29.27,0,0,1,415.77,40Z" transform="translate(0 -23.27)" style="fill:#654ea3"/></g><g style="isolation:isolate"><path d="M474.79,69h-36.1c1.21,10.43,6.15,13.28,13.28,13.28,4.72,0,8.89-1.65,13.93-5.16L473,86.78a35.84,35.84,0,0,1-22.71,8.12C430.9,94.9,421,82.39,421,64.18c0-17.45,9.55-31.27,27.21-31.27,16.68,0,26.88,11,26.88,29.84A57.8,57.8,0,0,1,474.79,69ZM458.11,57.81c-.11-7.9-2.52-13.38-9.43-13.38-5.82,0-9.22,3.73-10,14.15h19.42Z" transform="translate(0 -23.27)" style="fill:#654ea3"/></g><g style="isolation:isolate"><path d="M522.83,33.9l-2.74,16.78a21,21,0,0,0-5.27-.77c-7.24,0-10.2,5.38-12.06,14.27V93H485.42V34.77h15.14L502,46.07c2.63-8.11,8.34-12.94,15-12.94A19.54,19.54,0,0,1,522.83,33.9Z" transform="translate(0 -23.27)" style="fill:#654ea3"/></g><g style="isolation:isolate"><path d="M535.23,117.39l-1.86-12.18c11.41-1.43,15.58-4.72,18.76-12.18h-5.92L528.43,34.77h18.43L557.29,82,568.7,34.77h17.88L568,93.14C563.43,107.84,553.56,116.4,535.23,117.39Z" transform="translate(0 -23.27)" style="fill:#654ea3"/></g></g><path d="M574,77.09s-6,0-6,6v13s0,6,6,6h44s6,0,6-6v-13s0-6-6-6Z" transform="translate(0 -23.27)" style="fill:#fff"/></g><g style="isolation:isolate"><g style="isolation:isolate"><path d="M583.06,91.76c0,3.63-1.74,6.24-4.66,6.24a3.77,3.77,0,0,1-3.07-1.51l-.18,1.13h-3.09V81.23l3.49-.38v6.23a3.9,3.9,0,0,1,3.09-1.57C581.54,85.51,583.06,87.83,583.06,91.76Zm-3.62,0c0-3-.8-3.68-1.88-3.68a2.34,2.34,0,0,0-2,1.37v4.88a2.2,2.2,0,0,0,1.86,1.13C578.6,95.46,579.44,94.5,579.44,91.76Z" transform="translate(0 -23.27)" style="fill:#654ea3"/><path d="M596.52,92.78h-7.27c.25,2.1,1.24,2.68,2.68,2.68a4.77,4.77,0,0,0,2.8-1l1.44,1.94A7.2,7.2,0,0,1,591.59,98c-3.91,0-5.89-2.52-5.89-6.19,0-3.51,1.92-6.3,5.47-6.3,3.36,0,5.42,2.21,5.42,6A10.3,10.3,0,0,1,596.52,92.78Zm-3.36-2.25c0-1.59-.5-2.7-1.9-2.7-1.17,0-1.85.75-2,2.85h3.91Z" transform="translate(0 -23.27)" style="fill:#654ea3"/><path d="M603.88,98c-2.58,0-3.84-1.48-3.84-4.25V88.32h-1.66V85.89H600V83.35l3.49-.4v2.94h2.69l-.37,2.43h-2.32v5.39c0,1.13.37,1.52,1.1,1.52a2.35,2.35,0,0,0,1.26-.39l1.17,2.23A5.79,5.79,0,0,1,603.88,98Z" transform="translate(0 -23.27)" style="fill:#654ea3"/></g><g style="isolation:isolate"><path d="M619.9,95.65l-.73,2.28a2.94,2.94,0,0,1-2.83-1.7A4,4,0,0,1,612.81,98,3.55,3.55,0,0,1,609,94.33c0-2.57,1.95-4,5.51-4h1.19v-.5c0-1.4-.55-1.82-2-1.82a10.5,10.5,0,0,0-3.07.62l-.8-2.3a13.34,13.34,0,0,1,4.42-.86c3.41,0,4.86,1.44,4.86,4.16v4.55C619.1,95.12,619.35,95.46,619.9,95.65Zm-4.22-1.28V92.29h-.86c-1.59,0-2.37.56-2.37,1.73a1.31,1.31,0,0,0,1.37,1.48A2.09,2.09,0,0,0,615.68,94.37Z" transform="translate(0 -23.27)" style="fill:#654ea3"/></g></g></svg>