<svg xmlns="http://www.w3.org/2000/svg" xmlns:xlink="http://www.w3.org/1999/xlink" viewBox="0 0 560.16 136.34"><defs><clipPath id="a" transform="translate(-1.43 -3.4)"><rect x="-47.53" y="3.4" width="627" height="151.64" style="fill:none"/></clipPath></defs><title>beta-wordmark-brian</title><g style="clip-path:url(#a)"><g style="isolation:isolate"><g style="isolation:isolate"><path d="M58.64,47.67,51.06,59.42C45.71,55.9,40,53.94,34.61,53.94c-6.27,0-9,2.09-9,5.22,0,3.66,1.83,5.23,14.24,8.88C53.54,72,61.25,77.71,61.25,90.12c0,14.36-13.58,22.85-30.82,22.85-12,0-22.21-4.18-29-10.32L11.62,91.29a29,29,0,0,0,18.15,6.92c6.4,0,10.19-2.35,10.19-6.4C40,87,37.87,85.54,25.33,82c-13.71-3.92-20.5-11-20.5-21.68,0-11.89,10.84-21.16,28.34-21.16C43.23,39.18,52.24,42.45,58.64,47.67Z" transform="translate(-1.43 -3.4)" style="fill:#654ea3"/><path d="M135.82,76.14c0,22.2-12.8,36.83-34,36.83S67.91,99.39,67.91,76c0-22.2,12.8-36.83,34-36.83S135.82,52.76,135.82,76.14ZM89.33,76c0,15.41,4.17,21.81,12.53,21.81s12.54-6.66,12.54-21.68c0-15.41-4.18-21.81-12.54-21.81S89.33,61,89.33,76Z" transform="translate(-1.43 -3.4)" style="fill:#654ea3"/><path d="M188.71,110.75,187.8,102c-5.1,7.31-11.89,11-21,11-12.93,0-19.33-8.36-19.33-21.81V41.4h20.64V88.55c0,7,2.35,9.14,6.66,9.14S183,94.82,186,89.59V41.4H206.6v69.35Z" transform="translate(-1.43 -3.4)" style="fill:#654ea3"/></g><g style="isolation:isolate"><path d="M267.86,40.36l-3.26,20a25.2,25.2,0,0,0-6.27-.92c-8.62,0-12.15,6.4-14.37,17v34.35H223.33V41.4h18l1.7,13.45c3.13-9.66,9.92-15.41,17.89-15.41A23.13,23.13,0,0,1,267.86,40.36Z" transform="translate(-1.43 -3.4)" style="fill:#654ea3"/><path d="M326.89,47.67l-9,12.41c-4.31-3.53-8.36-5.1-13.06-5.1-8.88,0-14,6-14,21.55s5.48,20.12,13.71,20.12c5,0,8.36-1.57,12.93-5.1l9.4,13.19A36,36,0,0,1,303.51,113c-21.28,0-34.34-14.37-34.34-36.31s13.19-37.48,33.95-37.48C312.79,39.18,320.23,42.05,326.89,47.67Z" transform="translate(-1.43 -3.4)" style="fill:#654ea3"/></g><g style="isolation:isolate"><path d="M397.15,82.15h-43C355.62,94.56,361.5,98,370,98c5.61,0,10.58-2,16.58-6.14l8.49,11.5A42.65,42.65,0,0,1,368,113c-23.12,0-34.87-14.89-34.87-36.57,0-20.76,11.36-37.22,32.39-37.22,19.85,0,32,13.06,32,35.52A69.67,69.67,0,0,1,397.15,82.15ZM377.3,68.83c-.13-9.41-3-15.94-11.23-15.94-6.92,0-11,4.44-11.88,16.85H377.3Z" transform="translate(-1.43 -3.4)" style="fill:#654ea3"/></g><g style="isolation:isolate"><path d="M454.36,40.36l-3.26,20a25.2,25.2,0,0,0-6.27-.92c-8.62,0-12.15,6.4-14.37,17v34.35H409.83V41.4h18l1.7,13.45c3.13-9.66,9.92-15.41,17.89-15.41A23.13,23.13,0,0,1,454.36,40.36Z" transform="translate(-1.43 -3.4)" style="fill:#654ea3"/></g><g style="isolation:isolate"><path d="M469.11,139.74l-2.22-14.49c13.59-1.7,18.55-5.62,22.34-14.5h-7.06L461,41.4H483l12.4,56.16L509,41.4h21.28l-22.07,69.48C502.68,128.38,490.92,138.57,469.11,139.74Z" transform="translate(-1.43 -3.4)" style="fill:#654ea3"/></g></g></g><polygon points="179.95 0 176.78 10.06 179.95 20.11 183.28 10.06 179.95 0" style="fill:#654ea3"/><polygon points="180.03 6.81 169.98 9.97 180.03 13.3 190.09 9.97 180.03 6.81" style="fill:#654ea3"/><polygon points="165.36 22.19 167.69 29.61 170.15 22.19 167.69 14.78 165.36 22.19" style="fill:#654ea3"/><polygon points="167.76 19.8 160.34 22.13 167.76 24.59 175.17 22.13 167.76 19.8" style="fill:#654ea3"/><polygon points="181.88 26.79 183.4 31.61 185 26.79 183.4 21.97 181.88 26.79" style="fill:#654ea3"/><polygon points="183.44 25.23 178.62 26.75 183.44 28.35 188.26 26.75 183.44 25.23" style="fill:#654ea3"/><g style="clip-path:url(#a)"><path d="M511.59,98.67s-6,0-6,6v13s0,6,6,6h44s6,0,6-6v-13s0-6-6-6Z" transform="translate(-1.43 -3.4)" style="fill:#fff"/></g><g style="isolation:isolate"><g style="isolation:isolate"><path d="M520.67,113.33c0,3.63-1.74,6.24-4.66,6.24a3.77,3.77,0,0,1-3.07-1.51l-.18,1.13h-3.09V102.8l3.49-.38v6.23a3.9,3.9,0,0,1,3.09-1.57C519.15,107.08,520.67,109.4,520.67,113.33Zm-3.62,0c0-3-.8-3.68-1.88-3.68a2.34,2.34,0,0,0-2,1.37v4.88A2.2,2.2,0,0,0,515,117C516.21,117,517.05,116.08,517.05,113.33Z" transform="translate(-1.43 -3.4)" style="fill:#654ea3"/><path d="M534.13,114.35h-7.27c.25,2.1,1.24,2.68,2.68,2.68a4.77,4.77,0,0,0,2.8-1l1.44,1.94a7.21,7.21,0,0,1-4.57,1.64c-3.92,0-5.9-2.52-5.9-6.19,0-3.51,1.92-6.3,5.48-6.3,3.35,0,5.41,2.21,5.41,6A10.3,10.3,0,0,1,534.13,114.35Zm-3.36-2.25c0-1.59-.5-2.7-1.9-2.7-1.17,0-1.85.75-2,2.85h3.91Z" transform="translate(-1.43 -3.4)" style="fill:#654ea3"/><path d="M541.49,119.57c-2.58,0-3.84-1.48-3.84-4.25v-5.43H536v-2.43h1.66v-2.54l3.49-.4v2.94h2.69l-.37,2.43h-2.32v5.39c0,1.13.37,1.52,1.1,1.52a2.35,2.35,0,0,0,1.26-.39l1.17,2.23A5.79,5.79,0,0,1,541.49,119.57Z" transform="translate(-1.43 -3.4)" style="fill:#654ea3"/></g><g style="isolation:isolate"><path d="M557.51,117.22l-.73,2.28a2.94,2.94,0,0,1-2.83-1.7,4,4,0,0,1-3.53,1.77,3.55,3.55,0,0,1-3.83-3.67c0-2.57,1.95-4,5.51-4h1.19v-.5c0-1.4-.55-1.82-2-1.82a10.5,10.5,0,0,0-3.07.62l-.8-2.3a13.34,13.34,0,0,1,4.42-.86c3.41,0,4.86,1.44,4.86,4.16v4.55C556.71,116.69,557,117,557.51,117.22Zm-4.22-1.28v-2.07h-.86c-1.59,0-2.37.55-2.37,1.72a1.31,1.31,0,0,0,1.37,1.48A2.09,2.09,0,0,0,553.29,115.94Z" transform="translate(-1.43 -3.4)" style="fill:#654ea3"/></g></g></svg>