
   
<svg width="894" height="141" viewBox="0 0 894 141" fill="none" xmlns="http://www.w3.org/2000/svg">
<g clip-path="url(#clip0)">
<path d="M97.1625 52.2505L103.486 72.2382L110.131 52.2942L130.179 45.6767L110.095 39.3822L103.486 19.5563L97.197 39.424L77.2356 45.6767L97.1625 52.2505Z" fill="white"/>
<path d="M66.566 82.3722L71.2307 97.1066L76.1242 82.4016L90.9183 77.5305L76.096 72.8877L71.2307 58.2675L66.5932 72.916L51.8719 77.5305L66.566 82.3722Z" fill="white"/>
<path d="M109.527 92.7712L112.565 102.356L115.747 92.7904L125.361 89.6233L115.728 86.601L112.565 77.1037L109.546 86.6195L99.9829 89.6233L109.527 92.7712Z" fill="white"/>
<path fill-rule="evenodd" clip-rule="evenodd" d="M8.65065 6.24003C8.65065 7.18382 12.2784 8.07993 18.6342 8.86039C14.8434 16.3624 -1.61785 51.2201 0.129383 87.6174C0.542356 96.2201 4.66026 102.895 10.9141 108.071C5.61073 112.217 2.86755 117.461 4.61877 119.798C6.37736 122.146 12.2965 120.666 17.6438 116.498C18.6329 115.729 19.5365 114.922 20.3406 114.103C39.2538 123.597 66.5597 125.477 80.2095 125.791L80.2095 125.845C80.2095 132.603 82.6258 138.08 85.6139 138.08C88.6021 138.08 91.0184 132.603 91.0184 125.845C99.6915 125.905 130.249 125.285 151.078 114.3C151.833 115.052 152.672 115.791 153.584 116.498C158.946 120.652 164.765 122.117 166.609 119.784C168.444 117.463 165.622 112.225 160.327 108.081C166.292 102.903 170.39 96.2256 171.213 87.6174C174.674 51.4241 156.808 16.7742 152.48 8.99664C159.41 8.19088 163.392 7.24817 163.392 6.24003C163.392 3.26663 128.749 0.862305 86.0285 0.862305C43.3077 0.862305 8.65065 3.32354 8.65065 6.24003ZM86.0285 11.6178C104.418 11.6178 121.31 11.1723 134.587 10.4277C137.148 15.7061 151.377 46.7212 148.694 79.1524C145.749 114.762 87.6585 112.215 87.6585 112.215C87.6585 112.215 23.7345 114.748 22.2762 79.1524C20.9404 46.5497 34.0459 15.3553 36.2591 10.3403C49.7129 11.1336 67.0748 11.6178 86.0285 11.6178Z" fill="white"/>
</g>
<path fill-rule="evenodd" clip-rule="evenodd" d="M262.092 19.6681C256.404 17.6668 250.453 16.6661 244.238 16.6661C236.549 16.6661 229.913 17.8775 224.33 20.3001C218.853 22.7228 214.639 25.9881 211.69 30.0961C208.846 34.2041 207.424 38.8388 207.424 44.0001C207.424 57.3775 215.587 66.4888 231.914 71.3341C237.181 72.9141 240.867 74.1255 242.974 74.9681C245.081 75.7055 246.45 76.4955 247.082 77.3381C247.819 78.0755 248.188 79.1815 248.188 80.6561C248.188 82.3415 247.398 83.6581 245.818 84.6061C244.343 85.4488 242.184 85.8701 239.34 85.8701C235.653 85.8701 231.914 85.1328 228.122 83.6581C224.435 82.0781 221.012 80.0241 217.852 77.4961L203 93.9281C207.424 98.1415 212.849 101.459 219.274 103.882C225.805 106.199 232.757 107.358 240.13 107.358C247.819 107.358 254.666 106.147 260.67 103.724C266.779 101.301 271.519 97.8781 274.89 93.4541C278.366 89.0301 280.104 83.9741 280.104 78.2861C280.104 70.9128 278.05 65.2248 273.942 61.2221C269.939 57.1141 263.725 53.7435 255.298 51.1101C250.031 49.5301 246.187 48.2661 243.764 47.3181C241.447 46.2648 239.972 45.4221 239.34 44.7901C238.708 44.0528 238.392 43.1575 238.392 42.1041C238.392 39.5761 240.762 38.3121 245.502 38.3121C248.873 38.3121 252.296 38.8915 255.772 40.0501C259.248 41.1035 262.513 42.5781 265.568 44.4741L276.628 27.5681C272.731 24.1975 267.885 21.5641 262.092 19.6681ZM361.184 28.5161C353.495 20.6161 342.909 16.6661 329.426 16.6661C320.578 16.6661 312.889 18.5095 306.358 22.1961C299.827 25.8828 294.771 31.1495 291.19 37.9961C287.714 44.8428 285.976 52.7955 285.976 61.8541C285.976 76.3901 289.821 87.6081 297.51 95.5081C305.305 103.408 315.943 107.358 329.426 107.358C338.274 107.358 345.963 105.515 352.494 101.828C359.025 98.1415 364.028 92.8748 367.504 86.0281C371.085 79.1815 372.876 71.2288 372.876 62.1701C372.876 47.6341 368.979 36.4161 361.184 28.5161ZM320.736 44.4741C322.527 40.8928 325.423 39.1021 329.426 39.1021C333.429 39.1021 336.325 40.8928 338.116 44.4741C339.907 47.9501 340.802 53.8488 340.802 62.1701C340.802 70.1755 339.907 75.9688 338.116 79.5501C336.325 83.1315 333.429 84.9221 329.426 84.9221C325.423 84.9221 322.527 83.1841 320.736 79.7081C318.945 76.1268 318.05 70.1755 318.05 61.8541C318.05 53.8488 318.945 48.0555 320.736 44.4741ZM456.771 104.198H429.437L428.331 95.0341C422.538 103.25 414.217 107.358 403.367 107.358C395.467 107.358 389.569 104.988 385.671 100.248C381.774 95.5081 379.825 88.9248 379.825 80.4981V19.8261H411.109V76.3901C411.109 79.4448 411.531 81.6041 412.373 82.8681C413.321 84.0268 414.638 84.6061 416.323 84.6061C417.798 84.6061 419.325 84.0268 420.905 82.8681C422.591 81.7095 424.118 79.9715 425.487 77.6541V19.8261H456.771V104.198ZM529.832 18.5621C526.882 17.6141 524.038 17.1401 521.3 17.1401C516.665 17.1401 512.399 18.8255 508.502 22.1961C504.604 25.5668 501.76 30.0435 499.97 35.6261L497.442 19.8261H470.108V104.198H501.392V65.8041C502.761 59.6948 504.552 55.1128 506.764 52.0581C509.081 49.0035 512.557 47.4761 517.192 47.4761C519.509 47.4761 522.09 47.8975 524.934 48.7401L529.832 18.5621ZM573.306 16.6661C585.314 16.6661 595.532 20.4055 603.958 27.8841L591.002 46.0541C586.157 42.1568 581.206 40.2081 576.15 40.2081C571.305 40.2081 567.724 41.8935 565.406 45.2641C563.089 48.6348 561.93 54.4281 561.93 62.6441C561.93 70.5441 563.089 75.9688 565.406 78.9181C567.829 81.7621 571.305 83.1841 575.834 83.1841C578.257 83.1841 580.522 82.8155 582.628 82.0781C584.735 81.2355 587.368 79.8135 590.528 77.8121L603.958 96.9301C595.426 103.882 585.472 107.358 574.096 107.358C564.932 107.358 556.98 105.515 550.238 101.828C543.497 98.0361 538.336 92.7695 534.754 86.0281C531.173 79.1815 529.382 71.3868 529.382 62.6441C529.382 53.7961 531.173 45.8961 534.754 38.9441C538.441 31.9921 543.602 26.5675 550.238 22.6701C556.874 18.6675 564.564 16.6661 573.306 16.6661ZM684.694 70.8601C685.115 66.8575 685.326 63.5395 685.326 60.9061C685.326 51.6368 683.588 43.6841 680.112 37.0481C676.741 30.4121 671.949 25.3561 665.734 21.8801C659.519 18.4041 652.251 16.6661 643.93 16.6661C634.977 16.6661 627.34 18.7201 621.02 22.8281C614.7 26.8308 609.907 32.3081 606.642 39.2601C603.482 46.1068 601.902 53.7435 601.902 62.1701C601.902 75.7581 605.747 86.7128 613.436 95.0341C621.125 103.25 632.449 107.358 647.406 107.358C660.362 107.358 671.949 103.197 682.166 94.8761L669.526 77.8121C665.839 80.3401 662.469 82.2361 659.414 83.5001C656.359 84.6588 653.357 85.2381 650.408 85.2381C645.352 85.2381 641.455 84.2901 638.716 82.3941C636.083 80.3928 634.345 76.5481 633.502 70.8601H684.694ZM652.146 40.5241C653.621 43.2628 654.411 47.1075 654.516 52.0581V53.1641H633.344C633.871 46.8441 634.977 42.4728 636.662 40.0501C638.453 37.6275 641.086 36.4161 644.562 36.4161C648.249 36.4161 650.777 37.7855 652.146 40.5241ZM744.993 17.1401C747.732 17.1401 750.576 17.6141 753.525 18.5621L748.627 48.7401C745.783 47.8975 743.202 47.4761 740.885 47.4761C736.25 47.4761 732.774 49.0035 730.457 52.0581C728.245 55.1128 726.454 59.6948 725.085 65.8041V104.198H693.801V19.8261H721.135L723.663 35.6261C725.454 30.0435 728.298 25.5668 732.195 22.1961C736.092 18.8255 740.358 17.1401 744.993 17.1401ZM823.206 90.7599L822.14 94.2233V90.8675L823.206 90.7599ZM825.121 84.5359L821.537 84.8979C818.473 85.2075 816.14 87.7873 816.14 90.8675V111.889C812.494 119.774 807.378 126.006 800.792 130.584C792.154 136.588 780.778 139.801 766.664 140.222L763.346 118.892C771.456 118.049 777.46 116.575 781.358 114.468C785.36 112.361 788.468 108.938 790.68 104.198H779.936L755.92 19.8261H789.1L799.686 85.0801L812.8 19.8261H845.032L825.121 84.5359Z" fill="white"/>
<path d="M833.632 97.3275C835.831 97.3275 837.497 98.1888 838.63 99.9115C839.764 101.612 840.33 104.014 840.33 107.12C840.33 108.978 840.036 110.644 839.446 112.118C838.88 113.591 838.041 114.747 836.93 115.586C835.842 116.424 834.55 116.844 833.054 116.844C832.08 116.844 831.184 116.64 830.368 116.232C829.575 115.846 828.906 115.302 828.362 114.6L828.124 116.164H822.14V90.8675L828.872 90.1875V99.6055C829.371 98.9255 830.051 98.3815 830.912 97.9735C831.774 97.5428 832.68 97.3275 833.632 97.3275ZM831.014 112.05C831.785 112.05 832.374 111.676 832.782 110.928C833.213 110.18 833.428 108.91 833.428 107.12C833.428 105.17 833.236 103.856 832.85 103.176C832.488 102.496 831.955 102.156 831.252 102.156C830.323 102.156 829.53 102.722 828.872 103.856V110.724C829.394 111.608 830.108 112.05 831.014 112.05Z" fill="white"/>
<path d="M859.936 106.848C859.936 107.414 859.891 108.128 859.8 108.99H848.784C848.965 110.214 849.339 111.041 849.906 111.472C850.495 111.88 851.334 112.084 852.422 112.084C853.057 112.084 853.702 111.959 854.36 111.71C855.017 111.438 855.743 111.03 856.536 110.486L859.256 114.158C857.057 115.948 854.564 116.844 851.776 116.844C848.557 116.844 846.121 115.96 844.466 114.192C842.811 112.401 841.984 110.044 841.984 107.12C841.984 105.306 842.324 103.663 843.004 102.19C843.707 100.694 844.738 99.5148 846.098 98.6535C847.458 97.7695 849.101 97.3275 851.028 97.3275C852.819 97.3275 854.383 97.7015 855.72 98.4495C857.057 99.1975 858.089 100.286 858.814 101.714C859.562 103.142 859.936 104.853 859.936 106.848ZM853.306 104.944C853.283 103.878 853.113 103.051 852.796 102.462C852.501 101.872 851.957 101.578 851.164 101.578C850.416 101.578 849.849 101.838 849.464 102.36C849.101 102.881 848.863 103.822 848.75 105.182H853.306V104.944Z" fill="white"/>
<path d="M874.816 115.28C874.113 115.778 873.252 116.164 872.232 116.436C871.234 116.708 870.282 116.844 869.376 116.844C867.132 116.821 865.466 116.198 864.378 114.974C863.312 113.727 862.78 111.891 862.78 109.466V102.564H860.604V98.0075H862.78V94.1995L869.512 93.4175V98.0075H873.592L872.912 102.564H869.512V109.398C869.512 110.191 869.636 110.758 869.886 111.098C870.135 111.415 870.486 111.574 870.94 111.574C871.506 111.574 872.073 111.415 872.64 111.098L874.816 115.28Z" fill="white"/>
<path d="M892.036 110.282C892.036 110.916 892.115 111.392 892.274 111.71C892.433 112.004 892.716 112.231 893.124 112.39L891.764 116.708C890.54 116.617 889.543 116.39 888.772 116.028C888.001 115.642 887.367 115.03 886.868 114.192C885.689 115.96 883.865 116.844 881.394 116.844C879.603 116.844 878.153 116.311 877.042 115.246C875.954 114.158 875.41 112.764 875.41 111.064C875.41 109.046 876.158 107.505 877.654 106.44C879.15 105.374 881.326 104.842 884.182 104.842H885.474V104.4C885.474 103.493 885.293 102.881 884.93 102.564C884.567 102.246 883.876 102.088 882.856 102.088C882.312 102.088 881.609 102.178 880.748 102.36C879.909 102.518 879.048 102.745 878.164 103.04L876.702 98.7555C877.813 98.3022 879.014 97.9508 880.306 97.7015C881.621 97.4522 882.811 97.3275 883.876 97.3275C886.732 97.3275 888.806 97.8828 890.098 98.9935C891.39 100.082 892.036 101.759 892.036 104.026V110.282ZM883.468 112.118C883.876 112.118 884.25 112.016 884.59 111.812C884.953 111.608 885.247 111.347 885.474 111.03V108.344H884.76C883.808 108.344 883.105 108.514 882.652 108.854C882.199 109.194 881.972 109.715 881.972 110.418C881.972 110.939 882.108 111.358 882.38 111.676C882.652 111.97 883.015 112.118 883.468 112.118Z" fill="white"/>
<defs>
<clipPath id="clip0">
<rect width="173" height="138" fill="white" transform="translate(0 0.222046)"/>
</clipPath>
</defs>
</svg>