<svg width="624" height="97" viewBox="0 0 624 97" fill="none" xmlns="http://www.w3.org/2000/svg">
<g clip-path="url(#clip0)">
<path d="M67.9574 36.1207L72.38 50.17L77.0276 36.1514L91.05 31.5L77.0026 27.0756L72.38 13.14L67.9815 27.105L54.02 31.5L67.9574 36.1207Z" fill="white"/>
<path d="M46.5574 57.2932L49.82 67.65L53.2427 57.3139L63.59 53.89L53.2229 50.6266L49.82 40.35L46.5764 50.6464L36.28 53.89L46.5574 57.2932Z" fill="white"/>
<path d="M76.6056 64.6027L78.73 71.34L80.9561 64.6161L87.68 62.39L80.9426 60.2656L78.73 53.59L76.6186 60.2786L69.93 62.39L76.6056 64.6027Z" fill="white"/>
<path fill-rule="evenodd" clip-rule="evenodd" d="M6.04999 3.78C6.04999 4.44338 8.58732 5.07326 13.0327 5.62184C10.3813 10.895 -1.13206 35.3964 0.0900052 60.98C0.378849 67.0269 3.25902 71.7183 7.63309 75.3567C3.92379 78.271 2.00514 81.9569 3.22999 83.6C4.45999 85.25 8.59999 84.21 12.34 81.28C13.0318 80.7399 13.6638 80.1727 14.2262 79.5966C27.4546 86.2698 46.553 87.5913 56.1 87.812L56.1 87.85C56.1 92.6 57.79 96.45 59.88 96.45C61.97 96.45 63.66 92.6 63.66 87.85C69.7262 87.8924 91.0989 87.4563 105.667 79.7351C106.195 80.2635 106.782 80.7832 107.42 81.28C111.17 84.2 115.24 85.23 116.53 83.59C117.814 81.9582 115.84 78.277 112.136 75.3638C116.308 71.7243 119.174 67.0307 119.75 60.98C122.171 35.5398 109.675 11.1845 106.648 5.71762C111.495 5.15124 114.28 4.48861 114.28 3.78C114.28 1.69 90.05 0 60.17 0C30.29 0 6.04999 1.73 6.04999 3.78ZM60.17 7.56C73.0317 7.56 84.8466 7.24687 94.1328 6.72349C95.9243 10.4337 105.876 32.2342 104 55.03C101.94 80.06 61.31 78.27 61.31 78.27C61.31 78.27 16.6 80.05 15.58 55.03C14.6458 32.1136 23.8121 10.1871 25.36 6.6621C34.7699 7.2197 46.9133 7.56 60.17 7.56Z" fill="white"/>
<path d="M190.43 16.73L184.07 26.6C180.004 23.765 175.204 22.1674 170.25 22C164.98 22 162.67 23.75 162.67 26.38C162.67 29.46 164.21 30.77 174.67 33.85C186.19 37.14 192.67 41.96 192.67 52.39C192.67 64.45 181.26 71.59 166.77 71.59C156.68 71.59 148.12 68.07 142.42 62.92L150.98 53.37C155.243 57.006 160.629 59.0615 166.23 59.19C171.6 59.19 174.78 57.19 174.78 53.81C174.78 49.75 173.03 48.55 162.5 45.58C150.98 42.29 145.27 36.37 145.27 27.37C145.27 17.37 154.38 9.59999 169.08 9.59999C176.802 9.47243 184.335 11.9882 190.43 16.73Z" fill="white"/>
<path fill-rule="evenodd" clip-rule="evenodd" d="M226.74 71.67C244.52 71.67 255.27 59.38 255.27 40.73C255.27 21.05 244.51 9.67999 226.74 9.67999C208.97 9.67999 198.22 21.97 198.22 40.62C198.22 60.26 208.96 71.67 226.74 71.67ZM226.74 58.94C219.72 58.94 216.21 53.56 216.21 40.62V40.58C216.21 27.96 219.71 22.41 226.74 22.41C233.77 22.41 237.28 27.73 237.28 40.73C237.28 53.34 233.76 58.94 226.74 58.94Z" fill="white"/>
<path d="M299.7 69.73L298.93 62.38C297.036 65.3141 294.413 67.7063 291.318 69.3225C288.222 70.9387 284.76 71.7234 281.27 71.6C270.41 71.6 265.03 64.6 265.03 53.27V11.5H282.37V51.11C282.37 57.03 284.37 58.79 287.96 58.79C291.55 58.79 294.87 56.38 297.4 51.99V11.5H314.73V69.73H299.7Z" fill="white"/>
<path d="M363.44 27.41L366.18 10.63C364.283 10.0797 362.314 9.82009 360.34 9.86001C353.68 9.86001 347.97 14.69 345.34 22.8L343.91 11.5H328.77V69.73H346.11V40.91C347.97 32.02 350.93 26.64 358.17 26.64C359.952 26.672 361.723 26.9307 363.44 27.41Z" fill="white"/>
<path d="M415.77 16.73L408.2 27.19C404.58 24.19 401.2 22.91 397.2 22.91C389.74 22.91 385.46 27.91 385.46 41.02C385.46 54.13 390.1 57.91 397 57.91C401.17 57.91 404 56.6 407.86 53.63L415.77 64.73C410.247 69.2852 403.289 71.7368 396.13 71.65C378.25 71.65 367.28 59.58 367.28 41.15C367.28 22.72 378.36 9.65999 395.8 9.65999C403.106 9.44057 410.23 11.9626 415.77 16.73Z" fill="white"/>
<path fill-rule="evenodd" clip-rule="evenodd" d="M438.69 45.73H474.79C475.003 43.6536 475.103 41.5672 475.09 39.48C475.09 20.64 464.89 9.64 448.21 9.64C430.55 9.64 421 23.46 421 40.91C421 59.12 430.9 71.63 450.29 71.63C458.571 71.6282 466.595 68.7589 473 63.51L465.9 53.85C460.86 57.36 456.69 59.01 451.97 59.01C444.84 59.01 439.9 56.16 438.69 45.73ZM448.68 21.16C455.59 21.16 458 26.64 458.11 34.54L458.1 35.31H438.68C439.46 24.89 442.86 21.16 448.68 21.16Z" fill="white"/>
<path d="M522.83 10.63L520.09 27.41C518.373 26.9307 516.602 26.672 514.82 26.64C507.58 26.64 504.62 32.02 502.76 40.91V69.73H485.42V11.5H500.56L502 22.8C504.63 14.69 510.34 9.86001 517 9.86001C518.971 9.8211 520.937 10.0807 522.83 10.63Z" fill="white"/>
<path d="M535.23 94.12L533.37 81.94C544.78 80.51 548.95 77.22 552.13 69.76H546.21L528.43 11.5H546.86L557.29 58.73L568.7 11.5H586.58L573.08 53.9108C571.398 54.1872 568 55.3044 568 59.82V69.87C563.43 84.57 553.56 93.13 535.23 94.12Z" fill="white"/>
<path fill-rule="evenodd" clip-rule="evenodd" d="M583.06 68.49C583.06 72.12 581.32 74.73 578.4 74.73C577.805 74.7382 577.217 74.6057 576.684 74.3433C576.15 74.0809 575.686 73.696 575.33 73.22L575.15 74.35H572.06V57.96L575.55 57.58V63.81C575.909 63.3278 576.375 62.9352 576.911 62.6629C577.447 62.3905 578.039 62.2458 578.64 62.24C581.54 62.24 583.06 64.56 583.06 68.49ZM579.44 68.49C579.44 65.49 578.64 64.81 577.56 64.81C577.133 64.834 576.721 64.9743 576.369 65.2158C576.016 65.4573 575.736 65.7908 575.56 66.18V71.06C575.745 71.3935 576.014 71.673 576.34 71.8711C576.667 72.0692 577.039 72.1791 577.42 72.19C578.6 72.19 579.44 71.23 579.44 68.49Z" fill="white"/>
<path fill-rule="evenodd" clip-rule="evenodd" d="M589.25 69.51H596.52C596.57 69.0885 596.593 68.6644 596.59 68.24C596.59 64.45 594.53 62.24 591.17 62.24C587.62 62.24 585.7 65.03 585.7 68.54C585.7 72.21 587.68 74.73 591.59 74.73C593.256 74.7426 594.874 74.1771 596.17 73.13L594.73 71.19C593.927 71.8131 592.946 72.1635 591.93 72.19C590.49 72.19 589.5 71.61 589.25 69.51ZM591.26 64.56C592.66 64.56 593.16 65.67 593.16 67.26L593.17 67.41H589.26C589.41 65.31 590.09 64.56 591.26 64.56Z" fill="white"/>
<path d="M603.88 74.73C601.3 74.73 600.04 73.25 600.04 70.48V65.05H598.38V62.62H600V60.08L603.49 59.68V62.62H606.18L605.81 65.05H603.49V70.44C603.49 71.57 603.86 71.96 604.59 71.96C605.039 71.9529 605.476 71.8176 605.85 71.57L607.02 73.8C606.085 74.4057 604.994 74.7286 603.88 74.73Z" fill="white"/>
<path fill-rule="evenodd" clip-rule="evenodd" d="M619.17 74.66L619.9 72.38C619.35 72.19 619.1 71.85 619.11 70.91V66.36C619.11 63.64 617.66 62.2 614.25 62.2C612.739 62.2341 611.244 62.5249 609.83 63.06L610.63 65.36C611.617 65.001 612.651 64.792 613.7 64.74C615.15 64.74 615.7 65.16 615.7 66.56V67.06H614.51C610.95 67.06 609 68.49 609 71.06C608.982 71.5589 609.069 72.056 609.256 72.5189C609.443 72.9818 609.725 73.4001 610.085 73.7465C610.444 74.0928 610.873 74.3594 611.343 74.5289C611.812 74.6984 612.312 74.7669 612.81 74.73C613.501 74.7656 614.19 74.6212 614.809 74.311C615.427 74.0007 615.955 73.5352 616.34 72.96C616.587 73.4941 616.989 73.9416 617.494 74.2447C617.998 74.5478 618.582 74.6925 619.17 74.66ZM615.68 69.02V71.1C615.504 71.441 615.237 71.7269 614.909 71.9262C614.581 72.1255 614.204 72.2306 613.82 72.23C613.628 72.2405 613.435 72.2085 613.257 72.1362C613.078 72.0639 612.918 71.9532 612.787 71.8118C612.656 71.6705 612.558 71.5021 612.5 71.3186C612.442 71.135 612.425 70.9409 612.45 70.75C612.45 69.58 613.23 69.02 614.82 69.02H615.68Z" fill="white"/>
</g>
<defs>
<clipPath id="clip0">
<rect width="624" height="96.45" fill="white"/>
</clipPath>
</defs>
</svg>
