<svg width="894" height="141" viewBox="0 0 894 141" fill="none" xmlns="http://www.w3.org/2000/svg">
<g clip-path="url(#clip0)">
<path d="M97.1625 52.2504L103.486 72.2381L110.131 52.2941L130.179 45.6766L110.095 39.382L103.486 19.5562L97.197 39.4239L77.2356 45.6766L97.1625 52.2504Z" fill="#C5AEEF"/>
<path d="M66.566 82.3721L71.2307 97.1065L76.1242 82.4015L90.9183 77.5304L76.096 72.8876L71.2307 58.2673L66.5932 72.9159L51.8719 77.5304L66.566 82.3721Z" fill="#C5AEEF"/>
<path d="M109.527 92.7711L112.565 102.356L115.747 92.7903L125.361 89.6232L115.728 86.6009L112.565 77.1036L109.546 86.6194L99.9829 89.6232L109.527 92.7711Z" fill="#C5AEEF"/>
<path fill-rule="evenodd" clip-rule="evenodd" d="M8.65065 6.23991C8.65065 7.1837 12.2784 8.07981 18.6342 8.86027C14.8434 16.3623 -1.61785 51.22 0.129383 87.6172C0.542356 96.22 4.66026 102.894 10.9141 108.071C5.61073 112.217 2.86755 117.461 4.61877 119.798C6.37736 122.146 12.2965 120.666 17.6438 116.498C18.6329 115.729 19.5365 114.922 20.3406 114.103C39.2538 123.597 66.5597 125.477 80.2095 125.791L80.2095 125.845C80.2095 132.602 82.6258 138.08 85.6139 138.08C88.6021 138.08 91.0184 132.602 91.0184 125.845C99.6915 125.905 130.249 125.285 151.078 114.3C151.833 115.052 152.672 115.791 153.584 116.498C158.946 120.652 164.765 122.117 166.609 119.784C168.444 117.463 165.622 112.225 160.327 108.081C166.292 102.903 170.39 96.2255 171.213 87.6172C174.674 51.424 156.808 16.7741 152.48 8.99652C159.41 8.19076 163.392 7.24804 163.392 6.23991C163.392 3.26651 128.749 0.862183 86.0285 0.862183C43.3077 0.862183 8.65065 3.32342 8.65065 6.23991ZM86.0285 11.6176C104.418 11.6176 121.31 11.1722 134.587 10.4276C137.148 15.706 151.377 46.7211 148.694 79.1523C145.749 114.762 87.6585 112.215 87.6585 112.215C87.6585 112.215 23.7345 114.748 22.2762 79.1523C20.9404 46.5496 34.0459 15.3552 36.2591 10.3402C49.7129 11.1335 67.0748 11.6176 86.0285 11.6176Z" fill="#C5AEEF"/>
</g>
<path fill-rule="evenodd" clip-rule="evenodd" d="M262.092 19.668C256.404 17.6667 250.453 16.666 244.238 16.666C236.549 16.666 229.913 17.8773 224.33 20.3C218.853 22.7227 214.639 25.988 211.69 30.096C208.846 34.204 207.424 38.8387 207.424 44C207.424 57.3773 215.587 66.4887 231.914 71.334C237.181 72.914 240.867 74.1253 242.974 74.968C245.081 75.7053 246.45 76.4953 247.082 77.338C247.819 78.0753 248.188 79.1814 248.188 80.656C248.188 82.3414 247.398 83.658 245.818 84.606C244.343 85.4487 242.184 85.87 239.34 85.87C235.653 85.87 231.914 85.1327 228.122 83.658C224.435 82.078 221.012 80.024 217.852 77.496L203 93.928C207.424 98.1413 212.849 101.459 219.274 103.882C225.805 106.199 232.757 107.358 240.13 107.358C247.819 107.358 254.666 106.147 260.67 103.724C266.779 101.301 271.519 97.878 274.89 93.454C278.366 89.03 280.104 83.974 280.104 78.286C280.104 70.9127 278.05 65.2247 273.942 61.222C269.939 57.114 263.725 53.7433 255.298 51.11C250.031 49.53 246.187 48.266 243.764 47.318C241.447 46.2647 239.972 45.422 239.34 44.79C238.708 44.0527 238.392 43.1573 238.392 42.104C238.392 39.576 240.762 38.312 245.502 38.312C248.873 38.312 252.296 38.8913 255.772 40.05C259.248 41.1033 262.513 42.578 265.568 44.474L276.628 27.568C272.731 24.1973 267.885 21.564 262.092 19.668ZM361.184 28.516C353.495 20.616 342.909 16.666 329.426 16.666C320.578 16.666 312.889 18.5093 306.358 22.196C299.827 25.8827 294.771 31.1493 291.19 37.996C287.714 44.8427 285.976 52.7953 285.976 61.854C285.976 76.39 289.821 87.608 297.51 95.508C305.305 103.408 315.943 107.358 329.426 107.358C338.274 107.358 345.963 105.515 352.494 101.828C359.025 98.1413 364.028 92.8747 367.504 86.028C371.085 79.1813 372.876 71.2287 372.876 62.17C372.876 47.634 368.979 36.416 361.184 28.516ZM320.736 44.474C322.527 40.8927 325.423 39.102 329.426 39.102C333.429 39.102 336.325 40.8927 338.116 44.474C339.907 47.95 340.802 53.8487 340.802 62.17C340.802 70.1754 339.907 75.9687 338.116 79.55C336.325 83.1313 333.429 84.922 329.426 84.922C325.423 84.922 322.527 83.184 320.736 79.708C318.945 76.1267 318.05 70.1753 318.05 61.854C318.05 53.8487 318.945 48.0553 320.736 44.474ZM456.771 104.198H429.437L428.331 95.034C422.538 103.25 414.217 107.358 403.367 107.358C395.467 107.358 389.569 104.988 385.671 100.248C381.774 95.508 379.825 88.9247 379.825 80.498V19.826H411.109V76.39C411.109 79.4447 411.531 81.604 412.373 82.868C413.321 84.0267 414.638 84.606 416.323 84.606C417.798 84.606 419.325 84.0267 420.905 82.868C422.591 81.7093 424.118 79.9714 425.487 77.654V19.826H456.771V104.198ZM529.832 18.562C526.882 17.614 524.038 17.14 521.3 17.14C516.665 17.14 512.399 18.8253 508.502 22.196C504.604 25.5667 501.76 30.0433 499.97 35.626L497.442 19.826H470.108V104.198H501.392V65.804C502.761 59.6947 504.552 55.1127 506.764 52.058C509.081 49.0033 512.557 47.476 517.192 47.476C519.509 47.476 522.09 47.8973 524.934 48.74L529.832 18.562ZM573.306 16.666C585.314 16.666 595.532 20.4053 603.958 27.884L591.002 46.054C586.157 42.1567 581.206 40.208 576.15 40.208C571.305 40.208 567.724 41.8933 565.406 45.264C563.089 48.6347 561.93 54.428 561.93 62.644C561.93 70.544 563.089 75.9687 565.406 78.918C567.829 81.762 571.305 83.184 575.834 83.184C578.257 83.184 580.522 82.8154 582.628 82.078C584.735 81.2354 587.368 79.8134 590.528 77.812L603.958 96.93C595.426 103.882 585.472 107.358 574.096 107.358C564.932 107.358 556.98 105.515 550.238 101.828C543.497 98.036 538.336 92.7693 534.754 86.028C531.173 79.1813 529.382 71.3867 529.382 62.644C529.382 53.796 531.173 45.896 534.754 38.944C538.441 31.992 543.602 26.5673 550.238 22.67C556.874 18.6673 564.564 16.666 573.306 16.666ZM684.694 70.86C685.115 66.8573 685.326 63.5394 685.326 60.906C685.326 51.6367 683.588 43.684 680.112 37.048C676.741 30.412 671.949 25.356 665.734 21.88C659.519 18.404 652.251 16.666 643.93 16.666C634.977 16.666 627.34 18.72 621.02 22.828C614.7 26.8307 609.907 32.308 606.642 39.26C603.482 46.1067 601.902 53.7433 601.902 62.17C601.902 75.758 605.747 86.7127 613.436 95.034C621.125 103.25 632.449 107.358 647.406 107.358C660.362 107.358 671.949 103.197 682.166 94.876L669.526 77.812C665.839 80.34 662.469 82.236 659.414 83.5C656.359 84.6587 653.357 85.238 650.408 85.238C645.352 85.238 641.455 84.29 638.716 82.394C636.083 80.3927 634.345 76.548 633.502 70.86H684.694ZM652.146 40.524C653.621 43.2627 654.411 47.1074 654.516 52.058V53.164H633.344C633.871 46.844 634.977 42.4727 636.662 40.05C638.453 37.6273 641.086 36.416 644.562 36.416C648.249 36.416 650.777 37.7853 652.146 40.524ZM744.993 17.14C747.732 17.14 750.576 17.614 753.525 18.562L748.627 48.74C745.783 47.8973 743.202 47.476 740.885 47.476C736.25 47.476 732.774 49.0033 730.457 52.058C728.245 55.1127 726.454 59.6947 725.085 65.804V104.198H693.801V19.826H721.135L723.663 35.626C725.454 30.0433 728.298 25.5667 732.195 22.196C736.092 18.8253 740.358 17.14 744.993 17.14ZM823.206 90.7598L822.14 94.2232V90.8674L823.206 90.7598ZM825.121 84.5358L821.537 84.8978C818.473 85.2073 816.14 87.7872 816.14 90.8674V111.889C812.494 119.774 807.378 126.006 800.792 130.584C792.154 136.588 780.778 139.801 766.664 140.222L763.346 118.892C771.456 118.049 777.46 116.575 781.358 114.468C785.36 112.361 788.468 108.938 790.68 104.198H779.936L755.92 19.826H789.1L799.686 85.08L812.8 19.826H845.032L825.121 84.5358Z" fill="#C5AEEF"/>
<path d="M833.632 97.3274C835.831 97.3274 837.497 98.1887 838.63 99.9114C839.764 101.611 840.33 104.014 840.33 107.119C840.33 108.978 840.036 110.644 839.446 112.117C838.88 113.591 838.041 114.747 836.93 115.585C835.842 116.424 834.55 116.843 833.054 116.843C832.08 116.843 831.184 116.639 830.368 116.231C829.575 115.846 828.906 115.302 828.362 114.599L828.124 116.163H822.14V90.8674L828.872 90.1874V99.6054C829.371 98.9254 830.051 98.3814 830.912 97.9734C831.774 97.5427 832.68 97.3274 833.632 97.3274ZM831.014 112.049C831.785 112.049 832.374 111.675 832.782 110.927C833.213 110.179 833.428 108.91 833.428 107.119C833.428 105.17 833.236 103.855 832.85 103.175C832.488 102.495 831.955 102.155 831.252 102.155C830.323 102.155 829.53 102.722 828.872 103.855V110.723C829.394 111.607 830.108 112.049 831.014 112.049Z" fill="#C5AEEF"/>
<path d="M859.936 106.847C859.936 107.414 859.891 108.128 859.8 108.989H848.784C848.965 110.213 849.339 111.041 849.906 111.471C850.495 111.879 851.334 112.083 852.422 112.083C853.057 112.083 853.702 111.959 854.36 111.709C855.017 111.437 855.743 111.029 856.536 110.485L859.256 114.157C857.057 115.948 854.564 116.843 851.776 116.843C848.557 116.843 846.121 115.959 844.466 114.191C842.811 112.401 841.984 110.043 841.984 107.119C841.984 105.306 842.324 103.663 843.004 102.189C843.707 100.693 844.738 99.5147 846.098 98.6534C847.458 97.7694 849.101 97.3274 851.028 97.3274C852.819 97.3274 854.383 97.7014 855.72 98.4494C857.057 99.1974 858.089 100.285 858.814 101.713C859.562 103.141 859.936 104.853 859.936 106.847ZM853.306 104.943C853.283 103.878 853.113 103.051 852.796 102.461C852.501 101.872 851.957 101.577 851.164 101.577C850.416 101.577 849.849 101.838 849.464 102.359C849.101 102.881 848.863 103.821 848.75 105.181H853.306V104.943Z" fill="#C5AEEF"/>
<path d="M874.816 115.279C874.113 115.778 873.252 116.163 872.232 116.435C871.234 116.707 870.282 116.843 869.376 116.843C867.132 116.821 865.466 116.197 864.378 114.973C863.312 113.727 862.78 111.891 862.78 109.465V102.563H860.604V98.0074H862.78V94.1994L869.512 93.4174V98.0074H873.592L872.912 102.563H869.512V109.397C869.512 110.191 869.636 110.757 869.886 111.097C870.135 111.415 870.486 111.573 870.94 111.573C871.506 111.573 872.073 111.415 872.64 111.097L874.816 115.279Z" fill="#C5AEEF"/>
<path d="M892.036 110.281C892.036 110.916 892.115 111.392 892.274 111.709C892.433 112.004 892.716 112.231 893.124 112.389L891.764 116.707C890.54 116.617 889.543 116.39 888.772 116.027C888.001 115.642 887.367 115.03 886.868 114.191C885.689 115.959 883.865 116.843 881.394 116.843C879.603 116.843 878.153 116.311 877.042 115.245C875.954 114.157 875.41 112.763 875.41 111.063C875.41 109.046 876.158 107.505 877.654 106.439C879.15 105.374 881.326 104.841 884.182 104.841H885.474V104.399C885.474 103.493 885.293 102.881 884.93 102.563C884.567 102.246 883.876 102.087 882.856 102.087C882.312 102.087 881.609 102.178 880.748 102.359C879.909 102.518 879.048 102.745 878.164 103.039L876.702 98.7554C877.813 98.302 879.014 97.9507 880.306 97.7014C881.621 97.452 882.811 97.3274 883.876 97.3274C886.732 97.3274 888.806 97.8827 890.098 98.9934C891.39 100.081 892.036 101.759 892.036 104.025V110.281ZM883.468 112.117C883.876 112.117 884.25 112.015 884.59 111.811C884.953 111.607 885.247 111.347 885.474 111.029V108.343H884.76C883.808 108.343 883.105 108.513 882.652 108.853C882.199 109.193 881.972 109.715 881.972 110.417C881.972 110.939 882.108 111.358 882.38 111.675C882.652 111.97 883.015 112.117 883.468 112.117Z" fill="#C5AEEF"/>
<defs>
<clipPath id="clip0">
<rect width="173" height="138" fill="white" transform="translate(0 0.221924)"/>
</clipPath>
</defs>
</svg>
