<?xml version="1.0" standalone="no"?>
<!DOCTYPE svg PUBLIC "-//W3C//DTD SVG 20010904//EN"
 "http://www.w3.org/TR/2001/REC-SVG-20010904/DTD/svg10.dtd">
<svg version="1.0" xmlns="http://www.w3.org/2000/svg"
 width="1024.000000pt" height="478.000000pt" viewBox="0 0 1024.000000 478.000000"
 preserveAspectRatio="xMidYMid meet">

<g transform="translate(0.000000,478.000000) scale(0.100000,-0.100000)"
fill="#53afac" stroke="none">
<path d="M5099 3620 c-1 -327 -1 -653 0 -725 0 -71 0 -156 1 -188 l0 -58 59
66 c139 157 335 296 502 356 l89 32 0 553 0 554 -162 2 c-90 1 -236 2 -325 2
l-163 1 -1 -595z"/>
<path d="M938 3378 l-3 -343 -227 -3 -228 -2 0 -245 0 -245 228 -2 227 -3 5
-685 c5 -517 9 -695 19 -725 33 -104 44 -134 67 -179 58 -115 143 -200 251
-251 112 -54 129 -55 906 -55 l718 0 -63 54 c-114 97 -226 250 -270 369 l-21
57 -337 0 -338 0 -79 77 c-84 83 -141 170 -161 243 -10 34 -12 178 -10 570 l3
525 483 3 482 2 0 -597 1 -598 35 -100 c19 -55 37 -111 40 -125 3 -14 19 -50
36 -80 122 -215 277 -355 433 -390 32 -7 575 -10 1681 -10 l1635 0 62 26 c101
42 210 100 279 148 73 51 187 173 243 260 76 120 154 318 169 431 4 28 9 62
12 78 l6 27 114 0 114 0 0 -44 c0 -104 55 -328 105 -428 44 -87 110 -180 173
-243 69 -69 233 -171 348 -217 l79 -32 665 -7 c366 -4 668 -5 673 -2 4 2 7
114 7 249 l0 244 -408 0 -409 0 -64 32 c-77 38 -162 121 -211 204 -35 61 -88
197 -88 228 0 14 52 16 513 16 479 0 518 1 569 19 105 36 164 91 206 194 23
56 26 75 25 192 0 107 -5 148 -26 228 -57 215 -140 362 -286 508 -105 105
-169 146 -316 202 -192 73 -247 82 -475 74 -186 -7 -243 -18 -370 -72 -63 -27
-150 -73 -160 -85 -3 -4 -25 -20 -50 -37 -63 -43 -187 -175 -243 -260 -60 -90
-137 -254 -167 -353 -13 -41 -28 -93 -35 -115 l-12 -40 -140 -3 -141 -3 -7 48
c-21 142 -101 340 -192 474 -59 86 -171 197 -260 257 -104 70 -255 140 -364
168 -96 25 -112 26 -263 21 -149 -5 -225 -17 -301 -46 -72 -28 -95 -39 -180
-81 -138 -69 -231 -136 -335 -240 -102 -102 -148 -171 -187 -278 l-25 -67 1
-485 c1 -267 -1 -530 -5 -585 l-6 -101 -692 -2 -691 -2 -75 44 c-178 105 -291
278 -335 516 -16 82 -19 177 -22 713 l-5 617 -386 0 c-213 0 -583 1 -822 3
l-435 2 -3 343 -2 342 -340 0 -340 0 -2 -342z m7757 -903 c61 -29 154 -131
203 -222 46 -88 64 -169 41 -184 -8 -5 -159 -9 -336 -9 l-322 0 -3 23 c-6 43
12 140 38 198 31 68 129 168 196 200 52 24 124 22 183 -6z m-2419 -20 c81 -40
131 -118 195 -301 37 -106 55 -310 40 -452 -13 -118 -60 -264 -113 -342 -103
-154 -241 -210 -525 -210 l-122 0 5 437 c5 403 7 442 25 498 52 153 137 281
225 336 102 63 190 74 270 34z"/>
<path d="M3920 2155 l0 -875 338 2 337 3 3 873 2 872 -340 0 -340 0 0 -875z"/>
</g>
</svg>
