<svg xmlns="http://www.w3.org/2000/svg" xmlns:xlink="http://www.w3.org/1999/xlink" viewBox="0 0 659.74 170.1"><defs><clipPath id="a" transform="translate(-1.79 -4.24)"><rect x="-59.3" y="4.24" width="782.26" height="189.19" style="fill:none"/></clipPath></defs><title>sourcery-wordmark-brian</title><g style="clip-path:url(#a)"><g style="isolation:isolate"><g style="isolation:isolate"><path d="M73.15,59.47,63.7,74.14c-6.68-4.4-13.85-6.85-20.53-6.85-7.82,0-11.24,2.61-11.24,6.52,0,4.56,2.28,6.52,17.76,11.08C66.8,89.78,76.41,97,76.41,112.43c0,17.92-16.94,28.51-38.45,28.51-15,0-27.7-5.21-36.17-12.87L14.5,113.89c6.35,5.22,14.33,8.64,22.64,8.64,8,0,12.71-2.93,12.71-8,0-6-2.6-7.82-18.25-12.22C14.5,97.44,6,88.64,6,75.28c0-14.83,13.53-26.4,35.36-26.4C53.93,48.88,65.17,53,73.15,59.47Z" transform="translate(-1.79 -4.24)" style="fill:#654fa1"/><path d="M169.45,95c0,27.7-16,46-42.37,46-26.23,0-42.36-16.94-42.36-46.11,0-27.7,16-45.95,42.36-45.95S169.45,65.83,169.45,95Zm-58-.16c0,19.23,5.22,27.21,15.64,27.21s15.65-8.31,15.65-27.05c0-19.22-5.22-27.21-15.65-27.21S111.44,76.09,111.44,94.83Z" transform="translate(-1.79 -4.24)" style="fill:#654fa1"/><path d="M235.44,138.17l-1.14-10.92c-6.36,9.13-14.83,13.69-26.23,13.69-16.13,0-24.12-10.43-24.12-27.21V51.65H209.7v58.82c0,8.8,2.93,11.41,8.3,11.41s10.27-3.59,14-10.11V51.65h25.74v86.52Z" transform="translate(-1.79 -4.24)" style="fill:#654fa1"/></g><g style="isolation:isolate"><path d="M334.18,50.35l-4.07,24.93a31.37,31.37,0,0,0-7.82-1.14c-10.76,0-15.15,8-17.92,21.18v42.85H278.62V51.65h22.49l2.11,16.78c3.92-12.05,12.39-19.22,22.33-19.22A28.93,28.93,0,0,1,334.18,50.35Z" transform="translate(-1.79 -4.24)" style="fill:#654fa1"/><path d="M407.83,59.47,396.59,75c-5.38-4.4-10.43-6.35-16.3-6.35-11.08,0-17.43,7.49-17.43,26.88,0,19.23,6.84,25.09,17.11,25.09,6.19,0,10.42-1.95,16.13-6.35l11.73,16.45a45,45,0,0,1-29.17,10.27c-26.55,0-42.85-17.92-42.85-45.3,0-27.53,16.46-46.76,42.36-46.76C390.23,48.88,399.52,52.47,407.83,59.47Z" transform="translate(-1.79 -4.24)" style="fill:#654fa1"/></g><g style="isolation:isolate"><path d="M495.49,102.49h-53.6C443.68,118,451,122.2,461.6,122.2c7,0,13.2-2.44,20.69-7.66l10.59,14.34a53.13,53.13,0,0,1-33.72,12.06c-28.84,0-43.51-18.57-43.51-45.62,0-25.91,14.18-46.44,40.41-46.44,24.77,0,39.92,16.3,39.92,44.32A85.41,85.41,0,0,1,495.49,102.49ZM470.73,85.87C470.56,74.14,467,66,456.71,66c-8.63,0-13.68,5.54-14.82,21h28.84Z" transform="translate(-1.79 -4.24)" style="fill:#654fa1"/></g><g style="isolation:isolate"><path d="M566.86,50.35l-4.07,24.93A31.37,31.37,0,0,0,555,74.14c-10.76,0-15.15,8-17.93,21.18v42.85H511.3V51.65h22.49l2.11,16.78c3.92-12.05,12.39-19.22,22.33-19.22A28.93,28.93,0,0,1,566.86,50.35Z" transform="translate(-1.79 -4.24)" style="fill:#654fa1"/></g><g style="isolation:isolate"><path d="M585.27,174.34l-2.77-18.08c17-2.12,23.14-7,27.87-18.09h-8.8l-26.4-86.52h27.37L618,121.71l17-70.06h26.56L634,138.33C627.15,160.17,612.48,172.88,585.27,174.34Z" transform="translate(-1.79 -4.24)" style="fill:#654fa1"/></g></g></g><polygon points="224.5 0 220.55 12.55 224.5 25.09 228.66 12.55 224.5 0" style="fill:#654ea3"/><polygon points="224.61 8.49 212.06 12.44 224.61 16.6 237.15 12.44 224.61 8.49" style="fill:#654ea3"/><polygon points="206.3 27.69 209.21 36.94 212.28 27.69 209.21 18.44 206.3 27.69" style="fill:#654ea3"/><polygon points="209.29 24.7 200.03 27.61 209.29 30.68 218.54 27.61 209.29 24.7" style="fill:#654ea3"/><polygon points="226.91 33.42 228.8 39.44 230.8 33.42 228.8 27.41 226.91 33.42" style="fill:#654ea3"/><polygon points="228.85 31.48 222.84 33.38 228.85 35.37 234.87 33.38 228.85 31.48" style="fill:#654ea3"/></svg>