<svg width="692" height="168" viewBox="0 0 692 168" fill="none" xmlns="http://www.w3.org/2000/svg">
<path fill-rule="evenodd" clip-rule="evenodd" d="M59.5498 45.6695C53.8618 43.6681 47.9104 42.6675 41.6958 42.6675C34.0064 42.6675 27.3704 43.8788 21.7878 46.3015C16.3104 48.7241 12.0971 51.9895 9.14776 56.0975C6.30376 60.2055 4.88176 64.8401 4.88176 70.0015C4.88176 83.3788 13.0451 92.4902 29.3718 97.3355C34.6384 98.9155 38.3251 100.127 40.4318 100.969C42.5384 101.707 43.9078 102.497 44.5398 103.339C45.2771 104.077 45.6458 105.183 45.6458 106.657C45.6458 108.343 44.8558 109.659 43.2758 110.607C41.8011 111.45 39.6418 111.871 36.7978 111.871C33.1111 111.871 29.3718 111.134 25.5798 109.659C21.8931 108.079 18.4698 106.025 15.3098 103.497L0.457764 119.929C4.88176 124.143 10.3064 127.461 16.7318 129.883C23.2624 132.201 30.2144 133.359 37.5878 133.359C45.2771 133.359 52.1238 132.148 58.1278 129.725C64.2371 127.303 68.9771 123.879 72.3478 119.455C75.8238 115.031 77.5618 109.975 77.5618 104.287C77.5618 96.9141 75.5078 91.2261 71.3998 87.2235C67.3971 83.1155 61.1824 79.7448 52.7558 77.1115C47.4891 75.5315 43.6444 74.2675 41.2218 73.3195C38.9044 72.2661 37.4298 71.4235 36.7978 70.7915C36.1658 70.0541 35.8498 69.1588 35.8498 68.1055C35.8498 65.5775 38.2198 64.3135 42.9598 64.3135C46.3304 64.3135 49.7538 64.8928 53.2298 66.0515C56.7058 67.1048 59.9711 68.5795 63.0258 70.4755L74.0858 53.5695C70.1884 50.1988 65.3431 47.5655 59.5498 45.6695ZM158.642 54.5175C150.952 46.6175 140.366 42.6675 126.884 42.6675C118.036 42.6675 110.346 44.5108 103.816 48.1975C97.285 51.8841 92.229 57.1508 88.6477 63.9975C85.1717 70.8441 83.4337 78.7968 83.4337 87.8555C83.4337 102.391 87.2784 113.609 94.9677 121.509C102.762 129.409 113.401 133.359 126.884 133.359C135.732 133.359 143.421 131.516 149.952 127.829C156.482 124.143 161.486 118.876 164.962 112.029C168.543 105.183 170.334 97.2301 170.334 88.1715C170.334 73.6355 166.436 62.4175 158.642 54.5175ZM118.194 70.4755C119.984 66.8941 122.881 65.1035 126.884 65.1035C130.886 65.1035 133.783 66.8941 135.574 70.4755C137.364 73.9515 138.26 79.8501 138.26 88.1715C138.26 96.1768 137.364 101.97 135.574 105.551C133.783 109.133 130.886 110.923 126.884 110.923C122.881 110.923 119.984 109.185 118.194 105.709C116.403 102.128 115.508 96.1768 115.508 87.8555C115.508 79.8501 116.403 74.0568 118.194 70.4755ZM254.229 130.199H226.895L225.789 121.035C219.996 129.251 211.675 133.359 200.825 133.359C192.925 133.359 187.027 130.989 183.129 126.249C179.232 121.509 177.283 114.926 177.283 106.499V45.8275H208.567V102.391C208.567 105.446 208.989 107.605 209.831 108.869C210.779 110.028 212.096 110.607 213.781 110.607C215.256 110.607 216.783 110.028 218.363 108.869C220.049 107.711 221.576 105.973 222.945 103.655V45.8275H254.229V130.199ZM327.289 44.5635C324.34 43.6155 321.496 43.1415 318.757 43.1415C314.123 43.1415 309.857 44.8268 305.959 48.1975C302.062 51.5681 299.218 56.0448 297.427 61.6275L294.899 45.8275H267.565V130.199H298.849V91.8055C300.219 85.6961 302.009 81.1141 304.221 78.0595C306.539 75.0048 310.015 73.4775 314.649 73.4775C316.967 73.4775 319.547 73.8988 322.391 74.7415L327.289 44.5635ZM370.764 42.6675C382.772 42.6675 392.989 46.4068 401.416 53.8855L388.46 72.0555C383.615 68.1581 378.664 66.2095 373.608 66.2095C368.763 66.2095 365.181 67.8948 362.864 71.2655C360.547 74.6361 359.388 80.4295 359.388 88.6455C359.388 96.5455 360.547 101.97 362.864 104.919C365.287 107.763 368.763 109.185 373.292 109.185C375.715 109.185 377.979 108.817 380.086 108.079C382.193 107.237 384.826 105.815 387.986 103.813L401.416 122.931C392.884 129.883 382.93 133.359 371.554 133.359C362.39 133.359 354.437 131.516 347.696 127.829C340.955 124.037 335.793 118.771 332.212 112.029C328.631 105.183 326.84 97.3881 326.84 88.6455C326.84 79.7975 328.631 71.8975 332.212 64.9455C335.899 57.9935 341.06 52.5688 347.696 48.6715C354.332 44.6688 362.021 42.6675 370.764 42.6675ZM482.152 96.8615C482.573 92.8588 482.784 89.5408 482.784 86.9075C482.784 77.6381 481.046 69.6855 477.57 63.0495C474.199 56.4135 469.406 51.3575 463.192 47.8815C456.977 44.4055 449.709 42.6675 441.388 42.6675C432.434 42.6675 424.798 44.7215 418.478 48.8295C412.158 52.8321 407.365 58.3095 404.1 65.2615C400.94 72.1081 399.36 79.7448 399.36 88.1715C399.36 101.759 403.204 112.714 410.894 121.035C418.583 129.251 429.906 133.359 444.864 133.359C457.82 133.359 469.406 129.199 479.624 120.877L466.984 103.813C463.297 106.341 459.926 108.237 456.872 109.501C453.817 110.66 450.815 111.239 447.866 111.239C442.81 111.239 438.912 110.291 436.174 108.395C433.54 106.394 431.802 102.549 430.96 96.8615H482.152ZM449.604 66.5255C451.078 69.2641 451.868 73.1088 451.974 78.0595V79.1655H430.802C431.328 72.8455 432.434 68.4741 434.12 66.0515C435.91 63.6288 438.544 62.4175 442.02 62.4175C445.706 62.4175 448.234 63.7868 449.604 66.5255ZM542.451 43.1415C545.19 43.1415 548.034 43.6155 550.983 44.5635L546.085 74.7415C543.241 73.8988 540.66 73.4775 538.343 73.4775C533.708 73.4775 530.232 75.0048 527.915 78.0595C525.703 81.1141 523.912 85.6961 522.543 91.8055V130.199H491.259V45.8275H518.593L521.121 61.6275C522.911 56.0448 525.755 51.5681 529.653 48.1975C533.55 44.8268 537.816 43.1415 542.451 43.1415ZM620.664 116.761L619.598 120.225V116.869L620.664 116.761ZM622.579 110.537L618.995 110.899C615.93 111.209 613.598 113.789 613.598 116.869V137.891C609.952 145.776 604.836 152.007 598.25 156.585C589.612 162.589 578.236 165.802 564.122 166.223L560.804 144.893C568.914 144.051 574.918 142.576 578.815 140.469C582.818 138.363 585.926 134.939 588.138 130.199H577.393L553.378 45.8275H586.557L597.143 111.081L610.258 45.8275H642.49L622.579 110.537Z" fill="#C5AEEF"/>
<path d="M631.09 123.329C633.289 123.329 634.955 124.19 636.088 125.913C637.221 127.613 637.788 130.016 637.788 133.121C637.788 134.98 637.493 136.646 636.904 138.119C636.337 139.592 635.499 140.748 634.388 141.587C633.3 142.426 632.008 142.845 630.512 142.845C629.537 142.845 628.642 142.641 627.826 142.233C627.033 141.848 626.364 141.304 625.82 140.601L625.582 142.165H619.598V116.869L626.33 116.189V125.607C626.829 124.927 627.509 124.383 628.37 123.975C629.231 123.544 630.138 123.329 631.09 123.329ZM628.472 138.051C629.243 138.051 629.832 137.677 630.24 136.929C630.671 136.181 630.886 134.912 630.886 133.121C630.886 131.172 630.693 129.857 630.308 129.177C629.945 128.497 629.413 128.157 628.71 128.157C627.781 128.157 626.987 128.724 626.33 129.857V136.725C626.851 137.609 627.565 138.051 628.472 138.051Z" fill="#C5AEEF"/>
<path d="M657.394 132.849C657.394 133.416 657.348 134.13 657.258 134.991H646.242C646.423 136.215 646.797 137.042 647.364 137.473C647.953 137.881 648.792 138.085 649.88 138.085C650.514 138.085 651.16 137.96 651.818 137.711C652.475 137.439 653.2 137.031 653.994 136.487L656.714 140.159C654.515 141.95 652.022 142.845 649.234 142.845C646.015 142.845 643.578 141.961 641.924 140.193C640.269 138.402 639.442 136.045 639.442 133.121C639.442 131.308 639.782 129.664 640.462 128.191C641.164 126.695 642.196 125.516 643.556 124.655C644.916 123.771 646.559 123.329 648.486 123.329C650.276 123.329 651.84 123.703 653.178 124.451C654.515 125.199 655.546 126.287 656.272 127.715C657.02 129.143 657.394 130.854 657.394 132.849ZM650.764 130.945C650.741 129.88 650.571 129.052 650.254 128.463C649.959 127.874 649.415 127.579 648.622 127.579C647.874 127.579 647.307 127.84 646.922 128.361C646.559 128.882 646.321 129.823 646.208 131.183H650.764V130.945Z" fill="#C5AEEF"/>
<path d="M672.273 141.281C671.571 141.78 670.709 142.165 669.689 142.437C668.692 142.709 667.74 142.845 666.833 142.845C664.589 142.822 662.923 142.199 661.835 140.975C660.77 139.728 660.237 137.892 660.237 135.467V128.565H658.061V124.009H660.237V120.201L666.969 119.419V124.009H671.049L670.369 128.565H666.969V135.399C666.969 136.192 667.094 136.759 667.343 137.099C667.593 137.416 667.944 137.575 668.397 137.575C668.964 137.575 669.531 137.416 670.097 137.099L672.273 141.281Z" fill="#C5AEEF"/>
<path d="M689.494 136.283C689.494 136.918 689.573 137.394 689.732 137.711C689.89 138.006 690.174 138.232 690.582 138.391L689.222 142.709C687.998 142.618 687 142.392 686.23 142.029C685.459 141.644 684.824 141.032 684.326 140.193C683.147 141.961 681.322 142.845 678.852 142.845C677.061 142.845 675.61 142.312 674.5 141.247C673.412 140.159 672.868 138.765 672.868 137.065C672.868 135.048 673.616 133.506 675.112 132.441C676.608 131.376 678.784 130.843 681.64 130.843H682.932V130.401C682.932 129.494 682.75 128.882 682.388 128.565C682.025 128.248 681.334 128.089 680.314 128.089C679.77 128.089 679.067 128.18 678.206 128.361C677.367 128.52 676.506 128.746 675.622 129.041L674.16 124.757C675.27 124.304 676.472 123.952 677.764 123.703C679.078 123.454 680.268 123.329 681.334 123.329C684.19 123.329 686.264 123.884 687.556 124.995C688.848 126.083 689.494 127.76 689.494 130.027V136.283ZM680.926 138.119C681.334 138.119 681.708 138.017 682.048 137.813C682.41 137.609 682.705 137.348 682.932 137.031V134.345H682.218C681.266 134.345 680.563 134.515 680.11 134.855C679.656 135.195 679.43 135.716 679.43 136.419C679.43 136.94 679.566 137.36 679.838 137.677C680.11 137.972 680.472 138.119 680.926 138.119Z" fill="#C5AEEF"/>
<path d="M219.512 0.000732422L215.562 12.5507L219.512 25.0907L223.672 12.5507L219.512 0.000732422Z" fill="#C5AEEF"/>
<path d="M219.622 8.49072L207.072 12.4407L219.622 16.6007L232.162 12.4407L219.622 8.49072Z" fill="#C5AEEF"/>
<path d="M201.312 27.6907L204.222 36.9407L207.292 27.6907L204.222 18.4407L201.312 27.6907Z" fill="#C5AEEF"/>
<path d="M204.303 24.7007L195.043 27.6107L204.303 30.6807L213.553 27.6107L204.303 24.7007Z" fill="#C5AEEF"/>
<path d="M221.923 33.4206L223.813 39.4406L225.813 33.4206L223.813 27.4106L221.923 33.4206Z" fill="#C5AEEF"/>
<path d="M223.862 31.4807L217.852 33.3807L223.862 35.3707L229.882 33.3807L223.862 31.4807Z" fill="#C5AEEF"/>
</svg>
