<svg width="692" height="168" viewBox="0 0 692 168" fill="none" xmlns="http://www.w3.org/2000/svg">
<path fill-rule="evenodd" clip-rule="evenodd" d="M59.5498 45.6702C53.8618 43.6689 47.9104 42.6682 41.6958 42.6682C34.0064 42.6682 27.3704 43.8795 21.7878 46.3022C16.3104 48.7249 12.0971 51.9902 9.14776 56.0982C6.30376 60.2062 4.88176 64.8409 4.88176 70.0022C4.88176 83.3795 13.0451 92.4909 29.3718 97.3362C34.6384 98.9162 38.3251 100.128 40.4318 100.97C42.5384 101.708 43.9078 102.498 44.5398 103.34C45.2771 104.078 45.6458 105.184 45.6458 106.658C45.6458 108.344 44.8558 109.66 43.2758 110.608C41.8011 111.451 39.6418 111.872 36.7978 111.872C33.1111 111.872 29.3718 111.135 25.5798 109.66C21.8931 108.08 18.4698 106.026 15.3098 103.498L0.457764 119.93C4.88176 124.144 10.3064 127.462 16.7318 129.884C23.2624 132.202 30.2144 133.36 37.5878 133.36C45.2771 133.36 52.1238 132.149 58.1278 129.726C64.2371 127.304 68.9771 123.88 72.3478 119.456C75.8238 115.032 77.5618 109.976 77.5618 104.288C77.5618 96.9149 75.5078 91.2269 71.3998 87.2242C67.3971 83.1162 61.1824 79.7455 52.7558 77.1122C47.4891 75.5322 43.6444 74.2682 41.2218 73.3202C38.9044 72.2669 37.4298 71.4242 36.7978 70.7922C36.1658 70.0549 35.8498 69.1595 35.8498 68.1062C35.8498 65.5782 38.2198 64.3142 42.9598 64.3142C46.3304 64.3142 49.7538 64.8935 53.2298 66.0522C56.7058 67.1055 59.9711 68.5802 63.0258 70.4762L74.0858 53.5702C70.1884 50.1995 65.3431 47.5662 59.5498 45.6702ZM158.642 54.5182C150.952 46.6182 140.366 42.6682 126.884 42.6682C118.036 42.6682 110.346 44.5115 103.816 48.1982C97.285 51.8849 92.229 57.1515 88.6477 63.9982C85.1717 70.8449 83.4337 78.7975 83.4337 87.8562C83.4337 102.392 87.2784 113.61 94.9677 121.51C102.762 129.41 113.401 133.36 126.884 133.36C135.732 133.36 143.421 131.517 149.952 127.83C156.482 124.144 161.486 118.877 164.962 112.03C168.543 105.184 170.334 97.2309 170.334 88.1722C170.334 73.6362 166.436 62.4182 158.642 54.5182ZM118.194 70.4762C119.984 66.8949 122.881 65.1042 126.884 65.1042C130.886 65.1042 133.783 66.8949 135.574 70.4762C137.364 73.9522 138.26 79.8509 138.26 88.1722C138.26 96.1775 137.364 101.971 135.574 105.552C133.783 109.134 130.886 110.924 126.884 110.924C122.881 110.924 119.984 109.186 118.194 105.71C116.403 102.129 115.508 96.1775 115.508 87.8562C115.508 79.8509 116.403 74.0575 118.194 70.4762ZM254.229 130.2H226.895L225.789 121.036C219.996 129.252 211.675 133.36 200.825 133.36C192.925 133.36 187.027 130.99 183.129 126.25C179.232 121.51 177.283 114.927 177.283 106.5V45.8282H208.567V102.392C208.567 105.447 208.989 107.606 209.831 108.87C210.779 110.029 212.096 110.608 213.781 110.608C215.256 110.608 216.783 110.029 218.363 108.87C220.049 107.712 221.576 105.974 222.945 103.656V45.8282H254.229V130.2ZM327.289 44.5642C324.34 43.6162 321.496 43.1422 318.757 43.1422C314.123 43.1422 309.857 44.8275 305.959 48.1982C302.062 51.5689 299.218 56.0455 297.427 61.6282L294.899 45.8282H267.565V130.2H298.849V91.8062C300.219 85.6969 302.009 81.1149 304.221 78.0602C306.539 75.0055 310.015 73.4782 314.649 73.4782C316.967 73.4782 319.547 73.8995 322.391 74.7422L327.289 44.5642ZM370.764 42.6682C382.772 42.6682 392.989 46.4075 401.416 53.8862L388.46 72.0562C383.615 68.1589 378.664 66.2102 373.608 66.2102C368.763 66.2102 365.181 67.8955 362.864 71.2662C360.547 74.6369 359.388 80.4302 359.388 88.6462C359.388 96.5462 360.547 101.971 362.864 104.92C365.287 107.764 368.763 109.186 373.292 109.186C375.715 109.186 377.979 108.818 380.086 108.08C382.193 107.238 384.826 105.816 387.986 103.814L401.416 122.932C392.884 129.884 382.93 133.36 371.554 133.36C362.39 133.36 354.437 131.517 347.696 127.83C340.955 124.038 335.793 118.772 332.212 112.03C328.631 105.184 326.84 97.3889 326.84 88.6462C326.84 79.7982 328.631 71.8982 332.212 64.9462C335.899 57.9942 341.06 52.5695 347.696 48.6722C354.332 44.6695 362.021 42.6682 370.764 42.6682ZM482.152 96.8622C482.573 92.8595 482.784 89.5415 482.784 86.9082C482.784 77.6389 481.046 69.6862 477.57 63.0502C474.199 56.4142 469.406 51.3582 463.192 47.8822C456.977 44.4062 449.709 42.6682 441.388 42.6682C432.434 42.6682 424.798 44.7222 418.478 48.8302C412.158 52.8329 407.365 58.3102 404.1 65.2622C400.94 72.1089 399.36 79.7455 399.36 88.1722C399.36 101.76 403.204 112.715 410.894 121.036C418.583 129.252 429.906 133.36 444.864 133.36C457.82 133.36 469.406 129.2 479.624 120.878L466.984 103.814C463.297 106.342 459.926 108.238 456.872 109.502C453.817 110.661 450.815 111.24 447.866 111.24C442.81 111.24 438.912 110.292 436.174 108.396C433.54 106.395 431.802 102.55 430.96 96.8622H482.152ZM449.604 66.5262C451.078 69.2649 451.868 73.1096 451.974 78.0602V79.1662H430.802C431.328 72.8462 432.434 68.4749 434.12 66.0522C435.91 63.6295 438.544 62.4182 442.02 62.4182C445.706 62.4182 448.234 63.7875 449.604 66.5262ZM542.451 43.1422C545.19 43.1422 548.034 43.6162 550.983 44.5642L546.085 74.7422C543.241 73.8995 540.66 73.4782 538.343 73.4782C533.708 73.4782 530.232 75.0055 527.915 78.0602C525.703 81.1149 523.912 85.6969 522.543 91.8062V130.2H491.259V45.8282H518.593L521.121 61.6282C522.911 56.0455 525.755 51.5689 529.653 48.1982C533.55 44.8275 537.816 43.1422 542.451 43.1422ZM620.664 116.762L619.598 120.225V116.87L620.664 116.762ZM622.579 110.538L618.995 110.9C615.93 111.21 613.598 113.789 613.598 116.87V137.891C609.952 145.777 604.836 152.008 598.25 156.586C589.612 162.59 578.236 165.803 564.122 166.224L560.804 144.894C568.914 144.052 574.918 142.577 578.815 140.47C582.818 138.364 585.926 134.94 588.138 130.2H577.393L553.378 45.8282H586.557L597.143 111.082L610.258 45.8282H642.49L622.579 110.538Z" fill="white"/>
<path d="M631.09 123.33C633.289 123.33 634.955 124.191 636.088 125.914C637.221 127.614 637.788 130.016 637.788 133.122C637.788 134.98 637.493 136.646 636.904 138.12C636.337 139.593 635.499 140.749 634.388 141.588C633.3 142.426 632.008 142.846 630.512 142.846C629.537 142.846 628.642 142.642 627.826 142.234C627.033 141.848 626.364 141.304 625.82 140.602L625.582 142.166H619.598V116.87L626.33 116.19V125.608C626.829 124.928 627.509 124.384 628.37 123.976C629.231 123.545 630.138 123.33 631.09 123.33ZM628.472 138.052C629.243 138.052 629.832 137.678 630.24 136.93C630.671 136.182 630.886 134.912 630.886 133.122C630.886 131.172 630.693 129.858 630.308 129.178C629.945 128.498 629.413 128.158 628.71 128.158C627.781 128.158 626.987 128.724 626.33 129.858V136.726C626.851 137.61 627.565 138.052 628.472 138.052Z" fill="white"/>
<path d="M657.394 132.85C657.394 133.416 657.348 134.13 657.258 134.992H646.242C646.423 136.216 646.797 137.043 647.364 137.474C647.953 137.882 648.792 138.086 649.88 138.086C650.514 138.086 651.16 137.961 651.818 137.712C652.475 137.44 653.2 137.032 653.994 136.488L656.714 140.16C654.515 141.95 652.022 142.846 649.234 142.846C646.015 142.846 643.578 141.962 641.924 140.194C640.269 138.403 639.442 136.046 639.442 133.122C639.442 131.308 639.782 129.665 640.462 128.192C641.164 126.696 642.196 125.517 643.556 124.656C644.916 123.772 646.559 123.33 648.486 123.33C650.276 123.33 651.84 123.704 653.178 124.452C654.515 125.2 655.546 126.288 656.272 127.716C657.02 129.144 657.394 130.855 657.394 132.85ZM650.764 130.946C650.741 129.88 650.571 129.053 650.254 128.464C649.959 127.874 649.415 127.58 648.622 127.58C647.874 127.58 647.307 127.84 646.922 128.362C646.559 128.883 646.321 129.824 646.208 131.184H650.764V130.946Z" fill="white"/>
<path d="M672.273 141.282C671.571 141.78 670.709 142.166 669.689 142.438C668.692 142.71 667.74 142.846 666.833 142.846C664.589 142.823 662.923 142.2 661.835 140.976C660.77 139.729 660.237 137.893 660.237 135.468V128.566H658.061V124.01H660.237V120.202L666.969 119.42V124.01H671.049L670.369 128.566H666.969V135.4C666.969 136.193 667.094 136.76 667.343 137.1C667.593 137.417 667.944 137.576 668.397 137.576C668.964 137.576 669.531 137.417 670.097 137.1L672.273 141.282Z" fill="white"/>
<path d="M689.494 136.284C689.494 136.918 689.573 137.394 689.732 137.712C689.89 138.006 690.174 138.233 690.582 138.392L689.222 142.71C687.998 142.619 687 142.392 686.23 142.03C685.459 141.644 684.824 141.032 684.326 140.194C683.147 141.962 681.322 142.846 678.852 142.846C677.061 142.846 675.61 142.313 674.5 141.248C673.412 140.16 672.868 138.766 672.868 137.066C672.868 135.048 673.616 133.507 675.112 132.442C676.608 131.376 678.784 130.844 681.64 130.844H682.932V130.402C682.932 129.495 682.75 128.883 682.388 128.566C682.025 128.248 681.334 128.09 680.314 128.09C679.77 128.09 679.067 128.18 678.206 128.362C677.367 128.52 676.506 128.747 675.622 129.042L674.16 124.758C675.27 124.304 676.472 123.953 677.764 123.704C679.078 123.454 680.268 123.33 681.334 123.33C684.19 123.33 686.264 123.885 687.556 124.996C688.848 126.084 689.494 127.761 689.494 130.028V136.284ZM680.926 138.12C681.334 138.12 681.708 138.018 682.048 137.814C682.41 137.61 682.705 137.349 682.932 137.032V134.346H682.218C681.266 134.346 680.563 134.516 680.11 134.856C679.656 135.196 679.43 135.717 679.43 136.42C679.43 136.941 679.566 137.36 679.838 137.678C680.11 137.972 680.472 138.12 680.926 138.12Z" fill="white"/>
<path d="M219.512 0.00146484L215.562 12.5515L219.512 25.0915L223.672 12.5515L219.512 0.00146484Z" fill="white"/>
<path d="M219.622 8.49146L207.072 12.4415L219.622 16.6015L232.162 12.4415L219.622 8.49146Z" fill="white"/>
<path d="M201.312 27.6914L204.222 36.9414L207.292 27.6914L204.222 18.4414L201.312 27.6914Z" fill="white"/>
<path d="M204.303 24.7014L195.043 27.6114L204.303 30.6814L213.553 27.6114L204.303 24.7014Z" fill="white"/>
<path d="M221.923 33.4214L223.813 39.4414L225.813 33.4214L223.813 27.4114L221.923 33.4214Z" fill="white"/>
<path d="M223.862 31.4814L217.852 33.3814L223.862 35.3714L229.882 33.3814L223.862 31.4814Z" fill="white"/>
</svg>
