<svg width="25" height="25" viewBox="0 0 25 25" fill="none" xmlns="http://www.w3.org/2000/svg">
<path d="M8.3 2.54346H16.7C19.9 2.54346 22.5 5.14346 22.5 8.34346V16.7435C22.5 18.2817 21.8889 19.757 20.8012 20.8447C19.7135 21.9324 18.2383 22.5435 16.7 22.5435H8.3C5.1 22.5435 2.5 19.9435 2.5 16.7435V8.34346C2.5 6.8052 3.11107 5.32995 4.19878 4.24224C5.28649 3.15453 6.76174 2.54346 8.3 2.54346ZM8.1 4.54346C7.14522 4.54346 6.22955 4.92274 5.55442 5.59787C4.87928 6.273 4.5 7.18868 4.5 8.14346V16.9435C4.5 18.9335 6.11 20.5435 8.1 20.5435H16.9C17.8548 20.5435 18.7705 20.1642 19.4456 19.489C20.1207 18.8139 20.5 17.8982 20.5 16.9435V8.14346C20.5 6.15346 18.89 4.54346 16.9 4.54346H8.1ZM17.75 6.04346C18.0815 6.04346 18.3995 6.17515 18.6339 6.40957C18.8683 6.64399 19 6.96194 19 7.29346C19 7.62498 18.8683 7.94292 18.6339 8.17734C18.3995 8.41176 18.0815 8.54346 17.75 8.54346C17.4185 8.54346 17.1005 8.41176 16.8661 8.17734C16.6317 7.94292 16.5 7.62498 16.5 7.29346C16.5 6.96194 16.6317 6.64399 16.8661 6.40957C17.1005 6.17515 17.4185 6.04346 17.75 6.04346ZM12.5 7.54346C13.8261 7.54346 15.0979 8.07024 16.0355 9.00792C16.9732 9.94561 17.5 11.2174 17.5 12.5435C17.5 13.8695 16.9732 15.1413 16.0355 16.079C15.0979 17.0167 13.8261 17.5435 12.5 17.5435C11.1739 17.5435 9.90215 17.0167 8.96447 16.079C8.02678 15.1413 7.5 13.8695 7.5 12.5435C7.5 11.2174 8.02678 9.94561 8.96447 9.00792C9.90215 8.07024 11.1739 7.54346 12.5 7.54346ZM12.5 9.54346C11.7044 9.54346 10.9413 9.85953 10.3787 10.4221C9.81607 10.9847 9.5 11.7478 9.5 12.5435C9.5 13.3391 9.81607 14.1022 10.3787 14.6648C10.9413 15.2274 11.7044 15.5435 12.5 15.5435C13.2956 15.5435 14.0587 15.2274 14.6213 14.6648C15.1839 14.1022 15.5 13.3391 15.5 12.5435C15.5 11.7478 15.1839 10.9847 14.6213 10.4221C14.0587 9.85953 13.2956 9.54346 12.5 9.54346Z" fill="#413268"/>
</svg>
