<svg xmlns="http://www.w3.org/2000/svg" xmlns:xlink="http://www.w3.org/1999/xlink" width="360.194" height="296.055" viewBox="0 0 360.194 296.055">
  <defs>
    <linearGradient id="linear-gradient" x1="0.5" y1="1" x2="0.5" gradientUnits="objectBoundingBox">
      <stop offset="0" stop-color="#644e9f"/>
      <stop offset="1" stop-color="#917ccd"/>
    </linearGradient>
  </defs>
  <g id="Group_45" data-name="Group 45" transform="translate(939.091 718.01)">
    <path id="Path_24" data-name="Path 24" d="M-615.641-523.829c-15.488,103.027-98.415,70.6-135.359,91.2-105.711,58.96-191.231,24.618-188-89.661,2.263-80.079,75.672-145.054,169.019-145.054S-603.732-603.05-615.641-523.829Z" transform="translate(0 -25.679)" fill="url(#linear-gradient)"/>
    <g id="Group_44" data-name="Group 44" transform="translate(-896.769 -718.01)">
      <path id="Path_25" data-name="Path 25" d="M-733.635-490.248H-838.989a14.308,14.308,0,0,1-14.292-14.292v-148.21a65.334,65.334,0,0,1,65.261-65.26h54.385a14.308,14.308,0,0,1,14.292,14.292V-504.54A14.308,14.308,0,0,1-733.635-490.248Z" transform="translate(853.281 718.01)" fill="#f2f2f2"/>
      <path id="Path_26" data-name="Path 26" d="M-823.019-456.856a6.027,6.027,0,0,0-6.02,6.019v33.829a6.027,6.027,0,0,0,6.02,6.02h102.384a6.026,6.026,0,0,0,6.019-6.02v-33.829a6.026,6.026,0,0,0-6.019-6.019Z" transform="translate(840.995 585.658)" fill="#fff"/>
      <path id="Path_27" data-name="Path 27" d="M-720.642-549.5H-823.026a6.52,6.52,0,0,1-6.513-6.512A40.388,40.388,0,0,1-789.2-596.356h68.555a6.52,6.52,0,0,1,6.512,6.513v33.829A6.52,6.52,0,0,1-720.642-549.5Z" transform="translate(841.249 656.356)" fill="#fff"/>
      <path id="Path_28" data-name="Path 28" d="M-643.161-411.66H-761.022a2.615,2.615,0,0,1-2.613-2.613v-31.055a2.615,2.615,0,0,1,2.613-2.613h117.861a2.616,2.616,0,0,1,2.613,2.613v31.055A2.616,2.616,0,0,1-643.161-411.66Z" transform="translate(807.849 581.139)" fill="#fff"/>
      <path id="Path_29" data-name="Path 29" d="M-643.668-411.673H-761.529a3.109,3.109,0,0,1-3.106-3.106v-31.055a3.109,3.109,0,0,1,3.106-3.106h117.861a3.11,3.11,0,0,1,3.106,3.106v31.055A3.11,3.11,0,0,1-643.668-411.673Zm-117.861-36.28a2.122,2.122,0,0,0-2.12,2.12v31.055a2.122,2.122,0,0,0,2.12,2.12h117.861a2.122,2.122,0,0,0,2.12-2.12v-31.055a2.123,2.123,0,0,0-2.12-2.12Z" transform="translate(808.355 581.646)" fill="#ccc"/>
      <circle id="Ellipse_25" data-name="Ellipse 25" cx="4.24" cy="4.24" r="4.24" transform="translate(52.608 139.439)" fill="#654EA0"/>
      <path id="Path_30" data-name="Path 30" d="M-641.582-407.623H-745.353a1.262,1.262,0,0,1-1.264-1.261,1.263,1.263,0,0,1,1.261-1.265h103.774a1.263,1.263,0,0,1,1.265,1.261,1.263,1.263,0,0,1-1.261,1.264Z" transform="translate(799.224 561.986)" fill="#654EA0"/>
      <path id="Path_31" data-name="Path 31" d="M-651.892-397.507h-93.46a1.263,1.263,0,0,1-1.263-1.263,1.263,1.263,0,0,1,1.263-1.263h93.46a1.262,1.262,0,0,1,1.263,1.263,1.263,1.263,0,0,1-1.263,1.263Z" transform="translate(799.222 556.859)" fill="#654EA0"/>
      <path id="Path_32" data-name="Path 32" d="M-354.118-331.053l-94.755-70.089a2.616,2.616,0,0,1-.547-3.655l18.468-24.967a2.616,2.616,0,0,1,3.655-.546l94.755,70.09a2.616,2.616,0,0,1,.547,3.655L-350.464-331.6A2.616,2.616,0,0,1-354.118-331.053Z" transform="translate(648.864 572.464)" fill="#fff"/>
      <path id="Path_33" data-name="Path 33" d="M-354.918-331.163l-94.756-70.09a3.11,3.11,0,0,1-.65-4.345l18.468-24.966a3.109,3.109,0,0,1,4.344-.65l94.755,70.09a3.11,3.11,0,0,1,.65,4.344l-18.468,24.967A3.11,3.11,0,0,1-354.918-331.163Zm-73.18-99.258a2.122,2.122,0,0,0-2.965.443L-449.53-405.01a2.122,2.122,0,0,0,.444,2.965l94.755,70.09a2.122,2.122,0,0,0,2.965-.444l18.468-24.966a2.123,2.123,0,0,0-.444-2.965Z" transform="translate(649.371 572.97)" fill="#ccc"/>
      <circle id="Ellipse_26" data-name="Ellipse 26" cx="4.24" cy="4.24" r="4.24" transform="translate(219.152 152.298)" fill="#654EA0"/>
      <path id="Path_34" data-name="Path 34" d="M-335.175-327.421-418.6-389.132a1.262,1.262,0,0,1-.264-1.766,1.262,1.262,0,0,1,1.766-.264h0l83.428,61.711a1.263,1.263,0,0,1,.264,1.766,1.263,1.263,0,0,1-1.766.264Z" transform="translate(633.246 552.49)" fill="#654EA0"/>
      <path id="Path_35" data-name="Path 35" d="M-349.48-325.42-424.618-381a1.262,1.262,0,0,1-.264-1.766,1.263,1.263,0,0,1,1.766-.264l75.138,55.579a1.263,1.263,0,0,1,.264,1.766,1.263,1.263,0,0,1-1.766.264Z" transform="translate(636.295 548.368)" fill="#654EA0"/>
      <path id="Path_36" data-name="Path 36" d="M-353.261-411.356a4.614,4.614,0,0,1-.71-6.486,4.593,4.593,0,0,1,.508-.538l-7.47-21.75,5.508-3.545,8.683,25.9a4.607,4.607,0,0,1-.817,6.464A4.608,4.608,0,0,1-353.261-411.356Z" transform="translate(603.76 578.978)" fill="#ffb6b6"/>
      <path id="Path_37" data-name="Path 37" d="M-370.839-507.073c1.319,5.581,3.289,10.456,3.022,12.8s2.589,4.578,1.682,6.423,1.881,2.048,1.128,5.026-1.247,3.622-.609,4.113,4.038,11.878,4.038,11.878l-1.992.73-5.812,2.12-13.658-22.464.041-27.573,3.391-.109c.814.305,1.716.671,2.615,1.113C-374.244-511.691-371.465-509.731-370.839-507.073Z" transform="translate(614.963 614.684)" fill="#e6e6e6"/>
      <path id="Path_38" data-name="Path 38" d="M-471.043-173.236h-7.1l-3.379-27.394h10.482Z" transform="translate(664.876 455.803)" fill="#ffb6b6"/>
      <path id="Path_39" data-name="Path 39" d="M-503.759-138.9a3.021,3.021,0,0,0,3,3.008h13.37l.414-.859,1.891-3.9.732,3.9.162.859h5.043l-.072-.865-1.345-16.126-1.759-.108-7.6-.45-1.867-.114v4.815C-493.2-147.23-504.323-141.533-503.759-138.9Z" transform="translate(676.155 431.944)" fill="#e6e6e6"/>
      <path id="Path_40" data-name="Path 40" d="M-314.825-185.244l-6.177,3.5L-337.46-203.9l9.117-5.173Z" transform="translate(591.864 460.081)" fill="#ffb6b6"/>
      <path id="Path_41" data-name="Path 41" d="M-319.19-145.095a3.007,3.007,0,0,0,4.095,1.135l.7-.4h.006l10.92-6.2-.348-5.277,3.134,3.7,2.312-1.315,2.071-1.177-1.831-2.678-7.786-11.4-1.585.781-6.838,3.356-1.669.823,2.371,4.184C-314.123-157.546-320.979-147.112-319.19-145.095Z" transform="translate(582.756 439.625)" fill="#e6e6e6"/>
      <path id="Path_42" data-name="Path 42" d="M-437.9-420.274c9.517,6.307,18.939,66.9,16.466,65.909L-399-312.559l-31.929,14.312-20.994-72.9-3.5,26.826,4.666,42.571-20.639,4.991-14.275-1.02c3.709-50.744,12.971-104.264,20.646-124.966Z" transform="translate(666.977 568.368)" fill="#2f2e41"/>
      <path id="Path_43" data-name="Path 43" d="M-414.505-471.434l.1.39c-10.061,5.6-17.652,9.292-28.65,5.9l-7.309-6.579-3.408-13.144.212-33.143a9.288,9.288,0,0,1,9.346-9.229q.316,0,.631.026l7.23-5.356,10.293.355,6.885,7.605,4.113,1.47,3.2,1.139c.646.582,1.351,1.253,2.027,1.992l-5.055,30.085-2.15,9Z" transform="translate(650.809 624.027)" fill="#e6e6e6"/>
      <circle id="Ellipse_27" data-name="Ellipse 27" cx="13.207" cy="13.207" r="13.207" transform="translate(206.39 63.855)" fill="#ffb6b6"/>
      <path id="Path_44" data-name="Path 44" d="M-382.419-587.039l-.113.044a1.761,1.761,0,0,1-.231.084,6.369,6.369,0,0,1-1.562.359,6.233,6.233,0,0,1-.686.036,6.438,6.438,0,0,1-.878-.057,6.116,6.116,0,0,1-.957-.195,4.549,4.549,0,0,1-.439-.141,6.729,6.729,0,0,1-4.164-4.315v0a2.911,2.911,0,0,1-.085-.3,6.662,6.662,0,0,1-.221-1.7v-.01a6.673,6.673,0,0,1,1.248-3.9c.491-.7,1.059-.813.74-1.61-1.016-2.541,3.141-4.618,5.594-3.5a2.26,2.26,0,0,1,.266-.011c1.652,0,2.265,2.436,3.25,3.809l-.029.009a1.268,1.268,0,0,0-.778,1.616,1.268,1.268,0,0,0,.794.783q.983.321,1.988.566C-376.475-592.871-379.005-585.242-382.419-587.039Z" transform="translate(619.381 659.5)" fill="#2f2e41"/>
      <path id="Path_45" data-name="Path 45" d="M-405.2-577.677a13.71,13.71,0,0,1-4.3,7.3c-2.235,1.806-12.744,6.084-13.631,2.422.593,2.558.236,3.536-.719,4.451-.163-.221-.336-.433-.515-.64a8.326,8.326,0,0,0-2.323-1.863,26.734,26.734,0,0,0,.332,4.616,15.6,15.6,0,0,0-1.122,1.147c-1.7-5.066-5.425-11.133-2.727-15.746,1.07-1.831.178-2.081-.77-2.291-1.655-.367-2.568-7.16-2.962-8.811-.489-2.07-.682-4.452.6-6.152s4.528-1.772,5.184.253l1.367-1.858c1.766-3.886,6.453-3.109,10.691-2.607a13.171,13.171,0,0,1,9.887,7.294A18.015,18.015,0,0,1-405.2-577.677Z" transform="translate(640.949 657.13)" fill="#2f2e41"/>
      <path id="Path_46" data-name="Path 46" d="M-388.844-593.64A11.964,11.964,0,0,0-382-582.365c.861.39,1.61-.887.743-1.279a10.526,10.526,0,0,1-6.107-10c.049-.951-1.43-.945-1.48,0Z" transform="translate(617.91 655.342)" fill="#654EA0"/>
      <path id="Path_47" data-name="Path 47" d="M-518.772-435.791a4.614,4.614,0,0,0,3.212-5.68,4.592,4.592,0,0,0-.255-.694l15.447-17.037-3.662-5.431-18.2,20.369a4.608,4.608,0,0,0-1.8,6.262A4.608,4.608,0,0,0-518.772-435.791Z" transform="translate(686.709 589.599)" fill="#ffb6b6"/>
      <path id="Path_48" data-name="Path 48" d="M-463.574-518.647s-10.956-1.967-14.37,2.645-7.147,8.311-7.827,10.565-4.185,3.186-4.081,5.242-2.537,1.137-3.018,4.174-.283,3.82-1.066,4.018-8.394,9.321-8.394,9.321l6.044,5.7,21.412-15.251Z" transform="translate(675.419 617.185)" fill="#e6e6e6"/>
      <circle id="Ellipse_28" data-name="Ellipse 28" cx="11.161" cy="11.161" r="11.161" transform="translate(102.084 6.977)" fill="#654EA0"/>
      <path id="Path_49" data-name="Path 49" d="M-624.157-681.329a.475.475,0,0,1-.475-.475h0v-10.991a.475.475,0,0,1,.476-.474.475.475,0,0,1,.473.474V-681.8A.475.475,0,0,1-624.157-681.329Z" transform="translate(737.402 705.471)" fill="#fff"/>
      <path id="Path_50" data-name="Path 50" d="M-624.309-681.179H-635.3a.474.474,0,0,1-.476-.473.476.476,0,0,1,.474-.477h10.993a.475.475,0,0,1,.476.474.475.475,0,0,1-.474.476Z" transform="translate(743.05 699.826)" fill="#fff"/>
    </g>
  </g>
</svg>
