<svg xmlns="http://www.w3.org/2000/svg" xmlns:xlink="http://www.w3.org/1999/xlink" width="299.207" height="346.384" viewBox="0 0 299.207 346.384">
  <defs>
    <linearGradient id="linear-gradient" x1="0.5" y1="1" x2="0.5" gradientUnits="objectBoundingBox">
      <stop offset="0" stop-color="#644e9f"/>
      <stop offset="1" stop-color="#917ccd"/>
    </linearGradient>
  </defs>
  <g id="Group_47" data-name="Group 47" transform="translate(1357.365 -33.939)">
    <path id="Path_51" data-name="Path 51" d="M-1222.9,34.7c-158.087,15.538-199.3,298.608,0,324.956,154.458,14.741,182.788-107.83,110.882-189.091a41.728,41.728,0,0,1-10.471-30.609C-1116.814,60.835-1164.922,28.4-1222.9,34.7Z" transform="translate(0 0)" fill="url(#linear-gradient)"/>
    <g id="Group_46" data-name="Group 46" transform="translate(-1299.523 87.201)">
      <path id="Path_52" data-name="Path 52" d="M-1033.678,309.294h0a5.3,5.3,0,0,1,6.38,3.923,5.534,5.534,0,0,1-2.829,6.136l-12,12.849-9.64-2.266,14.2-13.165a5.321,5.321,0,0,1-.279-.835,5.55,5.55,0,0,1,4.034-6.606Z" transform="translate(1123.078 -246.101)" fill="#a0616a"/>
      <path id="Path_53" data-name="Path 53" d="M-1078.167,320.018l1.687-21.833a7.951,7.951,0,0,0,0-.865c0-.081-.008-.162-.015-.243h0a7.824,7.824,0,0,0-8.4-7.2h0a8.248,8.248,0,0,0-7.641,8.384l.367,30.186a7.65,7.65,0,0,0,5.676,7.237h0a7.985,7.985,0,0,0,7.533-1.943l13.87-13.113-5.535-7.484Z" transform="translate(1146.613 -234.96)" fill="#e6e6e6"/>
      <path id="Path_54" data-name="Path 54" d="M-971.646,329.081l-.033-.145,15.844-44.185-11.624-42.543-.037-.139,15.243-52.853,25.847,10.575-13.371,40.774,11.705,44.792.04.154-15.835,43.511,10.827,45.42-28.14.624Zm26.749.03-.036-.149,15.831-43.5-11.7-44.784-.039-.145,13.168-40.156-23.912-9.784-14.848,51.483,11.671,42.715L-970.616,329l10.247,45.028,26.04-.579Z" transform="translate(1076.835 -176.855)" fill="#3f3d56"/>
      <path id="Path_55" data-name="Path 55" d="M-928.082,187.771a13.373,13.373,0,0,1,13.047-13.37,13.374,13.374,0,0,1,13.7,13.043c.005.107.005.22.005.327,0,.23-.005.465-.015.7a13.357,13.357,0,0,1-7.786,11.462,10.843,10.843,0,0,1-1.3.511v.005a13.253,13.253,0,0,1-4.274.7,12.32,12.32,0,0,1-1.518-.092q-.529-.054-1.043-.153a13.184,13.184,0,0,1-3.528-1.227,9.728,9.728,0,0,1-.9-.511,13.359,13.359,0,0,1-6.38-11.39Z" transform="translate(1051.663 -168.299)" fill="#e6e6e6"/>
      <path id="Path_56" data-name="Path 56" d="M-951.833,279.8a12,12,0,0,1,1.217-.368,13.319,13.319,0,0,1,3.247-.4c.307,0,.608.011.91.036.353.02.705.056,1.053.107a13.182,13.182,0,0,1,4.954,1.784,10.268,10.268,0,0,1,.89.588v.005a13.376,13.376,0,0,1,2.55,2.4,13.368,13.368,0,0,1-1.89,18.81c-.271.225-.557.439-.849.639a13.177,13.177,0,0,1-4.673,2.055c-.337.077-.685.143-1.032.189a13.1,13.1,0,0,1-1.912.138,13.428,13.428,0,0,1-2.091-.164c-.419-.067-.828-.153-1.237-.256a13.392,13.392,0,0,1-9.954-11.431,9.7,9.7,0,0,1-.077-1.022c-.01-.169-.016-.332-.016-.5A13.363,13.363,0,0,1-951.833,279.8Z" transform="translate(1070.521 -228.714)" fill="#e6e6e6"/>
      <path id="Path_57" data-name="Path 57" d="M-925.667,385.156c.307-.164.619-.307.941-.44a13.036,13.036,0,0,1,3.758-.966,10.344,10.344,0,0,1,1.053-.066c.123-.01.246-.01.368-.01a13.306,13.306,0,0,1,5.562,1.212,11.211,11.211,0,0,1,1.232.644,13.353,13.353,0,0,1,6.574,11.211c.005.1.005.2.005.307,0,.24-.005.475-.015.716a13.384,13.384,0,0,1-9.284,12.024,12.189,12.189,0,0,1-1.3.348,13.527,13.527,0,0,1-5.511.005q-.514-.108-1.012-.261a12.9,12.9,0,0,1-3.282-1.467,9.6,9.6,0,0,1-.859-.578,13.358,13.358,0,0,1-5.481-10.787A13.359,13.359,0,0,1-925.667,385.156Z" transform="translate(1054.457 -289.13)" fill="#e6e6e6"/>
      <path id="Path_58" data-name="Path 58" d="M-958.821,488.432h.005v-.005c.388-.051.787-.087,1.186-.1q.292-.015.583-.015a13.323,13.323,0,0,1,3.216.388c.337.082.665.179.992.292a13.2,13.2,0,0,1,4.453,2.5c.281.235.552.486.813.746v.005a13.341,13.341,0,0,1,.9,1,13.369,13.369,0,0,1-1.936,18.808,10.9,10.9,0,0,1-.88.659,13.244,13.244,0,0,1-4.949,2.086c-.338.066-.68.122-1.023.158a12.516,12.516,0,0,1-1.59.1,13.354,13.354,0,0,1-2.495-.235,11.35,11.35,0,0,1-1.166-.276v-.005a13.36,13.36,0,0,1-9.667-11.861q-.047-.491-.046-1v-.025A13.359,13.359,0,0,1-958.821,488.432Z" transform="translate(1076.109 -349.546)" fill="#e6e6e6"/>
      <path id="Path_59" data-name="Path 59" d="M-938.1,594.609q.453-.253.92-.46a13.007,13.007,0,0,1,3.574-1.058c.348-.051.7-.087,1.058-.112q.453-.03.9-.031a13.237,13.237,0,0,1,5.026.982,12,12,0,0,1,1.37.644,13.356,13.356,0,0,1,6.973,11.457c.005.1.005.194.005.292,0,.245-.005.485-.021.731a13.374,13.374,0,0,1-13.353,12.643,13.374,13.374,0,0,1-13.374-13.373A13.359,13.359,0,0,1-938.1,594.609Z" transform="translate(1061.441 -409.961)" fill="#e6e6e6"/>
      <path id="Path_60" data-name="Path 60" d="M-1165.912,159.967c10.281,0,21.536,7.933,21.955,18.2.955,23.387-7.892,20.624-18.137,21.478-5.318.443-40.45,5.344-22.79-29.77C-1180.265,160.7-1176.192,159.967-1165.912,159.967Z" transform="translate(1202.777 -159.967)" fill="#2f2e41"/>
      <path id="Path_61" data-name="Path 61" d="M-1182.406,752.47h-10.953l3.531,28.625h7.421Z" transform="translate(1204.828 -502.066)" fill="#a0616a"/>
      <path id="Path_62" data-name="Path 62" d="M-1220.477,825.192a3.157,3.157,0,0,0,3.137,3.143h13.971l.433-.9,1.976-4.078.765,4.078.169.9h5.27l-.075-.9-1.405-16.85-1.838-.113-7.942-.471-1.951-.119v5.031C-1209.448,816.485-1221.066,822.438-1220.477,825.192Z" transform="translate(1220.498 -535.213)" fill="#e6e6e6"/>
      <path id="Path_63" data-name="Path 63" d="M-1088.474,752.47h10.953l-3.531,28.625h-7.421Z" transform="translate(1144.27 -502.066)" fill="#a0616a"/>
      <path id="Path_64" data-name="Path 64" d="M-1070.608,825.192a3.156,3.156,0,0,1-3.136,3.143h-13.971l-.433-.9-1.976-4.078-.766,4.078-.169.9h-5.27l.075-.9,1.405-16.85,1.838-.113,7.942-.471,1.951-.119v5.031C-1081.636,816.485-1070.018,822.438-1070.608,825.192Z" transform="translate(1148.805 -535.213)" fill="#e6e6e6"/>
      <path id="Path_65" data-name="Path 65" d="M-1197.043,479.167c-5.89,3.22-7.461,32.2-5.1,40.249s1.863,88.021,1.863,88.021l14.315-.511s.472-5.56,1.267-14.186c.127-1.388-1.922-2.682-1.778-4.219.145-1.552,2.484-3.347,2.645-5.029.117-1.232-1.237-2.37-1.112-3.662.118-1.22,1.715-2.592,1.84-3.859,1.591-16.19,3.676-35.855,5.81-51.575.19-1.4,1.362-2.538,1.552-3.869.2-1.378-.587-2.946-.391-4.24.185-1.216-1.327-2.3-1.143-3.429.178-1.091,2.052-2.238,2.229-3.242,1.4-7.961,2.749-13.057,3.924-13.143,1.425-.1,3.071,7.295,4.728,18.315.17,1.126-1.336,3.518-1.167,4.715.211,1.494,2.1,1.812,2.307,3.4.15,1.131,1.633,2.071,1.782,3.244.146,1.148-1.044,2.527-.9,3.71.667,5.451,1.321,11.242,1.949,17.108.955,8.928,1.848,18.03,2.627,26.371.129,1.372,1.825,3.119,1.947,4.446.1,1.071-1.377,1.729-1.283,2.766q.177,1.956.344,3.815c.134,1.5,1.84,2.762,1.962,4.155.1,1.193-1.373,2.529-1.277,3.636.8,9.25,1.277,15.28,1.277,15.28l14.315,1.023c-1.329-6.167,2.868-33.52,3.578-55.724.432-13.509-2.556-25.051-2.346-28.892,2.749-16.1-2.356-44.676-2.356-44.676S-1191.152,475.947-1197.043,479.167Z" transform="translate(1210.509 -343.44)" fill="#2f2e41"/>
      <path id="Path_66" data-name="Path 66" d="M-1178.832,259.044l-3.3,10.724-18.4,7.128,10.324,47.751-1.66,5.872-.984,3.479-1.293,5.558.511,2.556-2.556,6.135-2.556,4.09c-1.455,2.025-1.084,4.064,0,6.135l57.557-.595c1.063-2.062.4-4.1-1.351-6.122l-6.771-30.686,6.289-47.461-17.552-5.868-1.739-8.695Z" transform="translate(1208.97 -217.172)" fill="#e6e6e6"/>
      <circle id="Ellipse_29" data-name="Ellipse 29" cx="14.36" cy="14.36" r="14.36" transform="translate(25.116 9.685) rotate(-3.17)" fill="#a0616a"/>
      <path id="Path_67" data-name="Path 67" d="M-1154.931,168.281a20.957,20.957,0,0,1,3.9.372c11-1.389,21.6,2.749,18.8,14.834a9.509,9.509,0,0,1-5.675,1.871,22.206,22.206,0,0,1-4.558,1.412,5.225,5.225,0,0,1-2.148-3.718,6.883,6.883,0,0,0-.6,4.129c-5.56.563-11.856-.31-18.471-1.823-2.615,0-4-1.16-5.727-2.864C-1168.433,173.407-1163.131,168.281-1154.931,168.281Z" transform="translate(1190.999 -164.767)" fill="#2f2e41"/>
      <path id="Path_68" data-name="Path 68" d="M-922.345,344.31l5.705,11.247a31.98,31.98,0,0,1,1.365,3.067h-1.1c-.358-.885-.751-1.748-1.181-2.6l-5.813-11.477c-.041-.077-.082-.153-.118-.235Z" transform="translate(1049.009 -266.403)" fill="#3f3d56"/>
      <path id="Path_69" data-name="Path 69" d="M-920.258,246.964a33.429,33.429,0,0,0,4.2-6.687h1.135a34.738,34.738,0,0,1-4.539,7.326,33.552,33.552,0,0,0-4.341,6.988h-1.125A34.419,34.419,0,0,1-920.258,246.964Z" transform="translate(1049.84 -206.336)" fill="#3f3d56"/>
      <path id="Path_70" data-name="Path 70" d="M-922.046,450.761h1.14l-6.912,14.315h-1.135Z" transform="translate(1052.166 -327.866)" fill="#3f3d56"/>
      <path id="Path_71" data-name="Path 71" d="M-932.6,555l5.782,14.11h-1.1l-5.623-13.722c-.082-.2-.158-.393-.235-.593h1.1C-932.655,554.86-932.624,554.932-932.6,555Z" transform="translate(1054.953 -387.932)" fill="#3f3d56"/>
      <path id="Path_72" data-name="Path 72" d="M-944.7,555l5.782,14.11h-1.1l-5.623-13.722c-.082-.2-.159-.393-.235-.593h1.1C-944.752,554.86-944.721,554.932-944.7,555Z" transform="translate(1061.937 -387.932)" fill="#3f3d56"/>
      <path id="Path_73" data-name="Path 73" d="M-934.442,344.31l5.705,11.247a33.248,33.248,0,0,1,1.37,3.067h-1.1q-.529-1.322-1.181-2.6l-5.813-11.477c-.041-.077-.076-.158-.117-.235Z" transform="translate(1055.993 -266.403)" fill="#3f3d56"/>
      <path id="Path_74" data-name="Path 74" d="M-932.348,246.964a33.932,33.932,0,0,0,4.208-6.687h1.13a34.76,34.76,0,0,1-4.54,7.326,33.689,33.689,0,0,0-4.341,6.988h-1.12A34.4,34.4,0,0,1-932.348,246.964Z" transform="translate(1056.818 -206.336)" fill="#3f3d56"/>
      <path id="Path_75" data-name="Path 75" d="M-934.143,450.761h1.135l-6.907,14.315h-1.135Z" transform="translate(1059.15 -327.866)" fill="#3f3d56"/>
      <path id="Path_76" data-name="Path 76" d="M-916.873,555l5.782,14.11h-1.1l-5.624-13.722c-.081-.2-.158-.393-.235-.593h1.1C-916.929,554.86-916.9,554.932-916.873,555Z" transform="translate(1045.873 -387.932)" fill="#3f3d56"/>
      <path id="Path_77" data-name="Path 77" d="M-906.62,344.31l5.705,11.247a33.273,33.273,0,0,1,1.365,3.067h-1.1q-.524-1.322-1.176-2.6l-5.813-11.477c-.041-.077-.077-.153-.118-.235Z" transform="translate(1039.929 -266.403)" fill="#3f3d56"/>
      <path id="Path_78" data-name="Path 78" d="M-904.531,246.964a33.84,33.84,0,0,0,4.208-6.687h1.13a34.866,34.866,0,0,1-4.54,7.326,33.573,33.573,0,0,0-4.345,6.988H-909.2A34.648,34.648,0,0,1-904.531,246.964Z" transform="translate(1040.76 -206.336)" fill="#3f3d56"/>
      <path id="Path_79" data-name="Path 79" d="M-905.18,450.761l-6.912,14.315h-1.135l6.907-14.315Z" transform="translate(1043.086 -327.866)" fill="#3f3d56"/>
      <path id="Path_80" data-name="Path 80" d="M-744.949,202.383a6.646,6.646,0,0,0,6.646,6.646h27.1a6.646,6.646,0,0,0,6.646-6.646,6.646,6.646,0,0,0-6.646-6.646h-27.1A6.646,6.646,0,0,0-744.949,202.383Z" transform="translate(945.926 -180.62)" fill="#654ea0"/>
      <rect id="Rectangle_233" data-name="Rectangle 233" width="1.023" height="52.366" transform="matrix(0.014, -1, 1, 0.014, 142.121, 20.051)" fill="#3f3d56"/>
      <path id="Path_81" data-name="Path 81" d="M-767.933,620.932a6.646,6.646,0,0,0,6.646,6.646h27.1a6.646,6.646,0,0,0,6.646-6.646,6.646,6.646,0,0,0-6.646-6.646h-27.1A6.646,6.646,0,0,0-767.933,620.932Z" transform="translate(959.196 -422.282)" fill="#654ea0"/>
      <rect id="Rectangle_234" data-name="Rectangle 234" width="1.023" height="52.366" transform="matrix(0.014, -1, 1, 0.014, 132.408, 196.939)" fill="#3f3d56"/>
      <path id="Path_82" data-name="Path 82" d="M-753.416,411.657a6.646,6.646,0,0,0,6.646,6.646h27.1a6.646,6.646,0,0,0,6.646-6.646,6.646,6.646,0,0,0-6.646-6.646h-27.1A6.646,6.646,0,0,0-753.416,411.657Z" transform="translate(950.814 -301.451)" fill="#654ea0"/>
      <rect id="Rectangle_235" data-name="Rectangle 235" width="1.023" height="52.366" transform="matrix(0.014, -1, 1, 0.014, 138.543, 108.495)" fill="#3f3d56"/>
      <path id="Path_83" data-name="Path 83" d="M-1166.208,308.835a6.646,6.646,0,0,0,6.646,6.646h27.1a6.646,6.646,0,0,0,6.646-6.646,6.646,6.646,0,0,0-6.646-6.646h-27.1A6.646,6.646,0,0,0-1166.208,308.835Z" transform="translate(1189.152 -242.083)" fill="#654ea0"/>
      <path id="Path_84" data-name="Path 84" d="M-1071.1,312.2l59.031-.756.015,1.022-59.031.756Z" transform="translate(1134.236 -247.424)" fill="#3f3d56"/>
      <path id="Path_85" data-name="Path 85" d="M-1178.3,516.9a6.646,6.646,0,0,0,6.646,6.646h27.1a6.646,6.646,0,0,0,6.646-6.646,6.646,6.646,0,0,0-6.646-6.646h-27.1A6.646,6.646,0,0,0-1178.3,516.9Z" transform="translate(1196.136 -362.216)" fill="#654ea0"/>
      <rect id="Rectangle_236" data-name="Rectangle 236" width="52.366" height="1.023" transform="translate(64.699 152.704) rotate(-0.828)" fill="#3f3d56"/>
      <path id="Path_86" data-name="Path 86" d="M-1149.808,316.552h0a5.3,5.3,0,0,1,6.38,3.923,5.535,5.535,0,0,1-2.829,6.136l-12,12.849-9.64-2.266,14.2-13.165a5.332,5.332,0,0,1-.278-.835,5.549,5.549,0,0,1,4.033-6.606Z" transform="translate(1190.128 -250.292)" fill="#a0616a"/>
      <path id="Path_87" data-name="Path 87" d="M-1194.3,327.276l1.687-21.833a8.044,8.044,0,0,0,0-.865q-.005-.122-.015-.243h0a7.824,7.824,0,0,0-8.4-7.2h0a8.25,8.25,0,0,0-7.642,8.384l.367,30.186a7.651,7.651,0,0,0,5.676,7.237h0a7.984,7.984,0,0,0,7.533-1.943l13.871-13.113-5.535-7.484Z" transform="translate(1213.665 -239.15)" fill="#e6e6e6"/>
    </g>
  </g>
</svg>
