<svg xmlns="http://www.w3.org/2000/svg" xmlns:xlink="http://www.w3.org/1999/xlink" width="376.5" height="351.612" viewBox="0 0 376.5 351.612">
  <defs>
    <linearGradient id="linear-gradient" x1="0.833" y1="-0.08" x2="0.664" y2="0.901" gradientUnits="objectBoundingBox">
      <stop offset="0" stop-color="#644e9f"/>
      <stop offset="1" stop-color="#917ccd"/>
    </linearGradient>
  </defs>
  <g id="Group_51" data-name="Group 51" transform="translate(71.021 1108.264)">
    <path id="Path_178" data-name="Path 178" d="M-70.793-914.611c-5.714-122.849,97.75-104.333,135.8-136.673,108.87-92.534,215.775-72.4,238.266,60.667,15.76,93.242-54.327,185.326-162.413,206.751S-66.4-820.148-70.793-914.611Z" transform="translate(0 0)" fill="url(#linear-gradient)"/>
    <g id="Group_50" data-name="Group 50" transform="translate(-66.024 -1077.896)">
      <path id="Path_179" data-name="Path 179" d="M409.587-537.236H402.16l-3.533-28.646h10.961Z" transform="translate(-130.2 851.284)" fill="#ffb6b6"/>
      <path id="Path_180" data-name="Path 180" d="M401.427-523.227l-7.929-3.225-.227-.093-4.378,3.318a9.322,9.322,0,0,0-9.321,9.321v.3h23.945v-9.624Z" transform="translate(-122.238 834.848)" fill="#e6e6e6"/>
      <path id="Path_181" data-name="Path 181" d="M516.505-551.663l-6.647,3.313-15.941-24.062,9.81-4.889Z" transform="translate(-170.013 856.055)" fill="#ffb6b6"/>
      <path id="Path_182" data-name="Path 182" d="M520.67-538.445l-1.7.844-.175.087-8.523.658-.256.018-2.439,4.919a9.316,9.316,0,0,0-4.184,12.493l0,.006.134.268,21.43-10.677Z" transform="translate(-173.562 839.82)" fill="#e6e6e6"/>
      <path id="Path_183" data-name="Path 183" d="M402.4-781.145l40.952,1.433.285-.415s3.493,8.151,3.493,15.137c0,2.323-1.616,17.515-.794,20.389.1.358-.6,1.234-.37,2.9.15,1.08.975.249,1.164,1.747.136,1.075-1.316,1.668-1.164,2.911.166,1.358,2.164,5.757,2.343,7.268,1.915,16.084,4.464,39.383,4.464,39.383s10.238,27.423,12.4,27.869c3.635.747,6.09,7.358,4.075,8.733-.959.654-13.358,5.059-13.358,5.059-.681.123-2.813-.946-1.455-3.474.25-.465-1.241.719-1.488.162-.264-.593.254-2.95-.048-3.607-2.71-5.906-6.87-14.089-10.812-18.291a39.939,39.939,0,0,1-10.528-22.569l-9.043-50.141-3.1,14.06-2.565,2.534.7,5.909-.121,5.735-6.4,23.87s-.961,44.577.582,45.993c.835.767,4.38,10.21-2.329,11.062l-12.19-.94s-1.642-3.461-.821-4.693.772-.9-.23-2.912-.591-5.432-.591-5.432a402.311,402.311,0,0,1-1.886-48.318c.611-26.491,4.314-56.925,4.314-57.545a4.093,4.093,0,0,0-.341-1.847v-1.672l1.573-5.925Z" transform="translate(-128.048 941.223)" fill="#2f2e41"/>
      <circle id="Ellipse_32" data-name="Ellipse 32" cx="16.173" cy="16.173" r="16.173" transform="translate(315.806 132.739)" fill="#654ea0"/>
      <path id="Path_184" data-name="Path 184" d="M499.538-797.947a1.8,1.8,0,0,1-1.439-.72l-4.412-5.884a1.8,1.8,0,0,1,.353-2.519,1.8,1.8,0,0,1,2.52.353l.005.007,2.886,3.849,7.414-11.121a1.8,1.8,0,0,1,2.5-.5,1.8,1.8,0,0,1,.5,2.495l-8.825,13.237a1.8,1.8,0,0,1-1.447.8Z" transform="translate(-169.765 955.277)" fill="#fff"/>
      <path id="Path_185" data-name="Path 185" d="M508.5-795.324a4.651,4.651,0,0,0-3.445-5.6,4.659,4.659,0,0,0-.812-.119l-8.287-28.235-5.606,6.506,8.92,26.437a4.676,4.676,0,0,0,4.716,4.635A4.676,4.676,0,0,0,508.5-795.324Z" transform="translate(-168.522 961.334)" fill="#ffb8b8"/>
      <path id="Path_186" data-name="Path 186" d="M481.154-843.369l-1.077-3.947,1.234-2.358-.093-.274-.373-1.06-1.933-1.549.693-1.974-2.445-6.946-.6-1.205-14.037-28.184-3.365-6.759-.78-1.223-2.428-3.807-3.318-5.2a7.425,7.425,0,0,0-4.7-3.278,7.617,7.617,0,0,0-.943-.146l-.227-.017a7.464,7.464,0,0,0-1.694.1h-.012a7.265,7.265,0,0,0-2.76,1.094,7.408,7.408,0,0,0-1.735,1.56,7.51,7.51,0,0,0-1.659,4.978l.1,2.841.1,2.585,4.925,8.907.32.582.006.018,15.154,27.421,4.57,8.267.693,1.258,3.074,2.038-.821,2.049.239,3.19,2.614,1.974,3.79,3.848.151.314,1.164-.588.111-.058.262-.076,3.6-1.089,2.189-.658.07-.023.6-.151Z" transform="translate(-147.023 995.605)" fill="#e6e6e6"/>
      <path id="Path_187" data-name="Path 187" d="M199.112-978.653h-1.164v-44.854h84.218v1.164H199.112Z" transform="translate(-46.353 1042.484)" fill="#3f3d56"/>
      <circle id="Ellipse_33" data-name="Ellipse 33" cx="16.173" cy="16.173" r="16.173" transform="translate(232.553)" fill="#654ea0"/>
      <path id="Path_188" data-name="Path 188" d="M356.538-1025.949a1.8,1.8,0,0,1-1.439-.72l-4.412-5.884a1.8,1.8,0,0,1,.353-2.519,1.8,1.8,0,0,1,2.52.353l.005.007,2.886,3.849,7.414-11.121a1.8,1.8,0,0,1,2.494-.5,1.8,1.8,0,0,1,.5,2.494l0,0-8.825,13.237a1.8,1.8,0,0,1-1.447.8Z" transform="translate(-110.018 1050.539)" fill="#fff"/>
      <path id="Path_189" data-name="Path 189" d="M101.112-759.418H99.947v44.854h84.218v-1.164H101.112Z" transform="translate(-5.408 932.145)" fill="#3f3d56"/>
      <circle id="Ellipse_34" data-name="Ellipse 34" cx="16.173" cy="16.173" r="16.173" transform="translate(175.499 201.437)" fill="#654ea0"/>
      <path id="Path_190" data-name="Path 190" d="M258.54-679.947a1.8,1.8,0,0,1-1.439-.72l-4.412-5.884a1.8,1.8,0,0,1,.359-2.519,1.8,1.8,0,0,1,2.519.359h0l2.886,3.849,7.414-11.121a1.8,1.8,0,0,1,2.5-.5,1.8,1.8,0,0,1,.5,2.495l-8.825,13.237a1.8,1.8,0,0,1-1.447.8Z" transform="translate(-69.074 905.975)" fill="#fff"/>
      <path id="Path_191" data-name="Path 191" d="M451.465-829.493a10.554,10.554,0,0,1-.582,3.6l-.087-.017c-10.34,1.789-19.564,2.081-23.831-4.266-5.567-7.089-13.224-7.008-21.766-3.9l-1.013-1.094-1.723-1.857,1.584-1.793-1.584-3.458,1.322-4.267,1.688-.309-.454-3.674-.71-2.148,2.084-2.288,1.77-5.711-1.275-11.952a79.621,79.621,0,0,1,9.676-47.285l4.838-4.343,2.009-1.8,2.7-5.03,2.847.332,7.708.891.262.629,1.892,4.564,9.967,10.706-.448,4.518-.2,1.991-.146,1.432-.687,6.893-2.8,28.161-.21,1.5-2.253,16.191c3.662,3.54,6.9,10.357,8.453,16.587.175.693-.32,1.4-.192,2.073.18.955.966,1.863,1.054,2.754A21.291,21.291,0,0,1,451.465-829.493Z" transform="translate(-131.802 1003.869)" fill="#e6e6e6"/>
      <circle id="Ellipse_35" data-name="Ellipse 35" cx="13.388" cy="13.388" r="13.388" transform="translate(286.534 44.205)" fill="#ffb6b6"/>
      <path id="Path_192" data-name="Path 192" d="M459.412-974.168A6.9,6.9,0,0,0,453.866-979a9.031,9.031,0,0,0-7.9-10.036,9.031,9.031,0,0,0-5.339,1.01,2.809,2.809,0,0,0-2.58-.98,5.793,5.793,0,0,0-2.62,1.148,13,13,0,0,0-5.2,12.291c-.006-1.181.517,1.1,2.017,1.305a9.875,9.875,0,0,1,3.5,1.445,10.2,10.2,0,0,0,3.5,1.465c1.259.184,1.583,5.228.684,8.477-.171.615-.257,1.441.31,1.735.7.362,1.405-.547,2.187-.636a1.354,1.354,0,0,1,1.373,1.285,2.207,2.207,0,0,1-.921,1.8,6.514,6.514,0,0,1-1.884.913l.226.32a1.793,1.793,0,0,0,2.112.861c.9,1.08,10.121-1.919,10.571-3.89a21.772,21.772,0,0,0,4.738-6.121A10.408,10.408,0,0,0,459.412-974.168Z" transform="translate(-143.351 1028.109)" fill="#2f2e41"/>
      <path id="Path_193" data-name="Path 193" d="M475.694-908.818a3.892,3.892,0,0,1-3.185,3.051,6.892,6.892,0,0,1-2.37.041,16.187,16.187,0,0,1-2.271-.507q-1.38-.393-2.73-.885a43.322,43.322,0,0,1-7.405-3.464,43.776,43.776,0,0,1-5.1-3.482q-1.258-1-2.439-2.078l.984.466-2.637-3.545q-1.275-1.712-2.544-3.423c-.052-.07-.093-.116-.111-.14v-.006c-.39-.518-.774-1.036-1.159-1.555-1.159-1.554-2.3-3.837-.966-5.24a2.5,2.5,0,0,1,2.172-.658,3.458,3.458,0,0,1,1.193.384,8.422,8.422,0,0,1,2.533,2.556,4.432,4.432,0,0,1,4.267-1.6c.087.006.169.017.25.029,1.659.285,2.375-.611,3.813.268.669.408,1.077,2.5,1.747,2.911.378.233,1.781.582,2.166.821.757.466.565,2.206,1.327,2.672.565.344,2.078-.582,2.643-.239.594.367,1.421,2.789,2.014,3.15,1.182.728,2.131-.6,3.313.122,1.52.937,3.138,1.979,3.778,3.645.565,1.467-.163,3.476-1.566,3.895A2.6,2.6,0,0,1,475.694-908.818Z" transform="translate(-148.806 1003.534)" fill="#e6e6e6"/>
      <path id="Path_194" data-name="Path 194" d="M467.082-901.751l-.146,1.432a19.766,19.766,0,0,1-4.832-1.089,10.206,10.206,0,0,1-5.083-3.778c-.792-1.188-1.618-2.37-2.445-3.511-1.374-1.91-2.736-3.691-3.866-5.141-1.38-1.752-2.416-3.022-2.771-3.441-.052-.07-.093-.116-.111-.14l-.017-.017.017.012c6.918,8.756,13.451,13.8,19.451,13.681C467.28-903.742,467.985-901.425,467.082-901.751Z" transform="translate(-150.75 998.166)" opacity="0.2" style="isolation: isolate"/>
      <path id="Path_195" data-name="Path 195" d="M372.069-1013.459a4.651,4.651,0,0,0,3.337,5.668,4.651,4.651,0,0,0,.809.135l7.739,28.39,5.731-6.4-8.406-26.6a4.676,4.676,0,0,0-4.626-4.725A4.676,4.676,0,0,0,372.069-1013.459Z" transform="translate(-119.041 1039.762)" fill="#ffb8b8"/>
      <path id="Path_196" data-name="Path 196" d="M419.71-931.8l-.052-2.585-4.879-9.251-.18-.338-.012-.017-3.743-7.091-18.064-34.248-1.94-.713.1-2.782-.1-3.04-2.331-1.563-.994-1.884-1.409.4H386.1l-.041.012-6.16,1.729h-.006l-1.281.722-1.164,3.493-.255,1.654.255,3,2.911.582-.965,3.08,2.927,8.861c3.662,15.486,8.663,28.853,17.3,36.486l.71,1.164,5.618,9.193a7.455,7.455,0,0,0,7.5,3.487h.006a7.392,7.392,0,0,0,2.783-1.036,7.278,7.278,0,0,0,2.014-1.845,7.5,7.5,0,0,0,1.508-4.628Z" transform="translate(-121.245 1030.705)" fill="#e6e6e6"/>
      <path id="Path_197" data-name="Path 197" d="M-13.75-942.634A34.22,34.22,0,0,1-4.407-966.17L-25.03-994.555a10.057,10.057,0,0,0-14.047-2.23,10.044,10.044,0,0,0-1.127.951,73.632,73.632,0,0,0-22.234,52.953,75.047,75.047,0,0,0,.831,11.13,10.124,10.124,0,0,0,4.691,7.121,10.012,10.012,0,0,0,8.373,1.006l35.61-11.57A34.421,34.421,0,0,1-13.75-942.634Z" transform="translate(62.439 1032.121)" fill="#f2f2f2"/>
      <path id="Path_198" data-name="Path 198" d="M-7.119-883.076-44.14-871.047A10.046,10.046,0,0,0-50.61-858.4a9.983,9.983,0,0,0,.536,1.327A74.22,74.22,0,0,0,5.153-816.537a10.067,10.067,0,0,0,8.088-2.312,10.042,10.042,0,0,0,3.506-7.63v-34.577A34.415,34.415,0,0,1-7.119-883.076Z" transform="translate(57.701 983.811)" fill="#e6e6e6"/>
      <path id="Path_199" data-name="Path 199" d="M162.1-859.914a11.216,11.216,0,0,0-6.873-6.314l-40.377-13.119a34.375,34.375,0,0,1-27.4,20.663v42.068a11.2,11.2,0,0,0,11.209,11.2,11.206,11.206,0,0,0,1.7-.13,82.623,82.623,0,0,0,61.478-45.122A11.112,11.112,0,0,0,162.1-859.914Z" transform="translate(-0.186 982.253)" fill="#3f3d56"/>
      <path id="Path_200" data-name="Path 200" d="M166.512-1014a11.2,11.2,0,0,0-15.832.169,11.224,11.224,0,0,0-1.06,1.255l-27.6,37.995a34.241,34.241,0,0,1,10,24.224c0,.837-.041,1.663-.1,2.485l43.88,14.257a11.216,11.216,0,0,0,14.119-7.228,11.259,11.259,0,0,0,.424-1.818,83.509,83.509,0,0,0,.925-12.391A81.967,81.967,0,0,0,166.512-1014Z" transform="translate(-14.628 1039.848)" fill="#654ea0"/>
      <path id="Path_201" data-name="Path 201" d="M49.689-991.288a34.183,34.183,0,0,1,16.864,4.428l16.849-23.19a10.094,10.094,0,0,0,1.651-8.3,9.894,9.894,0,0,0-5.118-6.523,74.3,74.3,0,0,0-67.172-.1,10.151,10.151,0,0,0-5.294,6.678,10.005,10.005,0,0,0,1.636,8.24L28.217-983.74A34.2,34.2,0,0,1,49.689-991.288Z" transform="translate(33.348 1046.426)" fill="#e6e6e6"/>
    </g>
  </g>
</svg>
