<svg xmlns="http://www.w3.org/2000/svg" xmlns:xlink="http://www.w3.org/1999/xlink" width="376.592" height="328.437" viewBox="0 0 376.592 328.437">
  <defs>
    <linearGradient id="linear-gradient" x1="8.829" y1="3.697" x2="8.829" y2="2.697" gradientUnits="objectBoundingBox">
      <stop offset="0" stop-color="#644e9f"/>
      <stop offset="1" stop-color="#917ccd"/>
    </linearGradient>
  </defs>
  <g id="Group_52" data-name="Group 52" transform="translate(2511.13 1603.961)">
    <path id="Path_202" data-name="Path 202" d="M-2136.019-1437.529c-17.961,119.483-114.133,81.874-156.978,105.771-122.6,68.377-221.774,28.55-218.03-103.982,2.624-92.869,87.759-168.221,196.015-168.221S-2122.208-1529.4-2136.019-1437.529Z" transform="translate(0)" fill="url(#linear-gradient)"/>
    <path id="Path_203" data-name="Path 203" d="M-2106.657-1338.316h-245.182a8.25,8.25,0,0,1-8.24-8.24V-1546.2a8.25,8.25,0,0,1,8.24-8.24h245.182a8.249,8.249,0,0,1,8.24,8.24v199.642A8.249,8.249,0,0,1-2106.657-1338.316Z" transform="translate(-59.592 -19.538)" fill="#e6e6e6"/>
    <path id="Path_204" data-name="Path 204" d="M-2126.857-1340.249h-215.8a8.25,8.25,0,0,1-8.24-8.24v-188.522a8.25,8.25,0,0,1,8.24-8.24h234.065a8.25,8.25,0,0,1,8.24,8.24v170.257A26.535,26.535,0,0,1-2126.857-1340.249Z" transform="translate(-63.214 -23.162)" fill="#fff"/>
    <path id="Path_205" data-name="Path 205" d="M-2144.413-1477.618h-98.544a2.125,2.125,0,0,1-2.125-2.125,2.126,2.126,0,0,1,2.125-2.125h98.544a2.125,2.125,0,0,1,2.125,2.125A2.125,2.125,0,0,1-2144.413-1477.618Z" transform="translate(-104.96 -48.168)" fill="#654ea0"/>
    <path id="Path_206" data-name="Path 206" d="M-2094.528-1440.171h-148.43a2.125,2.125,0,0,1-2.125-2.125,2.126,2.126,0,0,1,2.125-2.125h148.43a2.126,2.126,0,0,1,2.125,2.125A2.125,2.125,0,0,1-2094.528-1440.171Z" transform="translate(-104.96 -62.941)" fill="#e6e6e6"/>
    <path id="Path_207" data-name="Path 207" d="M-2094.528-1402.724h-148.43a2.125,2.125,0,0,1-2.125-2.125,2.126,2.126,0,0,1,2.125-2.125h148.43a2.126,2.126,0,0,1,2.125,2.125A2.125,2.125,0,0,1-2094.528-1402.724Z" transform="translate(-104.96 -77.714)" fill="#e6e6e6"/>
    <path id="Path_208" data-name="Path 208" d="M-2094.528-1365.276h-148.43a2.125,2.125,0,0,1-2.125-2.125,2.125,2.125,0,0,1,2.125-2.125h148.43a2.125,2.125,0,0,1,2.125,2.125A2.125,2.125,0,0,1-2094.528-1365.276Z" transform="translate(-104.96 -92.488)" fill="#e6e6e6"/>
    <path id="Path_209" data-name="Path 209" d="M-2094.528-1327.829h-148.43a2.125,2.125,0,0,1-2.125-2.125,2.125,2.125,0,0,1,2.125-2.125h148.43a2.125,2.125,0,0,1,2.125,2.125A2.125,2.125,0,0,1-2094.528-1327.829Z" transform="translate(-104.96 -107.262)" fill="#e6e6e6"/>
    <path id="Path_210" data-name="Path 210" d="M-2014.466-1279.409a10.761,10.761,0,0,1-10.761-10.761,10.761,10.761,0,0,1,10.761-10.761,10.761,10.761,0,0,1,10.761,10.761h0A10.761,10.761,0,0,1-2014.466-1279.409Z" transform="translate(-191.696 -119.55)" fill="#654ea0"/>
    <path id="Path_211" data-name="Path 211" d="M-2004.862-1287.161l-3.05-4.453a.9.9,0,0,0-1.257-.238.9.9,0,0,0-.239,1.257l0,0,1.973,2.88h-7.729a1.062,1.062,0,0,0-1.065,1.058,1.061,1.061,0,0,0,1.058,1.064h7.833l-2.07,3.021a.9.9,0,0,0,.24,1.257.9.9,0,0,0,1.252-.234l3.05-4.452A1.193,1.193,0,0,0-2004.862-1287.161Z" transform="translate(-195.247 -123.07)" fill="#fff"/>
    <path id="Path_212" data-name="Path 212" d="M-2324.764-1263.9a3.846,3.846,0,0,0,.482-5.417,3.856,3.856,0,0,0-.479-.48l-2.333-20.159-7.407,1.715,4.117,19.11a3.866,3.866,0,0,0,.839,5.4A3.866,3.866,0,0,0-2324.764-1263.9Z" transform="translate(-69.682 -123.881)" fill="#ffb6b6"/>
    <path id="Path_213" data-name="Path 213" d="M-2327.97-1318.987l-8.576,5.35s-.522,3.136-1.112-4.745c-.062-.823.512-2.256.449-3.1-.072-.952-2.8-1.386-2.871-2.349-.051-.686.738-1.3.687-1.981-.077-1.036-.154-2.067-.229-3.081-.063-.848-1-1.386-1.063-2.2s.757-1.932.7-2.714c-.432-5.866,1.063-20.625,1.063-20.925a4.288,4.288,0,0,0-.911-2.054l.458-1.369-.3-2.568a15.683,15.683,0,0,1,2.022-9.726h0l2.178-1.427,10.05,16.9C-2329.659-1340.349-2332.42-1334.6-2327.97-1318.987Z" transform="translate(-67.242 -91.56)" fill="#654ea0"/>
    <path id="Path_214" data-name="Path 214" d="M-2330.735-1089.408h5.188l2.469-20.011h-7.657Z" transform="translate(-71.168 -195.105)" fill="#ffb6b6"/>
    <path id="Path_215" data-name="Path 215" d="M-2334.212-1082.56l8.288-.495v3.551l7.881,5.442a2.219,2.219,0,0,1,.565,3.086,2.219,2.219,0,0,1-1.825.958h-9.868l-1.7-3.513-.664,3.513h-3.72Z" transform="translate(-69.384 -205.506)" fill="#fff"/>
    <path id="Path_216" data-name="Path 216" d="M-2282.606-1089.408h5.188l2.469-20.011h-7.656Z" transform="translate(-90.156 -195.105)" fill="#ffb6b6"/>
    <path id="Path_217" data-name="Path 217" d="M-2286.084-1082.56l8.289-.495v3.551l7.88,5.442a2.218,2.218,0,0,1,.565,3.086,2.219,2.219,0,0,1-1.825.958h-9.868l-1.7-3.513-.664,3.513h-3.721Z" transform="translate(-88.372 -205.506)" fill="#fff"/>
    <path id="Path_218" data-name="Path 218" d="M-2335.29-1189.708h.021l1-47.655a8.508,8.508,0,0,1,.112-8.04l.143-.259-.371-1.717a10.937,10.937,0,0,1,.625-6.581l.931-30.351c-3.325-21.55,12.522-35.6,12.522-35.6h23.74l5.1,17.511c3.369,32.826,2.758,79.932-2.589,110.923l.146.074a1.232,1.232,0,0,1,.5,1.624c-.247.716-.873,1.149-1.4.968l-12.537-.436a1.232,1.232,0,0,1-.5-1.625c.247-.716.873-1.149,1.4-.968l.853.431-.88-1.79a6.679,6.679,0,0,1,.543-6.8h0l-.154-3.941h0a6.005,6.005,0,0,1-1.175-5.657l.846-2.76-1-25.562.2-5.735-.415-6.506-1.922-29.264-7.274,35.986-7.43,54.1a1.362,1.362,0,0,1,.418,1.3,1.413,1.413,0,0,1-1.4,1.076h-10.085a1.375,1.375,0,0,1-1.373-1.376,1.4,1.4,0,0,1,.05-.364A1.391,1.391,0,0,1-2335.29-1189.708Z" transform="translate(-68.816 -112.061)" fill="#2f2e41"/>
    <path id="Path_219" data-name="Path 219" d="M-2248.335-1276.237a3.846,3.846,0,0,0-.556-5.41,3.863,3.863,0,0,0-.562-.38l-6.121-19.349-6.947,3.092,7.673,17.979a3.866,3.866,0,0,0,1.85,5.146,3.867,3.867,0,0,0,4.663-1.077Z" transform="translate(-98.08 -119.375)" fill="#ffb6b6"/>
    <path id="Path_220" data-name="Path 220" d="M-2301.61-1379.16s6.981,24.7,6.665,27.2c-.652,5.146-32.732,20.966-35.118,13.926l.3-2.314c-1.206-2.41,6.148-11.977,6.505-13.229.454-1.6-1.6-6.854-1.6-6.854s1.419-4.8,1.193-7.765-.916-2.512-3.427-4.343-6.623-10.276-6.623-10.276,1.827-8.223,1.827-9.823,7.5-4.326,8.416-5.237a8.561,8.561,0,0,0,1-1.709c.185-.37.067-1.227.265-1.651.126-.277.567-.105.7-.391s.017-.6.143-.87c.164-.361.558-.676.714-1.017a10.9,10.9,0,0,1,1.512-2.834c.454,0,15.077,2.057,15.077,2.057a21.907,21.907,0,0,0,2.738,3.427c1.6,1.6,9.088,5.48,9.088,5.48Z" transform="translate(-69.992 -77.963)" fill="#654ea0"/>
    <path id="Path_221" data-name="Path 221" d="M-2261.838-1330.454c-1.142,1.143-6.795,6.387-7.025,5.014s-.35-1.533-1.266-1.987-.916-.684-1.142-2.284-2.284-3.2-2.054-3.885.015.187.015-.5-.684-3.2-1.6-3.654-2.285-.911-1.6-2.054-6.447-35.41-6.447-35.41l6.4-12.562,4.338-.458s1.319.754,1.732,7.555c.021.345.4.976.412,1.353.013.312-.332.364-.323.7,0,.072,0,.144.006.216.009.334.909.579.922.9.024.575.378,4.241.416,4.78q.064.912.152,1.755a60.846,60.846,0,0,0,1.249,8.6c.605,3.027,3.115,20.709,3.115,20.709s1.827.453,1.827,2.054,2.015,4.815,1.1,6.643S-2260.7-1331.6-2261.838-1330.454Z" transform="translate(-90.02 -85.107)" fill="#654ea0"/>
    <circle id="Ellipse_36" data-name="Ellipse 36" cx="10.834" cy="10.834" r="10.834" transform="translate(-2393.782 -1506.445)" fill="#ffb8b8"/>
    <path id="Path_222" data-name="Path 222" d="M-2343.235-1413.509q-3.439-1.219-6.878-2.443a6.925,6.925,0,0,1,1.489-1.752c2.183-1.823,5.2-2.152,7.968-2.767s5.789-1.875,6.8-4.528c1.054-2.758-.474-5.736-1.361-8.547a17.219,17.219,0,0,1,.447-12.061,13.426,13.426,0,0,1,9.061-7.7,11.033,11.033,0,0,1,11.02,3.848,6.794,6.794,0,0,1,8.178,3.786,4.919,4.919,0,0,1-.263,4.471,3.285,3.285,0,0,1-4.067,1.239l.8-2.029c-2.473.839-4.08,5.31-3.747,7.9s1.841,4.854,3.374,6.966,3.167,4.248,3.826,6.773a12.21,12.21,0,0,1-2.706,10.515,23.139,23.139,0,0,1-9.175,6.342,42.533,42.533,0,0,1-8.038,2.478c.492-.958.98-1.915,1.471-2.872l-5.837,3.531c-1.129.11-2.267.176-3.4.2a23.276,23.276,0,0,1-9.72-1.612,12.257,12.257,0,0,1-6.8-6.852,8.868,8.868,0,0,1-.492-3.145Q-2347.261-1412.643-2343.235-1413.509Z" transform="translate(-63.06 -59.332)" fill="#2f2e41"/>
  </g>
</svg>
