<svg xmlns="http://www.w3.org/2000/svg" xmlns:xlink="http://www.w3.org/1999/xlink" viewBox="0 0 394.79 317.07"><defs><style>.cls-1{fill:none;}.cls-2{clip-path:url(#clip-path);}.cls-3{fill:#654fa1;}.cls-4{fill:#fff;}.cls-5{fill:#654ea3;}</style><clipPath id="clip-path" transform="translate(0 0)"><rect class="cls-1" width="394.79" height="317.07"/></clipPath></defs><title>Asset 3</title><g id="Layer_2" data-name="Layer 2"><g id="Layer_2-2" data-name="Layer 2"><g class="cls-2"><path class="cls-3" d="M44.62,15.08H348.54s54.28,90.41,45.23,185.41S203.82,288.7,203.82,288.7,4.82,295.44.3,200.49,44.62,15.08,44.62,15.08" transform="translate(0 0)"/><path class="cls-3" d="M197.79,24.87c98.24,0,177.89-5.56,177.89-12.43S296,0,197.79,0,19.89,5.57,19.89,12.44s79.65,12.43,177.9,12.43" transform="translate(0 0)"/><path class="cls-3" d="M40.56,267.22c12.3-9.61,18.85-21.79,14.62-27.2s-17.63-2-29.93,7.6S6.4,269.41,10.63,274.82s17.63,2,29.93-7.6" transform="translate(0 0)"/><path class="cls-3" d="M368.46,247.61c12.3,9.61,18.84,21.79,14.62,27.21s-17.63,2-29.94-7.61S334.3,245.42,338.53,240s17.62-2,29.93,7.6" transform="translate(0 0)"/><path class="cls-4" d="M84,20.31H308.54s40.1,78.31,33.42,160.6S201.6,257.32,201.6,257.32s-147,5.84-150.39-76.41S84,20.31,84,20.31" transform="translate(0 0)"/><path class="cls-3" d="M209.29,288.81c0,15.61-5.57,28.26-12.44,28.26s-12.43-12.65-12.43-28.26,5.56-28.27,12.43-28.27,12.44,12.65,12.44,28.27" transform="translate(0 0)"/></g><polygon class="cls-5" points="218.78 104.07 237.95 164.93 258.12 104.07 237.95 43.21 218.78 104.07"/><polygon class="cls-5" points="238.45 84.4 177.59 103.56 238.45 123.74 299.31 103.56 238.45 84.4"/><polygon class="cls-5" points="149.64 177.53 163.77 222.41 178.65 177.53 163.77 132.65 149.64 177.53"/><polygon class="cls-5" points="164.14 163.03 119.26 177.16 164.14 192.03 209.03 177.16 164.14 163.03"/><polygon class="cls-5" points="249.62 205.34 258.81 234.52 268.48 205.34 258.81 176.17 249.62 205.34"/><polygon class="cls-5" points="259.05 195.91 229.88 205.1 259.05 214.77 288.22 205.1 259.05 195.91"/></g></g></svg>