<svg xmlns="http://www.w3.org/2000/svg" xmlns:xlink="http://www.w3.org/1999/xlink" viewBox="0 0 665.61 195.21"><defs><style>.cls-1{fill:none;}.cls-2{clip-path:url(#clip-path);}.cls-3{font-size:162.94px;fill:#654fa1;font-family:FiraSans-Heavy, Fira Sans;font-weight:800;}.cls-4{letter-spacing:-0.01em;}.cls-5{letter-spacing:0.05em;}.cls-6{fill:#654ea3;}</style><clipPath id="clip-path" transform="translate(-59.3)"><rect class="cls-1" y="4.24" width="782.26" height="189.19"/></clipPath></defs><title>Asset 2</title><g id="Layer_2" data-name="Layer 2"><g id="Layer_1-2" data-name="Layer 1"><g class="cls-2"><text class="cls-3" transform="translate(0.81 138.17)">sou<tspan class="cls-4" x="267.71" y="0">rc</tspan><tspan x="409.63" y="0">e</tspan><tspan class="cls-5" x="500.39" y="0">r</tspan><tspan x="575.34" y="0">y</tspan></text></g><polygon class="cls-6" points="226.29 4.24 222.34 16.79 226.29 29.33 230.45 16.79 226.29 4.24"/><polygon class="cls-6" points="226.4 12.73 213.85 16.68 226.4 20.84 238.94 16.68 226.4 12.73"/><polygon class="cls-6" points="208.09 31.93 211 41.18 214.07 31.93 211 22.68 208.09 31.93"/><polygon class="cls-6" points="211.08 28.94 201.82 31.85 211.08 34.92 220.33 31.85 211.08 28.94"/><polygon class="cls-6" points="228.7 37.66 230.59 43.68 232.59 37.66 230.59 31.65 228.7 37.66"/><polygon class="cls-6" points="230.64 35.72 224.63 37.62 230.64 39.61 236.66 37.62 230.64 35.72"/></g></g></svg>