<svg xmlns="http://www.w3.org/2000/svg" xmlns:xlink="http://www.w3.org/1999/xlink" width="440.143" height="315.878" viewBox="0 0 440.143 315.878">
  <defs>
    <linearGradient id="linear-gradient" x1="4.976" y1="-7.299" x2="3.964" y2="-7.455" gradientUnits="objectBoundingBox">
      <stop offset="0" stop-color="#644e9f"/>
      <stop offset="1" stop-color="#917ccd"/>
    </linearGradient>
  </defs>
  <g id="Group_58" data-name="Group 58" transform="translate(953.662 -1131.417)">
    <g id="Group_56" data-name="Group 56" transform="translate(-953.662 1131.417)">
      <path id="Path_358" data-name="Path 358" d="M-435.026,1234.574c19.9,109.684-75.279,105.487-105.575,139.116-86.687,96.222-185.155,90.983-221.357-25.861-25.369-81.877,26.529-173.033,121.061-205.276S-450.33,1150.233-435.026,1234.574Z" transform="translate(869.158 -1131.417)" fill="url(#linear-gradient)"/>
      <path id="Path_359" data-name="Path 359" d="M-491.121,1240.323a5.448,5.448,0,0,1,3.808,6.7,5.426,5.426,0,0,1-.336.9l8.326,9.256-4.391,6.432-11.574-13.237a5.478,5.478,0,0,1-2.1-7.458A5.477,5.477,0,0,1-491.121,1240.323Z" transform="translate(745.896 -1180.99)" fill="#a0616a"/>
      <path id="Path_360" data-name="Path 360" d="M-408.458,1272.467h0a10.893,10.893,0,0,0-14.984-3.579l-.034.021-27.382,16.959-29.537-25.107-7.349,6.842,32.63,42.335,42.409-22.109C-413.694,1288.345-407.262,1274.414-408.458,1272.467Z" transform="translate(741.179 -1190.404)" fill="#ccc"/>
      <path id="Path_361" data-name="Path 361" d="M-614.377,1299.614a102.953,102.953,0,0,1-102.932,102.974h-.041a102.974,102.974,0,0,1-102.974-102.974,102.937,102.937,0,0,1,5.252-32.551,103.081,103.081,0,0,1,97.722-70.423,102.94,102.94,0,0,1,90.806,54.387,101.6,101.6,0,0,1,5.692,12.569c.223.6.44,1.2.652,1.807v.005q1.416,4,2.495,8.147A102.988,102.988,0,0,1-614.377,1299.614Z" transform="translate(892.853 -1161.162)" fill="#3f3d56"/>
      <path id="Path_362" data-name="Path 362" d="M-685.644,1254.738a34.551,34.551,0,0,0-30.332-1.241c-4.241,1.846-8.706,5.157-10.121,11.135,5.722-3.377,13.128,1.959,14.6,10.518l-.344.095c-.777,5.928.958,12.382,4.319,16.058a11.294,11.294,0,0,1,5.422-8.04c2.47-1.623,5.2-2.8,7.086-5.593,2.234-3.308,2.8-8.142,3.69-12.553S-688.751,1255.967-685.644,1254.738Z" transform="translate(849.88 -1185.761)" fill="#fff"/>
      <path id="Path_363" data-name="Path 363" d="M-756.242,1303.13c-1.584,2.38-3.7,3.873-5.6,5.733a12.892,12.892,0,0,0-4.073,7.614c-.24,2.071.132,4.176.08,6.27s-.75,4.451-2.174,4.971c-2.249.812-3.965-3.364-6.276-3.656-1.836-.228-3.489,2.661-2.957,5.166s3.032,3.616,4.468,1.979c1.3,2.18.383,6.133-1.568,6.8-.206,1.373-.412,2.74-.612,4.113-4.931-3.45-9.914-6.956-14.107-12.008a36.447,36.447,0,0,1-8.307-19.634c-.543-5.807.263-12.448-2.4-16.916-2.134-3.575-5.8-4.365-9.09-4.142-.6.04-1.207.109-1.807.183a101.854,101.854,0,0,1,7.374-16.877,7.221,7.221,0,0,0,1.848-1.149c3.066-2.6,4.428-7.872,6.916-11.516q.241-.353.5-.687c2.546-3.324,5.956-5.035,9.251-6.625,7.294-3.541,14.8-7.128,22.5-6.636l-2.191.212q-3.836,10.743-7.677,21.487-.583,1.647-1.178,3.3c-1.453,4.073-2.952,8.409-2.729,12.969.132,2.7,1.07,5.584,2.855,6.51,1.664.858,3.484-.194,5.091-1.235.681-.435,1.356-.87,2.036-1.31,2.443-1.573,5.149-3.187,7.729-2.134,2.363.961,4.107,4.17,4.439,7.632A15.255,15.255,0,0,1-756.242,1303.13Z" transform="translate(888.45 -1183.705)" fill="#fff"/>
      <path id="Path_364" data-name="Path 364" d="M-706.523,1429.555l-21.4-13.178.121-.312c-4.435,1.689-6.277,9.575-5.544,16.023s3.219,12.213,4.475,18.5a49.1,49.1,0,0,1-1.851,25.76,210.954,210.954,0,0,0,24.782-34.149,18.26,18.26,0,0,0,2.242-4.97,7.908,7.908,0,0,0-.524-5.624A6.26,6.26,0,0,0-706.523,1429.555Z" transform="translate(853.259 -1261.231)" fill="#fff"/>
      <path id="Path_365" data-name="Path 365" d="M-736.293,1289.263a7.886,7.886,0,0,0-.362,5.736,6.36,6.36,0,0,0,3.553,3.291l3.943,1.954c1.311.65,2.725,1.307,4.062.772,1.613-.645,2.731-3.173,2.441-5.52-.308-2.5-1.882-4.215-3.338-5.678l-6.112-6.142-1.148,1.406A15.329,15.329,0,0,0-736.293,1289.263Z" transform="translate(854.872 -1200.856)" fill="#fff"/>
      <path id="Path_366" data-name="Path 366" d="M-556.124,1305.9l5.32,1.253c-.309,5.99-3.278,11.533-7.26,13.541-1.659.836-3.507,1.145-4.88,2.706-1.241,1.419-1.871,3.627-2.448,5.738l-3.038,11.052c-1.087,3.97-2.483,8.381-5.308,9.811-2.426,1.23-5.2-.275-7.065-2.8s-3-5.915-4.107-9.222c.069,3.6-1.608,7.139-3.982,8.392s-5.275.12-6.865-2.677c-1.144-2.008-1.619-4.657-2.74-6.693s-3.472-3.2-4.7-1.293c-.807,1.27-.7,3.215-1.1,4.828a5.243,5.243,0,0,1-4.382,4.216c-1.865.137-3.684-.938-5.246-2.4-3.221-3.021-5.6-7.814-6.516-13.14a15.679,15.679,0,0,1,.183-7.186c.7-2.225,2.4-3.941,4.09-3.518,1.11-2.346-1.081-5.457-3.055-5.183s-3.53,2.4-5.154,4.027-3.884,2.814-5.515,1.2a2.237,2.237,0,0,1-2.271,2.374c-1.053-.12-1.99-.967-2.957-1.567-3.735-2.329-8.478-.784-11.133,3.621,1.659-7.059,4.091-15.16,9.187-16.819,2.083-.681,4.354-.12,6.322-1.3,3.484-2.088,4.187-9.977,1.178-13.232.383,3.078.309,6.671-1.316,8.776s-5.034.732-4.828-2.38a2.085,2.085,0,0,1-3.879.824c-1.081-1.648-.989-4.342-.223-6.31a14.865,14.865,0,0,1,3.335-4.737c2.718-2.912,5.475-5.858,8.622-7.689s6.791-2.448,9.948-.63c1.665.961,3.129,2.563,4.828,3.41s3.856.744,4.983-1.247c1.264-2.22.669-5.515,1.138-8.29.841-4.9,5.744-7.2,8.461-3.959-2.031-.521-4.131,1.883-4.383,4.794s1.213,5.852,3.181,6.734c3.307,1.464,6.544-2.22,9.045-5.629q3.912-5.355,7.837-10.7a12.956,12.956,0,0,1,1.4-1.7,4.51,4.51,0,0,1,6.161-.125c2.643,2.157,3.884,6.578,6.053,9.622,3.146,4.422,7.855,5.5,12.237,6.356q4.9.952,9.805,1.916a101.616,101.616,0,0,1,5.692,12.569A34.449,34.449,0,0,0-556.124,1305.9Z" transform="translate(813.468 -1190.79)" fill="#fff"/>
      <path id="Path_367" data-name="Path 367" d="M-480.926,1464.719a102.578,102.578,0,0,1-8.524,14.262c-2.059-.881-4.274.692-6.2,2.168-2.014,1.545-4.434,3.049-6.5,1.641-2.111-1.442-2.792-5.474-2.122-8.673a23.1,23.1,0,0,1,3.959-8.146c1.716-2.563,3.553-5.223,5.938-6.219s5.463.412,6.161,3.81l1.693-.057c-.949-1.3-.451-4,.824-4.479,1.47-.555,2.746,1.465,3.616,3.25C-481.692,1463.083-481.3,1463.895-480.926,1464.719Z" transform="translate(748.83 -1280.781)" fill="#fff"/>
      <path id="Path_368" data-name="Path 368" d="M-616.379,1401.764c-3.64.229-6.522-4.252-8.438-8.66s-3.664-9.449-6.948-11.693c-1.877-1.282-4.016-1.458-6.051-2.079a7.492,7.492,0,0,1-5.139-4.525l-2.309-.933a34.684,34.684,0,0,0-8.766,6.25,19.592,19.592,0,0,0-5.224,11.42c-.441,4.621,1.187,9.774,4.231,11.51,2.4,1.372,5.2.507,7.64,1.763,3.043,1.569,4.85,6.127,5.534,10.627s.51,9.177,1,13.728,1.837,9.287,4.628,11.619c3.492,2.919,8.617.493,10.184-4.819.769-2.606.742-5.547,1.317-8.252,1.012-4.764,3.744-8.3,5.911-12.207S-614.938,1406.3-616.379,1401.764Z" transform="translate(819.429 -1241.991)" fill="#fff"/>
      <path id="Path_369" data-name="Path 369" d="M-646.952,1332.449a9.741,9.741,0,0,1,.948,1.006,3.306,3.306,0,0,1-.058,3.414,3.178,3.178,0,0,0,2.275-1.156,14.656,14.656,0,0,0,1.744-2.456,2.679,2.679,0,0,0,.514-2.143c-.172-.491-.579-.7-.864-1.07a7.269,7.269,0,0,1-.8-2.316,4.179,4.179,0,0,0-3.028-3.192l.182.035a1.73,1.73,0,0,0-.81,1.843c.11.714.569,1.306.524,2.035-.066,1.047-1.112,1.538-1.177,2.585A2,2,0,0,0-646.952,1332.449Z" transform="translate(814.036 -1219.49)" fill="#fff"/>
      <path id="Path_370" data-name="Path 370" d="M-657.957,1306.095l.016,0a2.884,2.884,0,0,0,.311-.331Z" transform="translate(818.805 -1210.927)" fill="#e6e6e6"/>
      <path id="Path_371" data-name="Path 371" d="M-660.769,1311.256a3.175,3.175,0,0,0,.988-3.147c-.264-1.191-1.2-1.991-2.064-1.771a2.1,2.1,0,0,1-1.955.575c-.534-.137-1.119-.491-1.582-.089a2.4,2.4,0,0,0-.539,1.052l-.513,1.578a.993.993,0,0,0-.061.6.506.506,0,0,0,.388.308l3.084.909A2.657,2.657,0,0,0-660.769,1311.256Z" transform="translate(822.708 -1211.174)" fill="#fff"/>
      <path id="Path_372" data-name="Path 372" d="M-518.051,1435.881l-1.425-2.333a7.793,7.793,0,0,0-1.879-2.359,1.664,1.664,0,0,0-2.344.207l-.025.03.058.444a10.035,10.035,0,0,1,2.5,4.885c.108.795.071,1.618.166,2.416a2.817,2.817,0,0,0,.88,1.971c.748.5,1.627-.237,2.159-1.136a3.914,3.914,0,0,0,.606-2.491A4.37,4.37,0,0,0-518.051,1435.881Z" transform="translate(757.588 -1267.952)" fill="#fff"/>
      <path id="Path_373" data-name="Path 373" d="M-478.624,1379.576q.206-1.352.412-2.7a7.788,7.788,0,0,0,.082-3.014,1.664,1.664,0,0,0-1.927-1.351l-.039.007-.242.377a10.034,10.034,0,0,1-1.23,5.35c-.429.678-.988,1.283-1.43,1.955a2.818,2.818,0,0,0-.6,2.075c.251.865,1.4.866,2.384.521a3.916,3.916,0,0,0,2.068-1.515A4.365,4.365,0,0,0-478.624,1379.576Z" transform="translate(739.307 -1241.355)" fill="#e6e6e6"/>
      <path id="Path_374" data-name="Path 374" d="M-502.838,1434.5a5.39,5.39,0,0,0-.174-2.172,4.767,4.767,0,0,1,.726-2.7,8.782,8.782,0,0,0,1.13-2.479,2.071,2.071,0,0,0-.054-1.214c-.158-.354-.539-.515-.757-.235l.468.3a4.262,4.262,0,0,0-1.9.092,2.348,2.348,0,0,0-1.438,1.622,10.058,10.058,0,0,1-.377,1.682c-.279.573-.819.764-1.158,1.267a3.03,3.03,0,0,0,.048,2.879,3.358,3.358,0,0,0,1.9,1.494C-503.851,1435.244-503.1,1435.255-502.838,1434.5Z" transform="translate(749.829 -1265.561)" fill="#fff"/>
      <path id="Path_375" data-name="Path 375" d="M-479.035,1445.508a6.516,6.516,0,0,0,.822,1.51c.635.64,1.5.247,2.27.091a3.924,3.924,0,0,1,3.734,1.5,9.5,9.5,0,0,0-5.466-6.819,16.064,16.064,0,0,0-5.621-.879l-.326.084C-482.79,1443.413-480.178,1443.359-479.035,1445.508Z" transform="translate(739.299 -1272.561)" fill="#fff"/>
      <path id="Path_376" data-name="Path 376" d="M-578.541,1458.325l0,.01.095-.183Z" transform="translate(782.587 -1280.426)" fill="#e6e6e6"/>
      <path id="Path_377" data-name="Path 377" d="M-583.928,1462.376a17.885,17.885,0,0,0-1.13,2.482,21.565,21.565,0,0,0-.819,4.246c-.1.818-.134,1.864.379,2.262a.727.727,0,0,0,.951-.129,3.759,3.759,0,0,0,.69-1.025,23.629,23.629,0,0,0,2.329-5.526,9.619,9.619,0,0,0-.381-6.2Z" transform="translate(785.96 -1280.579)" fill="#fff"/>
      <path id="Path_378" data-name="Path 378" d="M-618.855,1267.77a2.293,2.293,0,0,0,2.471.482,8.158,8.158,0,0,0,2.325-1.536,5.472,5.472,0,0,0,1.409-1.538,3.117,3.117,0,0,0,.288-2.375,2.41,2.41,0,0,0-1.839-1.454l-3.422-1.015.825-.744c-.849-.456-1.789.39-2.319,1.437a7.75,7.75,0,0,0-.7,2.167C-620.105,1264.839-619.828,1266.8-618.855,1267.77Z" transform="translate(801.461 -1189.814)" fill="#e6e6e6"/>
      <path id="Path_379" data-name="Path 379" d="M-581.563,1258.307a1.885,1.885,0,0,0,2.569.209,2.873,2.873,0,0,0,1.136-2.046c.081-.9-.363-1.9-1-1.972l.145-.84c-1.221-.22-2.723-.264-3.377,1.218A3.482,3.482,0,0,0-581.563,1258.307Z" transform="translate(784.312 -1187.113)" fill="#e6e6e6"/>
      <path id="Path_380" data-name="Path 380" d="M-611.237,1180.012a27.157,27.157,0,0,0-30.03,23.942c-1.681,14.9,6.171,47.268,20.486,60.665,6.74-25.668,30.36-40.894,33.485-54.578C-583.956,1195.42-596.334,1181.694-611.237,1180.012Z" transform="translate(811.296 -1153.5)" fill="#654ea0"/>
      <circle id="a2705e7e-530b-43fb-b0c6-4087ca2c8018" cx="8.857" cy="8.857" r="8.857" transform="translate(186.252 41.932)" fill="#fff"/>
      <circle id="bb575e01-1284-49d3-8651-037e5b7ffa75" cx="5.801" cy="5.801" r="5.801" transform="translate(179.995 112.288)" fill="#654ea0"/>
      <path id="Path_381" data-name="Path 381" d="M-589.149,1212.237a8.856,8.856,0,0,1,3.03,12.153,8.856,8.856,0,0,1-12.153,3.03h0a8.855,8.855,0,0,0,10.567-6.721,8.855,8.855,0,0,0-4.089-9.517A8.859,8.859,0,0,1-589.149,1212.237Z" transform="translate(791.586 -1167.794)" fill="#231f20" opacity="0.2" style="isolation: isolate"/>
      <path id="Path_382" data-name="Path 382" d="M-573,1210.8c-3.125,13.684-26.745,28.909-33.486,54.577a37.608,37.608,0,0,1-3.741-4.1c7.574-24.128,29.724-38.788,32.744-52.01,2.7-11.833-4.889-23.079-15.782-27.83C-580.083,1184.756-569.944,1197.4-573,1210.8Z" transform="translate(797.039 -1154.231)" fill="#231f20" opacity="0.2" style="isolation: isolate"/>
      <path id="Path_383" data-name="Path 383" d="M-757.5,1243.58a20.394,20.394,0,0,0-22.551,17.98c-1.263,11.192,4.634,35.5,15.384,45.558,5.062-19.276,22.8-30.71,25.147-40.986C-737.016,1255.151-746.311,1244.842-757.5,1243.58Z" transform="translate(874.565 -1182.51)" fill="#654ea0"/>
      <circle id="b2d5ab8a-e71c-4a1a-aadf-98f8ab95825b" cx="6.651" cy="6.651" r="6.651" transform="translate(106.693 72.65)" fill="#fff"/>
      <circle id="bac33ac8-32b5-423c-9bc5-6c03ceb8d8dc" cx="4.356" cy="4.356" r="4.356" transform="translate(101.994 125.485)" fill="#654ea0"/>
      <path id="Path_384" data-name="Path 384" d="M-740.916,1267.78a6.651,6.651,0,0,1,2.275,9.127,6.651,6.651,0,0,1-9.126,2.275,6.651,6.651,0,0,0,7.936-5.048,6.651,6.651,0,0,0-3.071-7.147A6.67,6.67,0,0,1-740.916,1267.78Z" transform="translate(859.763 -1193.244)" fill="#231f20" opacity="0.2" style="isolation: isolate"/>
      <path id="Path_385" data-name="Path 385" d="M-728.792,1266.7c-2.347,10.276-20.085,21.709-25.147,40.985a28.193,28.193,0,0,1-2.81-3.078c5.688-18.119,22.322-29.128,24.59-39.057,2.029-8.886-3.672-17.332-11.852-20.9C-734.108,1247.143-726.494,1256.639-728.792,1266.7Z" transform="translate(863.859 -1183.059)" fill="#231f20" opacity="0.2" style="isolation: isolate"/>
      <path id="Path_386" data-name="Path 386" d="M-364.672,1663.022h-7.3l-3.474-28.168h10.778Z" transform="translate(689.967 -1361.01)" fill="#a0616a"/>
      <path id="Path_387" data-name="Path 387" d="M-369.634,1696.906h-5.182l-.925-4.893-2.369,4.893h-13.744a3.09,3.09,0,0,1-3.09-3.09,3.09,3.09,0,0,1,1.334-2.542l10.975-7.58v-4.946l11.544.689Z" transform="translate(698.857 -1381.029)" fill="#ccc"/>
      <path id="Path_388" data-name="Path 388" d="M-416.672,1663.022h-7.3l-3.474-28.168h10.778Z" transform="translate(713.681 -1361.01)" fill="#a0616a"/>
      <path id="Path_389" data-name="Path 389" d="M-421.634,1696.906h-5.182l-.925-4.893-2.369,4.893h-13.744a3.09,3.09,0,0,1-3.09-3.09,3.09,3.09,0,0,1,1.334-2.542l10.975-7.58v-4.946l11.544.689Z" transform="translate(722.572 -1381.029)" fill="#ccc"/>
      <path id="Path_390" data-name="Path 390" d="M-459.017,1485.328c1.4,2.1,16.6,59.722,16.6,59.722l13.48,1.537-1.6-14.5-2.446-25.658-3.787-17.126s13.374-30.437,14.219-32.862l.6-1.74,4.179,37.921a10.651,10.651,0,0,1,.636,4.235c-.126,2.368,2.25,38,2.25,38l1.142,12.78,11.55,1.6,4.686-22.113c3.913-7.183,1.67-32.709.07-35.085s-.964-18.922-.964-18.922c2.043-.719,14.228-42.268,8.133-42.023.391-2.215.7-4.193.7-4.193l-10.579-8.532-26.476-6.882-6.679-3.208s-11.93,22.06-11.811,23.156a6.1,6.1,0,0,1-.9,3.976l-12.045,40.31S-460.429,1483.211-459.017,1485.328Z" transform="translate(728.283 -1257.686)" fill="#2f2e41"/>
      <path id="Path_391" data-name="Path 391" d="M-373.173,1277.234l-4.212-8.943-14.335.551-4.676,9.3s-13.363,15.961-13.8,21.151c-.544,6.527,3.977,38.518-.544,36.445,0,0-10.658,12.511-4.352,12.511s34.836,17.909,36.708,19.923,10.229,3.32,9.528-.885-4.321-26.944-4.321-26.944l9.8-35.755c2.821-7.719,3.7-16.378-2.678-21.564Z" transform="translate(708.954 -1193.839)" fill="#ccc"/>
      <path id="Path_392" data-name="Path 392" d="M-453.05,1235.411a15.709,15.709,0,0,0-20.4,8.8h0c-3.2,8.064-3.731,27.322,2.225,36.973,7.659-13.3,23.155-18.218,26.977-25.381C-440.161,1248.153-444.986,1238.612-453.05,1235.411Z" transform="translate(735.731 -1178.337)" fill="#654ea0"/>
      <circle id="f50692ea-d13f-4759-b5e2-05248e17533e" cx="5.123" cy="5.123" r="5.123" transform="translate(271.109 64.75)" fill="#fff"/>
      <circle id="aec6a1c4-a00c-42b6-a49d-0158b63ca54a" cx="3.356" cy="3.356" r="3.356" transform="translate(257.461 102.671)" fill="#654ea0"/>
      <path id="Path_393" data-name="Path 393" d="M-442.744,1254.577a5.123,5.123,0,0,1-.159,7.243,5.123,5.123,0,0,1-7.238-.153,5.123,5.123,0,0,0,6.919-2.148,5.123,5.123,0,0,0-.838-5.933A5.118,5.118,0,0,1-442.744,1254.577Z" transform="translate(724.031 -1187.133)" fill="#231f20" opacity="0.2" style="isolation: isolate"/>
      <path id="Path_394" data-name="Path 394" d="M-441.61,1257.561c-3.822,7.164-19.318,12.077-26.977,25.381a21.723,21.723,0,0,1-1.466-2.856c7.891-12.318,22.48-17.139,26.173-24.061,3.305-6.195.775-13.625-4.584-17.93C-441.607,1241.948-437.867,1250.547-441.61,1257.561Z" transform="translate(733.111 -1180.068)" fill="#231f20" opacity="0.2" style="isolation: isolate"/>
      <path id="Path_395" data-name="Path 395" d="M-480.647,1324.119a5.448,5.448,0,0,1,6.436,4.236,5.472,5.472,0,0,1,.11.955l11.623,4.461-.988,7.725-16.326-6.531a5.478,5.478,0,0,1-5.257-5.69,5.477,5.477,0,0,1,4.4-5.156Z" transform="translate(739.952 -1219.248)" fill="#a0616a"/>
      <path id="Path_396" data-name="Path 396" d="M-388.713,1293.61h0a10.893,10.893,0,0,0-14.974,3.621l-.02.034-16.684,27.55-37.721-8.941-3.437,9.435,48.306,22.882,24.465-38.967C-385.114,1304.075-383.321,1296.9-388.713,1293.61Z" transform="translate(729.232 -1204.657)" fill="#ccc"/>
      <path id="Path_397" data-name="Path 397" d="M-353.7,1219.276a16.222,16.222,0,0,1-16.216,16.228,16.222,16.222,0,0,1-16.228-16.216,16.22,16.22,0,0,1,4.542-11.263l.078-.078c.13-.136.259-.273.4-.4a.007.007,0,0,0,.007-.006h0c.169-.156.337-.312.512-.461a16.218,16.218,0,0,1,22.886,1.5,16.215,16.215,0,0,1,4.023,10.7Z" transform="translate(694.846 -1164.087)" fill="#2f2e41"/>
      <circle id="Ellipse_40" data-name="Ellipse 40" cx="13.603" cy="13.603" r="13.603" transform="translate(307.321 45.339)" fill="#9e616a"/>
      <path id="Path_398" data-name="Path 398" d="M-363.454,1229.219l-2.254-.4a6.285,6.285,0,0,1-5.061-5.069l-2.2,3.686-.1.032c-5.24,1.739-10.691,1.219-16.663-1.589a46.4,46.4,0,0,1-4.96-2.734l-.118-.073-.009-.139c-.3-4.425.688-8.122,2.8-10.409a8.386,8.386,0,0,1,6.328-2.638.524.524,0,0,0,.225-.124l.091-.065v-.023l.156-.074c.336-.158.678-.309,1.02-.447a15.34,15.34,0,0,1,16.019,3.1,18.284,18.284,0,0,1,4.782,16.7Z" transform="translate(698.823 -1166.398)" fill="#2f2e41"/>
      <path id="Path_399" data-name="Path 399" d="M-313.879,1229.185c-4.629-2.389,1.324-11.061.128-16.131s-9.811-6.7-10.36-11.881-1.84-10.523-5.258-14.454c-2.184-2.511-5.4-4.366-8.717-4.051a7.838,7.838,0,0,0-7.062,8.543,7.855,7.855,0,0,0,.193,1.135,2.409,2.409,0,0,0-3.989.474,2.443,2.443,0,0,0,2.046,3.109c1.828,2.257,3.921,4.654,6.785,5.109a3.089,3.089,0,0,0,2.633-.608,1.6,1.6,0,0,0-.073-2.424c3.6,1.429,5.709,5.321,6.243,9.156s-.205,7.716-.692,11.558-.7,7.883.81,11.45a14.58,14.58,0,0,0,10.349,8.2,19.846,19.846,0,0,0,13.282-2.112,31.4,31.4,0,0,0,10.18-9.041C-302.132,1230.594-308.7,1231.857-313.879,1229.185Z" transform="translate(677.94 -1154.774)" fill="#2f2e41"/>
      <path id="Path_400" data-name="Path 400" d="M-356.334,1229.83a27.67,27.67,0,0,0-21.3-18.513c-.019-.007-.084-.033-.169-.071a2.03,2.03,0,0,0-.182-.1c.195-.11.383-.208.578-.305a.007.007,0,0,0,.007-.006h0c.169-.156.337-.312.512-.461l.493.02S-359.066,1207.651-356.334,1229.83Z" transform="translate(691.125 -1167.386)" fill="#fd6584"/>
      <path id="Path_401" data-name="Path 401" d="M-376.461,1334.941l-9.756,11.3-16.12-4.76,17.573,8.1Z" transform="translate(702.229 -1224.235)" opacity="0.2" style="isolation: isolate"/>
      <path id="Path_402" data-name="Path 402" d="M-530.471,1376.825c10.763,7.639,18.482,15.85,16.7,23.008-1.438,5.76-8.761,9.772-21.766,11.925a170.454,170.454,0,0,1-27.211,1.843q-10.535,0-23.094-.8c-43.306-2.75-99.4-12.311-157.95-26.921s-112.559-32.525-152.08-50.443c-19.251-8.729-34.027-16.991-43.916-24.558-10.469-8.011-15.049-14.993-13.612-20.753,2.8-11.221,27.6-13.676,47.9-13.759l.007,1.632c-27.887.114-44.339,4.562-46.326,12.523-2.53,10.139,18.106,25.968,56.618,43.429,39.434,17.878,93.345,35.759,151.8,50.346s114.448,24.131,157.658,26.875c42.2,2.681,67.854-1.6,70.384-11.737,1.39-5.573-4.208-12.891-16.055-21.292" transform="translate(953.662 -1197.523)" fill="#654ea0"/>
    </g>
    <g id="Group_57" data-name="Group 57" transform="translate(-905.858 1210.258)">
      <path id="Path_403" data-name="Path 403" d="M-825,1280.735a296.988,296.988,0,0,0-40.769-2.745l0-1.632a300.172,300.172,0,0,1,40.434,2.689c.159.022,1.15.169,1.31.191Z" transform="translate(865.778 -1276.359)" fill="#654ea0"/>
    </g>
  </g>
</svg>
