<svg xmlns="http://www.w3.org/2000/svg" width="1203.521" height="1555.405" viewBox="0 0 1203.521 1555.405">
  <path id="Path_405" data-name="Path 405" d="M11240.332,2454.485c-119.042,143.422-415.961,81.3-415.961,81.3s-400.891-37.017-397.793,261.292,353.773,262.335,613.48,216.891,542.976-116.939,574.716,203.394c.19,1.922-.146-1.638,0,0-1.444,312.762-304.063,297.92-437.321,266.1-134.062-32.013-351.945-130.532-480.459-118.227s-290.127,58-284.543,257.972,211.26,254.487,311.88,246.552c7.2-.177,103.554-6.211,140.743-19.081,142.727-49.394,381.377-140.887,442.863,158.792" transform="translate(-10411.813 -2454.165)" fill="none" stroke="#61529e" stroke-width="1" stroke-dasharray="5"/>
</svg>
