<svg xmlns="http://www.w3.org/2000/svg" xmlns:xlink="http://www.w3.org/1999/xlink" viewBox="0 0 623.98 131.43"><defs><style>.cls-1{fill:none;}.cls-2{clip-path:url(#clip-path);}.cls-3,.cls-5,.cls-9{fill:#654ea3;}.cls-4{fill:#fff;}.cls-5{font-size:109.71px;}.cls-5,.cls-9{font-family:FiraSans-Heavy, Fira Sans;font-weight:800;}.cls-6{letter-spacing:-0.01em;}.cls-7{letter-spacing:0.05em;}.cls-8{letter-spacing:0em;}.cls-9{font-size:22.1px;letter-spacing:0.05em;}.cls-10{letter-spacing:0em;}</style><clipPath id="clip-path"><rect class="cls-1" y="10.75" width="623.98" height="119.48"/></clipPath></defs><title>Asset 1</title><g id="Layer_2" data-name="Layer 2"><g id="Layer_1-2" data-name="Layer 1"><g class="cls-2"><path class="cls-3" d="M13.57,27.85H106s16.5,27.5,13.75,56.4S62,111.09,62,111.09,1.47,113.14.09,84.25s13.48-56.4,13.48-56.4"/><path class="cls-3" d="M60.17,30.83c29.88,0,54.11-1.69,54.11-3.78s-24.23-3.78-54.11-3.78S6.05,25,6.05,27.05s24.23,3.78,54.12,3.78"/><path class="cls-3" d="M12.34,104.55c3.74-2.92,5.73-6.63,4.45-8.27s-5.37-.61-9.11,2.31S2,105.22,3.23,106.87s5.37.61,9.11-2.32"/><path class="cls-3" d="M112.08,98.59c3.74,2.92,5.74,6.63,4.45,8.27s-5.36.61-9.11-2.31-5.73-6.63-4.44-8.27,5.36-.62,9.1,2.31"/><path class="cls-4" d="M25.54,29.44H93.86S106.06,53.27,104,78.3s-42.69,23.24-42.69,23.24S16.6,103.32,15.58,78.3s10-48.86,10-48.86"/><path class="cls-3" d="M63.66,111.12c0,4.75-1.69,8.6-3.78,8.6s-3.78-3.85-3.78-8.6,1.69-8.6,3.78-8.6,3.78,3.85,3.78,8.6"/></g><polygon class="cls-3" points="66.55 54.92 72.38 73.44 78.52 54.92 72.38 36.41 66.55 54.92"/><polygon class="cls-3" points="72.54 48.94 54.02 54.77 72.54 60.91 91.05 54.77 72.54 48.94"/><polygon class="cls-3" points="45.52 77.27 49.82 90.92 54.34 77.27 49.82 63.62 45.52 77.27"/><polygon class="cls-3" points="49.93 72.86 36.28 77.16 49.93 81.68 63.59 77.16 49.93 72.86"/><polygon class="cls-3" points="75.93 85.73 78.73 94.61 81.67 85.73 78.73 76.86 75.93 85.73"/><polygon class="cls-3" points="78.8 82.86 69.93 85.66 78.8 88.6 87.68 85.66 78.8 82.86"/><g class="cls-2"><text class="cls-5" transform="translate(141.72 93.03)">sou<tspan class="cls-6" x="180.25" y="0">rc</tspan><tspan x="275.8" y="0">e</tspan><tspan class="cls-7" x="336.9" y="0">r</tspan><tspan class="cls-8" x="387.37" y="0">y</tspan></text><path class="cls-4" d="M574,77.09s-6,0-6,6v13s0,6,6,6h44s6,0,6-6v-13s0-6-6-6Z"/></g><text class="cls-9" transform="translate(570.69 97.62)">bet<tspan class="cls-10" x="37.72" y="0">a</tspan></text></g></g></svg>