<svg width="846" height="141" viewBox="0 0 846 141" fill="none" xmlns="http://www.w3.org/2000/svg">
<path d="M244.238 16.5554C250.453 16.5554 256.404 17.5561 262.092 19.5574C267.885 21.4534 272.731 24.0868 276.628 27.4574L265.568 44.3634C262.513 42.4674 259.248 40.9928 255.772 39.9394C252.296 38.7808 248.873 38.2014 245.502 38.2014C240.762 38.2014 238.392 39.4654 238.392 41.9934C238.392 43.0468 238.708 43.9421 239.34 44.6794C239.972 45.3114 241.447 46.1541 243.764 47.2074C246.187 48.1554 250.031 49.4194 255.298 50.9994C263.725 53.6328 269.939 57.0034 273.942 61.1114C278.05 65.1141 280.104 70.8021 280.104 78.1754C280.104 83.8634 278.366 88.9194 274.89 93.3434C271.519 97.7674 266.779 101.191 260.67 103.613C254.666 106.036 247.819 107.247 240.13 107.247C232.757 107.247 225.805 106.089 219.274 103.771C212.849 101.349 207.424 98.0308 203 93.8174L217.852 77.3854C221.012 79.9134 224.435 81.9674 228.122 83.5474C231.914 85.0221 235.653 85.7594 239.34 85.7594C242.184 85.7594 244.343 85.3381 245.818 84.4954C247.398 83.5474 248.188 82.2308 248.188 80.5454C248.188 79.0708 247.819 77.9648 247.082 77.2274C246.45 76.3848 245.081 75.5948 242.974 74.8574C240.867 74.0148 237.181 72.8034 231.914 71.2234C215.587 66.3781 207.424 57.2668 207.424 43.8894C207.424 38.7281 208.846 34.0934 211.69 29.9854C214.639 25.8774 218.853 22.6121 224.33 20.1894C229.913 17.7668 236.549 16.5554 244.238 16.5554Z" fill="#C5AEEF"/>
<path d="M329.426 16.5554C342.909 16.5554 353.495 20.5054 361.184 28.4054C368.979 36.3054 372.876 47.5234 372.876 62.0594C372.876 71.1181 371.085 79.0708 367.504 85.9174C364.028 92.7641 359.025 98.0308 352.494 101.717C345.963 105.404 338.274 107.247 329.426 107.247C315.943 107.247 305.305 103.297 297.51 95.3974C289.821 87.4974 285.976 76.2794 285.976 61.7434C285.976 52.6848 287.714 44.7321 291.19 37.8854C294.771 31.0388 299.827 25.7721 306.358 22.0854C312.889 18.3988 320.578 16.5554 329.426 16.5554ZM329.426 38.9914C325.423 38.9914 322.527 40.7821 320.736 44.3634C318.945 47.9448 318.05 53.7381 318.05 61.7434C318.05 70.0648 318.945 76.0161 320.736 79.5974C322.527 83.0734 325.423 84.8114 329.426 84.8114C333.429 84.8114 336.325 83.0208 338.116 79.4394C339.907 75.8581 340.802 70.0648 340.802 62.0594C340.802 53.7381 339.907 47.8394 338.116 44.3634C336.325 40.7821 333.429 38.9914 329.426 38.9914Z" fill="#C5AEEF"/>
<path d="M456.771 104.087H429.437L428.331 94.9234C422.538 103.139 414.217 107.247 403.367 107.247C395.467 107.247 389.569 104.877 385.671 100.137C381.774 95.3974 379.825 88.8141 379.825 80.3874V19.7154H411.109V76.2794C411.109 79.3341 411.531 81.4934 412.373 82.7574C413.321 83.9161 414.638 84.4954 416.323 84.4954C417.798 84.4954 419.325 83.9161 420.905 82.7574C422.591 81.5988 424.118 79.8608 425.487 77.5434V19.7154H456.771V104.087Z" fill="#C5AEEF"/>
<path d="M521.3 17.0294C524.038 17.0294 526.882 17.5034 529.832 18.4514L524.934 48.6294C522.09 47.7868 519.509 47.3654 517.192 47.3654C512.557 47.3654 509.081 48.8928 506.764 51.9474C504.552 55.0021 502.761 59.5841 501.392 65.6934V104.087H470.108V19.7154H497.442L499.97 35.5154C501.76 29.9328 504.604 25.4561 508.502 22.0854C512.399 18.7148 516.665 17.0294 521.3 17.0294Z" fill="#C5AEEF"/>
<path d="M573.306 16.5554C585.314 16.5554 595.532 20.2948 603.958 27.7734L591.002 45.9434C586.157 42.0461 581.206 40.0974 576.15 40.0974C571.305 40.0974 567.724 41.7828 565.406 45.1534C563.089 48.5241 561.93 54.3174 561.93 62.5334C561.93 70.4334 563.089 75.8581 565.406 78.8074C567.829 81.6514 571.305 83.0734 575.834 83.0734C578.257 83.0734 580.522 82.7048 582.628 81.9674C584.735 81.1248 587.368 79.7028 590.528 77.7014L603.958 96.8194C595.426 103.771 585.472 107.247 574.096 107.247C564.932 107.247 556.98 105.404 550.238 101.717C543.497 97.9254 538.336 92.6588 534.754 85.9174C531.173 79.0708 529.382 71.2761 529.382 62.5334C529.382 53.6854 531.173 45.7854 534.754 38.8334C538.441 31.8814 543.602 26.4568 550.238 22.5594C556.874 18.5568 564.564 16.5554 573.306 16.5554Z" fill="#C5AEEF"/>
<path d="M685.326 60.7954C685.326 63.4288 685.115 66.7468 684.694 70.7494H633.502C634.345 76.4374 636.083 80.2821 638.716 82.2834C641.455 84.1794 645.352 85.1274 650.408 85.1274C653.357 85.1274 656.359 84.5481 659.414 83.3894C662.469 82.1254 665.839 80.2294 669.526 77.7014L682.166 94.7654C671.949 103.087 660.362 107.247 647.406 107.247C632.449 107.247 621.125 103.139 613.436 94.9234C605.747 86.6021 601.902 75.6474 601.902 62.0594C601.902 53.6328 603.482 45.9961 606.642 39.1494C609.907 32.1974 614.7 26.7201 621.02 22.7174C627.34 18.6094 634.977 16.5554 643.93 16.5554C652.251 16.5554 659.519 18.2934 665.734 21.7694C671.949 25.2454 676.741 30.3014 680.112 36.9374C683.588 43.5734 685.326 51.5261 685.326 60.7954ZM654.516 51.9474C654.411 46.9968 653.621 43.1521 652.146 40.4134C650.777 37.6748 648.249 36.3054 644.562 36.3054C641.086 36.3054 638.453 37.5168 636.662 39.9394C634.977 42.3621 633.871 46.7334 633.344 53.0534H654.516V51.9474Z" fill="#C5AEEF"/>
<path d="M744.993 17.0294C747.732 17.0294 750.576 17.5034 753.525 18.4514L748.627 48.6294C745.783 47.7868 743.202 47.3654 740.885 47.3654C736.25 47.3654 732.774 48.8928 730.457 51.9474C728.245 55.0021 726.454 59.5841 725.085 65.6934V104.087H693.801V19.7154H721.135L723.663 35.5154C725.454 29.9328 728.298 25.4561 732.195 22.0854C736.092 18.7148 740.358 17.0294 744.993 17.0294Z" fill="#C5AEEF"/>
<path d="M819.12 103.929C815.538 115.621 809.429 124.469 800.792 130.473C792.154 136.477 780.778 139.69 766.664 140.111L763.346 118.781C771.456 117.939 777.46 116.464 781.358 114.357C785.36 112.251 788.468 108.827 790.68 104.087H779.936L755.92 19.7154H789.1L799.686 84.9694L812.8 19.7154H845.032L819.12 103.929Z" fill="#C5AEEF"/>
<g clip-path="url(#clip0)">
<path d="M97.1625 52.1398L103.486 72.1275L110.131 52.1835L130.179 45.566L110.095 39.2715L103.486 19.4456L97.197 39.3133L77.2356 45.566L97.1625 52.1398Z" fill="#C5AEEF"/>
<path d="M66.566 82.2615L71.2307 96.9959L76.1242 82.2909L90.9183 77.4198L76.096 72.777L71.2307 58.1568L66.5932 72.8053L51.8719 77.4198L66.566 82.2615Z" fill="#C5AEEF"/>
<path d="M109.527 92.6605L112.565 102.246L115.747 92.6797L125.361 89.5126L115.728 86.4903L112.565 76.993L109.546 86.5088L99.9829 89.5126L109.527 92.6605Z" fill="#C5AEEF"/>
<path fill-rule="evenodd" clip-rule="evenodd" d="M8.65065 6.12933C8.65065 7.07312 12.2784 7.96923 18.6342 8.74969C14.8434 16.2517 -1.61785 51.1094 0.129383 87.5067C0.542356 96.1094 4.66026 102.784 10.9141 107.96C5.61073 112.106 2.86755 117.35 4.61877 119.688C6.37736 122.035 12.2965 120.556 17.6438 116.387C18.6329 115.619 19.5365 114.812 20.3406 113.992C39.2538 123.486 66.5597 125.366 80.2095 125.68L80.2095 125.734C80.2095 132.492 82.6258 137.969 85.6139 137.969C88.6021 137.969 91.0184 132.492 91.0184 125.734C99.6915 125.794 130.249 125.174 151.078 114.189C151.833 114.941 152.672 115.68 153.584 116.387C158.946 120.541 164.765 122.007 166.609 119.673C168.444 117.352 165.622 112.115 160.327 107.97C166.292 102.792 170.39 96.1149 171.213 87.5067C174.674 51.3134 156.808 16.6635 152.48 8.88594C159.41 8.08018 163.392 7.13746 163.392 6.12933C163.392 3.15593 128.749 0.751602 86.0285 0.751602C43.3077 0.751602 8.65065 3.21284 8.65065 6.12933ZM86.0285 11.5071C104.418 11.5071 121.31 11.0616 134.587 10.317C137.148 15.5954 151.377 46.6105 148.694 79.0417C145.749 114.651 87.6585 112.105 87.6585 112.105C87.6585 112.105 23.7345 114.637 22.2762 79.0417C20.9404 46.439 34.0459 15.2446 36.2591 10.2296C49.7129 11.0229 67.0748 11.5071 86.0285 11.5071Z" fill="#C5AEEF"/>
</g>
<defs>
<clipPath id="clip0">
<rect width="173" height="138" fill="white" transform="translate(0 0.111404)"/>
</clipPath>
</defs>
</svg>
