<svg width="643" height="167" viewBox="0 0 643 167" fill="none" xmlns="http://www.w3.org/2000/svg">
<path d="M219.054 0L215.104 12.55L219.054 25.09L223.214 12.55L219.054 0Z" fill="#634DA2"/>
<path d="M219.164 8.48999L206.614 12.44L219.164 16.6L231.704 12.44L219.164 8.48999Z" fill="#634DA2"/>
<path d="M200.854 27.69L203.764 36.94L206.834 27.69L203.764 18.44L200.854 27.69Z" fill="#634DA2"/>
<path d="M203.845 24.7L194.585 27.61L203.845 30.68L213.095 27.61L203.845 24.7Z" fill="#634DA2"/>
<path d="M221.465 33.42L223.355 39.44L225.355 33.42L223.355 27.41L221.465 33.42Z" fill="#634DA2"/>
<path d="M223.405 31.48L217.395 33.38L223.405 35.37L229.425 33.38L223.405 31.48Z" fill="#634DA2"/>
<path d="M41.238 42.6668C47.4527 42.6668 53.404 43.6675 59.092 45.6688C64.8853 47.5648 69.7307 50.1981 73.628 53.5688L62.568 70.4748C59.5133 68.5788 56.248 67.1041 52.772 66.0508C49.296 64.8921 45.8727 64.3128 42.502 64.3128C37.762 64.3128 35.392 65.5768 35.392 68.1048C35.392 69.1581 35.708 70.0535 36.34 70.7908C36.972 71.4228 38.4467 72.2655 40.764 73.3188C43.1867 74.2668 47.0313 75.5308 52.298 77.1108C60.7247 79.7441 66.9393 83.1148 70.942 87.2228C75.05 91.2255 77.104 96.9135 77.104 104.287C77.104 109.975 75.366 115.031 71.89 119.455C68.5193 123.879 63.7793 127.302 57.67 129.725C51.666 132.147 44.8193 133.359 37.13 133.359C29.7567 133.359 22.8047 132.2 16.274 129.883C9.84867 127.46 4.424 124.142 0 119.929L14.852 103.497C18.012 106.025 21.4353 108.079 25.122 109.659C28.914 111.133 32.6533 111.871 36.34 111.871C39.184 111.871 41.3433 111.449 42.818 110.607C44.398 109.659 45.188 108.342 45.188 106.657C45.188 105.182 44.8193 104.076 44.082 103.339C43.45 102.496 42.0807 101.706 39.974 100.969C37.8673 100.126 34.1807 98.9148 28.914 97.3348C12.5873 92.4895 4.424 83.3781 4.424 70.0008C4.424 64.8395 5.846 60.2048 8.69 56.0968C11.6393 51.9888 15.8527 48.7235 21.33 46.3008C26.9127 43.8781 33.5487 42.6668 41.238 42.6668Z" fill="#634DA2"/>
<path d="M126.426 42.6668C139.909 42.6668 150.495 46.6168 158.184 54.5168C165.979 62.4168 169.876 73.6348 169.876 88.1708C169.876 97.2295 168.085 105.182 164.504 112.029C161.028 118.875 156.025 124.142 149.494 127.829C142.963 131.515 135.274 133.359 126.426 133.359C112.943 133.359 102.305 129.409 94.5099 121.509C86.8206 113.609 82.9759 102.391 82.9759 87.8548C82.9759 78.7961 84.7139 70.8435 88.1899 63.9968C91.7713 57.1501 96.8273 51.8835 103.358 48.1968C109.889 44.5101 117.578 42.6668 126.426 42.6668ZM126.426 65.1028C122.423 65.1028 119.527 66.8935 117.736 70.4748C115.945 74.0561 115.05 79.8495 115.05 87.8548C115.05 96.1761 115.945 102.127 117.736 105.709C119.527 109.185 122.423 110.923 126.426 110.923C130.429 110.923 133.325 109.132 135.116 105.551C136.907 101.969 137.802 96.1761 137.802 88.1708C137.802 79.8495 136.907 73.9508 135.116 70.4748C133.325 66.8935 130.429 65.1028 126.426 65.1028Z" fill="#634DA2"/>
<path d="M253.771 130.199H226.437L225.331 121.035C219.538 129.251 211.217 133.359 200.367 133.359C192.467 133.359 186.569 130.989 182.671 126.249C178.774 121.509 176.825 114.925 176.825 106.499V45.8268H208.109V102.391C208.109 105.445 208.531 107.605 209.373 108.869C210.321 110.027 211.638 110.607 213.323 110.607C214.798 110.607 216.325 110.027 217.905 108.869C219.591 107.71 221.118 105.972 222.487 103.655V45.8268H253.771V130.199Z" fill="#634DA2"/>
<path d="M318.3 43.1408C321.038 43.1408 323.882 43.6148 326.832 44.5628L321.934 74.7408C319.09 73.8981 316.509 73.4768 314.192 73.4768C309.557 73.4768 306.081 75.0041 303.764 78.0588C301.552 81.1135 299.761 85.6955 298.392 91.8048V130.199H267.108V45.8268H294.442L296.97 61.6268C298.76 56.0441 301.604 51.5675 305.502 48.1968C309.399 44.8261 313.665 43.1408 318.3 43.1408Z" fill="#634DA2"/>
<path d="M370.306 42.6668C382.314 42.6668 392.532 46.4061 400.958 53.8848L388.002 72.0548C383.157 68.1575 378.206 66.2088 373.15 66.2088C368.305 66.2088 364.724 67.8941 362.406 71.2648C360.089 74.6355 358.93 80.4288 358.93 88.6448C358.93 96.5448 360.089 101.969 362.406 104.919C364.829 107.763 368.305 109.185 372.834 109.185C375.257 109.185 377.522 108.816 379.628 108.079C381.735 107.236 384.368 105.814 387.528 103.813L400.958 122.931C392.426 129.883 382.472 133.359 371.096 133.359C361.932 133.359 353.98 131.515 347.238 127.829C340.497 124.037 335.336 118.77 331.754 112.029C328.173 105.182 326.382 97.3875 326.382 88.6448C326.382 79.7968 328.173 71.8968 331.754 64.9448C335.441 57.9928 340.602 52.5681 347.238 48.6708C353.874 44.6681 361.564 42.6668 370.306 42.6668Z" fill="#634DA2"/>
<path d="M482.326 86.9068C482.326 89.5401 482.115 92.8581 481.694 96.8608H430.502C431.345 102.549 433.083 106.393 435.716 108.395C438.455 110.291 442.352 111.239 447.408 111.239C450.357 111.239 453.359 110.659 456.414 109.501C459.469 108.237 462.839 106.341 466.526 103.813L479.166 120.877C468.949 129.198 457.362 133.359 444.406 133.359C429.449 133.359 418.125 129.251 410.436 121.035C402.747 112.713 398.902 101.759 398.902 88.1708C398.902 79.7441 400.482 72.1075 403.642 65.2608C406.907 58.3088 411.7 52.8315 418.02 48.8288C424.34 44.7208 431.977 42.6668 440.93 42.6668C449.251 42.6668 456.519 44.4048 462.734 47.8808C468.949 51.3568 473.741 56.4128 477.112 63.0488C480.588 69.6848 482.326 77.6375 482.326 86.9068ZM451.516 78.0588C451.411 73.1081 450.621 69.2635 449.146 66.5248C447.777 63.7861 445.249 62.4168 441.562 62.4168C438.086 62.4168 435.453 63.6281 433.662 66.0508C431.977 68.4735 430.871 72.8448 430.344 79.1648H451.516V78.0588Z" fill="#634DA2"/>
<path d="M541.993 43.1408C544.732 43.1408 547.576 43.6148 550.525 44.5628L545.627 74.7408C542.783 73.8981 540.202 73.4768 537.885 73.4768C533.25 73.4768 529.774 75.0041 527.457 78.0588C525.245 81.1135 523.454 85.6955 522.085 91.8048V130.199H490.801V45.8268H518.135L520.663 61.6268C522.454 56.0441 525.298 51.5675 529.195 48.1968C533.092 44.8261 537.358 43.1408 541.993 43.1408Z" fill="#634DA2"/>
<path d="M616.12 130.041C612.538 141.733 606.429 150.581 597.792 156.585C589.154 162.589 577.778 165.801 563.664 166.223L560.346 144.893C568.456 144.05 574.46 142.575 578.358 140.469C582.36 138.362 585.468 134.939 587.68 130.199H576.936L552.92 45.8268H586.1L596.686 111.081L609.8 45.8268H642.032L616.12 130.041Z" fill="#634DA2"/>
</svg>
