<?xml version="1.0" encoding="UTF-8" standalone="no"?>
<!DOCTYPE svg PUBLIC "-//W3C//DTD SVG 20010904//EN"
"http://www.w3.org/TR/2001/REC-SVG-20010904/DTD/svg10.dtd">
<!-- Created with Sodipodi ("http://www.sodipodi.com/") -->
<svg
   id="svg596"
   sodipodi:version="0.32"
   width="72pt"
   height="72pt"
   sodipodi:docbase="/home/zeus/desktop/icons/gartoon/svg"
   sodipodi:docname="/home/zeus/desktop/icons/gartoon/svg/gnome-mime-image-x-tiff.svg"
   xmlns="http://www.w3.org/2000/svg"
   xmlns:sodipodi="http://sodipodi.sourceforge.net/DTD/sodipodi-0.dtd"
   xmlns:xlink="http://www.w3.org/1999/xlink">
  <defs
     id="defs598">
    <linearGradient
       id="linearGradient612">
      <stop
         style="stop-color:#7fa8e3;stop-opacity:0.741176;"
         offset="0.000000"
         id="stop613" />
      <stop
         style="stop-color:#ffffff;stop-opacity:0;"
         offset="1.000000"
         id="stop614" />
    </linearGradient>
    <linearGradient
       id="linearGradient626">
      <stop
         style="stop-color:#ff0047;stop-opacity:1;"
         offset="0.000000"
         id="stop627" />
      <stop
         style="stop-color:#ab322d;stop-opacity:0;"
         offset="1.000000"
         id="stop628" />
    </linearGradient>
    <linearGradient
       id="linearGradient618">
      <stop
         style="stop-color:#956d47;stop-opacity:1;"
         offset="0.000000"
         id="stop619" />
      <stop
         style="stop-color:#ab322d;stop-opacity:0;"
         offset="1.000000"
         id="stop620" />
    </linearGradient>
    <linearGradient
       id="linearGradient614">
      <stop
         style="stop-color:#000;stop-opacity:1;"
         offset="0"
         id="stop615" />
      <stop
         style="stop-color:#fff;stop-opacity:1;"
         offset="1"
         id="stop616" />
    </linearGradient>
    <linearGradient
       xlink:href="#linearGradient618"
       id="linearGradient617"
       x1="-0.19608469"
       y1="0.57031226"
       x2="1.07843077"
       y2="0.52343726"
       gradientUnits="objectBoundingBox"
       spreadMethod="pad" />
    <linearGradient
       xlink:href="#linearGradient626"
       id="linearGradient625"
       x1="42.9995728"
       y1="77.3980103"
       x2="28.5382881"
       y2="63.0152588"
       gradientUnits="userSpaceOnUse"
       spreadMethod="pad"
       gradientTransform="matrix(0.934001,0.000000,0.000000,1.070663,-1.516226e-6,-1.716230e-7)" />
    <linearGradient
       xlink:href="#linearGradient612"
       id="linearGradient636"
       x1="16.4110699"
       y1="10.6072874"
       x2="24.6243172"
       y2="61.6665344"
       gradientUnits="userSpaceOnUse"
       spreadMethod="pad" />
  </defs>
  <sodipodi:namedview
     id="base" />
  <g
     id="g898"
     transform="translate(-1.146498,1.146498)">
    <path
       style="fill:#000000;fill-rule:evenodd;stroke:none;stroke-opacity:1;stroke-width:1pt;stroke-linejoin:miter;stroke-linecap:butt;fill-opacity:0.301471;"
       d="M 12.8163 74.753 C 10.3856 73.6481 7.07107 70.1126 8.83884 65.2512 C 9.72267 59.948 25.6326 13.1021 29.1682 10.8924 C 31.3778 8.90368 34.582 8.13026 39.1119 9.34561 C 42.8684 10.2295 76.6769 19.0684 78.6656 20.8361 C 80.6544 22.6039 82.2012 24.0402 80.6544 27.9072 C 79.5496 29.8959 66.4017 74.532 66.1808 77.4047 C 65.2969 80.4983 62.7558 84.2548 58.5573 84.0338 C 54.3589 83.8128 15.9099 75.4159 12.8163 74.753 z "
       id="path794"
       sodipodi:nodetypes="ccccccccc"
       transform="matrix(1.114903,0.000000,0.000000,1.114903,1.287023,-5.035753)" />
    <path
       style="fill:#3d4e67;fill-rule:evenodd;stroke:none;stroke-opacity:1;stroke-width:1pt;stroke-linejoin:miter;stroke-linecap:butt;fill-opacity:1;"
       d="M 12.8163 74.753 C 10.3856 73.6481 7.07107 70.1126 8.83884 65.2512 C 9.72267 59.948 25.6326 13.1021 29.1682 10.8924 C 31.3778 8.90368 34.582 8.13026 39.1119 9.34561 C 42.8684 10.2295 76.6769 19.0684 78.6656 20.8361 C 80.6544 22.6039 82.2012 24.0402 80.6544 27.9072 C 79.5496 29.8959 66.4017 74.532 66.1808 77.4047 C 65.2969 80.4983 62.7558 84.2548 58.5573 84.0338 C 54.3589 83.8128 15.9099 75.4159 12.8163 74.753 z "
       id="path895"
       sodipodi:nodetypes="ccccccccc"
       transform="matrix(1.114903,0.000000,0.000000,1.114903,-1.570116,-9.607182)" />
    <path
       style="fill:#ffffff;fill-rule:evenodd;stroke:none;stroke-opacity:1;stroke-width:1pt;stroke-linejoin:miter;stroke-linecap:butt;fill-opacity:1;"
       d="M 17.8987 70.9965 C 15.3576 70.3336 11.7114 69.6706 13.0373 65.6932 C 15.468 55.9705 27.8424 18.6264 33.1456 13.986 C 34.361 12.8811 38.4489 12.4392 46.1829 14.8699 C 55.0218 17.5215 72.9204 23.4877 74.6882 24.3716 C 76.4559 25.2555 77.1189 25.2555 75.793 29.233 C 73.8043 33.2105 64.9655 67.24 62.7557 72.9852 C 61.209 77.0732 60.8775 78.9514 58.2258 78.9514 "
       id="path896"
       sodipodi:nodetypes="cccccccs"
       transform="matrix(1.114903,0.000000,0.000000,1.114903,-1.570116,-9.607182)" />
    <path
       style="fill:url(#linearGradient636);fill-rule:evenodd;stroke:none;stroke-opacity:1;stroke-width:1pt;stroke-linejoin:miter;stroke-linecap:butt;fill-opacity:1;"
       d="M 28.75 13.75 C 28.75 13.75 31.875 7.49995 39.6875 9.37495 C 47.5 11.25 78.125 19.375 77.8125 21.875 C 77.5 24.375 71.875 39.0625 71.5625 40.3125 C 71.25 41.5625 42.5 40.9375 31.5625 47.5 C 20.625 54.0625 12.5 59.6875 12.5 59.6875 C 12.5 59.6875 23.75 24.6875 28.75 13.75 z "
       id="path636"
       transform="matrix(0.946780,0.000000,0.000000,0.946780,6.111789,-0.736980)" />
  </g>
  <path
     style="font-size:12;fill:#470000;fill-rule:evenodd;stroke-width:1pt;"
     d="M 67.911 66.4866 C 67.911 68.1832 66.4512 69.56 64.6525 69.56 C 62.8537 69.56 61.3939 68.1832 61.3939 66.4866 C 61.3939 64.7901 62.8537 63.4132 64.6525 63.4132 C 66.4512 63.4132 67.911 64.7901 67.911 66.4866 z "
     id="path613"
     transform="matrix(0.665098,0.000000,0.000000,0.665098,26.75834,4.099827)" />
  <path
     style="font-size:12;fill:#470000;fill-rule:evenodd;stroke-width:1pt;"
     d="M 61.2458 74.2998 C 59.6905 72.5223 57.1726 73.4851 56.3579 74.7441 C 55.4692 77.8545 56.8764 80.6687 60.5793 79.3357 C 64.2822 78.0026 65.6152 75.929 65.6152 76.0771 C 65.6152 76.2253 62.6529 84.0754 58.2094 84.6678 C 53.7659 85.2603 51.322 85.4084 46.4342 85.4825 C 41.3983 86.3712 38.9544 86.2971 38.9544 86.2971 L 45.1752 77.4102 C 45.1752 77.4102 46.8045 76.5215 49.4706 72.078 C 52.1367 67.6346 56.8763 66.5977 59.2462 68.0789 C 61.3939 68.9675 62.5788 70.1525 63.1713 72.4483 C 63.0232 74.9662 62.5788 75.929 61.2458 74.2998 z "
     id="path610"
     sodipodi:nodetypes="cccccccccccc"
     transform="matrix(0.665098,0.000000,0.000000,0.665098,26.75834,4.099827)" />
  <path
     style="font-size:12;fill:#230000;fill-opacity:0.99899;fill-rule:evenodd;stroke-width:1pt;"
     d="M 37.9176 76.4474 C 40.1393 77.0399 37.5473 80.2243 36.1402 78.0026 C 35.0293 79.5578 35.5477 75.7809 35.5477 75.7809 L 30.808 85.7046 C 30.808 85.7046 38.9544 88.667 42.0648 84.3716 C 45.1752 80.0763 45.5456 77.8545 43.8423 76.0771 C 41.8426 73.3371 40.0652 74.4479 39.3247 74.8922 C 38.5841 75.3366 38.2879 75.6328 37.9176 76.4474 z "
     id="path609"
     sodipodi:nodetypes="cccccccc"
     transform="matrix(0.665098,0.000000,0.000000,0.665098,26.95536,4.099827)" />
  <path
     style="font-size:12;fill:#230000;fill-rule:evenodd;stroke-width:1pt;"
     d="M 36.1402 62.0062 C 36.1402 62.0062 37.0288 56.674 36.7326 53.8598 C 36.2883 47.787 23.5503 -3.31281 14.071 5.57413 C 3.11042 9.86949 16.1446 58.8957 17.7739 61.7099 C 19.4031 64.5241 21.773 66.5977 21.773 66.5977 C 21.773 66.5977 18.07 83.483 31.9189 85.8527 C 36.9549 76.5215 40.5087 72.8006 39.695 68.5973 C 39.2506 66.2275 38.6582 64.0057 36.1402 62.0062 z "
     id="path608"
     sodipodi:nodetypes="cccccccc"
     transform="matrix(0.665098,0.000000,0.000000,0.665098,26.75834,4.099827)" />
  <path
     style="font-size:12;fill:#f2962c;fill-rule:evenodd;stroke-width:1pt;"
     d="M 19.4031 58.3033 C 22.0692 55.0448 25.0315 52.6749 32.5854 53.4155 C 30.2156 40.2331 21.773 4.68543 15.7002 7.94398 C 8.88697 9.12891 15.2559 48.8239 19.4031 58.3033 z "
     id="path600"
     sodipodi:nodetypes="cccc"
     transform="matrix(0.665098,0.000000,0.000000,0.665098,26.75834,4.099827)" />
  <path
     style="font-size:12;fill:#8b8b8b;fill-rule:evenodd;stroke-width:1pt;"
     d="M 19.8475 59.6363 C 19.8475 59.6363 21.1805 63.9316 24.7353 64.2279 C 26.3646 61.7099 30.0675 61.2656 33.1779 61.4137 C 33.9185 58.5995 34.5109 55.1928 33.326 55.0447 C 31.8449 54.156 23.5504 52.5268 19.8475 59.6363 z "
     id="path601"
     sodipodi:nodetypes="ccccc"
     transform="matrix(0.665098,0.000000,0.000000,0.665098,26.75834,4.099827)" />
  <path
     style="font-size:12;fill:#65532d;fill-rule:evenodd;stroke-width:1pt;"
     d="M 24.8834 66.4496 C 25.624 63.1911 31.2524 60.9694 33.7703 63.6354 C 39.8431 67.0421 37.177 75.4847 34.5109 75.6328 C 33.7703 86.149 40.8799 80.3724 40.7318 78.1508 C 46.0639 77.4102 41.7686 84.9641 38.2138 84.5197 C 33.326 85.2603 20.2918 80.8169 24.8834 66.4496 z "
     id="path602"
     sodipodi:nodetypes="cccccc"
     transform="matrix(0.665098,0.000000,0.000000,0.665098,26.75834,4.099827)" />
  <path
     style="font-size:12;fill:#bc0000;fill-rule:evenodd;stroke-width:1pt;"
     d="M 44.5828 81.2612 C 44.7309 81.4093 46.6564 81.2612 47.6932 79.4838 C 48.73 77.7064 52.2848 70.4487 54.8028 70.3006 C 60.8755 68.0789 60.8755 72.2261 60.8755 72.2261 C 60.8755 72.2261 55.2471 70.1525 54.6546 73.7073 C 54.0622 77.2621 53.0254 79.3357 59.8386 82.1499 C 55.9877 83.4829 43.966 83.74 43.2253 83.74 C 42.4847 83.74 44.7309 81.1131 44.5828 81.2612 z "
     id="path603"
     sodipodi:nodetypes="cccccccc"
     transform="matrix(0.665098,0.000000,0.000000,0.665098,26.75834,4.099827)" />
  <path
     style="font-size:12;fill:#470000;fill-rule:evenodd;stroke-width:1pt;"
     d="M 46.6564 67.6346 C 48.4338 64.9685 54.5806 66.3015 57.3947 65.7091 C 60.8014 64.8204 59.02 58.5954 55.169 58.5955 C 52.5142 58.0648 46.9527 58.1551 46.6564 67.6346 z "
     id="path611"
     sodipodi:nodetypes="cccc"
     transform="matrix(0.665098,0.000000,0.000000,0.665098,26.75834,4.099827)" />
  <path
     style="font-size:12;fill:#bc0000;fill-rule:evenodd;stroke-width:1pt;"
     d="M 48.1376 64.8204 C 48.1376 64.8204 54.5065 64.2279 56.1358 64.2279 C 58.0613 64.6397 58.1915 61.7181 56.5801 60.6731 C 53.766 58.7476 49.9149 58.5995 48.1376 64.8204 z "
     id="path604"
     sodipodi:nodetypes="cccc"
     transform="matrix(0.665098,0.000000,0.000000,0.665098,26.75834,4.099827)" />
  <path
     style="font-size:12;fill:#bc0000;fill-rule:evenodd;stroke-width:1pt;"
     d="M 66.8001 66.5977 C 66.8001 67.7424 65.838 68.6714 64.6524 68.6714 C 63.4669 68.6714 62.5048 67.7424 62.5048 66.5977 C 62.5048 65.4531 63.4669 64.5241 64.6524 64.5241 C 65.838 64.5241 66.8001 65.4531 66.8001 66.5977 z "
     id="path606"
     transform="matrix(0.665098,0.000000,0.000000,0.665098,26.75834,4.099827)" />
  <path
     style="font-size:12;fill:url(#linearGradient617);fill-rule:evenodd;stroke-width:1pt;"
     d="M 19.4031 58.3033 C 22.0692 55.0448 25.0315 52.6749 32.5854 53.4155 C 30.2156 40.2331 21.773 4.68543 15.7002 7.94398 C 8.88697 9.12891 15.2559 48.8239 19.4031 58.3033 z "
     id="path621"
     sodipodi:nodetypes="cccc"
     transform="matrix(0.665098,0.000000,0.000000,0.665098,26.75834,4.099827)" />
  <path
     style="font-size:12;fill:#f2d0a8;fill-rule:evenodd;stroke-width:1pt;"
     d="M 28.4382 52.5267 C 25.1369 52.6775 14.6017 8.00417 18.6625 10.462 C 19.6179 11.1298 34.3749 52.522 28.4382 52.5267 z "
     id="path622"
     sodipodi:nodetypes="css"
     transform="matrix(0.665098,0.000000,0.000000,0.665098,26.75834,4.099827)" />
  <path
     style="font-size:12;fill:#f2f2f2;fill-rule:evenodd;stroke-width:1pt;"
     d="M 30.5118 54.4523 L 31.1043 61.2656 L 27.6976 62.0062 L 26.2165 54.6003 C 26.2165 54.6003 30.2156 54.1561 30.5118 54.4523 z "
     id="path623"
     sodipodi:nodetypes="ccccc"
     transform="matrix(0.665098,0.000000,0.000000,0.665098,26.75834,4.099827)" />
  <path
     style="font-size:12;fill:url(#linearGradient625);fill-rule:nonzero;stroke-width:1pt;"
     d="M 24.8834 66.4496 C 25.624 63.1911 31.2524 60.9694 33.7703 63.6354 C 39.8431 67.0421 37.177 75.4847 34.5109 75.6328 C 33.7703 86.149 40.8799 80.3724 40.7318 78.1508 C 46.0639 77.4102 41.7686 84.9641 38.2138 84.5197 C 33.326 85.2603 20.2918 80.8169 24.8834 66.4496 z "
     id="path624"
     sodipodi:nodetypes="cccccc"
     transform="matrix(0.665098,0.000000,0.000000,0.665098,26.75834,4.099827)" />
  <path
     style="font-size:13;font-weight:bold;fill:#3d4e67;stroke-width:1pt;font-family:Kid Kosmic;"
     d="M 61.8459 55.1882 C 63.7671 54.8496 65.1002 54.5069 65.8449 54.1599 C 66.4713 54.3207 66.7844 54.6592 66.7844 55.1755 C 66.7844 55.2601 66.7759 55.349 66.759 55.4421 C 66.6405 56.0769 66.2597 56.4916 65.6164 56.6862 L 57.8215 58.2097 C 57.6353 58.6413 57.5422 59.001 57.5422 59.2888 C 57.5422 59.4411 57.5676 59.5808 57.6184 59.7077 C 57.7284 59.9786 57.7834 60.2705 57.7834 60.5837 C 57.7834 60.8038 57.7538 61.0365 57.6946 61.2819 C 57.4745 61.7813 57.0598 62.0521 56.4504 62.0944 C 55.8326 62.1368 55.4348 61.9633 55.2571 61.5739 C 55.2571 60.0082 55.4348 58.4043 55.7903 56.7624 C 56.1373 55.1459 56.6239 53.2712 57.2502 51.1384 C 58.1812 50.182 61.2746 49.7377 66.5305 49.8054 C 67.1907 50.2032 67.5207 50.6644 67.5207 51.1892 C 67.5207 51.7816 67.1187 52.2513 66.3147 52.5983 C 65.1467 52.336 64.0295 52.2048 62.9631 52.2048 C 61.9306 52.2133 60.716 52.573 59.3196 53.2839 C 58.9726 54.2233 58.7017 55.0105 58.5071 55.6452 C 59.1164 55.6368 60.2294 55.4844 61.8459 55.1882 z M 49.4299 55.1882 C 51.3511 54.8496 52.6841 54.5069 53.4289 54.1599 C 54.0552 54.3207 54.3684 54.6592 54.3684 55.1755 C 54.3684 55.2601 54.3599 55.349 54.343 55.4421 C 54.2245 56.0769 53.8436 56.4916 53.2004 56.6862 L 45.4055 58.2097 C 45.2193 58.6413 45.1262 59.001 45.1262 59.2888 C 45.1262 59.4411 45.1516 59.5808 45.2024 59.7077 C 45.3124 59.9786 45.3674 60.2705 45.3674 60.5837 C 45.3674 60.8038 45.3378 61.0365 45.2785 61.2819 C 45.0585 61.7813 44.6438 62.0521 44.0344 62.0944 C 43.4166 62.1368 43.0188 61.9633 42.841 61.5739 C 42.841 60.0082 43.0188 58.4043 43.3742 56.7624 C 43.7212 55.1459 44.2079 53.2712 44.8342 51.1384 C 45.7652 50.182 48.8586 49.7377 54.1145 49.8054 C 54.7746 50.2032 55.1047 50.6644 55.1047 51.1892 C 55.1047 51.7816 54.7027 52.2513 53.8987 52.5983 C 52.7307 52.336 51.6135 52.2048 50.5471 52.2048 C 49.5145 52.2133 48.3 52.573 46.9035 53.2839 C 46.5565 54.2233 46.2857 55.0105 46.091 55.6452 C 46.7004 55.6368 47.8134 55.4844 49.4299 55.1882 z M 40.8987 49.7419 C 41.3049 49.7419 41.6604 49.8392 41.9651 50.0339 C 42.3205 50.2539 42.4983 50.5544 42.4983 50.9353 C 42.4983 51.003 42.494 51.0707 42.4856 51.1384 C 41.2922 55.0739 40.5263 58.4213 40.1877 61.1804 C 40.0354 61.8659 39.6164 62.1833 38.9309 62.1325 C 38.2369 62.0817 37.8814 61.8194 37.8645 61.3454 C 38.2284 58.2985 38.914 54.6042 39.9211 50.2624 C 40.1666 49.9154 40.4924 49.7419 40.8987 49.7419 z M 29.4729 55.4421 C 29.676 54.5111 29.9257 53.5632 30.2219 52.5983 C 29.147 52.6914 28.0552 52.8438 26.9465 53.0554 C 26.8873 53.0638 26.8111 53.0681 26.718 53.0681 C 26.4133 53.0681 26.1594 52.9369 25.9563 52.6745 C 25.7616 52.4121 25.6643 52.1244 25.6643 51.8112 C 25.6643 51.3881 25.9097 50.9522 26.4006 50.5036 C 28.4149 50.1735 30.3319 50.0043 32.1516 49.9958 C 34.1659 49.9958 36.0533 50.0254 37.8137 50.0847 C 38.0253 50.3978 38.1311 50.766 38.1311 51.1892 C 38.1311 51.5785 38.038 51.9128 37.8518 52.1921 C 37.6487 52.5052 37.3651 52.6957 37.0012 52.7634 C 35.5878 52.5941 34.2336 52.5052 32.9387 52.4968 C 31.813 54.7735 31.2502 57.2364 31.2502 59.8855 C 31.2502 60.1478 31.2587 60.4144 31.2756 60.6853 C 31.2164 61.0492 31.0556 61.3539 30.7932 61.5993 C 30.5308 61.8363 30.2219 61.9548 29.8664 61.9548 C 29.494 61.9548 29.1132 61.7686 28.7239 61.3962 C 28.8339 59.2549 29.0836 57.2702 29.4729 55.4421 z M 23.3664 59.9108 C 23.3664 60.334 23.1633 60.7064 22.7571 61.028 C 22.3593 61.3496 21.9319 61.5105 21.4748 61.5105 C 21.3056 61.5105 21.149 61.4851 21.0051 61.4343 C 20.5819 61.265 20.3703 60.9646 20.3703 60.5329 C 20.3703 60.2367 20.4761 59.9489 20.6877 59.6696 C 21.094 59.1534 21.6018 58.8952 22.2112 58.8952 C 22.3889 58.8952 22.5582 58.9248 22.719 58.9841 C 23.1506 59.1449 23.3664 59.4538 23.3664 59.9108 z "
     id="path1015"
     transform="matrix(0.973906,0.226951,-0.226951,0.973906,8.975051,2.664890)" />
</svg>
