<svg width="692" height="167" viewBox="0 0 692 167" fill="none" xmlns="http://www.w3.org/2000/svg">
<path fill-rule="evenodd" clip-rule="evenodd" d="M59.5498 45.6687C53.8618 43.6674 47.9104 42.6667 41.6958 42.6667C34.0064 42.6667 27.3704 43.8781 21.7878 46.3007C16.3104 48.7234 12.0971 51.9887 9.14776 56.0967C6.30376 60.2047 4.88176 64.8394 4.88176 70.0007C4.88176 83.3781 13.0451 92.4894 29.3718 97.3348C34.6384 98.9148 38.3251 100.126 40.4318 100.969C42.5384 101.706 43.9078 102.496 44.5398 103.339C45.2771 104.076 45.6458 105.182 45.6458 106.657C45.6458 108.342 44.8558 109.659 43.2758 110.607C41.8011 111.449 39.6418 111.871 36.7978 111.871C33.1111 111.871 29.3718 111.133 25.5798 109.659C21.8931 108.079 18.4698 106.025 15.3098 103.497L0.457764 119.929C4.88176 124.142 10.3064 127.46 16.7318 129.883C23.2624 132.2 30.2144 133.359 37.5878 133.359C45.2771 133.359 52.1238 132.147 58.1278 129.725C64.2371 127.302 68.9771 123.879 72.3478 119.455C75.8238 115.031 77.5618 109.975 77.5618 104.287C77.5618 96.9134 75.5078 91.2254 71.3998 87.2227C67.3971 83.1147 61.1824 79.7441 52.7558 77.1107C47.4891 75.5307 43.6444 74.2667 41.2218 73.3187C38.9044 72.2654 37.4298 71.4227 36.7978 70.7907C36.1658 70.0534 35.8498 69.1581 35.8498 68.1047C35.8498 65.5767 38.2198 64.3127 42.9598 64.3127C46.3304 64.3127 49.7538 64.8921 53.2298 66.0507C56.7058 67.1041 59.9711 68.5787 63.0258 70.4747L74.0858 53.5687C70.1884 50.1981 65.3431 47.5647 59.5498 45.6687ZM158.642 54.5167C150.952 46.6167 140.366 42.6667 126.884 42.6667C118.036 42.6667 110.346 44.5101 103.816 48.1967C97.285 51.8834 92.229 57.1501 88.6477 63.9967C85.1717 70.8434 83.4337 78.7961 83.4337 87.8547C83.4337 102.391 87.2784 113.609 94.9677 121.509C102.762 129.409 113.401 133.359 126.884 133.359C135.732 133.359 143.421 131.515 149.952 127.829C156.482 124.142 161.486 118.875 164.962 112.029C168.543 105.182 170.334 97.2294 170.334 88.1707C170.334 73.6347 166.436 62.4167 158.642 54.5167ZM118.194 70.4747C119.984 66.8934 122.881 65.1027 126.884 65.1027C130.886 65.1027 133.783 66.8934 135.574 70.4747C137.364 73.9507 138.26 79.8494 138.26 88.1707C138.26 96.1761 137.364 101.969 135.574 105.551C133.783 109.132 130.886 110.923 126.884 110.923C122.881 110.923 119.984 109.185 118.194 105.709C116.403 102.127 115.508 96.1761 115.508 87.8547C115.508 79.8494 116.403 74.0561 118.194 70.4747ZM254.229 130.199H226.895L225.789 121.035C219.996 129.251 211.675 133.359 200.825 133.359C192.925 133.359 187.027 130.989 183.129 126.249C179.232 121.509 177.283 114.925 177.283 106.499V45.8267H208.567V102.391C208.567 105.445 208.989 107.605 209.831 108.869C210.779 110.027 212.096 110.607 213.781 110.607C215.256 110.607 216.783 110.027 218.363 108.869C220.049 107.71 221.576 105.972 222.945 103.655V45.8267H254.229V130.199ZM327.289 44.5627C324.34 43.6147 321.496 43.1408 318.757 43.1408C314.123 43.1408 309.857 44.8261 305.959 48.1967C302.062 51.5674 299.218 56.0441 297.427 61.6267L294.899 45.8267H267.565V130.199H298.849V91.8047C300.219 85.6954 302.009 81.1134 304.221 78.0588C306.539 75.0041 310.015 73.4767 314.649 73.4767C316.967 73.4767 319.547 73.8981 322.391 74.7407L327.289 44.5627ZM370.764 42.6667C382.772 42.6667 392.989 46.4061 401.416 53.8847L388.46 72.0547C383.615 68.1574 378.664 66.2087 373.608 66.2087C368.763 66.2087 365.181 67.8941 362.864 71.2647C360.547 74.6354 359.388 80.4287 359.388 88.6447C359.388 96.5448 360.547 101.969 362.864 104.919C365.287 107.763 368.763 109.185 373.292 109.185C375.715 109.185 377.979 108.816 380.086 108.079C382.193 107.236 384.826 105.814 387.986 103.813L401.416 122.931C392.884 129.883 382.93 133.359 371.554 133.359C362.39 133.359 354.437 131.515 347.696 127.829C340.955 124.037 335.793 118.77 332.212 112.029C328.631 105.182 326.84 97.3874 326.84 88.6447C326.84 79.7967 328.631 71.8967 332.212 64.9447C335.899 57.9927 341.06 52.5681 347.696 48.6707C354.332 44.6681 362.021 42.6667 370.764 42.6667ZM482.152 96.8607C482.573 92.8581 482.784 89.5401 482.784 86.9067C482.784 77.6374 481.046 69.6847 477.57 63.0487C474.199 56.4127 469.406 51.3567 463.192 47.8807C456.977 44.4047 449.709 42.6667 441.388 42.6667C432.434 42.6667 424.798 44.7207 418.478 48.8287C412.158 52.8314 407.365 58.3087 404.1 65.2607C400.94 72.1074 399.36 79.7441 399.36 88.1707C399.36 101.759 403.204 112.713 410.894 121.035C418.583 129.251 429.906 133.359 444.864 133.359C457.82 133.359 469.406 129.198 479.624 120.877L466.984 103.813C463.297 106.341 459.926 108.237 456.872 109.501C453.817 110.659 450.815 111.239 447.866 111.239C442.81 111.239 438.912 110.291 436.174 108.395C433.54 106.393 431.802 102.549 430.96 96.8607H482.152ZM449.604 66.5247C451.078 69.2634 451.868 73.1081 451.974 78.0588V79.1647H430.802C431.328 72.8447 432.434 68.4734 434.12 66.0507C435.91 63.6281 438.544 62.4167 442.02 62.4167C445.706 62.4167 448.234 63.7861 449.604 66.5247ZM542.451 43.1408C545.19 43.1408 548.034 43.6147 550.983 44.5627L546.085 74.7407C543.241 73.8981 540.66 73.4767 538.343 73.4767C533.708 73.4767 530.232 75.0041 527.915 78.0588C525.703 81.1134 523.912 85.6954 522.543 91.8047V130.199H491.259V45.8267H518.593L521.121 61.6267C522.911 56.0441 525.755 51.5674 529.653 48.1967C533.55 44.8261 537.816 43.1408 542.451 43.1408ZM620.664 116.76L619.598 120.224V116.868L620.664 116.76ZM622.579 110.537L618.995 110.899C615.93 111.208 613.598 113.788 613.598 116.868V137.89C609.952 145.775 604.836 152.007 598.25 156.585C589.612 162.589 578.236 165.801 564.122 166.223L560.804 144.893C568.914 144.05 574.918 142.575 578.815 140.469C582.818 138.362 585.926 134.939 588.138 130.199H577.393L553.378 45.8267H586.557L597.143 111.081L610.258 45.8267H642.49L622.579 110.537Z" fill="#634DA2"/>
<path d="M631.09 123.328C633.289 123.328 634.955 124.189 636.088 125.912C637.221 127.612 637.788 130.015 637.788 133.12C637.788 134.979 637.493 136.645 636.904 138.118C636.337 139.591 635.499 140.747 634.388 141.586C633.3 142.425 632.008 142.844 630.512 142.844C629.537 142.844 628.642 142.64 627.826 142.232C627.033 141.847 626.364 141.303 625.82 140.6L625.582 142.164H619.598V116.868L626.33 116.188V125.606C626.829 124.926 627.509 124.382 628.37 123.974C629.231 123.543 630.138 123.328 631.09 123.328ZM628.472 138.05C629.243 138.05 629.832 137.676 630.24 136.928C630.671 136.18 630.886 134.911 630.886 133.12C630.886 131.171 630.693 129.856 630.308 129.176C629.945 128.496 629.413 128.156 628.71 128.156C627.781 128.156 626.987 128.723 626.33 129.856V136.724C626.851 137.608 627.565 138.05 628.472 138.05Z" fill="#634DA2"/>
<path d="M657.394 132.848C657.394 133.415 657.348 134.129 657.258 134.99H646.242C646.423 136.214 646.797 137.041 647.364 137.472C647.953 137.88 648.792 138.084 649.88 138.084C650.514 138.084 651.16 137.959 651.818 137.71C652.475 137.438 653.2 137.03 653.994 136.486L656.714 140.158C654.515 141.949 652.022 142.844 649.234 142.844C646.015 142.844 643.578 141.96 641.924 140.192C640.269 138.401 639.442 136.044 639.442 133.12C639.442 131.307 639.782 129.663 640.462 128.19C641.164 126.694 642.196 125.515 643.556 124.654C644.916 123.77 646.559 123.328 648.486 123.328C650.276 123.328 651.84 123.702 653.178 124.45C654.515 125.198 655.546 126.286 656.272 127.714C657.02 129.142 657.394 130.853 657.394 132.848ZM650.764 130.944C650.741 129.879 650.571 129.051 650.254 128.462C649.959 127.873 649.415 127.578 648.622 127.578C647.874 127.578 647.307 127.839 646.922 128.36C646.559 128.881 646.321 129.822 646.208 131.182H650.764V130.944Z" fill="#634DA2"/>
<path d="M672.273 141.28C671.571 141.779 670.709 142.164 669.689 142.436C668.692 142.708 667.74 142.844 666.833 142.844C664.589 142.821 662.923 142.198 661.835 140.974C660.77 139.727 660.237 137.891 660.237 135.466V128.564H658.061V124.008H660.237V120.2L666.969 119.418V124.008H671.049L670.369 128.564H666.969V135.398C666.969 136.191 667.094 136.758 667.343 137.098C667.593 137.415 667.944 137.574 668.397 137.574C668.964 137.574 669.531 137.415 670.097 137.098L672.273 141.28Z" fill="#634DA2"/>
<path d="M689.494 136.282C689.494 136.917 689.573 137.393 689.732 137.71C689.89 138.005 690.174 138.231 690.582 138.39L689.222 142.708C687.998 142.617 687 142.391 686.23 142.028C685.459 141.643 684.824 141.031 684.326 140.192C683.147 141.96 681.322 142.844 678.852 142.844C677.061 142.844 675.61 142.311 674.5 141.246C673.412 140.158 672.868 138.764 672.868 137.064C672.868 135.047 673.616 133.505 675.112 132.44C676.608 131.375 678.784 130.842 681.64 130.842H682.932V130.4C682.932 129.493 682.75 128.881 682.388 128.564C682.025 128.247 681.334 128.088 680.314 128.088C679.77 128.088 679.067 128.179 678.206 128.36C677.367 128.519 676.506 128.745 675.622 129.04L674.16 124.756C675.27 124.303 676.472 123.951 677.764 123.702C679.078 123.453 680.268 123.328 681.334 123.328C684.19 123.328 686.264 123.883 687.556 124.994C688.848 126.082 689.494 127.759 689.494 130.026V136.282ZM680.926 138.118C681.334 138.118 681.708 138.016 682.048 137.812C682.41 137.608 682.705 137.347 682.932 137.03V134.344H682.218C681.266 134.344 680.563 134.514 680.11 134.854C679.656 135.194 679.43 135.715 679.43 136.418C679.43 136.939 679.566 137.359 679.838 137.676C680.11 137.971 680.472 138.118 680.926 138.118Z" fill="#634DA2"/>
<path d="M219.512 0L215.562 12.55L219.512 25.09L223.672 12.55L219.512 0Z" fill="#634DA2"/>
<path d="M219.622 8.48999L207.072 12.44L219.622 16.6L232.162 12.44L219.622 8.48999Z" fill="#634DA2"/>
<path d="M201.312 27.6899L204.222 36.9399L207.292 27.6899L204.222 18.4399L201.312 27.6899Z" fill="#634DA2"/>
<path d="M204.303 24.7L195.043 27.61L204.303 30.68L213.553 27.61L204.303 24.7Z" fill="#634DA2"/>
<path d="M221.923 33.4199L223.813 39.4399L225.813 33.4199L223.813 27.4099L221.923 33.4199Z" fill="#634DA2"/>
<path d="M223.862 31.48L217.852 33.38L223.862 35.37L229.882 33.38L223.862 31.48Z" fill="#634DA2"/>
</svg>
