<?xml version="1.0" standalone="no"?>
<!DOCTYPE svg PUBLIC "-//W3C//DTD SVG 20010904//EN"
 "http://www.w3.org/TR/2001/REC-SVG-20010904/DTD/svg10.dtd">
<svg version="1.0" xmlns="http://www.w3.org/2000/svg"
 width="3300.000000pt" height="3300.000000pt" viewBox="0 0 3300.000000 3300.000000"
 preserveAspectRatio="xMidYMid meet">
<metadata>
Created by potrace 1.14, written by Peter Selinger 2001-2017
</metadata>
<g transform="translate(0.000000,3300.000000) scale(0.100000,-0.100000)"
fill="#000000" stroke="none">
<path d="M14618 27505 c-2 -2 -246 -6 -543 -10 -771 -11 -845 -12 -1195 -19
-554 -12 -976 -22 -1255 -31 -77 -3 -221 -7 -320 -10 -176 -5 -295 -9 -620
-20 -427 -16 -660 -25 -985 -40 -58 -3 -166 -7 -240 -10 -74 -4 -164 -8 -200
-10 -58 -3 -185 -10 -410 -20 -41 -2 -122 -7 -180 -10 -58 -4 -134 -8 -170
-10 -106 -5 -270 -15 -345 -20 -38 -3 -108 -8 -155 -10 -47 -3 -114 -7 -150
-10 -36 -2 -105 -7 -155 -10 -49 -3 -117 -8 -150 -10 -33 -3 -96 -7 -140 -10
-44 -3 -102 -7 -130 -9 -27 -3 -93 -7 -145 -11 -52 -3 -111 -8 -130 -10 -19
-3 -69 -7 -110 -10 -130 -9 -296 -24 -350 -30 -19 -2 -73 -7 -120 -11 -47 -3
-96 -8 -110 -9 -14 -2 -59 -6 -100 -10 -41 -3 -91 -8 -110 -10 -19 -2 -82 -9
-140 -15 -58 -6 -121 -13 -140 -15 -19 -2 -60 -7 -90 -10 -30 -4 -71 -8 -90
-11 -19 -2 -60 -7 -90 -10 -30 -3 -66 -7 -80 -9 -39 -6 -100 -14 -150 -20 -25
-3 -108 -15 -185 -26 -77 -12 -151 -22 -165 -24 -37 -5 -238 -40 -295 -51 -16
-3 -39 -7 -50 -9 -23 -4 -158 -31 -195 -40 -14 -3 -36 -8 -50 -11 -51 -10
-237 -65 -290 -86 -130 -51 -198 -99 -211 -150 -22 -92 188 -189 611 -281 63
-14 131 -28 150 -31 19 -3 46 -8 60 -11 27 -6 301 -51 365 -60 128 -18 318
-45 366 -50 l57 -7 -70 -142 c-75 -150 -124 -254 -218 -456 -32 -69 -73 -159
-93 -201 -19 -42 -50 -110 -67 -150 -18 -41 -47 -105 -65 -144 -18 -38 -83
-189 -144 -335 -62 -146 -119 -278 -126 -295 -7 -16 -52 -127 -99 -245 -48
-118 -91 -224 -96 -235 -17 -40 -223 -579 -280 -735 -86 -234 -123 -336 -135
-375 -8 -22 -32 -92 -55 -155 -23 -63 -43 -122 -46 -130 -2 -8 -47 -143 -100
-300 -52 -157 -97 -292 -99 -300 -2 -8 -13 -42 -24 -75 -129 -390 -464 -1558
-506 -1765 -2 -8 -15 -62 -30 -120 -15 -58 -28 -112 -30 -120 -2 -8 -19 -80
-38 -160 -37 -149 -73 -300 -82 -345 -10 -47 -15 -70 -46 -210 -17 -77 -32
-147 -33 -155 -2 -8 -6 -28 -9 -45 -4 -16 -9 -39 -11 -50 -2 -11 -25 -123 -50
-250 -25 -126 -48 -243 -50 -260 -6 -30 -26 -140 -51 -270 -8 -38 -17 -92 -21
-120 -3 -27 -8 -59 -10 -70 -5 -21 -49 -294 -58 -355 -3 -19 -8 -53 -11 -75
-4 -22 -11 -69 -16 -105 -6 -36 -12 -78 -15 -95 -2 -16 -6 -48 -9 -70 -11 -66
-13 -88 -20 -145 -3 -30 -8 -66 -10 -80 -5 -31 -12 -81 -25 -195 -16 -138 -19
-163 -30 -255 -5 -47 -12 -110 -15 -140 -2 -30 -7 -75 -10 -100 -3 -25 -7 -67
-10 -95 -15 -173 -22 -248 -29 -346 -3 -30 -7 -92 -11 -139 -10 -133 -15 -200
-30 -495 -27 -511 -27 -1654 0 -1955 3 -25 7 -74 9 -110 6 -80 33 -287 46
-355 5 -27 12 -66 15 -85 12 -68 46 -217 76 -325 107 -388 266 -751 479 -1100
44 -72 180 -276 190 -285 3 -3 30 -39 60 -80 30 -41 57 -77 60 -80 3 -3 39
-45 80 -95 122 -147 127 -152 325 -351 104 -104 236 -229 292 -278 l102 -88
-67 -56 c-343 -286 -612 -583 -800 -885 -53 -84 -152 -279 -152 -299 0 -8 -3
-18 -7 -22 -18 -17 -60 -175 -69 -256 -3 -25 -7 -56 -8 -70 -3 -24 7 -121 18
-168 11 -50 61 -135 106 -180 154 -155 438 -187 810 -92 93 24 243 72 305 99
22 10 60 26 85 36 25 11 106 50 180 87 114 57 177 92 328 183 67 40 314 215
377 266 133 109 225 189 313 274 l107 102 106 -51 c140 -68 275 -130 444 -205
73 -32 98 -43 215 -91 58 -23 119 -48 135 -55 363 -154 1167 -422 1680 -560
257 -69 323 -87 345 -91 14 -3 46 -11 73 -19 26 -8 47 -12 47 -10 0 3 11 0 24
-5 19 -7 246 -63 346 -85 71 -16 210 -47 230 -51 14 -3 88 -19 165 -35 307
-66 777 -154 1140 -214 98 -16 466 -72 525 -80 25 -3 56 -8 70 -10 14 -2 45
-7 70 -10 25 -3 56 -8 70 -10 14 -2 45 -7 70 -10 25 -3 54 -7 65 -9 11 -2 49
-7 85 -11 36 -3 76 -8 90 -10 88 -12 110 -15 150 -20 25 -3 61 -7 80 -10 19
-2 58 -7 85 -10 57 -5 213 -23 265 -30 19 -2 64 -7 100 -10 64 -6 99 -10 190
-20 25 -2 74 -7 110 -10 36 -4 76 -8 90 -10 14 -2 61 -6 105 -10 44 -3 100 -7
125 -10 41 -4 93 -8 240 -20 30 -3 82 -7 115 -10 33 -3 94 -7 135 -10 41 -3
102 -7 135 -10 33 -2 101 -7 150 -10 50 -3 124 -7 165 -10 70 -5 123 -8 335
-20 44 -2 148 -7 230 -10 83 -4 177 -8 210 -10 54 -4 447 -16 587 -19 31 -1
60 -5 64 -8 3 -4 8 -58 9 -120 4 -116 12 -270 19 -323 2 -16 7 -59 11 -95 3
-36 8 -72 10 -80 3 -8 7 -33 10 -55 2 -22 7 -51 10 -65 2 -14 7 -36 10 -50 2
-14 7 -39 10 -57 31 -191 172 -596 249 -713 12 -19 25 -42 28 -50 3 -8 32 -51
65 -95 141 -189 272 -274 434 -281 131 -6 244 44 363 161 115 114 238 315 306
505 7 19 19 49 26 65 47 112 130 458 150 630 3 22 7 47 9 55 2 8 7 47 10 85 4
39 8 86 10 105 3 19 7 109 11 200 3 91 8 167 10 169 3 3 143 6 312 7 277 1
753 11 907 19 33 1 141 6 240 10 99 4 198 9 220 10 22 1 99 6 170 10 72 4 150
8 175 10 25 2 92 7 150 10 58 4 121 8 140 10 19 2 82 6 140 10 58 3 116 8 130
10 14 2 63 7 110 10 47 4 101 8 120 10 19 2 69 6 110 10 41 3 91 8 110 10 19
2 62 7 95 10 97 9 158 15 195 20 19 2 64 7 100 10 36 3 76 8 90 10 14 2 50 7
80 10 30 3 71 7 90 10 19 2 55 7 80 10 25 3 61 7 80 10 19 3 55 7 80 10 43 5
94 12 150 20 14 2 52 7 85 10 33 4 67 8 75 10 8 2 35 7 60 10 25 3 56 8 70 10
14 3 45 7 70 10 25 3 72 10 105 15 33 5 78 12 100 15 22 4 51 8 65 11 14 2 68
11 120 19 52 9 106 18 120 20 14 3 41 8 60 11 59 9 260 44 369 66 57 11 116
22 130 24 14 3 37 7 51 9 14 3 34 7 45 9 39 8 395 83 435 91 14 4 36 8 50 11
13 3 63 14 110 25 47 12 96 23 108 25 13 3 87 20 165 40 78 19 151 36 162 39
105 23 560 148 735 201 264 81 621 195 665 214 11 5 72 27 135 49 144 50 329
118 355 131 11 5 56 23 100 40 44 17 89 35 100 40 11 5 85 36 164 70 79 34
173 75 210 92 36 16 91 41 121 55 30 14 151 72 268 130 l213 105 32 -28 c17
-16 45 -42 62 -59 17 -16 62 -57 100 -90 38 -33 76 -67 85 -75 22 -21 78 -64
190 -148 52 -40 100 -75 105 -80 51 -39 306 -200 370 -234 213 -112 257 -132
450 -213 91 -38 349 -111 425 -120 14 -2 54 -7 90 -11 365 -44 616 84 677 346
4 14 6 75 5 135 0 110 -21 206 -76 353 -40 107 -211 411 -237 420 -5 2 -9 10
-9 18 0 8 -4 14 -8 14 -4 0 -16 14 -25 30 -18 30 -130 169 -196 245 -42 48
-292 297 -341 341 -19 16 -72 61 -118 98 l-83 69 73 65 c40 36 150 143 244
237 351 350 620 702 866 1135 29 50 157 306 181 360 45 103 63 147 109 270 69
186 141 421 172 560 17 77 65 312 70 345 3 22 8 51 10 65 4 24 15 98 21 151 2
14 6 59 10 100 3 41 8 85 10 99 2 14 7 66 10 115 4 50 8 106 10 125 2 19 6 87
10 150 4 63 8 135 10 160 27 330 27 1486 0 1855 -2 28 -6 102 -10 165 -3 63
-8 135 -10 160 -2 25 -7 83 -10 130 -3 47 -8 101 -10 120 -2 19 -7 73 -10 120
-3 47 -8 96 -10 110 -2 14 -7 54 -10 90 -4 36 -8 79 -10 95 -2 17 -6 63 -10
104 -4 41 -8 82 -10 91 -2 9 -6 41 -10 71 -20 172 -46 376 -50 389 -2 8 -6 42
-10 75 -3 33 -8 67 -10 75 -3 8 -7 31 -9 50 -10 76 -39 267 -51 330 -3 14 -7
43 -11 65 -3 22 -7 51 -10 65 -3 14 -14 75 -25 135 -11 61 -24 133 -29 160 -5
28 -16 86 -24 130 -8 45 -30 158 -50 252 -19 94 -37 182 -40 195 -2 12 -11 53
-20 89 -8 37 -17 78 -20 90 -2 13 -9 44 -15 69 -5 25 -17 74 -25 110 -37 162
-59 252 -81 340 -13 52 -26 106 -29 120 -2 14 -7 32 -10 40 -3 8 -8 26 -10 40
-3 14 -10 43 -16 65 -6 22 -13 50 -15 61 -14 64 -184 670 -240 859 -37 121
-68 227 -70 235 -2 8 -25 80 -50 160 -26 80 -48 150 -49 155 -2 6 -6 17 -9 25
-7 20 -51 154 -52 160 -6 36 -235 691 -345 985 -142 381 -390 1007 -459 1157
-11 26 -21 49 -21 52 0 2 -13 33 -29 68 -16 35 -41 92 -56 128 -15 36 -35 83
-45 105 -10 22 -45 101 -78 175 -78 175 -115 257 -245 535 -96 204 -435 878
-545 1083 -60 111 -104 202 -98 203 6 0 18 2 26 4 8 1 44 6 80 9 82 9 111 13
157 20 21 3 58 8 83 11 25 3 56 8 70 10 14 2 50 7 80 11 289 32 862 152 1010
211 8 3 20 7 27 9 7 1 40 16 75 32 215 104 172 207 -131 309 -42 14 -82 27
-91 29 -8 2 -69 17 -135 33 -66 16 -132 32 -146 34 -14 3 -73 14 -130 26 -57
11 -120 22 -139 25 -19 3 -44 8 -56 10 -12 2 -45 7 -75 11 -30 4 -56 8 -59 10
-3 2 -28 6 -55 9 -28 4 -61 8 -74 11 -27 5 -150 22 -221 30 -25 3 -54 7 -65 9
-11 2 -49 7 -85 11 -36 3 -76 8 -90 10 -52 8 -107 14 -170 20 -36 3 -72 8 -80
10 -8 2 -51 6 -95 10 -44 3 -87 8 -95 10 -8 2 -51 6 -95 10 -44 3 -96 7 -115
10 -53 6 -149 16 -205 20 -65 6 -155 13 -213 19 -26 3 -85 8 -132 12 -47 4
-98 8 -115 9 -16 2 -75 6 -130 10 -55 4 -107 8 -115 10 -8 1 -71 6 -140 10
-69 4 -132 9 -140 10 -8 2 -69 6 -135 10 -66 3 -136 8 -155 10 -19 2 -80 6
-135 10 -55 3 -129 8 -165 10 -36 2 -114 7 -175 10 -60 4 -132 8 -160 10 -49
4 -246 15 -355 20 -30 2 -104 6 -165 9 -60 3 -157 8 -215 11 -58 3 -148 8
-200 10 -52 3 -142 8 -200 10 -165 7 -334 15 -470 20 -69 3 -177 8 -240 10
-212 9 -519 20 -820 30 -80 3 -215 7 -300 10 -148 5 -251 8 -685 20 -354 9
-981 23 -1415 30 -173 3 -445 8 -605 11 -309 6 -4122 14 -4127 9z m9581 -1522
c192 -385 531 -1184 764 -1803 861 -2291 1395 -4641 1542 -6795 35 -520 40
-688 39 -1330 -2 -1097 -70 -1722 -249 -2300 -381 -1229 -1269 -2216 -2650
-2949 -1496 -793 -3619 -1270 -6025 -1356 -304 -10 -2073 -4 -2325 9 -1009 51
-1782 128 -2585 257 -2799 449 -4781 1386 -5808 2746 -506 670 -775 1433 -821
2323 -27 527 -17 1384 24 2060 154 2519 789 5373 1789 8043 146 388 416 1054
472 1165 l15 27 7884 0 7885 0 49 -97z"/>
<path d="M19185 24458 c-5 -14 -268 -849 -690 -2188 -141 -448 -271 -860 -289
-915 l-32 -99 -945 -298 c-519 -163 -1242 -390 -1606 -505 -365 -114 -663
-211 -663 -214 0 -3 453 -155 1008 -339 2023 -670 2195 -729 2203 -742 5 -10
440 -1385 931 -2948 44 -140 83 -261 87 -268 4 -7 249 716 544 1606 l537 1618
337 111 c1012 332 2893 958 2893 963 0 3 -729 234 -1620 514 l-1619 509 -16
51 c-104 321 -1048 3156 -1051 3156 -3 0 -7 -6 -9 -12z"/>
<path d="M13953 18110 c-17 -52 -185 -585 -373 -1185 -189 -599 -346 -1093
-349 -1097 -3 -4 -538 -174 -1188 -379 -651 -205 -1180 -375 -1177 -378 3 -3
535 -182 1182 -396 l1177 -390 18 -55 c22 -66 651 -2061 697 -2210 18 -58 36
-109 40 -113 4 -5 184 524 400 1175 215 650 395 1187 400 1191 8 9 483 168
1650 553 393 130 718 239 723 243 4 4 -529 176 -1185 382 l-1193 375 -396
1190 -396 1189 -30 -95z"/>
<path d="M20415 14378 c-132 -419 -245 -767 -251 -773 -6 -6 -354 -118 -773
-250 -418 -132 -761 -242 -761 -245 0 -3 346 -119 769 -259 l768 -254 244
-774 c133 -425 245 -773 248 -773 4 0 121 348 261 773 l256 772 772 255 c424
140 772 257 772 260 0 3 -348 115 -773 249 l-773 243 -253 762 c-139 418 -256
764 -260 768 -3 4 -114 -335 -246 -754z"/>
</g>
</svg>
