<?xml version="1.0" standalone="no"?>
<!DOCTYPE svg PUBLIC "-//W3C//DTD SVG 20010904//EN"
 "http://www.w3.org/TR/2001/REC-SVG-20010904/DTD/svg10.dtd">
<svg version="1.0" xmlns="http://www.w3.org/2000/svg"
 width="2048.000000pt" height="2048.000000pt" viewBox="0 0 2048.000000 2048.000000"
 preserveAspectRatio="xMidYMid meet">
<metadata>
Created by potrace 1.11, written by Peter Selinger 2001-2013
</metadata>
<g transform="translate(0.000000,2048.000000) scale(0.100000,-0.100000)"
fill="#000000" stroke="none">
<path d="M10246 13902 c-3 -5 1 -9 9 -9 8 0 12 4 9 9 -3 4 -7 8 -9 8 -2 0 -6
-4 -9 -8z"/>
<path d="M10415 13899 c-3 -4 2 -6 10 -5 21 3 28 13 10 13 -9 0 -18 -4 -20 -8z"/>
<path d="M10471 13897 c-8 -11 -66 -17 -66 -7 0 1 -10 3 -22 4 -13 2 -23 -1
-23 -6 0 -5 -8 -5 -17 0 -15 8 -62 9 -70 2 -8 -6 -30 -5 -44 1 -20 10 -43 -23
-27 -39 8 -8 8 -15 -2 -27 -10 -12 -10 -15 0 -15 10 0 10 -3 0 -15 -10 -12
-10 -15 1 -15 11 0 11 -2 -1 -10 -13 -9 -13 -11 0 -20 11 -7 11 -10 2 -10 -8
0 -10 -5 -5 -12 10 -17 10 -40 -1 -55 -5 -9 -4 -13 5 -13 11 0 11 -2 -1 -10
-13 -9 -13 -11 0 -20 12 -8 12 -10 1 -10 -10 0 -11 -3 -2 -13 8 -10 7 -17 -1
-25 -9 -9 -9 -12 1 -12 11 0 11 -3 1 -15 -10 -12 -10 -15 1 -15 11 0 11 -2 -1
-10 -13 -9 -13 -11 0 -20 9 -5 10 -10 3 -10 -13 0 -12 -18 1 -39 7 -11 6 -12
-5 -6 -12 8 -12 6 0 -8 10 -13 10 -17 1 -17 -9 0 -9 -4 1 -17 10 -11 10 -14 2
-9 -7 4 -13 2 -13 -3 0 -6 6 -11 13 -11 9 0 8 -3 -2 -9 -9 -6 -10 -10 -2 -16
9 -5 9 -10 0 -21 -9 -11 -9 -14 1 -14 10 0 10 -3 0 -15 -10 -12 -10 -15 1 -15
11 0 11 -2 -1 -10 -13 -9 -13 -11 0 -20 9 -5 10 -10 3 -10 -13 0 -12 -18 1
-39 7 -11 6 -12 -5 -6 -12 8 -12 6 0 -8 10 -13 10 -17 1 -17 -9 0 -9 -4 1 -17
10 -11 10 -14 2 -9 -7 4 -13 2 -13 -3 0 -6 6 -11 13 -11 9 0 8 -3 -2 -9 -9 -6
-10 -10 -2 -16 9 -5 9 -10 0 -21 -9 -11 -9 -14 1 -14 10 0 10 -3 0 -15 -10
-12 -10 -15 1 -15 11 0 11 -2 -1 -10 -13 -9 -13 -11 0 -20 9 -5 10 -10 3 -10
-13 0 -12 -18 1 -39 7 -11 6 -12 -5 -6 -12 8 -12 6 0 -8 10 -13 10 -17 1 -17
-9 0 -9 -4 1 -17 10 -11 10 -14 2 -9 -7 4 -13 2 -13 -3 0 -6 6 -11 13 -11 9 0
8 -3 -2 -9 -9 -6 -10 -10 -2 -16 9 -5 9 -10 0 -21 -9 -11 -9 -14 1 -14 10 0
10 -3 0 -15 -10 -12 -10 -15 1 -15 11 0 11 -2 -1 -10 -13 -9 -13 -11 0 -20 9
-5 10 -10 3 -10 -13 0 -12 -18 1 -39 7 -11 6 -12 -5 -6 -12 8 -12 6 0 -8 10
-13 10 -17 1 -17 -9 0 -9 -4 1 -17 10 -11 10 -14 2 -9 -7 4 -13 2 -13 -3 0 -6
6 -11 13 -11 9 0 8 -3 -2 -9 -9 -6 -10 -10 -2 -16 9 -5 9 -10 0 -21 -9 -11 -9
-14 1 -14 10 0 10 -3 0 -15 -10 -12 -10 -15 1 -15 11 0 11 -2 -1 -10 -13 -9
-13 -11 0 -20 9 -5 10 -10 3 -10 -13 0 -12 -18 1 -39 7 -11 6 -12 -5 -6 -12 8
-12 6 0 -8 10 -13 10 -17 1 -17 -9 0 -9 -4 1 -17 10 -11 10 -14 2 -9 -7 4 -13
2 -13 -3 0 -6 6 -11 13 -11 9 0 8 -3 -2 -9 -9 -6 -10 -10 -2 -16 9 -5 9 -10 0
-21 -9 -11 -9 -14 1 -14 10 0 10 -3 0 -15 -10 -12 -10 -15 1 -15 11 0 11 -2
-1 -10 -13 -9 -13 -11 0 -20 9 -5 10 -10 3 -10 -13 0 -12 -18 1 -39 7 -11 6
-12 -5 -6 -12 8 -12 6 0 -8 10 -13 10 -17 1 -17 -9 0 -9 -4 1 -17 10 -11 10
-14 2 -9 -7 4 -13 2 -13 -3 0 -6 6 -11 13 -11 9 0 8 -3 -2 -9 -9 -6 -10 -10
-2 -16 9 -5 9 -10 0 -21 -9 -11 -9 -14 1 -14 10 0 10 -3 0 -15 -10 -12 -10
-15 1 -15 11 0 11 -2 0 -9 -12 -8 -12 -12 -2 -24 8 -11 9 -17 1 -22 -8 -5 -7
-11 2 -23 11 -13 11 -14 -2 -7 -13 8 -13 7 -1 -8 10 -13 10 -17 1 -17 -9 0 -9
-4 1 -17 10 -11 10 -14 2 -9 -7 4 -13 2 -13 -3 0 -6 6 -11 13 -11 9 0 8 -3 -2
-9 -9 -6 -10 -10 -2 -16 9 -5 9 -10 0 -21 -9 -11 -9 -14 1 -14 10 0 10 -3 0
-15 -10 -12 -10 -15 1 -15 11 0 11 -2 -1 -10 -13 -9 -13 -11 0 -20 12 -8 12
-10 1 -10 -10 0 -11 -3 -2 -13 8 -10 7 -17 -1 -25 -9 -9 -9 -12 1 -12 10 0 11
-3 2 -13 -8 -10 -7 -17 2 -27 9 -10 9 -11 0 -6 -7 4 -13 2 -13 -3 0 -6 6 -11
13 -11 9 0 8 -3 -2 -9 -9 -6 -10 -10 -2 -16 9 -5 9 -10 0 -21 -9 -11 -9 -14 1
-14 10 0 10 -3 0 -15 -10 -12 -10 -15 1 -15 12 0 12 -2 0 -9 -8 -6 -10 -14 -5
-22 12 -20 14 -40 2 -33 -6 4 -6 -1 1 -13 7 -14 7 -23 -1 -31 -9 -9 -8 -12 2
-12 13 0 13 -2 0 -10 -13 -9 -13 -11 0 -20 12 -8 12 -10 1 -10 -10 0 -11 -3
-2 -13 8 -10 7 -17 -1 -25 -9 -9 -9 -12 1 -12 11 0 11 -3 1 -15 -10 -12 -10
-15 1 -15 11 0 11 -2 -1 -10 -13 -9 -13 -11 0 -20 9 -5 10 -10 3 -10 -13 0
-12 -18 1 -39 7 -11 6 -12 -5 -6 -12 8 -12 6 0 -8 10 -13 10 -17 1 -17 -9 0
-9 -4 1 -17 10 -11 10 -14 2 -9 -7 4 -13 2 -13 -3 0 -6 6 -11 13 -11 9 0 8 -3
-2 -9 -9 -6 -10 -10 -2 -16 9 -5 9 -10 0 -21 -9 -11 -9 -14 1 -14 10 0 10 -3
0 -15 -10 -12 -10 -15 1 -15 11 0 11 -2 -1 -10 -13 -9 -13 -11 0 -20 11 -7 11
-10 2 -10 -8 0 -10 -5 -6 -12 11 -18 12 -48 2 -54 -4 -3 -8 -10 -8 -15 0 -6 6
-7 13 -3 8 5 8 2 -2 -9 -11 -14 -11 -17 0 -17 12 0 12 -2 0 -9 -9 -6 -10 -10
-2 -16 9 -5 9 -10 0 -21 -9 -11 -9 -14 1 -14 10 0 10 -3 0 -15 -10 -12 -10
-15 1 -15 11 0 11 -2 -1 -10 -13 -9 -13 -11 0 -20 9 -5 10 -10 3 -10 -6 0 -10
-8 -8 -17 2 -10 4 -18 5 -18 1 0 3 -10 4 -22 1 -12 -1 -20 -6 -17 -10 6 -9 -5
2 -31 5 -11 9 -14 9 -7 1 6 8 12 17 12 8 0 12 5 9 11 -4 5 5 21 18 33 14 13
23 27 20 30 -4 3 1 6 10 6 11 0 15 7 12 20 -2 12 0 18 6 14 13 -7 51 31 41 41
-4 4 2 5 13 3 15 -2 19 2 17 16 -2 10 0 16 5 14 4 -2 18 6 30 18 14 15 17 25
10 28 -7 2 -1 5 13 5 20 1 22 3 10 11 -13 8 -13 10 1 10 9 0 20 7 23 16 3 8
10 12 16 9 5 -3 10 1 10 10 0 9 5 13 10 10 6 -3 10 1 10 9 0 9 7 16 15 16 9 0
18 7 21 15 4 8 14 15 23 15 14 0 14 2 1 10 -13 8 -13 10 1 10 20 0 70 45 61
56 -4 4 -2 4 5 0 7 -3 28 10 49 31 20 21 34 31 30 23 -4 -8 2 -5 13 8 11 13
22 23 25 22 18 -1 19 1 6 10 -13 8 -13 10 1 10 23 0 70 26 62 33 -3 4 4 7 16
7 12 0 19 4 16 10 -3 6 1 10 9 10 9 0 16 5 16 11 0 6 7 8 16 5 8 -3 12 -2 9 3
-3 5 4 12 15 16 11 4 18 11 14 16 -3 6 0 10 7 8 27 -3 40 1 34 11 -6 9 8 14
28 11 4 0 7 4 7 9 0 6 8 10 18 8 10 -2 16 2 14 10 -1 8 3 12 10 10 7 -3 18 1
23 9 6 7 19 15 30 17 11 2 34 11 50 20 17 9 36 16 43 16 6 0 12 4 12 8 0 4 10
8 22 9 11 1 24 7 28 13 4 7 11 12 16 13 5 1 8 6 6 11 -2 5 4 4 12 -4 9 -7 16
-8 16 -3 0 5 7 10 15 11 8 1 22 3 30 4 8 1 15 5 15 10 0 4 12 8 28 8 21 0 24
2 12 10 -9 6 -10 10 -3 10 6 0 14 -4 18 -9 3 -6 17 -4 33 5 15 7 32 14 39 14
8 0 11 277 11 1119 0 1033 -1 1121 -16 1133 -15 11 -15 11 -5 -2 10 -13 4 -15
-44 -16 -35 -1 -51 1 -42 7 10 6 8 9 -9 9 -13 0 -21 -4 -17 -9 6 -10 -27 -7
-45 4 -6 3 -10 3 -10 -2 0 -4 -58 -8 -129 -8 -71 0 -128 3 -126 6 2 3 -2 6
-10 6 -8 0 -12 -4 -9 -8 2 -4 -4 -7 -15 -6 -15 1 -17 5 -10 13 8 9 5 11 -10 7
-12 -3 -19 -8 -17 -12 6 -9 -86 -7 -101 2 -7 5 -18 5 -24 1 -18 -11 -73 -13
-91 -3 -10 5 -18 6 -18 2 0 -5 -21 -9 -46 -9 -31 -1 -42 1 -33 7 10 6 8 9 -9
9 -13 0 -21 -3 -18 -8 2 -4 -20 -7 -49 -7 -29 0 -51 3 -49 7 3 5 -2 8 -11 8
-9 0 -14 -4 -11 -8 2 -4 -11 -8 -29 -8 -18 0 -31 4 -29 8 3 5 10 5 16 2 7 -4
8 -2 4 4 -9 15 -11 15 -25 -1z"/>
<path d="M10596 13902 c-3 -5 1 -9 9 -9 8 0 12 4 9 9 -3 4 -7 8 -9 8 -2 0 -6
-4 -9 -8z"/>
<path d="M10800 13900 c-12 -7 -10 -9 7 -7 12 0 19 5 17 9 -6 10 -6 10 -24 -2z"/>
<path d="M10926 13902 c-3 -5 1 -9 9 -9 8 0 12 4 9 9 -3 4 -7 8 -9 8 -2 0 -6
-4 -9 -8z"/>
<path d="M11086 13902 c-3 -5 1 -9 9 -9 8 0 12 4 9 9 -3 4 -7 8 -9 8 -2 0 -6
-4 -9 -8z"/>
<path d="M11156 13902 c-3 -5 1 -9 9 -9 8 0 12 4 9 9 -3 4 -7 8 -9 8 -2 0 -6
-4 -9 -8z"/>
<path d="M11200 13900 c-12 -7 -10 -9 7 -7 12 0 19 5 17 9 -6 10 -6 10 -24 -2z"/>
<path d="M11280 13900 c-9 -6 -10 -10 -3 -10 6 0 15 5 18 10 8 12 4 12 -15 0z"/>
<path d="M11426 13902 c-3 -5 1 -9 9 -9 8 0 12 4 9 9 -3 4 -7 8 -9 8 -2 0 -6
-4 -9 -8z"/>
<path d="M2161 12914 c-1 -7 -43 -11 -123 -11 -68 0 -132 -3 -143 -6 -19 -6
-20 -15 -18 -173 1 -92 4 -173 7 -180 3 -8 2 -14 -2 -14 -4 0 -6 -64 -4 -142
1 -79 2 -150 2 -158 -2 -171 0 -322 5 -330 3 -5 1 -10 -5 -10 -7 0 -9 -8 -4
-22 4 -13 7 -27 6 -33 -3 -22 -5 -251 -2 -260 5 -22 -1 -46 -10 -40 -5 3 -10
1 -10 -4 0 -6 -5 -11 -11 -11 -5 0 -8 4 -5 8 2 4 -4 8 -15 8 -10 0 -19 -4 -19
-9 0 -4 -5 -5 -10 -2 -6 4 -18 1 -27 -7 -10 -8 -14 -8 -10 -1 4 6 3 14 -3 18
-5 3 -10 2 -10 -3 0 -10 -42 -8 -59 3 -6 3 -11 1 -11 -6 0 -8 -4 -8 -15 1 -12
10 -15 9 -15 -6 -1 -18 -1 -18 -11 -1 -7 12 -15 15 -27 8 -11 -6 -24 -6 -35 0
-11 7 -17 6 -17 -1 0 -5 -5 -10 -11 -10 -5 0 -8 4 -5 8 2 4 -4 8 -15 8 -10 0
-19 -3 -19 -7 0 -8 -45 -4 -59 6 -6 3 -11 1 -11 -4 0 -6 -5 -11 -11 -11 -5 0
-8 4 -5 8 2 4 -13 8 -35 7 -21 0 -39 -3 -39 -7 0 -5 -5 -8 -11 -8 -5 0 -7 4
-4 10 4 6 -2 7 -18 1 -16 -6 -28 -6 -36 2 -7 7 -11 7 -11 0 0 -5 -11 -9 -25
-7 -14 2 -36 6 -50 8 -14 2 -25 -2 -25 -8 0 -6 -5 -4 -10 4 -5 8 -10 10 -10 4
0 -12 -41 -11 -59 1 -6 3 -11 1 -11 -4 0 -6 -5 -11 -11 -11 -5 0 -7 5 -4 10 3
6 1 10 -4 10 -6 0 -11 -8 -12 -17 0 -15 -2 -15 -9 2 -5 11 -9 15 -9 9 -1 -12
-42 -11 -62 2 -7 4 -10 3 -6 -2 3 -6 2 -16 -3 -24 -5 -9 -5 -19 2 -27 6 -7 6
-13 1 -13 -10 0 -10 -60 1 -78 4 -7 3 -12 -2 -12 -10 0 -9 -30 2 -48 4 -6 3
-12 -2 -12 -10 0 -9 -30 2 -48 4 -6 3 -12 -3 -12 -9 0 -7 -37 3 -48 3 -2 1
-12 -4 -21 -5 -10 -5 -23 0 -31 5 -8 5 -21 0 -30 -5 -9 -5 -22 0 -30 5 -8 5
-21 0 -30 -5 -9 -5 -22 0 -30 5 -8 5 -21 0 -30 -5 -9 -5 -22 0 -30 5 -8 5 -21
0 -30 -5 -9 -5 -22 0 -30 4 -7 4 -23 0 -35 -5 -14 -4 -27 3 -34 6 -6 7 -11 1
-11 -5 0 -9 -13 -9 -30 -1 -16 3 -30 8 -30 4 0 5 -6 0 -12 -11 -18 -11 -61 0
-75 5 -7 6 -13 1 -13 -5 0 -9 -13 -9 -30 -1 -16 3 -30 8 -30 6 0 6 -5 1 -12
-8 -12 -10 -28 -5 -67 0 -7 7 -11 16 -8 8 4 17 1 21 -5 4 -7 9 -6 15 3 8 12
11 11 19 -1 9 -13 10 -13 11 0 0 10 3 8 9 -5 7 -17 9 -17 9 -2 1 20 27 23 34
5 4 -10 6 -10 6 0 1 10 6 10 22 1 15 -8 19 -8 15 0 -4 6 -2 11 3 11 6 0 11 -6
11 -12 0 -10 3 -9 9 1 7 11 9 11 14 0 4 -10 6 -10 6 -1 1 6 7 12 15 12 8 0 17
-6 19 -12 3 -8 6 -9 6 -2 1 8 14 9 41 4 22 -4 38 -4 36 -1 -6 9 141 4 155 -5
8 -4 9 -3 5 4 -4 7 -2 12 3 12 6 0 11 -6 11 -12 0 -10 3 -9 9 1 7 11 9 11 14
0 4 -10 6 -10 6 -1 1 6 7 12 15 12 8 0 17 -6 19 -12 3 -7 6 -8 6 -3 1 13 67
11 84 -3 10 -8 17 -8 24 -1 13 13 104 16 123 4 9 -5 11 -4 6 3 -4 7 -2 12 3
12 6 0 11 -6 11 -12 0 -9 4 -8 10 2 9 13 10 13 10 0 0 -11 2 -12 8 -2 5 7 19
11 33 9 19 -3 24 -10 23 -31 0 -14 3 -26 8 -26 4 0 5 -6 3 -13 -10 -23 -11
-127 -3 -127 5 0 6 -5 2 -12 -6 -10 -9 -235 -3 -264 1 -5 0 -13 -1 -19 -4 -24
0 -216 5 -225 3 -6 3 -10 -2 -10 -7 0 -8 -135 -3 -250 1 -19 1 -548 0 -685 0
-11 0 -53 0 -93 0 -40 2 -77 5 -82 4 -6 1 -10 -5 -10 -6 0 -8 -10 -4 -27 4
-15 7 -32 6 -38 -3 -18 -4 -100 -2 -110 1 -5 1 -14 0 -20 -2 -13 -2 -87 0
-100 1 -5 1 -14 0 -20 -5 -22 -1 -305 5 -315 3 -5 3 -10 -2 -10 -4 0 -8 -24
-8 -54 0 -30 4 -52 8 -49 5 3 8 -3 6 -13 -1 -11 0 -26 4 -34 3 -8 8 -28 12
-43 4 -22 3 -27 -7 -21 -11 6 -11 5 0 -8 6 -8 12 -26 12 -39 0 -42 3 -59 12
-59 4 0 8 -18 8 -41 0 -28 4 -38 12 -33 8 5 9 2 5 -9 -4 -10 -2 -17 5 -17 6 0
5 -6 -3 -17 -8 -9 -9 -14 -3 -10 7 4 14 0 17 -7 3 -8 1 -17 -6 -20 -7 -2 -5
-5 5 -5 11 -1 16 -8 13 -21 -2 -11 1 -20 7 -20 6 0 5 -7 -3 -17 -10 -11 -10
-14 -2 -9 12 6 18 -5 14 -26 0 -5 4 -8 10 -8 5 0 7 -4 4 -10 -3 -5 -1 -10 5
-10 6 0 8 -5 4 -12 -4 -6 1 -17 11 -25 11 -7 15 -13 11 -13 -5 0 -3 -7 4 -15
10 -12 10 -15 -1 -15 -8 0 -6 -5 6 -13 11 -9 15 -19 10 -27 -5 -9 -4 -11 3 -6
7 4 12 2 12 -3 0 -6 9 -20 20 -31 12 -12 18 -25 15 -30 -3 -5 -1 -11 5 -15 6
-4 7 -11 4 -17 -4 -7 -2 -8 4 -4 13 8 36 -30 27 -44 -3 -6 1 -10 10 -10 9 0
19 -9 22 -20 3 -11 10 -20 15 -20 5 0 6 -5 2 -12 -4 -7 -3 -8 4 -4 7 4 17 -3
23 -18 7 -14 16 -23 20 -20 5 3 9 -2 9 -10 0 -9 5 -16 11 -16 5 0 7 -4 4 -10
-3 -5 1 -10 9 -10 9 0 16 -5 16 -11 0 -6 7 -8 16 -5 15 6 15 4 3 -11 -10 -12
-10 -15 -1 -9 8 5 26 -6 48 -28 20 -20 39 -34 43 -32 4 3 15 -6 25 -19 10 -14
23 -22 29 -18 5 3 15 -1 21 -9 6 -8 16 -16 21 -17 6 -2 9 -7 8 -11 -2 -5 7 -7
19 -5 12 3 25 -1 29 -7 4 -6 17 -13 29 -15 12 -2 28 -10 36 -18 17 -17 28 -20
19 -5 -3 6 -2 10 3 10 6 0 13 -7 16 -16 3 -8 10 -13 14 -10 5 3 32 -3 61 -13
28 -11 49 -15 45 -10 -3 5 0 9 5 9 6 0 11 -7 11 -15 0 -18 11 -19 29 -2 11 9
13 9 7 0 -7 -12 24 -19 62 -14 6 1 12 -2 12 -6 0 -4 19 -8 42 -7 50 1 70 -5
62 -17 -3 -5 2 -6 10 -3 9 3 13 10 10 15 -3 5 2 6 10 3 9 -3 13 -10 10 -15 -3
-5 2 -6 10 -3 9 3 14 10 11 14 -7 11 36 0 54 -14 11 -8 13 -8 7 2 -10 16 16
16 33 0 11 -11 13 -10 8 4 -5 14 -1 15 23 8 16 -4 31 -6 34 -3 3 3 12 0 21 -7
13 -11 14 -10 8 6 -6 16 -4 17 9 7 8 -7 18 -10 21 -6 4 3 13 0 22 -7 13 -11
14 -10 9 6 -5 15 -4 16 6 7 8 -7 22 -8 41 -3 16 5 27 5 24 0 -5 -8 70 -4 85 5
5 3 11 2 14 -3 3 -5 21 -7 41 -6 25 2 34 0 30 -9 -4 -7 0 -4 8 6 9 11 18 14
21 8 4 -6 14 -7 23 -4 12 5 14 3 9 -8 -4 -8 -1 -6 7 3 13 16 15 16 32 0 11
-10 15 -12 10 -3 -6 11 -4 13 8 8 10 -4 17 -1 17 6 0 7 7 3 15 -7 9 -12 15
-15 15 -7 0 8 6 11 15 7 8 -3 15 -1 15 4 0 6 4 10 10 10 5 0 9 -3 9 -7 -3 -20
2 -26 11 -13 8 13 13 13 31 2 11 -8 18 -9 14 -3 -3 7 2 11 15 11 14 0 19 -4
15 -12 -4 -7 0 -5 8 5 9 11 18 14 21 8 4 -6 14 -7 23 -4 12 5 14 3 9 -8 -4 -8
-1 -6 7 3 13 16 15 16 32 0 11 -10 15 -12 10 -3 -6 11 -4 13 8 8 10 -4 17 -1
17 5 0 9 3 9 11 1 6 -6 18 -9 27 -6 11 5 13 2 8 -8 -4 -8 -1 -6 7 4 9 11 18
14 21 8 4 -6 14 -7 23 -4 12 5 14 3 9 -8 -4 -8 -1 -6 7 3 13 16 15 16 32 0 11
-10 15 -12 10 -3 -6 11 -4 13 8 8 10 -4 17 -1 17 6 0 7 7 4 14 -6 10 -13 15
-15 18 -5 4 10 8 10 22 -1 15 -12 16 -12 9 5 -6 16 -4 17 9 7 8 -7 18 -10 21
-6 4 3 13 0 22 -7 13 -11 14 -10 8 6 -6 16 -4 17 9 7 8 -7 18 -10 21 -6 4 3
13 0 22 -7 13 -11 14 -10 9 6 -6 15 -4 17 6 7 7 -6 19 -9 27 -6 8 3 19 0 24
-8 7 -12 9 -12 9 0 0 7 6 11 15 7 8 -3 15 -1 15 5 0 6 5 7 10 4 6 -4 7 -12 4
-18 -5 -8 -3 -8 7 1 17 16 32 16 24 0 -4 -7 0 -5 8 5 9 11 18 14 21 8 4 -6 14
-7 23 -4 12 5 14 3 9 -8 -4 -8 -1 -6 7 3 13 16 15 16 32 0 11 -10 15 -12 10
-3 -6 11 -4 13 8 8 10 -4 17 -1 17 5 0 9 3 9 11 1 6 -6 18 -9 27 -6 11 5 13 2
8 -8 -4 -8 -1 -6 7 4 9 11 18 14 21 8 4 -6 14 -7 23 -4 12 5 14 3 9 -8 -4 -8
-1 -6 7 3 13 16 15 16 32 0 11 -10 15 -12 10 -3 -6 11 -4 13 8 8 10 -4 17 -1
17 6 0 7 7 4 14 -6 10 -13 15 -15 18 -5 4 10 8 10 22 -1 15 -12 16 -12 9 5 -6
16 -4 17 9 7 8 -7 18 -10 21 -6 4 3 13 0 22 -7 13 -11 14 -10 8 6 -6 16 -4 17
9 7 8 -7 18 -10 21 -6 4 3 13 0 22 -7 13 -11 14 -10 9 6 -6 15 -4 17 6 7 7 -6
19 -9 27 -6 8 3 19 0 24 -8 7 -12 9 -12 9 0 0 7 6 11 15 7 8 -3 15 -1 15 5 0
6 5 7 10 4 6 -4 7 -12 4 -18 -5 -8 -3 -8 7 1 17 16 32 16 24 0 -4 -7 0 -5 8 5
9 11 18 14 21 8 4 -6 14 -7 23 -4 12 5 14 3 9 -8 -4 -8 -1 -6 7 3 13 16 15 16
32 0 11 -10 15 -12 10 -3 -6 11 -4 13 8 8 10 -4 17 -1 17 5 0 9 3 9 11 1 6 -6
18 -9 27 -6 11 5 13 2 8 -8 -4 -8 -1 -6 7 4 9 11 18 14 21 8 4 -6 14 -7 23 -4
12 5 14 3 9 -8 -4 -8 -1 -6 7 3 13 16 15 16 32 0 11 -10 15 -12 10 -3 -6 11
-4 13 8 8 10 -4 17 -1 17 6 0 7 7 4 14 -6 10 -13 15 -15 18 -5 4 10 8 10 22
-1 15 -12 16 -12 9 5 -6 16 -4 17 9 7 8 -7 18 -10 21 -6 4 3 13 0 22 -7 13
-11 14 -10 8 6 -6 16 -4 17 9 7 8 -7 18 -10 21 -6 4 3 13 0 22 -7 13 -11 14
-10 9 5 -6 14 -4 16 7 9 8 -4 22 -7 32 -6 9 2 17 -2 17 -8 0 -7 6 -5 15 4 16
15 49 11 39 -5 -3 -5 2 -6 10 -3 9 3 13 11 9 18 -4 6 6 3 21 -8 16 -10 25 -12
21 -5 -6 8 -4 11 7 7 9 -4 15 0 15 8 0 8 -7 14 -14 14 -14 0 -33 13 -61 43 -9
9 -21 17 -28 17 -6 0 -17 11 -24 25 -7 13 -17 22 -21 19 -5 -3 -14 4 -21 16
-7 11 -16 20 -19 20 -13 0 -69 58 -69 72 0 10 -3 9 -10 -2 -8 -13 -10 -13 -10
2 0 10 -11 25 -25 34 -14 9 -22 20 -19 25 3 5 0 9 -6 9 -7 0 -10 7 -7 14 4 10
1 13 -9 9 -9 -3 -14 1 -14 13 0 9 -3 15 -6 11 -7 -7 -23 8 -41 38 -6 11 -16
19 -21 18 -6 -2 -9 6 -7 17 2 12 0 18 -5 15 -5 -3 -11 4 -15 15 -4 11 -11 18
-16 15 -5 -4 -9 1 -9 9 0 9 -4 16 -10 16 -5 0 -7 6 -4 13 2 7 -7 19 -21 27
-25 13 -37 37 -12 25 6 -4 2 2 -10 13 -12 10 -23 27 -25 38 -2 10 -10 26 -19
34 -9 8 -14 21 -12 28 3 6 -2 12 -11 12 -9 0 -16 8 -16 20 0 11 -4 20 -8 20
-4 0 -9 10 -9 22 -1 13 -7 24 -13 26 -5 2 -8 8 -4 13 3 5 -2 16 -10 25 -9 9
-14 19 -11 24 3 5 1 11 -5 15 -6 4 -8 11 -5 16 4 5 2 9 -3 9 -5 0 -8 11 -7 24
2 15 -3 27 -12 30 -13 5 -13 9 -2 23 10 12 10 14 2 9 -7 -4 -13 -2 -13 3 0 6
-7 11 -16 11 -8 0 -12 5 -8 11 3 6 -5 3 -20 -6 -14 -10 -26 -13 -26 -8 0 11
-36 11 -46 0 -4 -4 -13 -2 -20 4 -8 7 -14 7 -19 -1 -4 -7 -12 -7 -26 0 -10 6
-19 8 -19 4 0 -3 -7 -1 -15 6 -13 11 -14 10 -8 -6 6 -17 5 -17 -10 -5 -9 7
-17 10 -17 7 0 -4 -9 -2 -20 4 -16 9 -19 8 -13 -6 4 -12 3 -15 -6 -10 -18 12
-61 14 -67 4 -3 -4 -11 -5 -17 -1 -18 11 -36 12 -43 2 -7 -12 -24 -11 -24 2 0
5 5 7 12 3 7 -4 8 -3 4 5 -6 8 -12 9 -20 2 -7 -6 -16 -8 -19 -4 -4 3 -7 2 -7
-4 0 -6 -9 -9 -20 -6 -11 3 -17 10 -14 15 4 6 -6 2 -22 -8 -15 -11 -25 -14
-21 -7 5 8 -1 11 -18 9 -14 -1 -28 -6 -32 -9 -3 -4 -12 -2 -19 4 -8 7 -14 7
-19 0 -4 -7 -18 -6 -42 4 -25 11 -32 11 -25 3 8 -10 5 -13 -13 -13 -13 0 -21
4 -18 8 7 12 -31 4 -39 -8 -5 -6 -8 -6 -8 2 0 12 -44 12 -56 0 -4 -3 -17 1
-30 10 -23 14 -24 14 -17 -2 4 -13 3 -16 -6 -11 -19 12 -61 14 -61 4 0 -5 -5
-6 -10 -3 -6 4 -7 12 -3 18 4 7 0 7 -10 -1 -9 -8 -21 -11 -27 -7 -5 3 -10 0
-10 -7 0 -8 -3 -9 -8 -2 -8 12 -52 14 -52 1 0 -4 -5 -5 -10 -2 -6 4 -7 12 -3
18 4 7 0 7 -10 -1 -9 -8 -21 -11 -27 -7 -5 3 -10 1 -10 -6 0 -7 -7 -4 -16 7
-8 10 -12 13 -8 5 5 -11 2 -13 -14 -9 -12 3 -23 1 -26 -6 -3 -8 -5 -7 -5 1 -1
7 -8 10 -18 6 -11 -5 -14 -3 -8 6 4 8 -4 6 -19 -4 -14 -10 -26 -13 -26 -7 0
12 -33 10 -42 -3 -5 -6 -8 -6 -8 2 0 6 -9 10 -20 8 -21 -4 -45 26 -32 40 4 4
-4 2 -17 -5 -20 -10 -23 -10 -18 3 3 9 -4 19 -21 28 -15 8 -31 20 -35 26 -4 7
-15 13 -23 13 -8 0 -13 4 -10 9 3 5 -10 21 -29 36 -20 14 -33 31 -30 36 4 5 0
9 -7 9 -8 0 -20 9 -28 19 -7 11 -17 18 -21 16 -4 -3 -10 6 -13 20 -3 13 -19
31 -34 39 -15 9 -21 15 -14 16 7 0 0 14 -17 33 -17 17 -31 38 -31 45 0 7 -4
10 -10 7 -6 -3 -7 1 -4 9 4 9 -1 18 -10 22 -9 3 -16 15 -16 25 0 10 -3 19 -8
19 -4 0 -13 9 -20 21 -11 17 -11 20 0 13 7 -4 2 4 -11 19 -12 14 -20 30 -17
35 3 6 0 17 -9 25 -8 8 -12 24 -10 36 2 12 -1 21 -9 21 -9 0 -12 21 -11 76 0
41 -3 78 -8 81 -4 2 -4 10 1 16 4 7 8 135 7 285 0 181 3 272 10 272 7 0 7 3 0
8 -15 10 -15 153 -1 145 8 -5 8 -3 0 8 -12 16 -14 387 -1 406 4 6 4 14 -1 17
-9 6 -10 862 0 872 10 9 92 9 108 -1 9 -5 11 -4 6 3 -4 7 -2 12 3 12 6 0 11
-6 11 -12 0 -10 3 -9 9 1 7 11 9 11 14 0 4 -10 6 -10 6 -1 1 6 7 12 15 12 8 0
17 -6 19 -12 3 -7 6 -8 6 -3 1 13 67 11 84 -3 10 -8 17 -8 24 -1 13 13 104 16
123 4 9 -5 11 -4 6 3 -4 7 -2 12 3 12 6 0 11 -6 11 -12 0 -10 3 -9 9 1 7 11 9
11 14 0 4 -10 6 -10 6 -1 1 6 7 12 15 12 8 0 17 -6 19 -12 3 -8 6 -9 6 -2 1 8
14 9 41 4 22 -4 38 -4 36 -1 -6 9 141 4 155 -5 8 -4 9 -3 5 4 -4 7 -2 12 3 12
6 0 11 -6 11 -12 0 -10 3 -9 9 1 7 11 9 11 14 0 4 -10 6 -10 6 -1 1 6 7 12 15
12 8 0 17 -6 19 -12 3 -7 6 -8 6 -3 1 13 67 11 84 -3 10 -8 17 -8 24 -1 13 13
104 16 123 4 9 -5 11 -4 6 3 -4 7 -2 12 3 12 6 0 11 -6 11 -12 0 -10 3 -9 9 1
7 11 9 11 14 0 4 -10 6 -10 6 -1 1 6 7 12 15 12 8 0 17 -6 19 -12 3 -8 6 -9 6
-2 1 8 14 9 41 4 22 -4 38 -4 36 -1 -6 9 141 4 155 -5 8 -4 9 -3 5 4 -4 7 -2
12 3 12 6 0 11 -6 11 -12 0 -10 3 -9 9 1 7 11 9 11 14 0 4 -10 6 -10 6 -1 1 6
7 12 15 12 8 0 17 -6 19 -12 3 -7 6 -8 6 -3 1 13 67 11 84 -3 10 -8 17 -8 24
-1 13 13 104 16 123 4 9 -5 11 -4 6 3 -4 7 -2 12 3 12 6 0 11 -6 11 -12 0 -10
3 -9 9 1 7 11 9 11 14 0 4 -10 6 -10 6 -1 1 6 7 12 15 12 8 0 17 -6 19 -12 3
-8 6 -9 6 -2 1 8 14 9 41 4 22 -4 37 -4 35 1 -3 4 4 7 15 6 11 -1 20 -7 20
-14 0 -7 4 -13 8 -13 5 0 6 -20 2 -45 -4 -25 -3 -48 2 -51 5 -3 4 -12 -2 -19
-8 -10 -8 -15 0 -20 8 -5 7 -11 -2 -23 -10 -12 -10 -16 -1 -19 9 -3 10 -10 3
-24 -9 -15 -7 -19 7 -19 11 0 14 -3 7 -8 -13 -9 -26 -42 -16 -42 4 0 8 -9 8
-19 0 -11 -4 -17 -8 -15 -4 3 -8 1 -8 -5 0 -5 5 -11 11 -13 7 -2 7 -12 0 -31
-7 -18 -7 -26 -1 -22 13 8 13 -1 -1 -27 -8 -15 -8 -19 0 -14 6 4 11 2 11 -3 0
-6 -6 -11 -12 -11 -9 0 -10 -3 -2 -8 13 -8 12 -40 -1 -61 -5 -9 -4 -12 2 -8 7
4 10 -3 9 -18 0 -14 -5 -25 -11 -25 -5 0 -4 -4 4 -9 10 -6 10 -13 3 -28 -8
-14 -8 -23 0 -31 9 -9 9 -12 -1 -12 -7 0 -9 -5 -6 -10 4 -6 12 -7 18 -3 7 3 4
-3 -6 -14 -11 -13 -14 -23 -8 -27 10 -7 8 -37 -5 -58 -4 -6 -3 -8 3 -5 7 4 10
-3 9 -18 0 -14 -5 -25 -11 -25 -5 0 -4 -4 4 -9 10 -6 10 -13 3 -28 -8 -14 -8
-23 0 -31 9 -9 9 -12 -1 -12 -7 0 -9 -5 -6 -10 4 -6 12 -7 18 -3 7 3 3 -3 -7
-15 -11 -13 -14 -22 -7 -22 12 0 9 -39 -5 -61 -4 -7 -3 -9 3 -6 7 4 10 -3 9
-18 0 -14 -5 -25 -11 -25 -5 0 -4 -4 4 -9 10 -6 10 -13 3 -28 -8 -14 -8 -23 0
-31 7 -7 8 -12 2 -12 -5 0 -9 -11 -9 -25 0 -14 3 -25 8 -25 8 0 2 -43 -9 -61
-4 -7 -3 -9 3 -6 7 4 10 -3 9 -18 0 -14 -5 -25 -11 -25 -5 0 -4 -4 4 -9 10 -6
10 -13 3 -28 -8 -14 -8 -23 0 -31 7 -7 8 -12 2 -12 -5 0 -9 -11 -9 -25 0 -14
3 -25 8 -25 8 0 2 -43 -8 -60 -3 -5 -2 -10 2 -10 5 0 9 -9 9 -20 0 -11 -5 -20
-11 -20 -5 0 -4 -4 4 -9 10 -6 10 -13 3 -28 -8 -14 -8 -23 0 -31 7 -7 8 -12 2
-12 -5 0 -9 -11 -9 -25 0 -14 3 -25 8 -25 8 0 2 -43 -9 -61 -4 -7 -3 -9 3 -6
7 4 10 -3 9 -18 0 -14 -5 -25 -11 -25 -5 0 -4 -4 4 -9 10 -6 10 -13 3 -28 -8
-14 -8 -23 0 -31 7 -7 8 -12 2 -12 -5 0 -9 -11 -9 -25 0 -14 3 -25 8 -25 8 0
2 -43 -9 -61 -4 -7 -3 -9 3 -6 7 4 10 -3 9 -18 0 -14 -5 -25 -11 -25 -5 0 -4
-4 4 -9 10 -6 10 -13 3 -28 -8 -14 -8 -23 0 -31 9 -9 9 -12 -1 -12 -7 0 -9 -5
-6 -10 4 -6 12 -7 18 -3 7 3 4 -3 -6 -14 -11 -13 -14 -23 -8 -27 10 -7 8 -37
-5 -58 -4 -6 -3 -8 3 -5 7 4 10 -3 9 -18 0 -14 -5 -25 -11 -25 -5 0 -4 -4 4
-9 9 -6 11 -14 3 -26 -10 -19 -5 -55 8 -55 4 0 5 -11 2 -25 -2 -15 0 -25 7
-25 6 0 11 -15 11 -33 0 -18 6 -42 14 -52 8 -11 11 -26 8 -34 -3 -8 -1 -12 5
-8 11 7 11 -22 -2 -42 -5 -8 -4 -12 1 -8 5 3 17 -8 27 -25 17 -29 17 -30 0
-24 -16 5 -16 5 -2 -6 9 -7 15 -21 13 -31 -1 -9 2 -15 7 -11 9 5 13 -16 10
-45 -2 -7 2 -10 8 -6 10 5 16 -14 12 -37 0 -5 4 -8 9 -8 6 0 10 -9 10 -20 0
-11 6 -20 13 -20 7 0 8 -3 2 -8 -14 -10 -19 -52 -6 -52 6 0 10 -3 10 -7 -4
-22 2 -43 10 -39 5 3 12 -1 15 -10 4 -10 2 -13 -7 -9 -6 4 -4 0 6 -8 9 -8 17
-18 17 -24 0 -15 24 -63 33 -63 4 0 7 -7 7 -15 0 -8 4 -15 9 -15 5 0 14 -13
20 -30 5 -16 16 -30 23 -30 9 0 9 -3 -2 -10 -13 -8 -12 -10 2 -10 10 0 17 -3
16 -7 -2 -12 14 -45 31 -64 32 -35 41 -48 41 -59 0 -6 4 -8 10 -5 9 5 15 -10
8 -18 -6 -6 27 -35 35 -30 4 2 7 -2 7 -10 0 -8 7 -20 15 -27 8 -7 12 -17 8
-24 -3 -6 -3 -8 2 -4 10 10 57 -40 50 -53 -4 -5 3 -9 14 -9 12 0 21 -3 21 -7
0 -11 56 -73 65 -73 4 0 20 -13 36 -29 17 -18 30 -25 33 -18 2 7 5 2 5 -10 1
-16 6 -21 16 -17 10 4 15 0 15 -11 0 -9 5 -13 10 -10 6 3 10 2 10 -4 0 -5 9
-13 20 -16 12 -4 17 -11 14 -18 -4 -7 -4 -9 1 -5 4 4 17 2 29 -4 11 -7 24 -11
29 -10 4 1 7 -3 7 -10 0 -6 3 -9 6 -5 3 3 14 -2 25 -11 11 -9 24 -18 29 -18 6
-1 15 -2 21 -3 5 0 8 -5 5 -10 -4 -5 5 -8 19 -7 14 2 30 -3 36 -10 6 -7 17
-10 25 -7 7 3 16 -1 19 -9 5 -12 29 -18 83 -21 6 0 12 -4 12 -7 0 -4 21 -6 47
-5 34 2 51 -1 61 -13 7 -10 10 -11 6 -3 -5 11 -3 13 9 8 10 -4 17 -1 17 6 0 7
7 4 14 -6 10 -13 15 -15 18 -5 4 10 8 10 22 -1 15 -12 16 -12 9 5 -6 16 -4 17
9 7 8 -7 18 -10 22 -6 4 4 11 1 16 -7 8 -12 10 -11 10 5 0 14 3 16 11 8 6 -6
18 -9 27 -6 11 5 13 2 8 -8 -4 -8 -1 -6 7 4 15 17 33 24 23 8 -3 -5 1 -11 9
-15 8 -3 17 0 21 6 5 7 2 8 -6 3 -9 -5 -11 -4 -6 4 5 7 13 8 19 4 7 -5 27 -8
45 -7 21 2 30 -2 26 -9 -3 -7 1 -4 9 6 9 11 18 14 21 8 4 -6 14 -7 23 -4 12 5
14 3 9 -8 -4 -8 -1 -6 7 3 13 16 15 16 32 0 10 -9 15 -12 12 -6 -4 7 3 12 18
12 16 0 22 -5 18 -12 -4 -6 1 -5 11 3 12 10 20 11 28 3 7 -7 17 -8 29 -2 18
10 54 9 65 -2 8 -9 35 2 29 12 -7 11 36 0 54 -14 11 -8 13 -8 7 2 -10 16 16
16 33 0 11 -10 13 -10 7 0 -8 14 20 17 29 2 3 -5 12 -7 20 -4 8 4 12 10 9 15
-3 5 2 6 10 3 9 -3 13 -10 10 -15 -3 -5 2 -6 10 -3 9 3 13 10 10 15 -3 5 2 6
10 3 9 -3 13 -11 10 -18 -3 -6 1 -3 8 6 13 15 15 15 26 0 7 -9 10 -12 7 -5 -3
8 5 11 24 11 19 -1 28 -5 25 -12 -3 -6 1 -3 9 7 15 18 16 18 26 0 6 -10 11
-13 11 -6 0 6 13 11 30 11 17 -1 33 2 37 5 3 4 15 -1 26 -10 11 -10 17 -13 14
-6 -11 18 16 22 37 4 11 -9 16 -11 13 -4 -9 15 35 14 45 -2 5 -6 8 -2 8 10 0
14 3 16 11 8 6 -6 18 -9 27 -6 11 5 13 2 8 -8 -4 -8 -1 -6 7 4 15 18 16 18 26
0 7 -11 11 -13 11 -4 0 7 6 11 15 7 8 -3 15 0 15 7 0 7 7 3 15 -7 9 -12 15
-15 15 -7 0 8 6 11 15 7 8 -3 15 -1 15 5 0 6 5 7 10 4 6 -4 7 -12 3 -18 -4 -7
0 -6 10 2 14 11 20 11 32 1 13 -11 14 -10 9 5 -6 14 -4 16 7 9 8 -4 22 -7 32
-6 9 2 17 -2 17 -8 0 -6 8 -4 17 5 16 16 17 16 30 -1 7 -10 13 -12 13 -6 0 7
5 12 11 12 5 0 7 -4 4 -10 -3 -6 1 -7 9 -4 9 3 14 10 11 14 -7 11 36 0 54 -14
11 -8 13 -8 7 2 -10 16 16 16 33 0 11 -11 13 -10 8 3 -4 12 0 15 19 11 13 -2
21 -8 18 -13 -3 -5 2 -6 10 -3 9 3 14 10 11 14 -7 11 36 0 54 -14 11 -8 13 -8
7 2 -10 16 16 16 33 0 11 -11 13 -10 8 4 -5 14 -1 15 23 8 16 -4 31 -6 34 -3
3 3 12 0 21 -7 13 -11 14 -10 8 6 -6 16 -4 17 9 7 8 -7 18 -10 21 -6 4 3 13 0
22 -7 13 -11 14 -10 9 6 -5 15 -4 16 6 7 8 -7 22 -8 41 -3 16 5 27 5 24 0 -5
-8 70 -4 85 5 5 3 11 2 14 -3 3 -5 21 -7 41 -6 25 2 34 0 30 -9 -4 -7 0 -4 8
6 9 11 18 14 21 8 4 -6 14 -7 23 -4 12 5 14 3 9 -8 -4 -8 -1 -6 7 3 13 16 15
16 32 0 10 -9 15 -11 11 -4 -4 7 -2 12 6 12 8 0 20 -6 27 -12 8 -8 11 -8 8 -2
-11 19 32 24 43 6 5 -10 10 -12 10 -6 0 17 28 25 36 12 5 -7 2 -8 -6 -3 -9 5
-11 4 -6 -4 5 -7 12 -9 19 -3 19 13 58 13 51 -1 -3 -7 1 -4 9 6 9 11 18 14 21
8 4 -6 14 -7 23 -4 12 5 14 3 9 -8 -4 -8 -1 -6 7 3 13 16 15 16 32 0 11 -10
15 -12 10 -3 -6 11 -4 13 8 8 10 -4 17 -1 17 5 0 9 3 9 11 1 6 -6 18 -9 27 -6
11 5 13 2 8 -8 -4 -8 -1 -6 7 3 13 16 15 16 32 0 11 -10 15 -12 10 -3 -6 11
-4 13 8 8 10 -4 17 -1 17 6 0 7 7 3 15 -7 9 -12 15 -15 15 -7 0 8 6 11 15 7 8
-3 15 -1 15 5 0 6 5 7 10 4 6 -4 7 -12 3 -18 -4 -7 0 -6 10 2 14 11 20 11 32
1 13 -11 14 -10 8 6 -6 16 -4 17 9 7 8 -7 18 -10 21 -6 4 3 13 0 22 -7 13 -11
14 -10 8 6 -6 16 -4 17 9 7 8 -7 18 -10 21 -6 4 3 13 0 22 -7 13 -11 14 -10 9
6 -6 15 -4 17 6 7 7 -6 19 -9 27 -6 8 3 19 0 24 -8 7 -12 9 -12 9 0 0 7 6 11
15 7 8 -3 15 -1 15 5 0 6 5 7 10 4 6 -4 7 -12 4 -18 -5 -8 -3 -8 7 1 17 16 32
16 24 0 -4 -7 0 -5 8 5 9 11 18 14 21 8 4 -6 14 -7 23 -4 12 5 14 3 9 -8 -4
-8 -1 -6 7 3 13 16 15 16 32 0 11 -10 15 -12 10 -3 -6 11 -4 13 8 8 10 -4 17
-1 17 5 0 9 3 9 11 1 6 -6 18 -9 27 -6 11 5 13 2 8 -8 -4 -8 -1 -6 7 4 9 11
18 14 21 8 4 -6 14 -7 23 -4 12 5 14 3 9 -8 -4 -8 -1 -6 7 3 13 16 15 16 32 0
11 -10 15 -12 10 -3 -6 11 -4 13 8 8 10 -4 17 -1 17 6 0 7 7 4 14 -6 10 -13
15 -15 18 -5 4 10 8 10 22 -1 15 -12 16 -12 9 5 -6 16 -4 17 9 7 8 -7 18 -10
21 -6 4 3 13 0 22 -7 13 -11 14 -10 8 6 -6 16 -4 17 9 7 8 -7 18 -10 21 -6 4
3 13 0 22 -7 13 -11 14 -10 9 6 -6 15 -4 17 6 7 7 -6 19 -9 27 -6 8 3 19 0 24
-8 7 -12 9 -12 9 0 0 7 6 11 15 7 8 -3 15 -1 15 5 0 6 5 7 10 4 6 -4 7 -11 4
-17 -5 -7 -2 -8 7 -2 22 13 42 14 56 2 11 -8 12 -7 6 8 -6 16 -4 17 9 7 8 -7
18 -10 21 -6 4 3 13 0 22 -7 13 -11 14 -10 9 6 -5 15 -4 16 6 7 8 -7 22 -8 41
-3 16 5 27 5 24 0 -5 -8 70 -4 85 5 5 3 11 2 14 -3 3 -5 21 -7 41 -6 25 2 34
0 30 -9 -4 -7 0 -4 8 6 9 11 18 14 21 8 4 -6 14 -7 23 -4 12 5 14 3 9 -8 -4
-8 -1 -6 7 3 13 16 15 16 32 0 11 -10 15 -12 10 -3 -6 11 -4 13 8 8 10 -4 17
-1 17 6 0 7 7 3 15 -7 9 -12 15 -15 15 -7 0 8 6 11 15 7 8 -3 15 -1 15 4 0 6
5 10 10 10 6 0 9 -3 9 -7 -3 -20 2 -26 11 -13 8 13 13 13 31 2 11 -8 18 -9 14
-3 -3 6 1 11 10 11 9 0 13 -4 10 -10 -3 -6 1 -7 9 -4 9 3 14 10 11 14 -7 11
36 0 54 -14 11 -8 13 -8 7 2 -4 7 -2 12 6 12 8 0 20 -6 27 -12 11 -11 13 -10
8 3 -4 12 0 15 19 11 13 -2 21 -8 18 -13 -3 -5 2 -6 10 -3 9 3 14 10 11 14 -7
11 36 0 54 -14 11 -8 13 -8 7 2 -4 7 -2 12 6 12 8 0 20 -6 27 -12 11 -11 13
-10 9 3 -5 12 0 14 23 11 17 -3 27 -9 23 -16 -3 -6 1 -3 9 7 15 18 16 18 26 0
7 -11 11 -13 11 -4 0 7 6 11 15 7 8 -3 15 0 15 7 0 7 7 3 15 -7 9 -12 15 -15
15 -7 0 8 6 11 15 7 8 -3 15 0 15 7 0 7 7 3 15 -7 9 -12 15 -15 15 -7 0 8 6
11 15 7 8 -3 15 -1 15 5 0 6 5 7 10 4 6 -4 7 -12 3 -18 -4 -7 0 -6 10 2 14 11
20 11 32 1 13 -11 14 -10 9 5 -6 14 -4 16 7 10 20 -13 49 -13 49 -1 0 6 7 2
15 -8 9 -12 15 -15 15 -7 0 8 6 11 15 7 8 -3 15 0 15 7 0 7 7 3 15 -7 9 -12
15 -15 15 -7 0 8 6 11 15 7 8 -3 15 -1 15 5 0 6 5 7 10 4 6 -4 7 -12 3 -18 -4
-7 0 -6 10 2 14 11 20 11 32 1 13 -11 14 -10 9 5 -6 14 -4 16 7 9 8 -4 22 -7
32 -6 9 2 17 -2 17 -8 0 -6 8 -4 17 5 16 16 17 16 30 -1 7 -10 13 -12 13 -6 0
7 5 12 11 12 5 0 7 -4 4 -10 -3 -6 1 -7 9 -4 9 3 14 10 11 14 -7 11 36 0 54
-14 11 -8 13 -8 7 2 -4 7 -2 12 6 12 8 0 20 -6 27 -12 11 -11 13 -10 8 3 -4
12 0 15 19 11 13 -2 21 -8 18 -13 -3 -5 2 -6 10 -3 9 3 14 10 11 14 -7 11 36
0 54 -14 11 -8 13 -8 7 2 -4 7 -2 12 6 12 8 0 20 -6 27 -12 11 -11 13 -10 8 4
-5 14 -1 15 23 8 16 -4 31 -5 35 -2 3 4 10 0 15 -8 8 -12 10 -12 10 4 0 14 3
16 13 7 8 -6 17 -8 21 -4 4 4 11 1 16 -7 8 -12 10 -11 10 5 0 14 3 16 11 8 7
-7 21 -8 40 -3 16 5 27 5 24 0 -3 -4 2 -11 11 -14 8 -3 12 -2 9 3 -3 6 8 9 23
9 16 -1 34 2 40 6 6 3 15 -2 21 -11 6 -10 11 -13 11 -6 0 6 13 11 30 11 18 -1
27 -5 24 -12 -3 -6 1 -3 9 6 13 16 15 16 32 0 11 -10 15 -12 10 -3 -6 11 -4
13 8 8 10 -4 17 -1 17 6 0 7 7 4 14 -6 10 -13 15 -15 19 -5 3 10 9 10 24 1 16
-9 23 -8 36 5 15 14 17 14 23 -2 5 -13 9 -15 15 -5 6 10 11 10 22 0 9 -7 18
-8 21 -3 3 5 24 8 46 7 22 -1 40 2 40 7 0 5 5 6 10 3 6 -4 8 -12 4 -18 -3 -7
1 -4 9 6 8 10 19 17 23 15 5 -1 18 3 29 9 11 6 28 9 37 8 9 -2 25 6 34 16 13
15 19 17 26 7 6 -10 8 -10 8 0 0 6 6 12 14 12 8 0 16 5 18 11 2 7 16 13 30 13
15 1 31 6 35 10 5 5 2 6 -6 1 -9 -5 -12 -4 -7 3 3 6 14 11 24 11 46 2 59 6 56
16 -3 6 6 11 18 12 12 1 27 8 33 15 5 8 18 12 29 10 11 -2 16 0 12 7 -4 7 1
11 13 11 12 0 21 5 21 10 0 6 7 10 15 10 8 0 15 5 15 12 0 6 3 8 7 5 3 -4 13
-1 22 7 9 8 23 16 31 18 8 2 21 9 28 16 8 7 18 10 23 7 5 -4 9 -1 9 5 0 6 3 9
8 7 9 -6 33 19 25 27 -4 3 1 6 10 6 10 0 17 5 17 10 0 6 6 9 13 8 6 -2 11 3 9
10 -1 6 5 12 13 12 23 0 65 22 59 31 -3 5 2 9 10 9 9 0 16 8 16 18 0 14 2 15
10 2 8 -12 10 -12 16 3 3 9 13 17 21 17 8 0 11 5 7 12 -5 8 -2 9 11 4 15 -5
16 -4 5 9 -11 13 -11 16 1 13 8 -2 13 3 11 10 -1 6 1 11 5 11 20 -3 34 2 29
10 -3 5 1 11 9 15 8 3 15 13 15 23 0 11 3 14 8 7 5 -9 11 -8 20 2 7 8 9 14 5
14 -4 0 3 7 15 16 12 8 19 20 16 26 -5 8 -1 9 10 5 9 -4 14 -3 11 2 -3 5 -1
12 5 16 6 4 8 11 5 16 -3 5 0 6 8 3 9 -3 20 7 30 28 9 18 17 26 17 18 0 -12 3
-11 11 3 5 9 21 29 35 44 13 14 24 32 24 40 0 8 4 12 9 9 5 -3 12 6 15 19 4
16 11 23 18 19 6 -4 8 -3 4 4 -3 6 -2 13 4 17 5 3 10 15 10 26 0 11 5 17 10
14 6 -3 10 1 10 10 0 8 7 18 16 22 13 5 13 7 2 14 -10 7 -10 9 0 9 7 0 17 11
22 25 5 14 14 25 19 25 5 0 8 9 6 20 -2 11 0 18 6 15 5 -4 9 1 9 9 0 9 5 16
10 16 6 0 10 7 10 15 0 8 5 15 11 15 8 0 7 6 -2 17 -10 11 -10 14 -1 9 8 -5
12 0 12 13 0 12 7 21 15 21 9 0 12 6 9 15 -4 8 -1 15 5 15 6 0 10 3 10 8 -1 4
0 10 1 15 1 4 3 10 5 15 1 4 7 20 14 36 6 16 9 36 7 43 -3 8 -1 11 4 8 6 -3
10 1 10 9 0 10 6 13 18 9 14 -5 13 -3 -3 10 -17 14 -18 16 -3 17 11 0 16 6 13
20 -2 11 0 18 6 15 5 -4 9 3 9 14 0 11 5 23 11 27 6 3 9 17 6 30 -2 13 0 24 5
24 5 0 6 5 3 10 -3 6 -1 10 4 10 6 0 11 13 11 29 0 20 6 31 18 34 16 4 16 5 0
6 -11 1 -15 6 -12 16 4 8 10 12 15 9 5 -3 6 2 3 11 -4 8 -1 22 5 29 8 10 9 16
2 21 -10 6 -9 12 17 61 7 15 7 25 0 32 -6 6 -6 12 1 16 6 4 11 12 11 17 0 6
-6 7 -12 3 -9 -6 -9 -3 1 9 7 9 13 32 13 52 0 24 4 33 12 28 6 -4 4 1 -4 11
-13 16 -12 20 4 31 17 13 17 13 -1 18 -17 4 -17 5 0 6 10 0 16 5 12 11 -3 5 9
8 30 6 19 -2 38 0 41 6 3 5 11 5 17 0 14 -10 73 -10 83 1 4 4 13 2 21 -4 10
-9 13 -8 13 2 1 9 4 8 11 -4 7 -12 15 -15 22 -9 7 5 41 8 77 7 36 0 70 3 77 7
6 5 14 4 18 -2 4 -6 15 -8 26 -5 18 6 19 1 19 -69 0 -42 0 -79 -1 -82 0 -4 5
-11 13 -15 11 -7 11 -9 -1 -9 -11 0 -11 -3 0 -17 12 -15 12 -16 -1 -8 -12 7
-13 6 -3 -6 6 -8 11 -40 12 -73 0 -32 5 -64 12 -72 9 -11 8 -18 -1 -29 -7 -9
-10 -18 -6 -22 3 -3 6 -1 6 5 0 7 3 12 8 12 4 0 7 -17 6 -37 -1 -20 4 -47 12
-59 12 -18 12 -23 2 -27 -9 -4 -10 -6 -1 -6 7 -1 10 -8 7 -16 -4 -8 -1 -15 6
-15 9 0 9 -4 -1 -17 -12 -14 -12 -16 0 -8 11 6 13 3 8 -14 -3 -14 0 -24 9 -28
12 -4 12 -8 2 -21 -7 -9 -8 -13 -2 -9 7 4 12 -3 12 -19 -1 -27 20 -74 37 -86
6 -5 4 -8 -5 -8 -9 0 -11 -3 -5 -8 13 -9 39 -56 27 -48 -5 3 -9 -1 -9 -9 0 -8
4 -12 9 -9 4 3 8 -2 8 -11 0 -9 7 -23 16 -32 8 -9 13 -22 10 -30 -3 -8 -1 -11
4 -8 9 5 15 -24 11 -48 -1 -5 3 -6 8 -2 6 3 15 -4 21 -15 6 -11 7 -20 3 -20
-4 0 0 -5 10 -11 9 -5 17 -17 17 -25 0 -9 7 -22 15 -31 8 -8 12 -19 9 -25 -4
-7 -2 -8 4 -4 7 4 12 1 12 -8 0 -9 5 -16 11 -16 6 0 9 -6 6 -13 -3 -7 4 -19
14 -26 11 -6 17 -16 14 -21 -4 -6 0 -13 9 -16 9 -3 12 -12 9 -21 -4 -11 -2
-14 5 -9 7 4 12 2 12 -4 0 -17 26 -40 35 -32 5 4 5 2 2 -4 -3 -6 14 -31 38
-57 25 -25 45 -48 45 -52 0 -3 18 -23 40 -44 22 -21 40 -43 40 -49 0 -7 7 -12
16 -12 8 0 12 -5 9 -10 -4 -6 -3 -10 2 -9 23 4 35 -2 29 -16 -3 -8 -2 -14 2
-14 20 3 32 -2 27 -11 -4 -6 -3 -10 2 -9 26 5 45 -4 53 -23 5 -13 9 -19 9 -14
1 6 8 1 17 -10 8 -10 13 -12 9 -4 -4 8 3 5 14 -8 11 -13 22 -23 25 -22 22 1
26 -1 20 -12 -5 -7 -2 -9 9 -5 9 3 18 0 21 -8 3 -8 12 -12 21 -9 9 4 15 0 15
-9 0 -10 7 -15 20 -12 13 2 20 -2 20 -11 0 -8 7 -14 15 -14 8 0 15 -5 15 -11
0 -6 6 -9 13 -6 8 3 20 -3 27 -13 8 -11 17 -17 22 -14 4 3 8 0 8 -7 0 -7 3
-10 6 -6 4 3 15 -4 26 -16 11 -12 17 -16 13 -10 -4 9 -1 11 9 7 9 -3 13 -11 9
-17 -4 -6 2 -8 15 -5 14 4 22 2 22 -7 0 -7 8 -12 18 -11 9 2 19 0 22 -5 3 -4
19 -10 35 -13 16 -3 31 -10 33 -15 2 -6 10 -7 18 -4 8 3 14 0 14 -6 0 -6 7 -8
15 -5 8 4 15 1 15 -6 0 -7 7 -10 15 -6 8 3 21 -2 30 -10 8 -9 15 -13 15 -9 0
3 13 -1 30 -10 16 -8 32 -15 35 -15 47 2 65 -2 59 -11 -4 -8 0 -8 15 0 11 7
21 8 21 3 0 -4 8 -8 18 -8 9 0 30 -3 45 -7 17 -5 26 -4 23 2 -8 12 34 2 53
-13 11 -8 13 -8 7 2 -10 16 16 16 33 0 11 -11 13 -10 8 3 -4 12 0 15 19 11 13
-2 21 -8 18 -13 -3 -5 2 -6 10 -3 9 3 14 10 11 14 -7 11 36 0 54 -14 11 -8 13
-8 7 2 -10 16 16 16 33 0 11 -11 13 -10 8 3 -4 12 0 15 19 11 13 -2 21 -8 18
-13 -3 -5 2 -6 10 -3 9 3 14 10 11 14 -7 11 36 0 54 -14 11 -8 13 -8 7 2 -10
16 16 16 33 0 11 -11 13 -10 9 3 -5 12 0 14 23 11 17 -3 27 -9 23 -16 -3 -6 1
-3 9 7 15 18 16 18 26 0 7 -11 11 -13 11 -4 0 7 6 11 15 7 8 -3 15 0 15 7 0 7
7 3 15 -7 9 -12 15 -15 15 -7 0 8 6 11 15 7 8 -3 15 0 15 7 0 7 7 3 15 -7 9
-12 15 -15 15 -7 0 8 6 11 15 7 8 -3 15 -1 15 5 0 6 5 7 10 4 6 -4 7 -12 3
-18 -4 -7 0 -6 10 2 14 11 20 11 32 1 13 -11 14 -10 9 5 -6 14 -4 16 7 10 20
-13 49 -13 49 -1 0 6 7 2 15 -8 9 -12 15 -15 15 -7 0 8 6 11 15 7 8 -3 15 0
15 7 0 7 7 3 15 -7 9 -12 15 -15 15 -7 0 8 6 11 15 7 8 -3 15 -1 15 5 0 6 5 7
10 4 6 -4 7 -12 3 -18 -4 -7 0 -6 10 2 14 11 20 11 32 1 13 -11 14 -10 9 5 -6
14 -4 16 7 9 8 -4 22 -7 32 -6 9 2 17 -2 17 -8 0 -6 8 -4 17 5 16 16 17 16 30
-1 7 -10 13 -12 13 -6 0 7 5 12 11 12 5 0 7 -4 4 -10 -3 -6 1 -7 9 -4 9 3 14
10 11 14 -7 11 36 0 54 -14 11 -8 13 -8 7 2 -10 16 16 16 33 0 11 -11 13 -10
8 3 -4 12 0 15 19 11 13 -2 21 -8 18 -13 -3 -5 2 -6 10 -3 9 3 14 10 11 14 -7
11 36 0 54 -14 11 -8 13 -8 7 2 -10 16 16 16 33 0 11 -11 13 -10 9 3 -5 12 0
14 23 11 17 -3 27 -9 23 -16 -3 -6 1 -3 9 7 9 11 18 14 21 8 4 -6 14 -7 23 -4
12 5 14 3 9 -8 -4 -8 -1 -6 7 3 13 16 15 16 32 0 11 -10 15 -12 10 -3 -6 11
-4 13 8 8 10 -4 17 -1 17 5 0 9 3 9 11 1 6 -6 18 -9 27 -6 11 5 13 2 8 -8 -4
-8 -1 -6 7 4 9 11 18 14 21 8 4 -6 14 -7 23 -4 12 5 14 3 9 -8 -4 -8 -1 -6 7
3 13 16 15 16 32 0 11 -10 15 -12 10 -3 -6 11 -4 13 8 8 10 -4 17 -1 17 6 0 7
7 4 14 -6 10 -13 15 -15 18 -5 4 10 8 10 22 -1 15 -12 16 -12 10 5 -5 15 -4
16 6 7 8 -7 22 -8 42 -2 27 7 28 7 16 -9 -12 -15 -10 -15 15 1 25 16 28 16 34
2 4 -13 8 -14 14 -4 6 10 11 10 25 -2 10 -8 15 -9 11 -3 -4 7 2 12 18 12 14 0
25 -6 25 -12 0 -6 4 -4 10 4 5 8 12 11 16 7 4 -4 13 -2 20 4 8 7 14 6 20 -2 5
-8 3 -9 -6 -4 -9 5 -11 4 -6 -4 6 -9 11 -9 22 0 11 9 17 9 29 -1 12 -10 16 -9
21 4 3 9 10 16 16 16 5 0 7 -4 3 -9 -3 -5 -1 -12 4 -15 5 -3 12 1 15 10 5 12
10 14 20 5 7 -6 16 -8 19 -4 4 3 13 0 22 -7 12 -10 16 -9 21 4 3 9 10 16 16
16 5 0 7 -4 3 -9 -3 -5 -1 -12 4 -15 5 -3 12 1 15 10 6 15 9 15 28 -2 12 -11
18 -14 15 -8 -4 7 3 11 18 12 14 0 25 -6 25 -12 0 -7 3 -6 9 2 9 14 32 13 43
-3 4 -6 8 -2 8 8 0 9 5 17 11 17 5 0 8 -4 5 -9 -8 -12 18 -21 32 -12 13 8 21
359 9 378 -4 5 -4 13 -1 15 8 8 8 464 0 477 -4 6 -4 11 1 11 4 0 7 24 6 52 -3
91 -2 85 -13 68 -7 -11 -10 -11 -10 -2 0 8 -5 10 -12 5 -19 -11 -39 -13 -32
-2 6 11 -25 7 -45 -5 -11 -7 -13 -5 -7 9 6 18 6 18 -12 2 -10 -9 -22 -14 -26
-10 -12 12 -36 12 -36 0 0 -8 -3 -7 -9 2 -6 9 -11 10 -15 2 -4 -6 -13 -8 -19
-4 -17 11 -31 10 -39 -2 -5 -6 -8 -5 -8 4 0 11 -3 11 -17 0 -11 -10 -14 -10
-9 -1 8 14 -19 12 -43 -2 -11 -7 -13 -5 -7 9 6 18 6 18 -12 2 -14 -13 -21 -14
-30 -5 -7 7 -12 8 -12 4 0 -5 -7 -3 -15 4 -13 11 -14 10 -10 -2 4 -11 0 -14
-17 -12 -13 1 -24 3 -25 4 -9 7 -29 4 -35 -5 -5 -6 -8 -5 -8 4 0 11 -3 11 -17
0 -11 -10 -14 -10 -9 -1 8 14 -19 12 -43 -2 -11 -7 -13 -5 -7 9 6 18 6 18 -12
2 -10 -9 -22 -14 -26 -10 -11 11 -30 10 -38 -2 -5 -6 -8 -4 -8 5 0 13 -1 13
-10 0 -8 -12 -10 -12 -10 5 0 11 -4 15 -8 10 -4 -6 -14 -10 -22 -10 -8 1 -19
-1 -25 -4 -18 -10 -35 -10 -29 0 6 11 -25 7 -45 -5 -11 -7 -13 -5 -7 9 5 15 4
16 -9 5 -8 -7 -15 -9 -15 -4 0 5 -5 2 -10 -6 -8 -13 -10 -13 -10 -1 0 12 -3
12 -12 3 -9 -9 -16 -8 -29 4 -13 12 -19 12 -25 3 -5 -8 -3 -10 6 -4 9 5 11 4
6 -4 -4 -6 -13 -8 -19 -4 -17 11 -31 10 -39 -2 -5 -6 -8 -5 -8 4 0 11 -3 11
-17 0 -11 -10 -14 -10 -9 -1 8 14 -19 12 -43 -2 -11 -7 -13 -5 -7 9 5 14 4 16
-7 7 -10 -9 -17 -8 -27 1 -9 8 -11 9 -6 0 3 -6 2 -14 -4 -18 -5 -3 -10 -2 -10
4 0 5 -10 8 -22 6 -12 -3 -28 1 -37 8 -11 9 -13 9 -8 0 4 -6 3 -14 -3 -18 -5
-3 -10 -2 -10 4 0 5 -10 8 -22 6 -12 -3 -28 1 -37 8 -11 9 -13 9 -8 0 4 -6 3
-14 -3 -18 -5 -3 -10 -2 -10 4 0 5 -10 8 -22 6 -12 -3 -28 1 -37 8 -11 9 -13
9 -8 0 4 -6 3 -14 -3 -18 -5 -3 -10 -2 -10 4 0 5 -10 8 -22 6 -12 -3 -28 1
-37 8 -11 9 -13 9 -8 0 4 -6 3 -14 -3 -18 -5 -3 -10 -2 -10 4 0 5 -10 8 -22 6
-12 -3 -28 1 -37 8 -11 9 -13 9 -8 0 4 -6 3 -14 -3 -18 -5 -3 -10 -1 -10 6 0
8 -5 7 -17 -2 -11 -10 -14 -10 -9 -1 4 6 2 12 -3 12 -6 0 -11 -5 -11 -11 0 -5
-5 -7 -10 -4 -6 4 -7 11 -4 17 4 5 -5 2 -20 -7 -20 -14 -25 -14 -21 -3 4 11
-3 14 -34 12 -25 -1 -39 2 -38 9 2 11 -4 13 -45 16 -19 1 -20 3 -8 11 12 8 11
10 -7 10 -13 0 -23 4 -23 10 0 5 -7 7 -15 4 -8 -4 -15 -1 -15 5 0 6 -7 11 -15
11 -8 0 -15 5 -15 11 0 5 -5 7 -10 4 -5 -3 -10 1 -10 10 0 9 -4 14 -8 11 -5
-3 -20 6 -34 19 -18 17 -28 21 -31 12 -3 -7 -6 -2 -6 11 -1 13 -5 21 -9 18 -4
-2 -18 9 -31 25 -13 16 -27 26 -32 23 -5 -3 -9 1 -9 8 0 8 -9 21 -20 31 -12
10 -18 22 -15 27 3 6 -1 7 -9 4 -11 -4 -16 0 -16 11 0 9 -5 13 -10 10 -5 -3
-10 1 -10 10 0 20 -25 46 -35 37 -5 -4 -5 -2 -2 4 4 7 0 17 -8 24 -8 7 -15 19
-15 27 0 7 -9 23 -20 35 -11 12 -20 30 -20 40 0 11 -5 16 -10 13 -5 -3 -10 3
-10 14 0 12 -4 21 -10 21 -5 0 -10 7 -10 15 0 8 -5 15 -11 15 -5 0 -7 4 -4 10
3 5 0 20 -7 32 -13 25 -15 29 -17 56 -1 15 -3 15 -11 2 -5 -8 -10 -10 -10 -4
0 5 6 16 13 23 10 11 10 13 0 7 -8 -4 -13 -1 -13 8 0 9 -5 16 -12 16 -6 0 -8
3 -5 7 4 3 2 12 -4 20 -9 10 -8 13 2 13 9 1 7 6 -6 16 -17 13 -18 16 -5 24 10
7 11 10 3 10 -7 0 -13 11 -13 25 0 14 -4 25 -10 25 -5 0 -10 16 -10 36 0 20
-4 33 -10 29 -5 -3 -7 0 -4 8 6 18 47 27 66 16 7 -5 16 -3 20 4 5 7 8 8 8 1 0
-12 49 -12 68 0 7 4 12 3 12 -2 0 -5 21 -7 48 -5 26 3 52 4 57 4 6 0 27 -2 47
-4 20 -2 35 0 32 5 -3 4 0 8 5 8 6 0 11 -5 11 -10 0 -7 6 -7 19 -1 10 6 21 8
24 5 8 -8 57 -12 57 -5 0 4 9 7 20 7 11 0 20 -3 20 -6 0 -3 20 -5 44 -5 24 0
42 3 39 8 -2 4 1 7 6 7 6 0 11 -5 11 -10 0 -7 6 -7 19 -1 10 6 21 8 24 5 8 -8
57 -12 57 -5 0 4 9 7 20 7 11 0 20 -3 20 -6 0 -3 20 -5 44 -5 24 0 42 3 39 8
-2 4 1 7 6 7 6 0 11 -5 11 -10 0 -7 6 -7 19 -1 10 6 21 8 24 4 11 -10 52 -9
60 2 6 7 10 6 13 -1 4 -10 72 -11 99 0 7 2 18 0 26 -4 8 -5 19 -4 26 2 8 6 13
7 13 1 0 -10 70 -9 95 1 7 2 18 0 25 -4 7 -5 24 -4 37 1 12 5 23 5 23 1 0 -4
20 -7 44 -7 24 0 42 3 39 8 -2 4 1 7 6 7 6 0 11 -5 11 -10 0 -7 6 -7 19 -1 10
6 21 8 24 5 8 -8 57 -12 57 -5 0 4 9 7 20 7 11 0 20 -4 20 -7 0 -7 41 -3 68 6
6 2 12 1 12 -3 0 -4 20 -7 44 -7 24 0 42 3 39 8 -2 4 1 7 6 7 6 0 11 -4 11 -8
0 -10 62 -8 78 2 7 4 12 3 12 -3 0 -7 8 -7 25 -1 15 6 25 6 25 0 0 -8 38 -5
68 5 6 2 12 0 12 -5 0 -11 73 -8 82 4 4 6 13 4 22 -3 11 -9 16 -10 16 -2 0 6
5 11 11 11 5 0 7 -6 4 -12 -4 -7 1 -4 9 6 9 11 16 16 16 12 0 -5 8 -2 17 5 11
9 14 10 9 2 -5 -9 -2 -11 8 -7 9 3 13 11 9 18 -4 6 2 4 12 -4 15 -12 17 -12
10 -1 -6 11 -4 13 10 7 11 -4 22 -2 26 5 4 7 17 14 29 16 12 2 28 10 36 18 8
8 22 11 31 8 10 -4 14 -2 10 4 -8 13 20 26 35 17 5 -3 12 3 15 15 3 11 9 19
13 16 8 -5 56 46 52 57 -1 4 5 5 12 2 9 -3 17 3 21 15 3 12 11 21 16 21 5 0 9
7 9 16 0 8 5 12 10 9 6 -3 10 2 10 12 0 10 9 25 20 33 11 8 20 22 20 32 0 9 5
20 10 23 5 3 10 15 10 26 0 11 4 18 9 15 5 -3 12 10 15 29 4 20 11 33 15 31 4
-3 6 6 3 19 -2 14 0 31 5 38 5 6 9 29 9 50 -1 20 2 37 6 37 4 0 5 7 1 16 -3 9
0 20 8 25 12 7 12 9 0 9 -10 0 -11 3 -2 13 6 8 8 17 4 21 -10 9 -13 37 -4 32
10 -6 8 25 -3 42 -4 7 -2 12 6 12 9 0 9 3 -2 10 -11 7 -11 10 -2 10 8 0 10 5
5 13 -11 17 -13 38 -3 32 4 -3 10 2 13 10 4 9 1 12 -7 9 -7 -3 -13 2 -13 11 0
8 5 15 11 15 6 0 4 5 -4 10 -8 5 -10 10 -4 10 6 0 11 7 11 15 0 8 -5 15 -11
15 -6 0 -4 5 4 10 12 7 12 10 1 10 -7 0 -11 6 -8 14 3 7 0 19 -6 26 -9 10 -9
11 3 5 9 -5 7 1 -5 15 -11 13 -15 20 -9 17 8 -5 12 6 12 33 0 22 -3 40 -7 40
-5 0 -8 10 -8 23 -1 52 -3 68 -11 63 -5 -3 -8 11 -7 30 0 24 -3 33 -12 30 -7
-3 -10 1 -6 9 3 8 9 12 14 9 5 -3 6 2 3 10 -3 9 -10 13 -15 10 -5 -3 -9 13 -9
35 0 23 -4 41 -10 41 -5 0 -10 16 -10 35 0 19 -4 35 -10 35 -5 0 -10 14 -10
31 0 17 -4 28 -10 24 -6 -4 -10 5 -10 19 0 14 -4 26 -10 26 -5 0 -10 14 -10
31 0 20 -4 28 -12 23 -8 -5 -9 0 -6 14 4 13 2 20 -4 16 -5 -3 -9 0 -8 7 3 21
-11 59 -21 59 -5 0 -9 9 -9 19 0 11 -4 23 -10 26 -5 3 -10 16 -10 28 0 18 -2
19 -10 7 -7 -11 -10 -7 -10 18 0 17 -4 32 -10 32 -5 0 -10 9 -10 21 0 11 -5
17 -10 14 -9 -6 -14 8 -11 28 0 4 -4 7 -9 7 -6 0 -10 6 -10 14 0 8 -7 17 -16
20 -8 3 -12 10 -9 16 3 5 1 10 -4 10 -6 0 -11 7 -11 16 0 8 -4 12 -10 9 -5 -3
-10 3 -10 15 0 12 -4 18 -10 15 -6 -4 -10 5 -10 20 0 15 -4 24 -10 20 -5 -3
-10 1 -10 10 0 9 -4 13 -10 10 -5 -3 -10 1 -10 9 0 8 -10 22 -22 30 -12 9 -19
16 -14 16 5 0 -3 12 -18 26 -14 15 -26 33 -26 41 0 8 -5 11 -10 8 -9 -6 -14 8
-11 27 0 5 -2 7 -7 7 -20 -3 -32 2 -29 14 1 6 -4 11 -10 10 -7 -2 -13 4 -13
12 0 8 -5 15 -11 15 -5 0 -7 6 -3 13 5 7 0 6 -11 -3 -10 -8 -16 -10 -12 -4 4
6 -4 20 -18 30 -13 10 -22 21 -19 26 3 4 -1 8 -10 8 -8 0 -16 3 -18 8 -1 4
-16 17 -32 30 -16 12 -26 22 -22 22 3 0 -4 10 -16 23 -13 12 -26 22 -30 22 -4
0 -16 8 -28 17 -11 10 -20 15 -20 12 0 -3 -7 1 -15 8 -26 23 -40 33 -55 36 -8
2 -18 8 -21 13 -10 16 -61 41 -54 26 4 -7 0 -4 -8 6 -9 10 -18 18 -21 18 -20
-3 -26 0 -21 8 3 6 -3 8 -14 6 -11 -2 -22 3 -25 11 -3 8 -12 14 -21 14 -8 0
-15 4 -15 8 0 4 -12 9 -27 10 -15 1 -30 7 -33 13 -4 5 -11 9 -16 8 -25 -4 -44
3 -44 17 0 8 -4 13 -8 10 -5 -3 -20 1 -35 9 -15 8 -27 11 -27 7 0 -3 -7 3 -16
14 -13 16 -15 16 -10 2 5 -16 3 -16 -17 -5 -12 6 -25 16 -28 21 -4 5 -12 5
-18 2 -6 -4 -11 -2 -11 5 0 7 -3 9 -7 6 -3 -4 -12 -2 -18 3 -7 6 -25 12 -41
14 -52 8 -76 15 -92 28 -13 11 -14 11 -7 -2 7 -12 6 -13 -6 -3 -19 15 -60 20
-78 9 -11 -7 -13 -5 -8 8 6 14 4 15 -16 5 -19 -11 -20 -10 -10 2 10 13 6 15
-30 14 -23 -1 -50 2 -59 6 -10 6 -18 5 -20 -2 -3 -8 -10 -6 -21 5 -9 10 -17
13 -17 8 0 -5 -7 -9 -15 -9 -8 0 -15 4 -15 8 0 4 -14 6 -30 4 -17 -2 -28 0
-25 4 9 15 -29 7 -43 -9 -10 -11 -12 -12 -6 -1 5 11 3 13 -9 8 -9 -3 -19 -2
-22 3 -3 6 -15 6 -29 0 -13 -5 -26 -6 -29 -4 -9 10 -57 11 -57 3 0 -5 -5 -9
-11 -9 -5 0 -8 4 -5 8 3 5 -1 9 -9 9 -8 0 -12 -4 -9 -9 3 -4 1 -8 -5 -8 -5 0
-12 6 -14 13 -4 9 -6 9 -6 0 -1 -7 -8 -10 -18 -6 -12 5 -14 3 -8 -7 6 -10 4
-11 -6 -4 -21 13 -47 15 -54 4 -3 -5 -15 -6 -28 -1 -14 6 -30 5 -41 -1 -14 -8
-21 -7 -27 3 -5 9 -9 10 -9 2 0 -6 -11 -10 -25 -8 -14 1 -25 -3 -25 -9 0 -6
-8 -2 -17 9 -10 13 -14 14 -10 4 4 -12 -3 -15 -42 -14 -25 1 -57 -5 -70 -13
-13 -8 -21 -10 -17 -4 3 5 -1 13 -10 16 -8 3 -13 2 -10 -3 7 -10 -49 -33 -58
-24 -3 4 -6 2 -6 -3 0 -5 -12 -11 -27 -12 -30 -3 -66 -9 -70 -12 -5 -4 -22 -7
-43 -9 -11 0 -20 -7 -20 -15 0 -9 -7 -13 -20 -11 -11 2 -20 -1 -20 -7 0 -6 -3
-8 -7 -5 -3 4 -17 0 -31 -9 -13 -9 -22 -12 -19 -7 4 5 0 10 -8 10 -8 0 -13 -3
-12 -6 1 -3 -1 -7 -5 -9 -5 -1 -24 -11 -43 -22 -20 -11 -42 -20 -51 -20 -9 0
-12 -5 -8 -12 5 -8 0 -7 -11 2 -10 8 -16 10 -12 4 4 -7 -9 -16 -34 -24 -27 -9
-36 -16 -27 -22 9 -5 6 -8 -9 -8 -13 0 -23 -4 -23 -10 0 -5 -3 -9 -7 -9 -21 3
-33 -2 -27 -13 5 -8 0 -9 -14 -6 -12 4 -20 2 -17 -2 3 -5 -4 -11 -14 -15 -11
-3 -35 -19 -53 -36 -52 -46 -56 -49 -73 -49 -9 0 -13 -4 -10 -10 3 -5 -1 -10
-9 -10 -9 0 -16 -5 -16 -11 0 -5 -13 -15 -30 -20 -16 -6 -32 -19 -35 -30 -4
-10 -11 -19 -17 -19 -6 0 -19 -10 -29 -22 -11 -11 -19 -17 -19 -12 0 5 -6 -2
-13 -16 -8 -14 -19 -24 -25 -23 -7 2 -12 -3 -12 -10 0 -12 -85 -107 -92 -103
-2 2 -11 -6 -20 -16 -10 -10 -16 -18 -12 -18 3 0 -6 -10 -19 -22 -13 -13 -22
-29 -20 -35 3 -7 -2 -13 -11 -13 -18 0 -39 -34 -28 -45 4 -5 1 -5 -5 -1 -8 4
-13 1 -13 -9 0 -9 -4 -13 -10 -10 -6 3 -10 0 -10 -7 0 -8 -9 -20 -19 -28 -11
-7 -18 -17 -16 -21 3 -4 -2 -12 -10 -19 -8 -7 -15 -19 -15 -26 0 -8 -4 -14 -9
-14 -5 0 -11 -9 -14 -20 -8 -31 -9 -33 -34 -60 -13 -14 -23 -33 -23 -43 0 -11
-4 -15 -12 -11 -7 5 -9 2 -5 -9 3 -8 -1 -21 -8 -27 -8 -7 -12 -16 -9 -21 3 -5
-2 -9 -11 -9 -11 0 -15 -5 -12 -15 4 -8 2 -17 -4 -20 -10 -7 -39 -71 -38 -83
3 -20 -2 -25 -11 -12 -7 11 -10 7 -10 -18 0 -20 -4 -31 -10 -27 -5 3 -10 -2
-10 -12 0 -11 -6 -25 -12 -32 -11 -11 -10 -12 1 -6 9 5 8 0 -3 -17 -9 -14 -13
-28 -9 -33 5 -4 2 -5 -4 -1 -13 7 -17 -4 -14 -31 1 -7 -3 -13 -9 -13 -5 0 -10
-6 -10 -14 0 -8 -6 -17 -12 -19 -9 -4 -9 -6 1 -6 11 -1 10 -5 -5 -17 -10 -8
-14 -13 -7 -10 6 4 14 2 18 -4 3 -5 1 -10 -5 -10 -7 0 -10 -7 -7 -14 4 -10 1
-13 -9 -9 -11 4 -14 -1 -10 -21 3 -18 0 -26 -10 -26 -8 0 -13 -3 -13 -7 4 -28
-3 -73 -10 -68 -6 3 -8 -3 -6 -14 2 -10 -3 -31 -10 -45 -8 -15 -10 -24 -5 -21
13 8 13 0 1 -23 -5 -9 -12 -25 -15 -35 -4 -11 -11 -15 -17 -11 -8 4 -9 3 -5
-5 4 -6 11 -9 16 -6 12 7 6 -23 -7 -36 -6 -6 -9 -18 -6 -27 5 -11 3 -13 -7 -7
-10 6 -12 4 -7 -9 5 -12 3 -15 -6 -9 -16 11 -29 11 -49 1 -12 -6 -20 -3 -27 9
-10 17 -10 17 -11 0 0 -20 -19 -19 -38 3 -8 9 -11 10 -7 2 5 -9 1 -13 -11 -11
-11 2 -25 -1 -33 -5 -11 -7 -13 -5 -7 9 5 14 4 16 -7 7 -8 -7 -17 -9 -20 -5
-4 3 -7 2 -7 -4 0 -16 -34 -10 -42 7 -5 12 -7 11 -7 -4 -1 -20 -1 -20 -17 0
-8 10 -12 13 -8 5 5 -11 2 -13 -14 -9 -12 4 -24 2 -27 -3 -3 -4 -16 -4 -29 1
-16 6 -28 5 -36 -3 -10 -10 -12 -8 -6 7 5 15 4 17 -7 8 -10 -9 -17 -8 -26 1
-10 9 -11 9 -6 -3 4 -11 -1 -16 -15 -16 -11 0 -20 7 -20 16 0 13 -1 13 -10 0
-5 -8 -10 -10 -10 -5 0 6 -5 3 -10 -5 -7 -10 -10 -11 -10 -2 0 8 -9 11 -23 8
-20 -3 -23 -1 -19 19 2 12 -1 26 -8 30 -8 5 -8 10 1 21 8 10 8 14 0 14 -6 0
-11 5 -11 11 0 5 6 7 13 3 10 -6 10 -4 0 7 -7 7 -13 21 -13 30 0 10 -6 20 -12
22 -10 4 -9 6 1 6 11 1 11 4 1 16 -9 11 -10 15 -1 15 8 0 7 6 -3 16 -18 18
-22 39 -5 28 6 -4 5 4 -2 17 -8 13 -14 36 -14 51 -1 15 -5 31 -10 35 -4 5 -5
2 -1 -4 4 -7 2 -13 -3 -13 -6 0 -11 18 -11 40 0 22 -4 40 -8 40 -4 0 -9 12
-10 27 -1 15 -6 29 -11 32 -4 3 -7 14 -5 24 1 9 -4 17 -12 17 -8 0 -14 5 -14
11 0 5 5 7 10 4 6 -3 10 -2 10 3 0 6 -6 12 -14 15 -8 3 -13 16 -12 31 2 14 -1
23 -5 20 -9 -5 -11 0 -13 29 -1 6 -5 15 -9 18 -4 3 -9 15 -10 27 0 11 -5 18
-11 15 -5 -3 -7 5 -4 20 4 18 1 24 -9 20 -8 -3 -13 2 -13 13 0 10 -10 29 -22
42 -13 14 -17 22 -10 18 20 -12 14 8 -8 24 -14 10 -16 16 -7 22 8 5 6 8 -6 8
-10 0 -16 4 -12 9 3 6 -3 14 -12 20 -14 8 -15 11 -3 11 12 0 11 3 -2 11 -10 5
-18 17 -18 25 0 8 -4 13 -9 9 -6 -3 -8 4 -6 16 3 15 0 19 -10 15 -11 -4 -15 2
-15 20 0 14 -4 23 -8 20 -5 -3 -15 10 -22 29 -7 19 -18 31 -23 28 -6 -4 -8 0
-4 10 4 12 2 14 -10 10 -10 -4 -14 -2 -10 4 4 6 0 16 -8 23 -8 7 -15 16 -15
21 0 15 -43 59 -52 53 -5 -3 -7 -1 -6 4 2 5 -8 19 -21 31 -13 12 -21 21 -17
21 3 0 -9 15 -28 34 -20 18 -32 36 -29 40 4 3 0 6 -8 6 -16 0 -90 75 -82 84 3
3 -4 4 -15 1 -14 -2 -19 1 -16 10 6 15 -29 38 -41 27 -5 -4 -5 -2 -2 4 4 6 -9
19 -28 30 -18 10 -31 22 -28 28 4 5 -1 7 -10 3 -10 -4 -16 -2 -14 5 1 7 -4 13
-10 14 -7 1 -17 2 -23 3 -5 0 -10 9 -11 19 0 9 -3 12 -6 5 -3 -8 -13 -4 -31
12 -15 14 -35 28 -44 31 -10 3 -18 10 -18 15 0 6 -4 7 -10 4 -5 -3 -10 -1 -10
5 0 6 -4 8 -10 5 -5 -3 -10 1 -10 9 0 9 -5 16 -11 16 -5 0 -7 6 -3 13 5 8 2 8
-9 -2 -12 -9 -17 -10 -17 -2 0 7 -4 10 -9 7 -5 -3 -14 1 -21 10 -11 12 -15 12
-21 2 -6 -10 -9 -8 -9 6 0 11 -5 16 -14 13 -8 -3 -17 1 -20 9 -3 8 -14 14 -24
14 -11 0 -30 8 -43 18 -38 27 -67 42 -84 42 -10 0 -13 5 -9 12 5 7 0 9 -14 6
-12 -3 -22 -2 -24 2 -2 5 -12 10 -23 12 -11 1 -26 9 -33 16 -8 7 -18 10 -23 6
-6 -3 -16 0 -24 6 -8 7 -15 9 -15 4 0 -5 -4 -3 -9 5 -5 7 -20 14 -35 14 -16 0
-23 4 -19 11 4 6 -2 4 -12 -4 -10 -8 -16 -10 -12 -4 7 12 -30 23 -90 27 -19 1
-33 7 -33 15 0 6 -5 12 -11 12 -5 0 -7 -6 -3 -12 6 -9 3 -9 -9 0 -9 8 -33 15
-52 17 -20 2 -42 8 -49 14 -9 7 -16 7 -23 0 -8 -8 -15 -6 -24 4 -12 12 -15 12
-27 -2 -12 -14 -13 -14 -9 -1 3 10 -2 16 -14 16 -11 0 -19 -3 -19 -7 0 -3 -15
-5 -34 -2 -19 2 -38 -1 -41 -7 -5 -8 -11 -8 -20 0 -23 19 -84 20 -95 2 -5 -10
-10 -12 -10 -7 0 11 -50 14 -50 3 0 -8 -27 -4 -36 5 -4 3 -15 2 -25 -4 -14 -7
-19 -6 -19 2 0 8 -4 9 -13 0 -10 -8 -17 -7 -25 1 -9 9 -12 9 -12 -1 0 -10 -3
-11 -14 -2 -10 8 -16 9 -21 1 -3 -6 -10 -8 -15 -5 -5 3 -11 2 -14 -3 -2 -4
-30 -8 -60 -7 -31 0 -56 -4 -56 -9 0 -4 -12 -5 -27 -2 -21 5 -24 4 -13 -4 12
-8 9 -10 -15 -11 -16 -1 -33 -1 -37 0 -5 0 -8 -3 -8 -9 0 -5 -21 -10 -46 -10
-33 0 -43 -3 -38 -12 5 -8 0 -7 -11 2 -11 9 -16 10 -11 3 5 -9 0 -13 -14 -13
-12 0 -18 -4 -15 -10 7 -12 -39 -24 -60 -16 -9 3 -14 2 -11 -3 7 -11 -41 -24
-55 -16 -5 4 -8 1 -7 -7 2 -8 -7 -13 -24 -12 -15 0 -25 -3 -22 -7 2 -4 -5 -9
-16 -12 -11 -3 -20 -1 -20 5 0 5 -5 6 -10 3 -6 -4 -7 -11 -4 -17 4 -6 2 -8 -4
-4 -6 3 -13 2 -17 -4 -4 -6 -10 -8 -15 -5 -4 3 -13 -2 -20 -10 -6 -7 -19 -11
-27 -8 -11 4 -14 2 -9 -5 5 -8 -2 -12 -19 -12 -15 0 -24 -4 -20 -10 6 -9 2
-12 -27 -14 -7 -1 -21 -10 -31 -21 -10 -11 -16 -15 -13 -9 3 6 -1 11 -9 11 -8
0 -13 -5 -12 -10 1 -5 -5 -11 -14 -12 -10 -2 -27 -13 -38 -24 -12 -12 -26 -19
-31 -16 -6 4 -10 1 -10 -4 0 -6 -9 -11 -21 -11 -11 0 -17 -4 -14 -10 3 -5 -3
-10 -15 -10 -12 0 -18 -4 -15 -10 3 -5 -2 -10 -13 -10 -10 0 -27 -9 -37 -20
-10 -11 -27 -20 -37 -20 -11 0 -16 -4 -13 -10 3 -5 -1 -10 -10 -10 -9 0 -13
-4 -10 -10 3 -5 0 -10 -7 -10 -14 0 -48 -23 -117 -78 -19 -15 -35 -25 -35 -22
-1 3 -9 -2 -18 -10 -9 -8 -14 -18 -12 -22 2 -3 -9 -12 -26 -20 -17 -7 -33 -21
-36 -30 -3 -10 -12 -18 -20 -18 -8 0 -14 -7 -14 -16 0 -8 -5 -12 -10 -9 -6 3
-13 -1 -16 -9 -3 -9 -10 -13 -15 -10 -5 3 -9 1 -9 -4 0 -14 -56 -72 -69 -72
-7 0 -9 -5 -6 -10 3 -6 -1 -13 -9 -16 -9 -3 -13 -11 -9 -17 4 -6 0 -8 -11 -4
-10 4 -15 3 -11 -3 3 -6 1 -10 -5 -10 -6 0 -8 -4 -5 -10 3 -5 1 -10 -4 -10 -6
0 -10 -6 -9 -12 2 -7 -3 -12 -9 -10 -7 1 -13 -2 -13 -6 0 -13 -41 -57 -50 -55
-4 1 -6 -7 -3 -17 4 -14 0 -20 -11 -20 -10 0 -13 -5 -9 -17 5 -12 2 -15 -9
-10 -12 4 -14 1 -11 -14 3 -10 0 -19 -6 -19 -11 0 -57 -88 -53 -102 1 -5 -2
-8 -8 -8 -12 0 -42 -69 -35 -80 3 -4 -2 -11 -11 -14 -10 -4 -13 -13 -9 -26 4
-13 2 -20 -6 -20 -7 0 -9 -3 -6 -7 4 -3 1 -13 -6 -21 -10 -13 -9 -14 1 -8 10
6 10 2 1 -18 -7 -14 -15 -24 -18 -21 -4 2 -7 -17 -8 -41 -1 -25 -7 -52 -14
-60 -10 -13 -10 -17 2 -25 11 -7 11 -9 0 -9 -10 0 -11 -3 -2 -13 8 -10 7 -17
-1 -25 -9 -9 -9 -12 1 -12 11 0 11 -3 1 -15 -10 -12 -10 -15 1 -15 11 0 11 -2
-1 -10 -13 -9 -13 -11 0 -20 12 -8 12 -10 1 -10 -9 0 -10 -4 -5 -12 11 -16 11
-39 1 -55 -5 -8 -3 -13 5 -13 9 0 9 -3 -2 -10 -13 -9 -13 -11 0 -20 12 -8 12
-10 1 -10 -11 0 -11 -3 -1 -15 7 -8 8 -15 3 -15 -11 0 -11 -29 0 -47 4 -6 3
-15 -3 -18 -8 -5 -7 -11 1 -21 9 -11 8 -14 -2 -14 -11 0 -11 -2 1 -10 12 -8
12 -10 1 -10 -11 0 -11 -3 0 -17 10 -11 10 -14 2 -9 -7 4 -13 3 -13 -3 0 -5 5
-13 10 -16 8 -5 8 -11 0 -20 -8 -10 -7 -14 2 -18 10 -4 10 -6 -1 -6 -11 -1
-11 -4 -1 -16 10 -12 10 -15 0 -15 -9 0 -9 -4 1 -17 10 -11 10 -14 2 -9 -7 4
-13 3 -13 -3 0 -5 5 -13 10 -16 8 -5 8 -11 0 -20 -7 -8 -7 -15 -1 -19 10 -7 9
-25 -2 -43 -5 -8 -3 -13 4 -13 8 0 8 -4 -1 -15 -10 -12 -10 -15 1 -15 11 0 11
-2 -1 -10 -13 -9 -13 -11 0 -20 12 -8 12 -10 1 -10 -11 0 -11 -3 -1 -15 10
-12 10 -15 0 -15 -9 0 -9 -4 1 -17 10 -11 10 -14 2 -9 -7 4 -13 3 -13 -3 0 -5
5 -13 10 -16 8 -5 8 -11 1 -19 -6 -7 -8 -16 -4 -20 10 -10 11 -66 1 -60 -4 3
-8 1 -8 -5 0 -5 5 -13 10 -16 8 -5 8 -11 1 -19 -7 -9 -7 -17 2 -26 10 -10 9
-11 -3 -5 -13 8 -13 7 -1 -8 10 -13 10 -17 1 -17 -9 0 -9 -4 1 -17 10 -11 10
-14 2 -9 -7 4 -13 3 -13 -3 0 -5 5 -13 10 -16 7 -4 7 -12 0 -25 -12 -23 -13
-33 -2 -26 10 6 9 -45 -2 -62 -4 -7 -2 -12 6 -12 9 0 9 -3 -2 -10 -13 -9 -13
-11 0 -20 12 -8 12 -10 1 -10 -11 0 -11 -3 -1 -15 10 -12 10 -15 0 -15 -9 0
-9 -4 1 -17 10 -11 10 -14 2 -9 -7 4 -13 3 -13 -3 0 -5 5 -13 10 -16 7 -4 7
-13 0 -26 -8 -14 -7 -19 2 -19 10 0 10 -2 -1 -9 -11 -7 -11 -9 0 -14 12 -5 12
-6 0 -6 -11 -1 -11 -4 0 -18 10 -11 10 -14 2 -9 -7 4 -13 3 -13 -3 0 -5 5 -13
10 -16 8 -5 8 -11 1 -19 -7 -9 -7 -16 1 -24 9 -9 9 -12 -3 -12 -12 0 -12 -2 1
-10 12 -8 12 -10 1 -10 -11 0 -11 -3 0 -17 10 -11 10 -14 2 -9 -7 4 -13 3 -13
-3 0 -5 5 -13 10 -16 8 -5 7 -11 -1 -21 -9 -11 -9 -14 1 -14 10 0 10 -3 0 -15
-10 -12 -10 -15 1 -15 12 0 12 -2 0 -9 -9 -6 -10 -10 -2 -16 9 -5 9 -10 0 -21
-9 -11 -8 -14 2 -14 11 0 11 -2 -1 -10 -13 -9 -13 -11 0 -20 12 -8 12 -10 1
-10 -11 0 -11 -3 -1 -15 10 -12 10 -15 0 -15 -9 0 -9 -4 1 -17 10 -11 10 -14
2 -9 -7 4 -13 3 -13 -3 0 -5 5 -13 10 -16 8 -5 8 -11 1 -19 -6 -7 -8 -16 -4
-20 10 -10 11 -66 1 -60 -4 3 -8 1 -8 -5 0 -5 5 -13 10 -16 8 -5 8 -11 0 -20
-8 -10 -7 -14 2 -18 10 -4 10 -6 -1 -6 -11 -1 -11 -4 -1 -16 10 -12 10 -15 0
-15 -9 0 -9 -4 1 -17 10 -11 10 -14 2 -9 -7 4 -13 3 -13 -3 0 -5 5 -13 10 -16
8 -5 8 -11 1 -19 -6 -7 -8 -16 -4 -20 11 -11 12 -37 1 -30 -6 4 -6 -1 1 -13 7
-14 7 -23 -1 -31 -9 -9 -8 -12 3 -12 12 0 12 -2 -1 -10 -13 -9 -13 -11 0 -20
9 -5 10 -10 3 -10 -13 0 -12 -18 1 -39 7 -11 6 -12 -5 -6 -12 8 -12 6 0 -8 10
-13 10 -17 1 -17 -9 0 -9 -4 1 -17 10 -11 10 -14 2 -9 -8 4 -13 2 -13 -8 0 -8
-5 -18 -12 -22 -7 -5 -9 -2 -6 7 4 10 -1 15 -12 15 -10 0 -16 -4 -14 -8 3 -4
1 -8 -5 -8 -5 0 -12 4 -15 8 -6 10 -74 8 -84 -3 -4 -5 -2 -5 5 -1 6 3 14 2 17
-3 4 -5 -2 -8 -11 -6 -10 2 -22 4 -26 4 -5 1 -5 6 -1 12 5 8 1 8 -13 0 -11 -6
-23 -7 -27 -4 -12 12 -44 10 -39 -3 3 -9 -2 -11 -17 -7 -15 4 -18 8 -9 13 7 5
2 7 -14 7 -21 -2 -23 -5 -14 -17 9 -11 5 -10 -15 3 -16 10 -29 13 -33 7 -3 -6
-11 -10 -16 -10 -6 0 -8 4 -5 8 7 11 -31 8 -41 -3 -5 -4 -1 -5 7 0 8 5 12 4 7
0 -9 -11 -47 -14 -47 -4 0 4 6 10 13 12 6 3 1 4 -13 3 -14 -1 -35 -8 -47 -14
-27 -15 -33 -15 -33 -1 0 5 4 8 9 4 5 -3 12 -2 15 3 2 4 -8 8 -24 7 -15 0 -26
-3 -23 -7 2 -5 0 -8 -6 -8 -5 0 -12 4 -15 8 -5 9 -53 8 -63 -1 -11 -11 -25 -8
-17 4 3 6 -8 3 -25 -5 -17 -9 -31 -12 -31 -7 0 5 6 12 13 15 6 2 2 4 -10 2
-12 -1 -26 -6 -30 -11 -5 -4 -1 -5 7 0 8 5 12 4 7 0 -9 -11 -47 -14 -47 -4 0
4 6 9 13 12 6 2 0 4 -15 3 -14 0 -24 -4 -21 -8 2 -5 0 -8 -6 -8 -5 0 -12 4
-15 8 -6 10 -54 8 -63 -3 -5 -4 -1 -5 7 0 8 5 12 4 7 0 -4 -5 -16 -9 -27 -10
-16 -1 -18 1 -7 14 9 12 5 11 -17 -3 -16 -10 -26 -14 -22 -8 10 16 -18 21 -39
6 -10 -8 -23 -14 -29 -14 -5 0 -2 6 7 13 15 10 13 12 -18 12 -27 1 -34 -3 -30
-14 5 -12 3 -12 -11 0 -18 15 -53 19 -60 7 -3 -4 -10 -8 -15 -8 -6 0 -8 4 -5
8 2 4 -4 8 -15 8 -12 0 -18 -5 -15 -13 4 -9 -2 -9 -18 3 -18 11 -26 12 -32 3
-4 -7 -3 -9 4 -5 6 3 13 2 16 -3 4 -5 -2 -8 -11 -6 -10 2 -25 4 -33 4 -13 1
-13 3 -1 10 10 7 7 9 -12 8 -17 -1 -22 -6 -16 -13 10 -13 -26 -12 -38 1 -5 4
-2 5 6 0 10 -6 12 -4 6 4 -5 9 -10 10 -18 2 -13 -13 -31 -15 -23 -3 2 4 -4 8
-14 8 -10 0 -18 -3 -18 -6 2 -20 -4 -21 -18 -4 -8 10 -13 13 -9 7 7 -14 -7
-18 -19 -6 -9 9 -46 11 -41 2 3 -4 -2 -10 -11 -13 -21 -8 -24 -8 -24 5 0 5 6
7 13 3 6 -4 9 -3 4 1 -9 11 -48 14 -42 4 3 -4 -2 -9 -10 -13 -8 -3 -17 0 -21
6 -5 7 -2 8 6 3 8 -5 11 -4 7 1 -6 11 -53 11 -64 1 -11 -11 -25 -8 -17 4 3 6
-8 3 -25 -5 -17 -9 -31 -12 -31 -6 0 5 5 10 12 10 6 0 9 2 7 5 -8 7 -49 -7
-44 -15 3 -5 -4 -6 -16 -3 -14 4 -17 8 -8 13 7 5 2 7 -14 7 -17 -1 -22 -6 -16
-13 6 -7 2 -10 -12 -9 -11 1 -25 8 -30 16 -6 10 -9 10 -9 2 0 -7 -5 -13 -11
-13 -6 0 -7 6 -2 13 4 6 -6 4 -21 -7 -22 -14 -28 -15 -24 -4 4 8 0 15 -8 15
-7 0 -11 -4 -9 -8 3 -4 -2 -9 -10 -13 -8 -3 -17 0 -21 6 -5 7 -2 8 7 3 8 -5
11 -4 6 0 -9 11 -48 14 -42 4 3 -4 -2 -10 -10 -13 -9 -3 -18 0 -21 8 -3 7 -11
13 -19 13 -10 0 -12 -4 -5 -12 6 -7 3 -11 -10 -11 -10 0 -17 3 -14 7 2 4 -3
10 -12 13 -8 3 -12 2 -9 -4 3 -6 -1 -10 -10 -10 -9 0 -14 4 -11 8 7 11 -31 8
-41 -3 -5 -4 -2 -5 6 0 8 5 12 4 8 -1 -7 -12 -56 -11 -65 2 -9 12 -35 17 -28
5 3 -5 -1 -11 -9 -15 -8 -3 -17 0 -21 6 -5 7 -2 8 7 3 8 -5 11 -4 6 0 -4 5
-16 9 -27 10 -16 1 -18 -1 -7 -14 10 -13 7 -13 -15 2 -16 10 -29 13 -33 7 -3
-6 -11 -10 -16 -10 -6 0 -8 4 -5 8 7 11 -31 8 -41 -3 -5 -4 -2 -5 6 0 8 5 12
4 8 -1 -7 -12 -56 -11 -65 2 -9 12 -35 17 -28 5 3 -5 -1 -12 -10 -15 -21 -8
-24 -8 -24 5 0 5 6 7 13 3 6 -4 9 -3 4 1 -9 11 -48 14 -42 4 3 -4 -2 -10 -11
-13 -8 -3 -13 -2 -10 3 3 5 -1 12 -10 15 -8 3 -12 2 -9 -4 7 -11 -8 -14 -19
-3 -9 9 -46 11 -41 2 3 -4 -2 -10 -11 -13 -21 -8 -24 -8 -24 5 0 5 6 7 13 3 6
-4 9 -3 4 1 -9 11 -48 14 -42 4 3 -4 -2 -9 -10 -13 -8 -3 -17 0 -21 6 -5 7 -2
8 6 3 8 -5 11 -4 7 1 -6 11 -53 11 -64 1 -11 -12 -25 -8 -17 5 5 7 3 8 -5 3
-16 -9 -70 -13 -68 -4 1 4 -2 7 -6 8 -4 0 -15 7 -23 16 -9 8 -20 13 -25 10 -5
-4 -9 -1 -9 5 0 6 -4 9 -9 6 -5 -3 -14 1 -21 9 -7 8 -16 12 -21 9 -5 -3 -20 6
-34 20 -26 26 -41 34 -30 16 12 -20 -5 -9 -39 24 -20 18 -37 31 -40 28 -3 -3
-8 3 -12 12 -3 9 -13 16 -21 16 -8 0 -11 4 -8 10 3 6 -1 7 -9 4 -9 -4 -16 -1
-16 6 0 15 -50 60 -67 60 -11 0 -18 20 -14 43 0 4 -4 6 -11 5 -6 -2 -17 8 -24
20 -7 15 -13 19 -16 11 -2 -7 -12 4 -22 24 -9 20 -21 37 -26 37 -6 0 -10 5
-10 10 0 6 -12 23 -27 37 -16 14 -21 22 -13 17 11 -6 10 -4 -2 7 -9 9 -14 19
-11 23 4 3 1 6 -5 6 -7 0 -11 3 -11 8 3 17 -2 35 -8 29 -9 -10 -32 25 -33 51
0 15 -4 21 -11 16 -8 -5 -10 1 -7 19 3 15 2 24 -3 22 -4 -3 -10 4 -14 15 -3
11 -12 20 -18 20 -7 0 -6 4 3 10 10 6 11 10 3 10 -7 0 -13 7 -13 16 0 8 -5 12
-11 8 -8 -4 -9 0 -4 15 3 12 2 21 -4 21 -5 0 -8 9 -6 20 2 11 0 20 -6 20 -5 0
-8 3 -8 8 3 17 -2 33 -8 29 -5 -3 -9 9 -10 26 -1 17 -7 34 -14 37 -6 4 -10 10
-10 14 5 34 -1 56 -11 50 -9 -5 -9 -2 1 9 7 9 9 17 4 17 -5 0 -9 13 -8 30 1
16 -2 27 -6 25 -4 -3 -9 2 -13 10 -3 8 -1 15 4 15 6 0 6 9 1 23 -5 12 -8 33
-7 47 1 14 -4 33 -12 43 -11 12 -12 17 -3 17 7 0 9 5 4 13 -14 22 -14 49 -1
41 10 -6 10 -5 1 7 -13 17 -22 139 -9 139 5 0 3 7 -4 15 -10 12 -10 15 1 16 8
0 5 4 -6 9 -18 8 -18 9 -2 9 12 1 16 5 10 14 -4 6 -6 20 -5 29 2 10 -2 26 -8
38 -8 15 -8 20 2 20 8 0 9 3 3 8 -12 8 -14 47 -3 58 4 4 3 13 -3 20 -7 8 -7
14 1 19 8 5 8 11 -1 21 -9 11 -8 18 2 31 12 14 12 16 0 8 -11 -6 -13 -4 -8 8
4 10 1 17 -6 17 -8 0 -6 4 3 10 10 6 11 10 3 10 -7 0 -13 6 -13 14 0 8 6 17
13 19 10 4 10 6 0 6 -7 1 -13 7 -13 15 0 8 6 17 13 19 6 3 7 6 2 6 -6 1 -9 25
-8 57 2 34 -2 63 -9 72 -9 11 -10 14 -1 9 16 -10 16 92 0 112 -9 12 -9 13 1 7
9 -6 12 1 10 26 -1 19 2 39 6 46 4 7 1 12 -9 12 -15 0 -15 2 1 17 15 16 15 17
-2 24 -18 7 -18 8 1 8 15 1 17 3 6 10 -11 7 -11 9 0 14 9 4 7 6 -6 7 l-20 1
20 9 c11 5 14 9 8 9 -16 1 -17 31 -1 31 6 0 3 7 -8 16 -10 8 -14 13 -7 10 16
-8 16 93 0 113 -9 11 -9 13 0 8 14 -9 16 152 1 170 -6 8 -3 15 9 22 17 10 17
10 -2 11 l-20 1 20 9 c13 6 15 9 5 9 -13 1 -13 2 0 11 12 8 12 10 -5 11 l-20
0 20 9 c13 6 15 9 5 9 -13 1 -13 2 0 11 12 8 12 10 -5 11 l-20 0 20 9 c13 6
15 9 5 9 -13 1 -13 2 0 11 12 8 12 10 -5 11 l-20 0 20 9 c11 5 16 9 10 9 -6 1
-9 46 -8 118 1 78 -2 122 -10 132 -9 12 -9 13 1 7 9 -6 12 1 10 26 -1 19 2 40
7 47 5 10 4 12 -3 7 -7 -4 -12 -2 -12 3 0 6 6 11 13 11 8 0 7 4 -3 10 -13 9
-13 10 0 11 10 0 8 3 -5 9 l-20 9 20 0 c17 1 17 3 5 11 -13 9 -13 10 0 11 10
0 8 3 -5 9 l-20 9 20 0 c17 1 17 3 5 11 -13 9 -13 10 0 11 10 0 8 3 -5 9 -19
8 -19 9 -1 9 20 1 20 1 0 17 -10 8 -14 13 -7 10 16 -8 16 93 0 113 -9 11 -9
13 0 8 16 -10 16 92 0 112 -9 12 -9 13 1 7 9 -6 12 1 10 26 -1 19 2 40 7 47 5
10 4 12 -3 7 -7 -4 -12 -3 -12 3 0 5 6 12 13 14 9 4 9 6 0 6 -7 1 -13 8 -13
16 0 8 6 15 13 15 9 0 9 2 -1 9 -8 4 -14 12 -14 16 0 4 6 12 14 16 10 7 10 9
0 9 -10 0 -10 5 -1 21 9 17 8 20 -2 14 -9 -6 -11 -4 -6 7 4 12 -1 15 -24 14
-16 -1 -31 3 -33 8 -2 6 -5 5 -5 -3 -1 -10 -7 -10 -27 4 -15 9 -24 13 -20 7 3
-5 -3 -12 -14 -15 -11 -3 -20 0 -20 6 0 8 -3 8 -8 2 -8 -12 -43 -12 -62 0 -10
6 -12 3 -6 -10 7 -18 6 -18 -14 0 -12 11 -20 13 -20 6 0 -7 -5 -9 -12 -5 -17
11 -48 13 -48 3 0 -4 -7 -10 -16 -13 -14 -5 -15 -4 -4 9 11 14 10 14 -12 6
-15 -5 -30 -5 -41 0 -11 7 -17 6 -17 -1 0 -5 -5 -10 -11 -10 -5 0 -8 3 -6 8 3
4 -12 7 -34 7 -21 0 -39 -4 -39 -10 0 -5 -5 -3 -10 5 -5 8 -10 10 -10 4 0 -12
-41 -11 -59 1 -6 3 -11 -1 -11 -10 0 -9 -5 -13 -10 -10 -6 4 -8 11 -5 16 4 5
1 9 -4 9 -6 0 -11 -6 -11 -12 0 -9 -4 -8 -10 2 -5 8 -10 10 -10 4 0 -12 -41
-11 -61 2 -9 5 -10 2 -5 -11 7 -18 6 -18 -14 0 -14 13 -20 14 -20 5 0 -11 -3
-11 -11 -3 -7 7 -20 8 -34 3 -14 -5 -27 -4 -34 3 -8 8 -11 6 -11 -7 0 -9 -5
-14 -10 -11 -6 4 -8 10 -6 14 3 3 -4 7 -15 7 -10 0 -19 -3 -19 -7 0 -8 -45 -3
-61 7 -9 5 -10 2 -5 -11 7 -18 6 -18 -14 0 -13 12 -20 14 -20 5 0 -9 -4 -10
-13 -2 -8 7 -18 7 -27 2 -8 -5 -21 -5 -32 1 -14 7 -18 6 -18 -6 0 -9 -5 -13
-10 -10 -6 4 -7 12 -3 18 4 7 -2 5 -12 -3 -11 -9 -16 -10 -11 -2 4 6 2 12 -3
12 -6 0 -11 -4 -11 -9 0 -10 -43 -7 -61 5 -9 5 -10 2 -5 -11 7 -18 6 -18 -14
0 -15 14 -20 15 -20 4 0 -11 -2 -11 -10 1 -5 8 -10 10 -10 4 0 -12 -41 -11
-61 2 -9 5 -10 2 -6 -9 4 -11 2 -14 -8 -10 -8 3 -12 9 -9 14 3 5 0 9 -5 9 -6
0 -11 -6 -11 -12 0 -9 -4 -8 -10 2 -6 9 -10 11 -10 3 0 -7 -7 -10 -15 -7 -8 4
-15 1 -15 -6 0 -7 -7 -4 -17 6 -11 11 -18 13 -21 5 -3 -8 -9 -8 -24 0 -16 8
-19 8 -13 -1 6 -9 2 -9 -14 -1 -18 10 -21 9 -22 -6 0 -16 -1 -16 -9 2 -5 11
-9 15 -9 9 -1 -12 -42 -11 -60 1 -6 3 -11 1 -11 -6 0 -10 -3 -10 -12 -1 -9 9
-14 7 -23 -5 -10 -13 -14 -13 -20 -3 -6 9 -4 11 5 5 9 -5 11 -4 6 3 -4 7 -15
8 -30 2 -15 -5 -27 -5 -35 3 -8 8 -11 8 -11 -1 0 -7 -5 -12 -11 -12 -5 0 -8 4
-5 8 2 4 -4 8 -15 8 -10 0 -19 -3 -19 -7 0 -8 -45 -4 -59 6 -6 3 -11 1 -11 -4
0 -6 -5 -11 -11 -11 -5 0 -8 4 -5 9 6 8 -13 8 -87 -3 -21 -3 -36 -2 -33 3 5 8
-63 5 -72 -4 -3 -2 -11 0 -19 6 -9 9 -13 8 -13 0 0 -6 -5 -11 -11 -11 -5 0 -8
3 -6 8 3 4 -12 7 -34 7 -21 0 -39 -3 -39 -7 0 -5 -5 -8 -11 -8 -5 0 -7 4 -4
10 7 12 -23 2 -44 -14 -11 -8 -13 -8 -8 1 4 6 3 14 -3 18 -5 3 -10 2 -10 -3 0
-10 -42 -8 -59 3 -6 3 -11 1 -11 -5 0 -7 -6 -8 -17 -2 -10 5 -27 8 -38 6 -56
-10 -85 -12 -81 -6 2 4 -4 8 -15 8 -10 0 -19 -3 -19 -7 0 -8 -45 -4 -59 6 -6
3 -11 1 -11 -4 0 -6 -5 -11 -11 -11 -5 0 -8 4 -5 8 2 4 -13 8 -35 7 -21 0 -39
-3 -39 -7 0 -5 -5 -8 -11 -8 -5 0 -7 4 -4 10 4 6 -2 7 -18 1 -16 -6 -28 -6
-36 2 -7 7 -11 7 -11 0 0 -11 -41 -10 -61 3 -9 5 -10 2 -6 -9 4 -11 2 -14 -8
-10 -8 3 -13 9 -10 13 3 4 -12 6 -33 3 -20 -3 -45 -5 -54 -4 -10 0 -18 -5 -18
-10 0 -6 -5 -7 -10 -4 -6 4 -8 10 -6 14 5 8 -53 6 -61 -3 -3 -3 -15 0 -26 6
-17 8 -19 8 -14 -5 4 -11 2 -14 -8 -10 -8 3 -13 9 -10 13 5 7 -15 7 -88 -4
-21 -3 -36 -2 -33 2 5 9 -52 7 -61 -2 -3 -3 -14 -1 -24 5 -13 6 -19 6 -19 -1
0 -5 -5 -10 -11 -10 -5 0 -7 5 -4 10 3 6 2 10 -2 10 -5 0 -8 178 -8 396 0 218
-3 398 -8 401 -4 2 -4 10 0 16 11 17 10 538 -1 544 -14 9 -177 9 -183 1 -2 -5
-9 -6 -14 -2 -6 3 -64 6 -130 6 -87 0 -117 3 -112 11 4 8 1 7 -9 -1 -15 -12
-51 -12 -64 1 -4 4 -12 7 -18 7 -6 0 -4 -5 4 -10 11 -7 4 -10 -27 -10 -28 0
-43 4 -43 13 0 7 -3 8 -8 2 -8 -12 -87 -14 -98 -2 -4 4 -12 7 -18 7 -6 0 -4
-4 4 -10 10 -6 1 -9 -30 -8 -25 0 -51 5 -59 12 -12 8 -13 8 -7 -1 5 -10 -4
-13 -38 -13 -26 0 -46 5 -49 13 -4 10 -6 10 -6 0 -1 -7 -6 -13 -12 -13 -5 0
-7 6 -4 13 4 6 1 5 -7 -4 -14 -16 -38 -14 -50 5 -5 8 -8 7 -8 -1 0 -9 -16 -13
-44 -13 -26 0 -46 5 -49 13 -3 7 -6 7 -6 1z m2049 -1390 c0 -8 -19 -13 -24 -6
-3 5 1 9 9 9 8 0 15 -2 15 -3z m480 0 c0 -8 -19 -13 -24 -6 -3 5 1 9 9 9 8 0
15 -2 15 -3z m-3045 -983 c3 -5 1 -12 -5 -16 -5 -3 -10 1 -10 9 0 18 6 21 15
7z m1920 0 c3 -5 1 -12 -5 -16 -5 -3 -10 1 -10 9 0 18 6 21 15 7z m640 0 c3
-5 1 -12 -5 -16 -5 -3 -10 1 -10 9 0 18 6 21 15 7z m640 0 c3 -5 1 -12 -5 -16
-5 -3 -10 1 -10 9 0 18 6 21 15 7z m12439 -91 c6 -6 15 -5 25 3 12 10 13 9 6
-2 -6 -11 -4 -13 8 -8 10 4 20 0 26 -11 8 -14 10 -14 11 -2 0 13 1 13 10 0 5
-8 16 -15 24 -15 9 0 23 -9 31 -20 9 -11 13 -14 10 -7 -6 11 -3 11 14 0 12 -7
21 -19 21 -27 0 -8 3 -12 6 -8 3 3 14 -2 25 -11 11 -9 25 -17 32 -17 7 -1 11
-6 10 -13 -2 -7 4 -12 12 -12 8 0 15 -7 15 -17 0 -9 3 -14 6 -10 8 8 34 -18
34 -33 0 -6 5 -8 10 -5 6 3 10 1 10 -5 0 -16 26 -40 35 -32 4 4 6 3 5 -3 -5
-22 1 -35 14 -35 8 0 18 -5 22 -12 4 -7 3 -8 -4 -4 -16 10 -15 -2 2 -19 7 -8
16 -11 20 -8 3 4 6 -4 6 -16 0 -13 4 -19 10 -16 6 4 10 3 9 -2 -4 -22 2 -43
11 -38 6 3 10 -1 10 -9 0 -9 5 -16 10 -16 6 0 10 -12 10 -26 0 -14 4 -23 9
-19 6 3 15 -4 21 -16 10 -17 9 -20 -2 -14 -7 3 -6 1 3 -7 9 -7 14 -19 11 -27
-3 -8 0 -11 7 -7 7 5 11 -3 11 -23 0 -17 5 -31 10 -31 6 0 10 -9 10 -21 0 -11
5 -17 10 -14 14 9 12 -8 -2 -24 -10 -11 -10 -13 0 -7 8 5 12 0 12 -14 0 -13 4
-19 11 -14 7 4 7 -1 -1 -16 -7 -12 -8 -20 -2 -16 5 3 9 -20 9 -59 0 -36 -3
-63 -5 -60 -3 3 -11 -3 -17 -13 -12 -16 -38 -17 -326 -16 -173 1 -316 3 -319
4 -3 1 -16 1 -29 0 -13 -1 -21 2 -18 7 3 5 -10 9 -29 9 -23 0 -33 -4 -30 -13
3 -7 -1 -10 -9 -6 -8 3 -13 8 -11 12 2 3 -17 6 -44 6 -37 0 -46 -3 -42 -14 4
-10 -1 -9 -21 3 -16 11 -27 13 -32 7 -3 -6 -11 -11 -16 -11 -6 0 -8 4 -5 8 2
4 -11 8 -30 8 -26 0 -33 -4 -29 -15 5 -12 3 -12 -11 0 -24 20 -44 20 -36 1 5
-14 3 -15 -9 -5 -8 6 -27 14 -43 17 -22 4 -27 2 -22 -11 6 -14 4 -14 -10 -2
-24 20 -44 20 -36 1 5 -14 3 -15 -9 -5 -8 6 -27 14 -43 17 -21 4 -26 2 -22 -9
3 -9 0 -12 -9 -8 -8 3 -13 8 -11 12 3 4 -4 7 -14 7 -10 0 -16 -6 -13 -13 4 -9
-1 -9 -21 0 -14 7 -26 18 -27 25 -1 6 -2 18 -3 25 -1 6 3 18 8 26 9 12 8 13
-4 6 -13 -8 -13 -7 -1 8 7 9 9 17 4 17 -5 0 -10 7 -10 15 0 8 4 12 9 9 4 -3 8
-1 8 5 0 5 -5 13 -10 16 -8 5 -7 11 1 21 6 8 9 23 6 34 -3 11 -1 20 4 20 11 0
27 58 24 87 -1 12 2 20 7 17 5 -4 8 2 7 12 -2 11 2 28 8 39 11 21 13 26 13 48
0 7 10 24 23 37 12 14 22 27 22 30 0 3 3 4 7 3 4 -2 5 4 2 12 -4 8 -1 15 5 15
6 0 11 7 11 15 0 9 11 27 25 41 14 14 25 29 25 35 0 6 5 7 10 4 6 -3 10 0 10
8 0 16 34 50 42 41 4 -3 9 4 13 15 3 12 10 21 14 21 5 0 19 10 33 23 51 45 68
57 81 54 6 -1 11 6 11 15 -1 10 1 17 5 16 25 -3 51 4 46 12 -4 6 5 10 20 10
15 0 24 4 20 10 -6 10 15 14 44 11 7 -2 10 2 7 8 -12 19 159 20 178 1z m-4974
-39 c7 10 12 10 23 0 9 -6 18 -8 21 -3 2 4 29 7 58 5 74 -5 78 -5 78 -14 0 -4
11 -6 25 -4 14 1 28 -2 32 -8 4 -6 1 -7 -7 -2 -9 5 -11 4 -6 -4 4 -6 12 -9 17
-5 10 6 79 -35 79 -47 0 -4 13 -12 29 -19 19 -7 28 -17 24 -26 -3 -8 0 -14 7
-14 15 0 47 -35 55 -61 4 -11 10 -17 14 -14 8 4 23 -21 35 -58 3 -10 11 -15
16 -12 6 4 9 3 8 -2 -1 -4 4 -19 11 -32 11 -19 11 -22 -1 -16 -7 3 -4 -1 6 -9
11 -9 16 -16 12 -16 -5 0 -3 -7 4 -15 6 -8 8 -20 4 -27 -4 -7 -4 -10 1 -6 10
9 35 -37 37 -69 1 -12 6 -23 10 -23 4 0 8 -11 8 -25 0 -14 6 -25 13 -25 8 0 7
-4 -3 -10 -10 -6 -11 -10 -2 -10 6 0 12 -9 12 -21 0 -13 4 -18 13 -13 8 5 8 2
-2 -9 -12 -15 -11 -17 5 -18 12 0 14 -3 6 -6 -11 -4 -10 -8 1 -22 9 -9 17 -27
19 -41 2 -14 9 -24 16 -22 10 2 10 -3 2 -17 -6 -13 -6 -22 0 -26 5 -3 7 -12 3
-20 -3 -8 0 -15 7 -15 9 0 9 -4 -1 -17 -8 -10 -9 -14 -2 -10 7 5 12 1 12 -10
0 -10 1 -34 1 -53 1 -25 4 -30 10 -20 6 9 10 10 10 3 0 -6 -5 -15 -11 -19 -8
-4 -7 -9 2 -14 7 -5 12 -25 11 -51 -1 -23 4 -49 11 -57 7 -10 7 -13 1 -9 -7 4
-11 -2 -11 -18 0 -14 4 -25 9 -25 6 0 6 -6 -1 -14 -7 -9 -8 -17 -2 -20 10 -7
9 -25 -2 -43 -5 -8 -3 -13 5 -13 8 0 9 -3 3 -8 -16 -11 -11 -37 5 -34 10 1 8
-3 -4 -13 -11 -8 -14 -15 -7 -15 16 0 14 -192 -3 -202 -7 -5 -6 -8 4 -8 13 0
13 -1 0 -10 -13 -9 -13 -10 0 -10 13 0 13 -1 0 -10 -13 -9 -13 -10 0 -10 13 0
13 -1 0 -10 -13 -9 -13 -11 0 -20 8 -5 10 -10 4 -10 -6 0 -11 -7 -11 -15 0 -8
5 -15 11 -15 6 0 5 -4 -3 -9 -8 -5 -11 -16 -8 -25 4 -11 1 -16 -11 -17 -16 -1
-16 -2 1 -6 9 -2 15 -9 11 -14 -3 -5 -9 -7 -14 -4 -5 3 -7 -4 -5 -15 2 -11 -1
-20 -6 -20 -6 0 -6 -8 1 -20 7 -13 7 -20 1 -20 -6 0 -7 -7 -4 -17 5 -12 3 -14
-7 -8 -9 5 -11 4 -6 -4 4 -6 3 -18 -4 -26 -8 -10 -8 -15 1 -21 9 -5 7 -11 -6
-20 -10 -7 -16 -21 -13 -31 3 -10 -1 -25 -9 -32 -8 -7 -12 -19 -9 -27 3 -8 1
-14 -4 -14 -5 0 -6 -7 -3 -17 4 -10 2 -14 -4 -10 -10 6 -15 -9 -27 -78 -2 -11
-8 -19 -14 -18 -6 2 -9 -6 -7 -17 2 -11 -1 -20 -6 -20 -6 0 -8 -4 -4 -9 3 -5
1 -12 -5 -16 -6 -4 -8 -10 -5 -15 3 -5 -3 -11 -14 -15 -13 -4 -18 -13 -16 -26
3 -12 0 -17 -7 -13 -7 5 -9 2 -6 -8 4 -9 -4 -22 -18 -33 -13 -10 -24 -22 -24
-27 0 -16 -47 -78 -53 -71 -4 3 -7 -1 -7 -10 0 -10 -5 -17 -11 -17 -5 0 -7 -5
-3 -12 5 -7 2 -9 -9 -5 -11 4 -17 -1 -19 -16 -2 -14 -10 -21 -21 -21 -15 2
-21 -8 -18 -28 0 -4 -7 -4 -16 -1 -11 4 -14 3 -9 -5 4 -7 0 -15 -11 -19 -10
-4 -24 -13 -31 -20 -7 -7 -20 -13 -28 -13 -8 0 -12 -4 -9 -10 3 -6 -5 -10 -19
-10 -20 0 -24 -4 -19 -17 4 -11 3 -14 -6 -9 -6 4 -18 2 -26 -4 -8 -7 -15 -9
-15 -6 0 4 -14 -3 -32 -15 -17 -13 -28 -16 -23 -8 7 11 6 12 -7 2 -8 -7 -18
-10 -21 -6 -4 3 -7 1 -7 -6 0 -7 -4 -9 -10 -6 -5 3 -10 2 -10 -4 0 -5 -9 -8
-20 -6 -11 2 -20 0 -20 -4 0 -9 -6 -10 -68 -15 -23 -2 -46 -7 -50 -11 -4 -5
-1 -5 7 0 9 5 12 4 7 -3 -4 -6 -13 -9 -21 -6 -8 4 -12 11 -8 18 5 8 3 8 -8 1
-8 -6 -27 -12 -44 -13 -16 -2 -44 -8 -61 -13 -18 -5 -36 -9 -40 -8 -5 1 -28 1
-52 0 -30 -1 -41 -5 -36 -13 5 -7 3 -8 -7 -3 -23 15 -69 16 -69 2 0 -8 -4 -7
-10 3 -9 13 -11 13 -20 0 -5 -8 -10 -10 -10 -4 0 7 -18 11 -44 10 -25 0 -43
-3 -40 -7 5 -9 -23 -5 -32 4 -4 3 -16 2 -27 -4 -10 -6 -17 -7 -14 -2 4 6 -8
10 -25 11 -24 1 -28 -2 -18 -8 9 -6 10 -10 3 -10 -6 0 -15 5 -19 11 -4 8 -9 7
-15 -2 -6 -10 -9 -11 -9 -1 0 6 -8 12 -17 12 -15 0 -16 -2 -3 -10 9 -6 10 -10
3 -10 -6 0 -18 7 -26 15 -8 8 -17 11 -21 8 -7 -7 -8 37 -7 340 0 114 4 213 8
220 11 18 13 38 2 31 -5 -3 -9 0 -9 5 0 6 6 11 13 11 7 0 8 3 2 8 -5 4 -11 13
-13 21 -3 12 0 12 12 1 21 -16 21 -6 0 14 -8 9 -11 16 -5 16 6 0 11 5 11 11 0
5 -4 7 -10 4 -5 -3 -10 -1 -10 4 0 6 6 11 13 12 10 0 10 2 0 6 -20 7 -15 23 5
16 14 -5 13 -3 -3 10 -15 13 -16 16 -5 17 13 0 13 1 0 10 -13 9 -13 10 0 10
13 0 13 1 0 10 -10 6 -11 10 -2 10 6 0 12 5 12 11 0 5 -4 8 -8 5 -4 -2 -8 11
-8 30 0 19 5 34 11 34 5 0 3 5 -5 10 -13 9 -13 10 0 10 13 0 13 1 0 10 -10 6
-11 10 -2 10 6 0 12 5 12 11 0 5 -4 7 -10 4 -5 -3 -10 -1 -10 4 0 6 6 11 13
12 10 0 10 2 0 6 -20 7 -15 23 5 17 14 -5 14 -4 -2 6 -15 10 -16 14 -5 21 12
7 11 9 -1 9 -13 0 -13 1 0 10 13 9 13 10 0 10 -13 0 -13 1 0 10 10 6 11 10 3
10 -7 0 -13 5 -13 11 0 6 7 9 14 6 10 -4 13 -1 9 8 -3 8 -9 12 -14 9 -5 -3 -9
0 -9 5 0 6 5 11 10 11 6 0 10 5 10 11 0 5 -3 8 -8 6 -4 -3 -8 12 -8 34 -1 21
2 36 6 34 4 -2 7 2 7 10 0 8 -4 12 -9 9 -4 -3 -8 0 -8 5 0 6 6 11 13 11 8 0 7
4 -3 10 -10 6 -11 10 -2 10 6 0 12 5 12 11 0 5 -6 7 -12 3 -8 -5 -7 0 2 11 9
11 10 16 3 11 -7 -4 -13 -2 -13 3 0 6 8 12 18 12 16 1 16 2 -1 6 -15 4 -16 7
-5 21 10 12 10 14 1 8 -7 -4 -13 -2 -13 3 0 6 6 11 13 11 8 0 7 4 -3 10 -10 6
-11 10 -2 10 6 0 12 5 12 11 0 5 -4 8 -8 5 -11 -7 -9 45 2 63 6 10 6 12 -2 7
-7 -4 -12 -2 -12 3 0 6 6 11 13 11 8 0 7 4 -3 10 -10 6 -11 10 -2 10 6 0 12 5
12 11 0 5 -4 8 -8 5 -11 -7 -9 45 2 63 6 10 6 12 -2 7 -7 -4 -12 -2 -12 3 0 6
6 11 13 11 8 0 7 4 -3 10 -13 9 -13 10 0 10 9 0 11 3 5 8 -5 4 -11 13 -13 21
-3 12 0 12 13 1 13 -11 15 -10 9 4 -3 9 -10 16 -15 16 -5 0 -9 5 -9 11 0 5 6
7 13 3 6 -4 9 -4 5 1 -4 4 -2 15 5 24 10 14 10 14 -4 3 -15 -11 -17 -10 -15
11 0 15 6 23 13 20 8 -3 11 3 8 17 -2 13 0 30 5 40 6 11 5 21 -3 30 -7 7 -7
10 -2 7 6 -3 15 6 22 19 8 18 8 24 0 24 -8 0 -8 3 -2 8 11 8 18 27 19 54 0 13
3 15 15 5 11 -10 13 -8 7 11 -5 13 -3 22 3 22 6 0 11 11 11 24 0 28 24 79 33
69 4 -3 5 4 2 16 -2 11 1 21 6 21 6 0 7 5 4 10 -3 6 -2 10 4 10 5 0 11 10 13
23 2 12 9 21 15 20 7 -2 10 7 7 22 -3 16 2 28 16 38 11 7 17 17 13 20 -3 4 2
7 12 7 15 0 15 2 5 16 -11 12 -11 15 0 12 8 -2 14 3 15 10 0 8 9 20 19 28 13
9 15 14 6 14 -7 0 1 13 18 28 18 16 32 34 32 41 0 6 7 14 15 17 8 4 12 11 8
17 -3 5 -2 7 4 4 6 -4 19 1 29 9 10 9 12 13 4 9 -8 -4 -6 1 4 9 11 9 24 16 29
16 4 0 6 4 3 8 -3 5 11 18 32 29 20 11 36 25 35 31 -1 5 4 13 13 16 10 4 13 2
8 -7 -4 -6 3 -2 15 11 12 12 28 22 35 22 8 0 18 6 24 13 6 7 23 14 39 15 15 1
34 10 41 19 6 9 12 14 12 10 0 -4 10 -3 21 4 17 9 20 8 13 -3 -6 -10 -5 -11 8
-1 8 7 18 10 21 6 4 -3 7 -1 7 5 0 14 22 12 32 -3 4 -6 8 -1 9 10 0 13 3 15 6
6 4 -11 7 -11 13 0z m-2190 -2667 c0 -8 -19 -13 -24 -6 -3 5 1 9 9 9 8 0 15
-2 15 -3z m-3150 -1008 c0 -3 -4 -8 -10 -11 -5 -3 -10 -1 -10 4 0 6 5 11 10
11 6 0 10 -2 10 -4z"/>
<path d="M7874 11536 c6 -17 5 -17 -11 -5 -11 9 -14 10 -9 1 4 -7 1 -14 -7
-18 -16 -6 -17 -20 -3 -43 6 -9 5 -12 -1 -8 -5 4 -10 -7 -10 -23 0 -17 4 -30
9 -30 5 0 6 -6 1 -12 -12 -20 -11 -88 1 -88 7 0 7 -3 1 -8 -15 -10 -18 -55 -3
-46 7 5 8 3 3 -7 -13 -20 -13 -89 -1 -89 8 0 8 -3 1 -8 -12 -8 -13 -22 -3 -38
4 -6 4 -14 1 -18 -12 -11 -10 -106 2 -106 7 0 7 -3 0 -8 -6 -4 -11 -16 -11
-27 0 -11 5 -23 11 -27 6 -5 6 -8 0 -8 -6 0 -10 -20 -11 -44 0 -27 4 -42 9
-39 6 4 7 1 2 -8 -13 -20 -15 -58 -4 -65 5 -3 6 -10 3 -16 -11 -17 -12 -88 -2
-94 4 -3 5 -11 1 -17 -12 -20 -12 -37 0 -37 8 0 8 -3 2 -8 -13 -9 -14 -75 0
-84 7 -5 7 -8 0 -8 -6 0 -11 -11 -11 -25 0 -14 5 -25 11 -25 6 0 7 -3 0 -8
-14 -9 -14 -85 -1 -94 7 -5 7 -8 1 -8 -5 0 -11 -11 -11 -25 -1 -15 2 -22 9
-18 6 4 7 1 2 -8 -13 -20 -13 -89 -1 -89 8 0 8 -3 1 -8 -12 -8 -13 -22 -3 -38
4 -6 4 -14 1 -18 -12 -11 -10 -106 2 -106 7 0 7 -3 0 -8 -6 -4 -11 -16 -11
-27 0 -11 5 -23 11 -27 6 -5 6 -8 0 -8 -6 0 -10 -20 -11 -44 0 -27 4 -42 9
-39 6 4 7 1 2 -8 -13 -20 -15 -58 -4 -65 5 -3 6 -10 3 -16 -11 -17 -12 -88 -2
-94 4 -3 5 -11 1 -17 -12 -20 -12 -37 0 -37 8 0 8 -3 2 -8 -13 -9 -14 -75 0
-84 7 -5 7 -8 0 -8 -6 0 -11 -11 -11 -25 0 -14 5 -25 11 -25 6 0 7 -3 0 -8
-14 -9 -14 -85 -1 -94 7 -5 7 -8 1 -8 -5 0 -11 -11 -11 -25 -1 -15 2 -22 9
-18 6 4 7 1 2 -8 -13 -20 -13 -89 -1 -89 6 0 5 -4 -2 -9 -15 -9 -15 -20 -1
-37 5 -6 6 -14 2 -18 -12 -11 -10 -106 2 -106 7 0 7 -3 0 -8 -6 -4 -11 -16
-11 -27 0 -11 5 -23 11 -27 6 -5 6 -8 0 -8 -6 0 -10 -20 -11 -44 0 -27 4 -42
9 -39 6 4 7 1 2 -8 -13 -20 -15 -58 -4 -65 5 -3 6 -10 3 -16 -11 -17 -12 -88
-2 -94 4 -3 5 -11 1 -17 -12 -20 -12 -37 0 -37 8 0 8 -3 2 -8 -13 -9 -14 -75
0 -84 7 -5 7 -8 0 -8 -6 0 -11 -11 -11 -25 0 -14 5 -25 11 -25 6 0 7 -3 0 -8
-14 -9 -14 -85 -1 -94 7 -5 7 -8 1 -8 -5 0 -11 -11 -11 -25 -1 -15 2 -22 9
-18 6 4 7 1 2 -8 -13 -20 -13 -89 -1 -89 8 0 8 -3 1 -8 -12 -8 -13 -22 -3 -38
4 -6 4 -14 1 -18 -12 -11 -10 -86 2 -86 7 0 7 -3 0 -8 -6 -4 -11 -16 -11 -27
0 -11 5 -23 11 -27 6 -5 6 -8 -2 -8 -6 0 -10 -8 -8 -17 2 -10 4 -20 4 -23 2
-9 1351 -6 1351 3 0 5 4 6 8 3 5 -3 9 1 9 9 0 8 -3 12 -7 10 -4 -2 -7 2 -7 10
0 8 4 12 8 9 4 -2 7 5 6 16 -1 11 -6 20 -12 20 -5 0 -3 5 5 10 12 8 13 11 1
19 -9 6 -10 10 -2 16 9 5 9 10 1 20 -8 10 -8 15 1 20 8 6 7 10 -2 16 -12 7
-12 9 0 9 11 0 11 3 1 15 -10 12 -10 18 0 30 10 12 10 15 -1 15 -11 0 -11 2 1
10 13 9 13 11 0 20 -10 6 -11 10 -2 10 6 0 12 5 12 11 0 5 -6 7 -12 3 -10 -6
-10 -4 0 8 10 13 10 17 0 21 -11 4 -10 6 0 6 8 1 10 6 5 14 -11 18 -13 38 -2
31 5 -3 9 -1 9 5 0 5 -5 13 -10 16 -8 5 -7 11 1 21 9 11 8 14 -2 14 -12 0 -12
2 0 9 9 6 10 10 2 16 -9 5 -9 10 -1 20 8 10 7 14 -2 18 -10 4 -10 6 1 6 11 1
11 4 1 16 -10 12 -10 18 0 30 10 12 10 15 -1 15 -11 0 -11 2 1 10 13 9 13 11
0 20 -10 6 -11 10 -2 10 6 0 12 5 12 11 0 5 -6 7 -12 3 -10 -6 -10 -4 0 8 10
13 10 17 0 21 -11 4 -10 6 0 6 8 1 10 6 5 14 -11 18 -13 38 -2 31 5 -3 9 -1 9
5 0 5 -5 13 -10 16 -8 5 -7 11 1 21 9 11 8 14 -2 14 -12 0 -12 2 0 9 9 6 10
10 2 16 -9 5 -9 10 -1 20 8 10 7 14 -2 18 -10 4 -10 6 1 6 11 1 11 4 1 16 -10
12 -10 18 0 30 10 12 10 15 -1 15 -11 0 -11 2 1 10 13 9 13 11 0 20 -8 5 -10
10 -4 10 6 0 11 7 11 15 0 8 -5 15 -11 15 -6 0 -4 5 4 10 12 8 13 11 1 19 -9
6 -10 11 -2 15 6 4 11 12 11 17 0 6 -6 7 -12 3 -9 -5 -9 -2 1 9 11 14 11 17 0
17 -8 0 -5 6 7 15 13 10 14 13 3 10 -16 -6 -20 19 -6 42 4 6 1 14 -5 16 -10 4
-10 6 0 6 8 1 10 6 5 14 -11 18 -13 38 -2 31 5 -3 9 -1 9 5 0 5 -5 13 -10 16
-8 5 -7 11 1 21 9 11 8 14 -2 14 -12 0 -12 2 0 9 9 6 10 10 2 16 -9 5 -9 10
-1 20 8 10 7 14 -2 18 -10 4 -10 6 1 6 11 1 11 4 1 16 -10 12 -10 18 0 30 10
12 10 15 -1 15 -11 0 -11 2 1 10 13 9 13 11 0 20 -8 5 -10 10 -4 10 6 0 11 7
11 15 0 8 -5 15 -11 15 -6 0 -4 5 4 10 12 8 13 11 1 19 -9 6 -10 11 -2 15 6 4
11 12 11 17 0 6 -6 7 -12 3 -9 -5 -9 -2 1 9 11 14 11 17 0 17 -8 0 -5 6 7 15
18 14 18 15 0 9 -16 -6 -17 -4 -7 14 9 17 9 22 -1 22 -6 0 -3 7 8 15 13 10 14
13 3 10 -11 -4 -15 0 -14 14 1 11 4 24 8 27 12 12 8 26 -5 18 -10 -6 -10 -4 0
8 10 13 10 17 0 21 -10 4 -10 6 1 6 11 1 11 4 0 18 -10 11 -10 14 -1 9 6 -4
12 -2 12 3 0 6 -5 11 -12 11 -6 0 -3 7 8 15 13 10 14 13 3 10 -11 -4 -15 0
-14 14 1 11 4 24 8 27 12 12 8 26 -5 18 -9 -5 -9 -2 1 9 11 14 11 17 0 17 -12
0 -12 2 0 9 9 6 10 10 2 16 -9 5 -9 10 0 21 9 11 8 14 -2 14 -11 0 -11 2 1 10
12 8 13 11 1 19 -9 6 -10 11 -2 15 6 4 11 12 11 17 0 6 -6 7 -12 3 -9 -5 -9
-2 1 9 11 14 11 17 0 17 -8 0 -5 6 7 15 13 10 14 13 3 10 -16 -6 -20 19 -6 42
4 6 1 14 -5 16 -10 4 -10 6 0 6 8 1 10 6 5 14 -11 18 -13 38 -2 31 5 -3 9 -1
9 5 0 5 -5 13 -10 16 -8 5 -8 11 0 20 8 10 7 14 -2 18 -10 4 -10 6 1 6 10 1
11 4 2 15 -9 11 -9 16 0 21 8 6 7 10 -2 16 -12 7 -12 9 0 9 11 0 11 3 1 15
-10 12 -10 18 0 30 10 12 10 15 -1 15 -11 0 -11 2 1 10 13 9 13 11 0 20 -8 5
-10 10 -4 10 6 0 11 7 11 15 0 8 -5 15 -11 15 -6 0 -4 5 4 10 12 8 13 11 1 19
-9 6 -10 11 -2 15 6 4 11 12 11 17 0 6 -6 7 -12 3 -9 -5 -9 -2 1 9 11 14 11
17 0 17 -8 0 -5 6 7 15 18 14 18 15 0 9 -16 -6 -17 -4 -7 14 9 17 9 22 -1 22
-6 0 -3 7 8 15 13 10 14 13 3 10 -11 -4 -15 0 -14 14 1 11 4 24 8 27 12 12 8
26 -5 18 -10 -6 -10 -4 0 8 10 13 10 17 0 21 -10 4 -10 6 1 6 11 1 11 4 0 18
-10 11 -10 14 -1 9 6 -4 12 -2 12 3 0 6 -5 11 -12 11 -6 0 -3 7 8 15 13 10 14
13 3 10 -11 -4 -15 0 -14 14 1 11 4 24 8 27 12 12 8 26 -5 18 -9 -5 -9 -2 1 9
11 14 11 17 0 17 -12 0 -12 2 0 9 9 6 10 10 2 16 -9 5 -9 10 0 21 9 11 8 14
-2 14 -11 0 -11 2 1 10 12 8 13 11 1 19 -9 6 -10 11 -2 15 6 4 11 12 11 17 0
6 -6 7 -12 3 -9 -5 -9 -2 1 9 11 14 11 17 0 17 -8 0 -5 6 7 15 13 10 14 13 3
10 -16 -6 -20 19 -6 42 4 6 1 14 -5 16 -10 4 -10 6 0 6 8 1 10 6 5 14 -11 18
-13 38 -2 31 5 -3 9 -1 9 5 0 5 -5 13 -10 16 -8 5 -8 11 0 20 8 10 7 14 -2 18
-10 4 -10 6 1 6 10 1 11 4 2 15 -9 11 -9 16 0 21 8 6 7 10 -2 16 -12 7 -12 9
0 9 11 0 11 3 1 15 -10 12 -10 18 0 30 10 12 10 15 -1 15 -11 0 -11 2 1 10 13
9 13 11 0 20 -8 5 -10 10 -4 10 6 0 11 7 11 15 0 8 -5 15 -11 15 -6 0 -4 5 4
10 12 8 13 11 1 19 -9 6 -10 11 -2 15 6 4 11 12 11 17 0 6 -6 7 -12 3 -9 -5
-9 -2 1 9 9 11 10 17 2 17 -6 0 -11 5 -11 11 0 5 4 8 9 4 5 -3 13 -1 16 5 4 6
1 9 -6 8 -7 -2 -14 3 -15 10 -1 6 -2 16 -3 20 0 4 -10 8 -21 8 -11 0 -20 -4
-20 -8 0 -4 -5 -8 -11 -8 -5 0 -7 4 -4 10 7 12 -23 2 -44 -14 -11 -8 -13 -8
-8 0 4 7 0 14 -8 18 -8 3 -15 1 -15 -4 0 -6 -5 -10 -11 -10 -5 0 -8 4 -5 9 10
15 -28 7 -42 -9 -10 -11 -12 -11 -6 -1 5 11 2 13 -14 9 -12 -3 -23 -1 -26 6
-3 7 -5 7 -5 -2 -1 -10 -6 -10 -21 -2 -11 6 -20 7 -20 1 0 -5 -7 -12 -16 -15
-14 -5 -15 -4 -4 9 11 14 10 14 -13 6 -16 -6 -29 -7 -32 -1 -3 5 -15 6 -28 1
-14 -6 -30 -5 -42 1 -15 9 -17 8 -12 -8 7 -18 6 -18 -8 0 -8 11 -15 14 -15 8
0 -10 -5 -10 -20 -2 -14 7 -20 7 -20 0 0 -5 -5 -10 -11 -10 -5 0 -8 4 -5 8 5
9 -63 6 -72 -3 -3 -2 -11 0 -19 6 -9 9 -13 8 -13 0 0 -6 -5 -11 -11 -11 -5 0
-8 3 -6 8 3 4 -12 7 -34 7 -21 0 -39 -4 -39 -10 0 -5 -5 -3 -10 5 -5 8 -10 10
-10 4 0 -12 -41 -11 -61 2 -9 5 -10 2 -6 -9 4 -11 2 -14 -8 -10 -8 3 -13 9
-10 13 3 4 -12 6 -33 3 -20 -3 -45 -5 -55 -4 -9 0 -15 -4 -12 -9 3 -6 -1 -7
-9 -4 -9 3 -13 10 -10 15 3 5 -5 5 -18 0 -15 -5 -31 -5 -41 0 -11 6 -17 6 -17
1 0 -6 -7 -13 -16 -16 -15 -6 -15 -4 -3 11 9 10 9 14 2 10 -20 -13 -82 -14
-87 -3 -3 6 -5 6 -5 -2 -1 -10 -6 -10 -23 -1 -18 10 -20 9 -15 -4 4 -11 2 -14
-8 -10 -8 3 -13 8 -11 12 3 4 -4 7 -15 7 -10 0 -19 -4 -19 -8 0 -5 -9 -4 -20
2 -16 9 -20 8 -21 -7 0 -16 -1 -16 -9 2 -5 11 -9 15 -9 9 -1 -15 -41 -10 -53
7 -8 11 -9 10 -4 -5z"/>
</g>
</svg>
